<svg width="320" height="435" viewBox="0 0 320 435" fill="none" xmlns="http://www.w3.org/2000/svg">
<rect y="1.89844" width="319.015" height="430.101" rx="15" fill="#0F954B"/>
<g filter="url(#filter0_d)">
<path d="M48.8968 58.8654C5.98167 60.3845 4.74738 128.175 9.49464 161.881C15.1915 194.637 9.49464 319.015 48.8968 336.58C88.299 354.145 63.6131 417.283 85.4505 424.404C107.288 431.525 166.629 422.505 203.657 395.446C240.686 368.386 303.349 372.659 309.046 333.257C314.743 293.855 312.844 221.696 294.33 201.758C275.815 181.819 296.703 106.813 312.844 48.8963C328.985 -9.02019 265.371 11.3929 234.514 7.12035C203.657 2.84783 172.8 10.9182 150.488 21.3621C128.176 31.8061 102.541 56.9665 48.8968 58.8654Z" fill="#0A793C"/>
</g>
<rect x="18.9893" y="29.4336" width="280.088" height="386.426" rx="10" fill="white"/>
<path d="M41.3625 56.7702V52.3962H43.9185C45.4485 52.3962 46.3845 53.2602 46.3845 54.6102C46.3845 55.9242 45.4485 56.7702 43.9185 56.7702H41.3625ZM44.2425 58.3542C46.6005 58.3542 48.1845 56.7522 48.1845 54.5922C48.1845 52.4502 46.6005 50.8122 44.2425 50.8122H39.5985V63.5742H41.3625V58.3542H44.2425ZM51.675 58.4802C51.711 57.2022 52.395 56.1942 53.691 56.1942C55.203 56.1942 55.707 57.1662 55.707 58.3722V63.5742H57.399V58.0842C57.399 56.1582 56.373 54.6642 54.303 54.6642C53.313 54.6642 52.305 55.0062 51.675 55.9242V50.5422H49.983V63.5742H51.675V58.4802ZM63.7984 62.3322C62.3584 62.3322 61.0984 61.2522 61.0984 59.2362C61.0984 57.2382 62.3584 56.1582 63.7984 56.1582C65.2384 56.1582 66.4984 57.2382 66.4984 59.2362C66.4984 61.2522 65.2384 62.3322 63.7984 62.3322ZM63.7984 54.6462C61.2064 54.6462 59.3704 56.6082 59.3704 59.2362C59.3704 61.8822 61.2064 63.8442 63.7984 63.8442C66.3904 63.8442 68.2264 61.8822 68.2264 59.2362C68.2264 56.6082 66.3904 54.6462 63.7984 54.6462ZM72.5713 52.1802H71.0233V53.5842C71.0233 54.3402 70.6273 54.9162 69.6913 54.9162H69.2233V56.4462H70.8793V61.1982C70.8793 62.7642 71.8153 63.6642 73.2913 63.6642C73.8673 63.6642 74.2993 63.5562 74.4433 63.5022V62.0622C74.2993 62.0982 73.9933 62.1342 73.7773 62.1342C72.8953 62.1342 72.5713 61.7382 72.5713 60.9462V56.4462H74.4433V54.9162H72.5713V52.1802ZM80.3218 62.3322C78.8818 62.3322 77.6218 61.2522 77.6218 59.2362C77.6218 57.2382 78.8818 56.1582 80.3218 56.1582C81.7618 56.1582 83.0218 57.2382 83.0218 59.2362C83.0218 61.2522 81.7618 62.3322 80.3218 62.3322ZM80.3218 54.6462C77.7298 54.6462 75.8938 56.6082 75.8938 59.2362C75.8938 61.8822 77.7298 63.8442 80.3218 63.8442C82.9138 63.8442 84.7498 61.8822 84.7498 59.2362C84.7498 56.6082 82.9138 54.6462 80.3218 54.6462ZM97.1206 63.8442C100.055 63.8442 102.071 62.1342 102.755 59.7402L101.189 59.1642C100.667 60.9102 99.2986 62.2242 97.1206 62.2242C94.7986 62.2242 92.5846 60.5142 92.5846 57.1842C92.5846 53.8542 94.7986 52.1622 97.1206 52.1622C99.2086 52.1622 100.613 53.2422 101.099 55.1682L102.737 54.5922C102.089 52.1262 100.037 50.5422 97.1206 50.5422C93.9526 50.5422 90.7846 52.9182 90.7846 57.1842C90.7846 61.4502 93.8266 63.8442 97.1206 63.8442ZM108.271 62.3322C106.831 62.3322 105.571 61.2522 105.571 59.2362C105.571 57.2382 106.831 56.1582 108.271 56.1582C109.711 56.1582 110.971 57.2382 110.971 59.2362C110.971 61.2522 109.711 62.3322 108.271 62.3322ZM108.271 54.6462C105.679 54.6462 103.843 56.6082 103.843 59.2362C103.843 61.8822 105.679 63.8442 108.271 63.8442C110.863 63.8442 112.699 61.8822 112.699 59.2362C112.699 56.6082 110.863 54.6462 108.271 54.6462ZM116.556 58.5702C116.556 57.2562 117.24 56.1942 118.572 56.1942C120.084 56.1942 120.588 57.1662 120.588 58.3722V63.5742H122.28V58.0842C122.28 56.1582 121.254 54.6642 119.184 54.6642C118.176 54.6642 117.15 55.0782 116.52 56.1582V54.9162H114.864V63.5742H116.556V58.5702ZM127.239 52.1802H125.691V53.5842C125.691 54.3402 125.295 54.9162 124.359 54.9162H123.891V56.4462H125.547V61.1982C125.547 62.7642 126.483 63.6642 127.959 63.6642C128.535 63.6642 128.967 63.5562 129.111 63.5022V62.0622C128.967 62.0982 128.661 62.1342 128.445 62.1342C127.563 62.1342 127.239 61.7382 127.239 60.9462V56.4462H129.111V54.9162H127.239V52.1802ZM132.38 58.3542C132.452 57.2382 133.316 56.1402 134.738 56.1402C136.268 56.1402 137.078 57.1122 137.114 58.3542H132.38ZM137.366 60.6042C137.042 61.5762 136.34 62.3502 134.936 62.3502C133.478 62.3502 132.362 61.2702 132.326 59.7222H138.842C138.86 59.6142 138.878 59.3982 138.878 59.1822C138.878 56.4822 137.384 54.6462 134.72 54.6462C132.542 54.6462 130.58 56.5002 130.58 59.2182C130.58 62.1522 132.614 63.8442 134.936 63.8442C136.952 63.8442 138.338 62.6382 138.824 61.1082L137.366 60.6042ZM140.228 61.3242C140.372 62.3142 141.38 63.8442 143.756 63.8442C145.898 63.8442 146.924 62.3862 146.924 61.1622C146.924 59.8842 146.096 58.9302 144.53 58.5882L143.126 58.2822C142.46 58.1382 142.136 57.7602 142.136 57.2382C142.136 56.6442 142.712 56.0862 143.576 56.0862C144.944 56.0862 145.304 57.0762 145.376 57.5262L146.87 56.9682C146.69 56.1942 145.952 54.6462 143.576 54.6462C141.884 54.6462 140.498 55.9062 140.498 57.3822C140.498 58.6062 141.308 59.5242 142.658 59.8122L144.134 60.1362C144.854 60.2982 145.25 60.7122 145.25 61.2522C145.25 61.8642 144.728 62.4042 143.774 62.4042C142.55 62.4042 141.866 61.6842 141.758 60.7842L140.228 61.3242ZM151.444 52.1802H149.896V53.5842C149.896 54.3402 149.5 54.9162 148.564 54.9162H148.096V56.4462H149.752V61.1982C149.752 62.7642 150.688 63.6642 152.164 63.6642C152.74 63.6642 153.172 63.5562 153.316 63.5022V62.0622C153.172 62.0982 152.866 62.1342 152.65 62.1342C151.768 62.1342 151.444 61.7382 151.444 60.9462V56.4462H153.316V54.9162H151.444V52.1802ZM168.013 63.5742V61.9362H162.019V58.0302H167.455V56.3742H162.019V52.4502H168.013V50.8122H160.255V63.5742H168.013ZM171.962 58.5702C171.962 57.2562 172.646 56.1942 173.978 56.1942C175.49 56.1942 175.994 57.1662 175.994 58.3722V63.5742H177.686V58.0842C177.686 56.1582 176.66 54.6642 174.59 54.6642C173.582 54.6642 172.556 55.0782 171.926 56.1582V54.9162H170.27V63.5742H171.962V58.5702ZM182.646 52.1802H181.098V53.5842C181.098 54.3402 180.702 54.9162 179.766 54.9162H179.298V56.4462H180.954V61.1982C180.954 62.7642 181.89 63.6642 183.366 63.6642C183.942 63.6642 184.374 63.5562 184.518 63.5022V62.0622C184.374 62.0982 184.068 62.1342 183.852 62.1342C182.97 62.1342 182.646 61.7382 182.646 60.9462V56.4462H184.518V54.9162H182.646V52.1802ZM191.406 54.8262C191.316 54.8082 191.082 54.7722 190.848 54.7722C189.966 54.7722 188.886 55.0962 188.256 56.4282V54.9162H186.6V63.5742H188.292V59.2362C188.292 57.3282 189.246 56.5722 190.668 56.5722C190.902 56.5722 191.154 56.5902 191.406 56.6262V54.8262ZM195.633 67.1922L201.267 54.9162H199.449L196.857 60.8922L194.157 54.9162H192.213L195.939 62.6202L193.779 67.1922H195.633Z" fill="black"/>
<path d="M18.9893 79.7539H299.077" stroke="#D3D6EB" stroke-width="0.5"/>
<path d="M39.8585 105.896V102.916H42.8785V101.996H39.8585V99.7155H43.1885V98.8055H38.8785V105.896H39.8585ZM47.0071 105.316C47.0071 105.516 47.0271 105.786 47.0471 105.896H47.9471C47.9271 105.726 47.8971 105.386 47.8971 105.006V101.086H46.9571V103.986C46.9571 104.716 46.5771 105.216 45.8171 105.216C45.0271 105.216 44.7271 104.636 44.7271 103.976V101.086H43.7871V104.116C43.7871 105.206 44.4671 106.046 45.5871 106.046C46.1471 106.046 46.7471 105.816 47.0071 105.316ZM50.4412 105.896V98.6555H49.5012V105.896H50.4412ZM52.9802 105.896V98.6555H52.0402V105.896H52.9802ZM63.0093 105.896V98.8055H62.0293V104.246L58.4893 98.8055H57.1793V105.896H58.1593V100.116L61.9893 105.896H63.0093ZM64.3574 104.606C64.3574 105.366 64.9874 106.046 65.9674 106.046C66.8274 106.046 67.3074 105.586 67.5174 105.246C67.5174 105.596 67.5474 105.776 67.5674 105.896H68.4874C68.4674 105.776 68.4274 105.526 68.4274 105.106V102.696C68.4274 101.756 67.8674 100.936 66.4274 100.936C65.3874 100.936 64.5574 101.576 64.4574 102.496L65.3574 102.706C65.4174 102.146 65.7874 101.736 66.4474 101.736C67.1774 101.736 67.4874 102.126 67.4874 102.596C67.4874 102.766 67.4074 102.916 67.1174 102.956L65.8174 103.146C64.9874 103.266 64.3574 103.746 64.3574 104.606ZM66.0974 105.256C65.6174 105.256 65.3174 104.916 65.3174 104.556C65.3174 104.126 65.6174 103.896 66.0174 103.836L67.4874 103.616V103.836C67.4874 104.886 66.8674 105.256 66.0974 105.256ZM70.8218 105.896V102.996C70.8218 102.276 71.2718 101.776 71.9418 101.776C72.6618 101.776 72.9618 102.256 72.9618 102.876V105.896H73.9018V102.986C73.9018 102.296 74.3518 101.776 75.0118 101.776C75.7218 101.776 76.0318 102.246 76.0318 102.876V105.896H76.9618V102.776C76.9618 101.516 76.1418 100.946 75.3018 100.946C74.6918 100.946 74.0718 101.166 73.6918 101.856C73.4318 101.236 72.8518 100.946 72.2518 100.946C71.6918 100.946 71.0918 101.196 70.7918 101.726V101.086H69.8918V105.896H70.8218ZM79.076 102.996C79.116 102.376 79.596 101.766 80.386 101.766C81.236 101.766 81.686 102.306 81.706 102.996H79.076ZM81.846 104.246C81.666 104.786 81.276 105.216 80.496 105.216C79.686 105.216 79.066 104.616 79.046 103.756H82.666C82.676 103.696 82.686 103.576 82.686 103.456C82.686 101.956 81.856 100.936 80.376 100.936C79.166 100.936 78.076 101.966 78.076 103.476C78.076 105.106 79.206 106.046 80.496 106.046C81.616 106.046 82.386 105.376 82.656 104.526L81.846 104.246Z" fill="black"/>
<path d="M43.1885 158.115V157.205H39.8585V155.035H42.8785V154.115H39.8585V151.935H43.1885V151.025H38.8785V158.115H43.1885ZM46.9002 155.655V154.835H44.1902V155.655H46.9002ZM49.0835 158.115V155.215C49.0835 154.495 49.5335 153.995 50.2035 153.995C50.9235 153.995 51.2235 154.475 51.2235 155.095V158.115H52.1635V155.205C52.1635 154.515 52.6135 153.995 53.2735 153.995C53.9835 153.995 54.2935 154.465 54.2935 155.095V158.115H55.2235V154.995C55.2235 153.735 54.4035 153.165 53.5635 153.165C52.9535 153.165 52.3335 153.385 51.9535 154.075C51.6935 153.455 51.1135 153.165 50.5135 153.165C49.9535 153.165 49.3535 153.415 49.0535 153.945V153.305H48.1535V158.115H49.0835ZM56.4277 156.825C56.4277 157.585 57.0577 158.265 58.0377 158.265C58.8977 158.265 59.3777 157.805 59.5877 157.465C59.5877 157.815 59.6177 157.995 59.6377 158.115H60.5577C60.5377 157.995 60.4977 157.745 60.4977 157.325V154.915C60.4977 153.975 59.9377 153.155 58.4977 153.155C57.4577 153.155 56.6277 153.795 56.5277 154.715L57.4277 154.925C57.4877 154.365 57.8577 153.955 58.5177 153.955C59.2477 153.955 59.5577 154.345 59.5577 154.815C59.5577 154.985 59.4777 155.135 59.1877 155.175L57.8877 155.365C57.0577 155.485 56.4277 155.965 56.4277 156.825ZM58.1677 157.475C57.6877 157.475 57.3877 157.135 57.3877 156.775C57.3877 156.345 57.6877 156.115 58.0877 156.055L59.5577 155.835V156.055C59.5577 157.105 58.9377 157.475 58.1677 157.475ZM62.8921 158.115V153.305H61.9621V158.115H62.8921ZM61.7521 151.485C61.7521 151.855 62.0521 152.155 62.4221 152.155C62.8021 152.155 63.1021 151.855 63.1021 151.485C63.1021 151.105 62.8021 150.805 62.4221 150.805C62.0521 150.805 61.7521 151.105 61.7521 151.485ZM65.4314 158.115V150.875H64.4914V158.115H65.4314Z" fill="black"/>
<path d="M41.3285 216.03C42.7685 216.03 43.8785 215.13 43.8785 213.46V208.79H42.8985V213.43C42.8985 214.51 42.3285 215.12 41.3285 215.12C40.3385 215.12 39.7485 214.51 39.7485 213.43V208.79H38.7785V213.46C38.7785 215.13 39.8885 216.03 41.3285 216.03ZM46.3589 217.78V215.23C46.6189 215.66 47.1789 216.01 47.9189 216.01C49.3289 216.01 50.1589 214.9 50.1589 213.47C50.1589 212.07 49.3889 210.96 47.9489 210.96C47.1689 210.96 46.5989 211.34 46.3389 211.82V211.07H45.4289V217.78H46.3589ZM49.1989 213.47C49.1989 214.46 48.6489 215.17 47.7789 215.17C46.9189 215.17 46.3489 214.46 46.3489 213.47C46.3489 212.51 46.9189 211.79 47.7789 211.79C48.6589 211.79 49.1989 212.51 49.1989 213.47ZM52.2966 215.88V208.64H51.3566V215.88H52.2966ZM55.9557 215.19C55.1557 215.19 54.4557 214.59 54.4557 213.47C54.4557 212.36 55.1557 211.76 55.9557 211.76C56.7557 211.76 57.4557 212.36 57.4557 213.47C57.4557 214.59 56.7557 215.19 55.9557 215.19ZM55.9557 210.92C54.5157 210.92 53.4957 212.01 53.4957 213.47C53.4957 214.94 54.5157 216.03 55.9557 216.03C57.3957 216.03 58.4157 214.94 58.4157 213.47C58.4157 212.01 57.3957 210.92 55.9557 210.92ZM59.3184 214.59C59.3184 215.35 59.9484 216.03 60.9284 216.03C61.7884 216.03 62.2684 215.57 62.4784 215.23C62.4784 215.58 62.5084 215.76 62.5284 215.88H63.4484C63.4284 215.76 63.3884 215.51 63.3884 215.09V212.68C63.3884 211.74 62.8284 210.92 61.3884 210.92C60.3484 210.92 59.5184 211.56 59.4184 212.48L60.3184 212.69C60.3784 212.13 60.7484 211.72 61.4084 211.72C62.1384 211.72 62.4484 212.11 62.4484 212.58C62.4484 212.75 62.3684 212.9 62.0784 212.94L60.7784 213.13C59.9484 213.25 59.3184 213.73 59.3184 214.59ZM61.0584 215.24C60.5784 215.24 60.2784 214.9 60.2784 214.54C60.2784 214.11 60.5784 213.88 60.9784 213.82L62.4484 213.6V213.82C62.4484 214.87 61.8284 215.24 61.0584 215.24ZM65.4127 213.46C65.4127 212.47 65.9727 211.77 66.8327 211.77C67.6927 211.77 68.2127 212.45 68.2127 213.44C68.2127 214.43 67.6827 215.18 66.8227 215.18C65.9227 215.18 65.4127 214.45 65.4127 213.46ZM68.2227 215.23C68.2227 215.52 68.2527 215.77 68.2727 215.88H69.1827C69.1727 215.8 69.1327 215.45 69.1327 214.99V208.64H68.2027V211.75C68.0427 211.36 67.5827 210.94 66.7327 210.94C65.3727 210.94 64.4527 212.1 64.4527 213.46C64.4527 214.89 65.3227 216.01 66.7327 216.01C67.4827 216.01 67.9927 215.61 68.2227 215.15V215.23ZM72.9316 214.59C72.9316 215.35 73.5616 216.03 74.5416 216.03C75.4016 216.03 75.8816 215.57 76.0916 215.23C76.0916 215.58 76.1216 215.76 76.1416 215.88H77.0616C77.0416 215.76 77.0016 215.51 77.0016 215.09V212.68C77.0016 211.74 76.4416 210.92 75.0016 210.92C73.9616 210.92 73.1316 211.56 73.0316 212.48L73.9316 212.69C73.9916 212.13 74.3616 211.72 75.0216 211.72C75.7516 211.72 76.0616 212.11 76.0616 212.58C76.0616 212.75 75.9816 212.9 75.6916 212.94L74.3916 213.13C73.5616 213.25 72.9316 213.73 72.9316 214.59ZM74.6716 215.24C74.1916 215.24 73.8916 214.9 73.8916 214.54C73.8916 214.11 74.1916 213.88 74.5916 213.82L76.0616 213.6V213.82C76.0616 214.87 75.4416 215.24 74.6716 215.24ZM82.046 212.1V209.67H83.466C84.316 209.67 84.836 210.15 84.836 210.9C84.836 211.63 84.316 212.1 83.466 212.1H82.046ZM83.646 212.98C84.956 212.98 85.836 212.09 85.836 210.89C85.836 209.7 84.956 208.79 83.646 208.79H81.066V215.88H82.046V212.98H83.646ZM87.7752 213.05C87.7952 212.34 88.1752 211.78 88.8952 211.78C89.7352 211.78 90.0152 212.32 90.0152 212.99V215.88H90.9552V212.83C90.9552 211.76 90.3852 210.93 89.2352 210.93C88.6852 210.93 88.1252 211.12 87.7752 211.63V208.64H86.8352V215.88H87.7752V213.05ZM94.5104 215.19C93.7104 215.19 93.0104 214.59 93.0104 213.47C93.0104 212.36 93.7104 211.76 94.5104 211.76C95.3104 211.76 96.0104 212.36 96.0104 213.47C96.0104 214.59 95.3104 215.19 94.5104 215.19ZM94.5104 210.92C93.0704 210.92 92.0504 212.01 92.0504 213.47C92.0504 214.94 93.0704 216.03 94.5104 216.03C95.9504 216.03 96.9704 214.94 96.9704 213.47C96.9704 212.01 95.9504 210.92 94.5104 210.92ZM99.3842 209.55H98.5242V210.33C98.5242 210.75 98.3042 211.07 97.7842 211.07H97.5242V211.92H98.4442V214.56C98.4442 215.43 98.9642 215.93 99.7842 215.93C100.104 215.93 100.344 215.87 100.424 215.84V215.04C100.344 215.06 100.174 215.08 100.054 215.08C99.5642 215.08 99.3842 214.86 99.3842 214.42V211.92H100.424V211.07H99.3842V209.55ZM103.69 215.19C102.89 215.19 102.19 214.59 102.19 213.47C102.19 212.36 102.89 211.76 103.69 211.76C104.49 211.76 105.19 212.36 105.19 213.47C105.19 214.59 104.49 215.19 103.69 215.19ZM103.69 210.92C102.25 210.92 101.23 212.01 101.23 213.47C101.23 214.94 102.25 216.03 103.69 216.03C105.13 216.03 106.15 214.94 106.15 213.47C106.15 212.01 105.13 210.92 103.69 210.92Z" fill="black"/>
<path d="M139.426 253.12C140.578 253.12 141.466 252.4 141.466 251.064V247.328H140.682V251.04C140.682 251.904 140.226 252.392 139.426 252.392C138.634 252.392 138.162 251.904 138.162 251.04V247.328H137.386V251.064C137.386 252.4 138.274 253.12 139.426 253.12ZM143.45 254.52V252.48C143.658 252.824 144.106 253.104 144.698 253.104C145.826 253.104 146.49 252.216 146.49 251.072C146.49 249.952 145.874 249.064 144.722 249.064C144.098 249.064 143.642 249.368 143.434 249.752V249.152H142.706V254.52H143.45ZM145.722 251.072C145.722 251.864 145.282 252.432 144.586 252.432C143.898 252.432 143.442 251.864 143.442 251.072C143.442 250.304 143.898 249.728 144.586 249.728C145.29 249.728 145.722 250.304 145.722 251.072ZM148.201 253V247.208H147.449V253H148.201ZM151.128 252.448C150.488 252.448 149.928 251.968 149.928 251.072C149.928 250.184 150.488 249.704 151.128 249.704C151.768 249.704 152.328 250.184 152.328 251.072C152.328 251.968 151.768 252.448 151.128 252.448ZM151.128 249.032C149.976 249.032 149.16 249.904 149.16 251.072C149.16 252.248 149.976 253.12 151.128 253.12C152.28 253.12 153.096 252.248 153.096 251.072C153.096 249.904 152.28 249.032 151.128 249.032ZM153.818 251.968C153.818 252.576 154.322 253.12 155.106 253.12C155.794 253.12 156.178 252.752 156.346 252.48C156.346 252.76 156.37 252.904 156.386 253H157.122C157.106 252.904 157.074 252.704 157.074 252.368V250.44C157.074 249.688 156.626 249.032 155.474 249.032C154.642 249.032 153.978 249.544 153.898 250.28L154.618 250.448C154.666 250 154.962 249.672 155.49 249.672C156.074 249.672 156.322 249.984 156.322 250.36C156.322 250.496 156.258 250.616 156.026 250.648L154.986 250.8C154.322 250.896 153.818 251.28 153.818 251.968ZM155.21 252.488C154.826 252.488 154.586 252.216 154.586 251.928C154.586 251.584 154.826 251.4 155.146 251.352L156.322 251.176V251.352C156.322 252.192 155.826 252.488 155.21 252.488ZM158.693 251.064C158.693 250.272 159.141 249.712 159.829 249.712C160.517 249.712 160.933 250.256 160.933 251.048C160.933 251.84 160.509 252.44 159.821 252.44C159.101 252.44 158.693 251.856 158.693 251.064ZM160.941 252.48C160.941 252.712 160.965 252.912 160.981 253H161.709C161.701 252.936 161.669 252.656 161.669 252.288V247.208H160.925V249.696C160.797 249.384 160.429 249.048 159.749 249.048C158.661 249.048 157.925 249.976 157.925 251.064C157.925 252.208 158.621 253.104 159.749 253.104C160.349 253.104 160.757 252.784 160.941 252.416V252.48ZM164.709 251.968C164.709 252.576 165.213 253.12 165.997 253.12C166.685 253.12 167.069 252.752 167.237 252.48C167.237 252.76 167.261 252.904 167.277 253H168.013C167.997 252.904 167.965 252.704 167.965 252.368V250.44C167.965 249.688 167.517 249.032 166.365 249.032C165.533 249.032 164.869 249.544 164.789 250.28L165.509 250.448C165.557 250 165.853 249.672 166.381 249.672C166.965 249.672 167.213 249.984 167.213 250.36C167.213 250.496 167.149 250.616 166.917 250.648L165.877 250.8C165.213 250.896 164.709 251.28 164.709 251.968ZM166.101 252.488C165.717 252.488 165.477 252.216 165.477 251.928C165.477 251.584 165.717 251.4 166.037 251.352L167.213 251.176V251.352C167.213 252.192 166.717 252.488 166.101 252.488ZM172 253V250.616H174.416V249.88H172V248.056H174.664V247.328H171.216V253H172ZM176.247 253V249.152H175.503V253H176.247ZM175.335 247.696C175.335 247.992 175.575 248.232 175.871 248.232C176.175 248.232 176.415 247.992 176.415 247.696C176.415 247.392 176.175 247.152 175.871 247.152C175.575 247.152 175.335 247.392 175.335 247.696ZM178.279 253V247.208H177.527V253H178.279ZM180.046 250.68C180.078 250.184 180.462 249.696 181.094 249.696C181.774 249.696 182.134 250.128 182.15 250.68H180.046ZM182.262 251.68C182.118 252.112 181.806 252.456 181.182 252.456C180.534 252.456 180.038 251.976 180.022 251.288H182.918C182.926 251.24 182.934 251.144 182.934 251.048C182.934 249.848 182.27 249.032 181.086 249.032C180.118 249.032 179.246 249.856 179.246 251.064C179.246 252.368 180.15 253.12 181.182 253.12C182.078 253.12 182.694 252.584 182.91 251.904L182.262 251.68Z" fill="black"/>
<path d="M118.16 264.304V260.024H119.336C120.384 260.024 121.248 260.744 121.248 262.176C121.248 263.6 120.368 264.304 119.32 264.304H118.16ZM119.344 265C120.784 265 122.056 264.032 122.056 262.176C122.056 260.312 120.8 259.328 119.36 259.328H117.376V265H119.344ZM125.19 261.112C125.15 261.104 125.046 261.088 124.942 261.088C124.55 261.088 124.07 261.232 123.79 261.824V261.152H123.054V265H123.806V263.072C123.806 262.224 124.23 261.888 124.862 261.888C124.966 261.888 125.078 261.896 125.19 261.912V261.112ZM125.752 263.968C125.752 264.576 126.256 265.12 127.04 265.12C127.728 265.12 128.112 264.752 128.28 264.48C128.28 264.76 128.304 264.904 128.32 265H129.056C129.04 264.904 129.008 264.704 129.008 264.368V262.44C129.008 261.688 128.56 261.032 127.408 261.032C126.576 261.032 125.912 261.544 125.832 262.28L126.552 262.448C126.6 262 126.896 261.672 127.424 261.672C128.008 261.672 128.256 261.984 128.256 262.36C128.256 262.496 128.192 262.616 127.96 262.648L126.92 262.8C126.256 262.896 125.752 263.28 125.752 263.968ZM127.144 264.488C126.76 264.488 126.52 264.216 126.52 263.928C126.52 263.584 126.76 263.4 127.08 263.352L128.256 263.176V263.352C128.256 264.192 127.76 264.488 127.144 264.488ZM129.899 265.208C129.995 266.032 130.715 266.64 131.675 266.64C133.123 266.64 133.603 265.688 133.603 264.712V261.152H132.859V261.688C132.667 261.304 132.267 261.08 131.675 261.08C130.619 261.08 129.907 261.912 129.907 262.952C129.907 264.04 130.651 264.816 131.675 264.816C132.251 264.816 132.667 264.536 132.851 264.184V264.736C132.851 265.568 132.483 265.984 131.675 265.984C131.091 265.984 130.683 265.576 130.627 265.04L129.899 265.208ZM131.787 264.184C131.107 264.184 130.675 263.704 130.675 262.952C130.675 262.208 131.123 261.72 131.787 261.72C132.435 261.72 132.883 262.208 132.883 262.952C132.883 263.696 132.435 264.184 131.787 264.184ZM136.564 263.968C136.564 264.576 137.068 265.12 137.852 265.12C138.54 265.12 138.924 264.752 139.092 264.48C139.092 264.76 139.116 264.904 139.132 265H139.868C139.852 264.904 139.82 264.704 139.82 264.368V262.44C139.82 261.688 139.372 261.032 138.22 261.032C137.388 261.032 136.724 261.544 136.644 262.28L137.364 262.448C137.412 262 137.708 261.672 138.236 261.672C138.82 261.672 139.068 261.984 139.068 262.36C139.068 262.496 139.004 262.616 138.772 262.648L137.732 262.8C137.068 262.896 136.564 263.28 136.564 263.968ZM137.956 264.488C137.572 264.488 137.332 264.216 137.332 263.928C137.332 263.584 137.572 263.4 137.892 263.352L139.068 263.176V263.352C139.068 264.192 138.572 264.488 137.956 264.488ZM141.744 262.776C141.744 262.192 142.048 261.72 142.64 261.72C143.312 261.72 143.536 262.152 143.536 262.688V265H144.288V262.56C144.288 261.704 143.832 261.04 142.912 261.04C142.464 261.04 142.008 261.224 141.728 261.704V261.152H140.992V265H141.744V262.776ZM145.932 263.064C145.932 262.272 146.38 261.712 147.068 261.712C147.756 261.712 148.172 262.256 148.172 263.048C148.172 263.84 147.748 264.44 147.06 264.44C146.34 264.44 145.932 263.856 145.932 263.064ZM148.18 264.48C148.18 264.712 148.204 264.912 148.22 265H148.948C148.94 264.936 148.908 264.656 148.908 264.288V259.208H148.164V261.696C148.036 261.384 147.668 261.048 146.988 261.048C145.9 261.048 145.164 261.976 145.164 263.064C145.164 264.208 145.86 265.104 146.988 265.104C147.588 265.104 147.996 264.784 148.18 264.416V264.48ZM152.635 263.064C152.635 262.272 153.083 261.712 153.771 261.712C154.459 261.712 154.875 262.256 154.875 263.048C154.875 263.84 154.451 264.44 153.763 264.44C153.043 264.44 152.635 263.856 152.635 263.064ZM154.883 264.48C154.883 264.712 154.907 264.912 154.923 265H155.651C155.643 264.936 155.611 264.656 155.611 264.288V259.208H154.867V261.696C154.739 261.384 154.371 261.048 153.691 261.048C152.603 261.048 151.867 261.976 151.867 263.064C151.867 264.208 152.563 265.104 153.691 265.104C154.291 265.104 154.699 264.784 154.883 264.416V264.48ZM159.026 261.112C158.986 261.104 158.882 261.088 158.778 261.088C158.386 261.088 157.906 261.232 157.626 261.824V261.152H156.89V265H157.642V263.072C157.642 262.224 158.066 261.888 158.698 261.888C158.802 261.888 158.914 261.896 159.026 261.912V261.112ZM161.436 264.448C160.796 264.448 160.236 263.968 160.236 263.072C160.236 262.184 160.796 261.704 161.436 261.704C162.076 261.704 162.636 262.184 162.636 263.072C162.636 263.968 162.076 264.448 161.436 264.448ZM161.436 261.032C160.284 261.032 159.468 261.904 159.468 263.072C159.468 264.248 160.284 265.12 161.436 265.12C162.588 265.12 163.404 264.248 163.404 263.072C163.404 261.904 162.588 261.032 161.436 261.032ZM165.111 266.52V264.48C165.319 264.824 165.767 265.104 166.359 265.104C167.487 265.104 168.151 264.216 168.151 263.072C168.151 261.952 167.535 261.064 166.383 261.064C165.759 261.064 165.303 261.368 165.095 261.752V261.152H164.367V266.52H165.111ZM167.383 263.072C167.383 263.864 166.943 264.432 166.247 264.432C165.559 264.432 165.103 263.864 165.103 263.072C165.103 262.304 165.559 261.728 166.247 261.728C166.951 261.728 167.383 262.304 167.383 263.072ZM172.605 259.184C171.909 259.184 171.341 259.648 171.341 260.504V261.152H170.629V261.832H171.341V265H172.117V261.832H173.917V265H174.661V261.152H172.117V260.536C172.117 260.008 172.461 259.888 172.725 259.888C172.917 259.888 173.013 259.92 173.053 259.936V259.264C173.021 259.24 172.861 259.184 172.605 259.184ZM173.749 259.68C173.749 259.976 173.989 260.216 174.285 260.216C174.589 260.216 174.829 259.976 174.829 259.68C174.829 259.376 174.589 259.136 174.285 259.136C173.989 259.136 173.749 259.376 173.749 259.68ZM176.689 265V259.208H175.937V265H176.689ZM178.456 262.68C178.488 262.184 178.872 261.696 179.504 261.696C180.184 261.696 180.544 262.128 180.56 262.68H178.456ZM180.672 263.68C180.528 264.112 180.216 264.456 179.592 264.456C178.944 264.456 178.448 263.976 178.432 263.288H181.328C181.336 263.24 181.344 263.144 181.344 263.048C181.344 261.848 180.68 261.032 179.496 261.032C178.528 261.032 177.656 261.856 177.656 263.064C177.656 264.368 178.56 265.12 179.592 265.12C180.488 265.12 181.104 264.584 181.32 263.904L180.672 263.68ZM181.944 264C182.008 264.44 182.456 265.12 183.512 265.12C184.464 265.12 184.92 264.472 184.92 263.928C184.92 263.36 184.552 262.936 183.856 262.784L183.232 262.648C182.936 262.584 182.792 262.416 182.792 262.184C182.792 261.92 183.048 261.672 183.432 261.672C184.04 261.672 184.2 262.112 184.232 262.312L184.896 262.064C184.816 261.72 184.488 261.032 183.432 261.032C182.68 261.032 182.064 261.592 182.064 262.248C182.064 262.792 182.424 263.2 183.024 263.328L183.68 263.472C184 263.544 184.176 263.728 184.176 263.968C184.176 264.24 183.944 264.48 183.52 264.48C182.976 264.48 182.672 264.16 182.624 263.76L181.944 264ZM188.673 262.736C188.689 262.168 188.993 261.72 189.569 261.72C190.241 261.72 190.465 262.152 190.465 262.688V265H191.217V262.56C191.217 261.704 190.761 261.04 189.841 261.04C189.401 261.04 188.953 261.192 188.673 261.6V259.208H187.921V265H188.673V262.736ZM192.901 262.68C192.933 262.184 193.317 261.696 193.949 261.696C194.629 261.696 194.989 262.128 195.005 262.68H192.901ZM195.117 263.68C194.973 264.112 194.661 264.456 194.037 264.456C193.389 264.456 192.893 263.976 192.877 263.288H195.773C195.781 263.24 195.789 263.144 195.789 263.048C195.789 261.848 195.125 261.032 193.941 261.032C192.973 261.032 192.101 261.856 192.101 263.064C192.101 264.368 193.005 265.12 194.037 265.12C194.933 265.12 195.549 264.584 195.765 263.904L195.117 263.68ZM198.885 261.112C198.845 261.104 198.741 261.088 198.637 261.088C198.245 261.088 197.765 261.232 197.485 261.824V261.152H196.749V265H197.501V263.072C197.501 262.224 197.925 261.888 198.557 261.888C198.661 261.888 198.773 261.896 198.885 261.912V261.112ZM200.136 262.68C200.168 262.184 200.552 261.696 201.184 261.696C201.864 261.696 202.224 262.128 202.24 262.68H200.136ZM202.352 263.68C202.208 264.112 201.896 264.456 201.272 264.456C200.624 264.456 200.128 263.976 200.112 263.288H203.008C203.016 263.24 203.024 263.144 203.024 263.048C203.024 261.848 202.36 261.032 201.176 261.032C200.208 261.032 199.336 261.856 199.336 263.064C199.336 264.368 200.24 265.12 201.272 265.12C202.168 265.12 202.784 264.584 203 263.904L202.352 263.68Z" fill="#C3CAD7"/>
<path d="M41.97 298.15C43.6 298.15 44.72 297.2 45.1 295.87L44.23 295.55C43.94 296.52 43.18 297.25 41.97 297.25C40.68 297.25 39.45 296.3 39.45 294.45C39.45 292.6 40.68 291.66 41.97 291.66C43.13 291.66 43.91 292.26 44.18 293.33L45.09 293.01C44.73 291.64 43.59 290.76 41.97 290.76C40.21 290.76 38.45 292.08 38.45 294.45C38.45 296.82 40.14 298.15 41.97 298.15ZM48.1647 297.31C47.3647 297.31 46.6647 296.71 46.6647 295.59C46.6647 294.48 47.3647 293.88 48.1647 293.88C48.9647 293.88 49.6647 294.48 49.6647 295.59C49.6647 296.71 48.9647 297.31 48.1647 297.31ZM48.1647 293.04C46.7247 293.04 45.7047 294.13 45.7047 295.59C45.7047 297.06 46.7247 298.15 48.1647 298.15C49.6047 298.15 50.6247 297.06 50.6247 295.59C50.6247 294.13 49.6047 293.04 48.1647 293.04ZM52.7573 298V295.1C52.7573 294.38 53.2073 293.88 53.8773 293.88C54.5973 293.88 54.8973 294.36 54.8973 294.98V298H55.8373V295.09C55.8373 294.4 56.2873 293.88 56.9473 293.88C57.6573 293.88 57.9673 294.35 57.9673 294.98V298H58.8973V294.88C58.8973 293.62 58.0773 293.05 57.2373 293.05C56.6273 293.05 56.0073 293.27 55.6273 293.96C55.3673 293.34 54.7873 293.05 54.1873 293.05C53.6273 293.05 53.0273 293.3 52.7273 293.83V293.19H51.8273V298H52.7573ZM61.3316 298V295.1C61.3316 294.38 61.7816 293.88 62.4516 293.88C63.1716 293.88 63.4716 294.36 63.4716 294.98V298H64.4116V295.09C64.4116 294.4 64.8616 293.88 65.5216 293.88C66.2316 293.88 66.5416 294.35 66.5416 294.98V298H67.4716V294.88C67.4716 293.62 66.6516 293.05 65.8116 293.05C65.2016 293.05 64.5816 293.27 64.2016 293.96C63.9416 293.34 63.3616 293.05 62.7616 293.05C62.2016 293.05 61.6016 293.3 61.3016 293.83V293.19H60.4016V298H61.3316ZM69.5858 295.1C69.6258 294.48 70.1058 293.87 70.8958 293.87C71.7458 293.87 72.1958 294.41 72.2158 295.1H69.5858ZM72.3558 296.35C72.1758 296.89 71.7858 297.32 71.0058 297.32C70.1958 297.32 69.5758 296.72 69.5558 295.86H73.1758C73.1858 295.8 73.1958 295.68 73.1958 295.56C73.1958 294.06 72.3658 293.04 70.8858 293.04C69.6758 293.04 68.5858 294.07 68.5858 295.58C68.5858 297.21 69.7158 298.15 71.0058 298.15C72.1258 298.15 72.8958 297.48 73.1658 296.63L72.3558 296.35ZM75.3357 295.22C75.3357 294.49 75.7157 293.9 76.4557 293.9C77.2957 293.9 77.5757 294.44 77.5757 295.11V298H78.5157V294.95C78.5157 293.88 77.9457 293.05 76.7957 293.05C76.2357 293.05 75.6657 293.28 75.3157 293.88V293.19H74.3957V298H75.3357V295.22ZM81.2709 291.67H80.4109V292.45C80.4109 292.87 80.1909 293.19 79.6709 293.19H79.4109V294.04H80.3309V296.68C80.3309 297.55 80.8509 298.05 81.6709 298.05C81.9909 298.05 82.2309 297.99 82.3109 297.96V297.16C82.2309 297.18 82.0609 297.2 81.9409 297.2C81.4509 297.2 81.2709 296.98 81.2709 296.54V294.04H82.3109V293.19H81.2709V291.67ZM83.1645 296.75C83.2445 297.3 83.8045 298.15 85.1245 298.15C86.3145 298.15 86.8845 297.34 86.8845 296.66C86.8845 295.95 86.4245 295.42 85.5545 295.23L84.7745 295.06C84.4045 294.98 84.2245 294.77 84.2245 294.48C84.2245 294.15 84.5445 293.84 85.0245 293.84C85.7845 293.84 85.9845 294.39 86.0245 294.64L86.8545 294.33C86.7545 293.9 86.3445 293.04 85.0245 293.04C84.0845 293.04 83.3145 293.74 83.3145 294.56C83.3145 295.24 83.7645 295.75 84.5145 295.91L85.3345 296.09C85.7345 296.18 85.9545 296.41 85.9545 296.71C85.9545 297.05 85.6645 297.35 85.1345 297.35C84.4545 297.35 84.0745 296.95 84.0145 296.45L83.1645 296.75Z" fill="black"/>
<path d="M39.4825 138.075V135.691H41.8985V134.955H39.4825V133.131H42.1465V132.403H38.6985V138.075H39.4825ZM43.7297 138.075V134.227H42.9857V138.075H43.7297ZM42.8177 132.771C42.8177 133.067 43.0577 133.307 43.3537 133.307C43.6577 133.307 43.8977 133.067 43.8977 132.771C43.8977 132.467 43.6577 132.227 43.3537 132.227C43.0577 132.227 42.8177 132.467 42.8177 132.771ZM47.1451 134.187C47.1051 134.179 47.0011 134.163 46.8971 134.163C46.5051 134.163 46.0251 134.307 45.7451 134.899V134.227H45.0091V138.075H45.7611V136.147C45.7611 135.299 46.1851 134.963 46.8171 134.963C46.9211 134.963 47.0331 134.971 47.1451 134.987V134.187ZM47.5866 137.075C47.6506 137.515 48.0986 138.195 49.1546 138.195C50.1066 138.195 50.5626 137.547 50.5626 137.003C50.5626 136.435 50.1946 136.011 49.4986 135.859L48.8746 135.723C48.5786 135.659 48.4346 135.491 48.4346 135.259C48.4346 134.995 48.6906 134.747 49.0746 134.747C49.6826 134.747 49.8426 135.187 49.8746 135.387L50.5386 135.139C50.4586 134.795 50.1306 134.107 49.0746 134.107C48.3226 134.107 47.7066 134.667 47.7066 135.323C47.7066 135.867 48.0666 136.275 48.6666 136.403L49.3226 136.547C49.6426 136.619 49.8186 136.803 49.8186 137.043C49.8186 137.315 49.5866 137.555 49.1626 137.555C48.6186 137.555 48.3146 137.235 48.2666 136.835L47.5866 137.075ZM52.5718 133.011H51.8838V133.635C51.8838 133.971 51.7078 134.227 51.2918 134.227H51.0838V134.907H51.8198V137.019C51.8198 137.715 52.2358 138.115 52.8918 138.115C53.1478 138.115 53.3398 138.067 53.4038 138.043V137.403C53.3398 137.419 53.2038 137.435 53.1078 137.435C52.7158 137.435 52.5718 137.259 52.5718 136.907V134.907H53.4038V134.227H52.5718V133.011ZM61.1516 138.075V132.403H60.3676V136.755L57.5356 132.403H56.4876V138.075H57.2716V133.451L60.3356 138.075H61.1516ZM62.2301 137.043C62.2301 137.651 62.7341 138.195 63.5181 138.195C64.2061 138.195 64.5901 137.827 64.7581 137.555C64.7581 137.835 64.7821 137.979 64.7981 138.075H65.5341C65.5181 137.979 65.4861 137.779 65.4861 137.443V135.515C65.4861 134.763 65.0381 134.107 63.8861 134.107C63.0541 134.107 62.3901 134.619 62.3101 135.355L63.0301 135.523C63.0781 135.075 63.3741 134.747 63.9021 134.747C64.4861 134.747 64.7341 135.059 64.7341 135.435C64.7341 135.571 64.6701 135.691 64.4381 135.723L63.3981 135.875C62.7341 135.971 62.2301 136.355 62.2301 137.043ZM63.6221 137.563C63.2381 137.563 62.9981 137.291 62.9981 137.003C62.9981 136.659 63.2381 136.475 63.5581 136.427L64.7341 136.251V136.427C64.7341 137.267 64.2381 137.563 63.6221 137.563ZM67.4016 138.075V135.755C67.4016 135.179 67.7616 134.779 68.2976 134.779C68.8736 134.779 69.1136 135.163 69.1136 135.659V138.075H69.8656V135.747C69.8656 135.195 70.2256 134.779 70.7536 134.779C71.3216 134.779 71.5696 135.155 71.5696 135.659V138.075H72.3136V135.579C72.3136 134.571 71.6576 134.115 70.9856 134.115C70.4976 134.115 70.0016 134.291 69.6976 134.843C69.4896 134.347 69.0256 134.115 68.5456 134.115C68.0976 134.115 67.6176 134.315 67.3776 134.739V134.227H66.6576V138.075H67.4016ZM74.005 135.755C74.037 135.259 74.421 134.771 75.053 134.771C75.733 134.771 76.093 135.203 76.109 135.755H74.005ZM76.221 136.755C76.077 137.187 75.765 137.531 75.141 137.531C74.493 137.531 73.997 137.051 73.981 136.363H76.877C76.885 136.315 76.893 136.219 76.893 136.123C76.893 134.923 76.229 134.107 75.045 134.107C74.077 134.107 73.205 134.931 73.205 136.139C73.205 137.443 74.109 138.195 75.141 138.195C76.037 138.195 76.653 137.659 76.869 136.979L76.221 136.755Z" fill="#737D92"/>
<path d="M39.1065 188.924C39.1385 188.428 39.5225 187.94 40.1545 187.94C40.8345 187.94 41.1945 188.372 41.2105 188.924H39.1065ZM41.3225 189.924C41.1785 190.356 40.8665 190.7 40.2425 190.7C39.5945 190.7 39.0985 190.22 39.0825 189.532H41.9785C41.9865 189.484 41.9945 189.388 41.9945 189.292C41.9945 188.092 41.3305 187.276 40.1465 187.276C39.1785 187.276 38.3065 188.1 38.3065 189.308C38.3065 190.612 39.2105 191.364 40.2425 191.364C41.1385 191.364 41.7545 190.828 41.9705 190.148L41.3225 189.924ZM42.3554 191.244H43.2514L44.2274 189.828L45.2194 191.244H46.1234C45.8914 190.932 44.9394 189.596 44.7074 189.284L46.0754 187.396H45.1874L44.2594 188.748L43.3154 187.396H42.4034L43.7874 189.284L42.3554 191.244ZM46.6051 190.212C46.6051 190.82 47.1091 191.364 47.8931 191.364C48.5811 191.364 48.9651 190.996 49.1331 190.724C49.1331 191.004 49.1571 191.148 49.1731 191.244H49.9091C49.8931 191.148 49.8611 190.948 49.8611 190.612V188.684C49.8611 187.932 49.4131 187.276 48.2611 187.276C47.4291 187.276 46.7651 187.788 46.6851 188.524L47.4051 188.692C47.4531 188.244 47.7491 187.916 48.2771 187.916C48.8611 187.916 49.1091 188.228 49.1091 188.604C49.1091 188.74 49.0451 188.86 48.8131 188.892L47.7731 189.044C47.1091 189.14 46.6051 189.524 46.6051 190.212ZM47.9971 190.732C47.6131 190.732 47.3731 190.46 47.3731 190.172C47.3731 189.828 47.6131 189.644 47.9331 189.596L49.1091 189.42V189.596C49.1091 190.436 48.6131 190.732 47.9971 190.732ZM51.7766 191.244V188.924C51.7766 188.348 52.1366 187.948 52.6726 187.948C53.2486 187.948 53.4886 188.332 53.4886 188.828V191.244H54.2406V188.916C54.2406 188.364 54.6006 187.948 55.1286 187.948C55.6966 187.948 55.9446 188.324 55.9446 188.828V191.244H56.6886V188.748C56.6886 187.74 56.0326 187.284 55.3606 187.284C54.8726 187.284 54.3766 187.46 54.0726 188.012C53.8646 187.516 53.4006 187.284 52.9206 187.284C52.4726 187.284 51.9926 187.484 51.7526 187.908V187.396H51.0326V191.244H51.7766ZM58.636 192.764V190.724C58.844 191.068 59.292 191.348 59.884 191.348C61.012 191.348 61.676 190.46 61.676 189.316C61.676 188.196 61.06 187.308 59.908 187.308C59.284 187.308 58.828 187.612 58.62 187.996V187.396H57.892V192.764H58.636ZM60.908 189.316C60.908 190.108 60.468 190.676 59.772 190.676C59.084 190.676 58.628 190.108 58.628 189.316C58.628 188.548 59.084 187.972 59.772 187.972C60.476 187.972 60.908 188.548 60.908 189.316ZM63.3861 191.244V185.452H62.6341V191.244H63.3861ZM65.1534 188.924C65.1854 188.428 65.5694 187.94 66.2014 187.94C66.8814 187.94 67.2414 188.372 67.2574 188.924H65.1534ZM67.3694 189.924C67.2254 190.356 66.9134 190.7 66.2894 190.7C65.6414 190.7 65.1454 190.22 65.1294 189.532H68.0254C68.0334 189.484 68.0414 189.388 68.0414 189.292C68.0414 188.092 67.3774 187.276 66.1934 187.276C65.2254 187.276 64.3534 188.1 64.3534 189.308C64.3534 190.612 65.2574 191.364 66.2894 191.364C67.1854 191.364 67.8014 190.828 68.0174 190.148L67.3694 189.924ZM73.1693 190.148C74.0013 190.148 74.6893 189.26 74.6893 188.068C74.6893 186.572 73.4493 185.452 71.8253 185.452C70.1373 185.452 68.7213 186.724 68.7213 188.58C68.7213 190.396 70.0493 191.62 71.9213 191.62C72.6093 191.62 73.4253 191.348 73.8893 190.908L73.5613 190.476C73.0813 190.86 72.5053 191.036 71.9213 191.036C70.3213 191.036 69.3773 189.988 69.3773 188.588C69.3773 187.06 70.4253 186.036 71.8333 186.036C73.1853 186.036 74.0733 186.908 74.0733 188.076C74.0733 188.876 73.6573 189.596 73.2093 189.596C72.9853 189.596 72.9053 189.452 72.9053 189.268C72.9053 189.196 72.9133 189.124 72.9293 189.044L73.3613 187.036H72.7293L72.6573 187.46C72.5373 187.1 72.1373 186.932 71.8013 186.932C70.9373 186.932 70.2013 187.724 70.2013 188.796C70.2013 189.62 70.7053 190.164 71.4253 190.164C71.7693 190.164 72.1373 189.98 72.3773 189.636C72.4653 189.988 72.7933 190.148 73.1693 190.148ZM72.4813 188.284C72.4573 189.036 72.0813 189.58 71.5373 189.58C71.0173 189.58 70.8573 189.196 70.8573 188.708C70.8573 188.116 71.2333 187.532 71.8093 187.532C72.2413 187.532 72.4813 187.812 72.4813 188.284ZM76.0987 188.924C76.1307 188.428 76.5147 187.94 77.1467 187.94C77.8267 187.94 78.1867 188.372 78.2027 188.924H76.0987ZM78.3147 189.924C78.1707 190.356 77.8587 190.7 77.2347 190.7C76.5867 190.7 76.0907 190.22 76.0747 189.532H78.9707C78.9787 189.484 78.9867 189.388 78.9867 189.292C78.9867 188.092 78.3227 187.276 77.1387 187.276C76.1707 187.276 75.2987 188.1 75.2987 189.308C75.2987 190.612 76.2027 191.364 77.2347 191.364C78.1307 191.364 78.7467 190.828 78.9627 190.148L78.3147 189.924ZM79.3476 191.244H80.2436L81.2196 189.828L82.2116 191.244H83.1156C82.8836 190.932 81.9316 189.596 81.6996 189.284L83.0676 187.396H82.1796L81.2516 188.748L80.3076 187.396H79.3956L80.7796 189.284L79.3476 191.244ZM83.5973 190.212C83.5973 190.82 84.1013 191.364 84.8853 191.364C85.5733 191.364 85.9573 190.996 86.1253 190.724C86.1253 191.004 86.1493 191.148 86.1653 191.244H86.9013C86.8853 191.148 86.8533 190.948 86.8533 190.612V188.684C86.8533 187.932 86.4053 187.276 85.2533 187.276C84.4213 187.276 83.7573 187.788 83.6773 188.524L84.3973 188.692C84.4453 188.244 84.7413 187.916 85.2693 187.916C85.8533 187.916 86.1013 188.228 86.1013 188.604C86.1013 188.74 86.0373 188.86 85.8053 188.892L84.7653 189.044C84.1013 189.14 83.5973 189.524 83.5973 190.212ZM84.9893 190.732C84.6053 190.732 84.3653 190.46 84.3653 190.172C84.3653 189.828 84.6053 189.644 84.9253 189.596L86.1013 189.42V189.596C86.1013 190.436 85.6053 190.732 84.9893 190.732ZM88.7688 191.244V188.924C88.7688 188.348 89.1288 187.948 89.6648 187.948C90.2408 187.948 90.4808 188.332 90.4808 188.828V191.244H91.2328V188.916C91.2328 188.364 91.5928 187.948 92.1208 187.948C92.6888 187.948 92.9368 188.324 92.9368 188.828V191.244H93.6808V188.748C93.6808 187.74 93.0248 187.284 92.3528 187.284C91.8648 187.284 91.3688 187.46 91.0648 188.012C90.8568 187.516 90.3928 187.284 89.9128 187.284C89.4648 187.284 88.9848 187.484 88.7448 187.908V187.396H88.0248V191.244H88.7688ZM95.6281 192.764V190.724C95.8361 191.068 96.2841 191.348 96.8761 191.348C98.0041 191.348 98.6681 190.46 98.6681 189.316C98.6681 188.196 98.0521 187.308 96.9001 187.308C96.2761 187.308 95.8201 187.612 95.6121 187.996V187.396H94.8841V192.764H95.6281ZM97.9001 189.316C97.9001 190.108 97.4601 190.676 96.7641 190.676C96.0761 190.676 95.6201 190.108 95.6201 189.316C95.6201 188.548 96.0761 187.972 96.7641 187.972C97.4681 187.972 97.9001 188.548 97.9001 189.316ZM100.378 191.244V185.452H99.6263V191.244H100.378ZM102.146 188.924C102.178 188.428 102.562 187.94 103.194 187.94C103.874 187.94 104.234 188.372 104.25 188.924H102.146ZM104.362 189.924C104.218 190.356 103.906 190.7 103.282 190.7C102.634 190.7 102.138 190.22 102.122 189.532H105.018C105.026 189.484 105.034 189.388 105.034 189.292C105.034 188.092 104.37 187.276 103.186 187.276C102.218 187.276 101.346 188.1 101.346 189.308C101.346 190.612 102.25 191.364 103.282 191.364C104.178 191.364 104.794 190.828 105.01 190.148L104.362 189.924ZM105.796 190.732C105.796 191.044 106.036 191.284 106.348 191.284C106.66 191.284 106.908 191.044 106.908 190.732C106.908 190.42 106.66 190.172 106.348 190.172C106.036 190.172 105.796 190.42 105.796 190.732ZM109.61 187.972C110.266 187.972 110.546 188.412 110.642 188.788L111.322 188.5C111.162 187.916 110.634 187.276 109.61 187.276C108.514 187.276 107.674 188.116 107.674 189.316C107.674 190.484 108.498 191.364 109.618 191.364C110.618 191.364 111.17 190.716 111.354 190.164L110.69 189.876C110.602 190.18 110.338 190.668 109.618 190.668C108.994 190.668 108.442 190.196 108.442 189.316C108.442 188.42 109.002 187.972 109.61 187.972ZM113.845 190.692C113.205 190.692 112.645 190.212 112.645 189.316C112.645 188.428 113.205 187.948 113.845 187.948C114.485 187.948 115.045 188.428 115.045 189.316C115.045 190.212 114.485 190.692 113.845 190.692ZM113.845 187.276C112.693 187.276 111.877 188.148 111.877 189.316C111.877 190.492 112.693 191.364 113.845 191.364C114.997 191.364 115.813 190.492 115.813 189.316C115.813 188.148 114.997 187.276 113.845 187.276ZM117.519 191.244V188.924C117.519 188.348 117.879 187.948 118.415 187.948C118.991 187.948 119.231 188.332 119.231 188.828V191.244H119.983V188.916C119.983 188.364 120.343 187.948 120.871 187.948C121.439 187.948 121.687 188.324 121.687 188.828V191.244H122.431V188.748C122.431 187.74 121.775 187.284 121.103 187.284C120.615 187.284 120.119 187.46 119.815 188.012C119.607 187.516 119.143 187.284 118.663 187.284C118.215 187.284 117.735 187.484 117.495 187.908V187.396H116.775V191.244H117.519Z" fill="#737D92"/>
<path d="M47.3816 310.678V309.95H42.8056V310.678H44.7016V315.622H45.4856V310.678H47.3816ZM48.4975 317.23L51.0015 311.774H50.1935L49.0415 314.43L47.8415 311.774H46.9775L48.6335 315.198L47.6735 317.23H48.4975ZM52.469 317.142V315.102C52.677 315.446 53.125 315.726 53.717 315.726C54.845 315.726 55.509 314.838 55.509 313.694C55.509 312.574 54.893 311.686 53.741 311.686C53.117 311.686 52.661 311.99 52.453 312.374V311.774H51.725V317.142H52.469ZM54.741 313.694C54.741 314.486 54.301 315.054 53.605 315.054C52.917 315.054 52.461 314.486 52.461 313.694C52.461 312.926 52.917 312.35 53.605 312.35C54.309 312.35 54.741 312.926 54.741 313.694ZM56.9551 313.302C56.9871 312.806 57.3711 312.318 58.0031 312.318C58.6831 312.318 59.0431 312.75 59.0591 313.302H56.9551ZM59.1711 314.302C59.0271 314.734 58.7151 315.078 58.0911 315.078C57.4431 315.078 56.9471 314.598 56.9311 313.91H59.8271C59.8351 313.862 59.8431 313.766 59.8431 313.67C59.8431 312.47 59.1791 311.654 57.9951 311.654C57.0271 311.654 56.1551 312.478 56.1551 313.686C56.1551 314.99 57.0591 315.742 58.0911 315.742C58.9871 315.742 59.6031 315.206 59.8191 314.526L59.1711 314.302ZM63.5551 313.358C63.5711 312.79 63.8751 312.342 64.4511 312.342C65.1231 312.342 65.3471 312.774 65.3471 313.31V315.622H66.0991V313.182C66.0991 312.326 65.6431 311.662 64.7231 311.662C64.2831 311.662 63.8351 311.814 63.5551 312.222V309.83H62.8031V315.622H63.5551V313.358ZM67.7833 313.302C67.8153 312.806 68.1993 312.318 68.8313 312.318C69.5113 312.318 69.8713 312.75 69.8873 313.302H67.7833ZM69.9993 314.302C69.8553 314.734 69.5433 315.078 68.9193 315.078C68.2713 315.078 67.7753 314.598 67.7593 313.91H70.6553C70.6633 313.862 70.6713 313.766 70.6713 313.67C70.6713 312.47 70.0073 311.654 68.8233 311.654C67.8553 311.654 66.9833 312.478 66.9833 313.686C66.9833 314.99 67.8873 315.742 68.9193 315.742C69.8153 315.742 70.4313 315.206 70.6473 314.526L69.9993 314.302ZM73.7672 311.734C73.7272 311.726 73.6232 311.71 73.5192 311.71C73.1272 311.71 72.6472 311.854 72.3672 312.446V311.774H71.6312V315.622H72.3832V313.694C72.3832 312.846 72.8072 312.51 73.4392 312.51C73.5432 312.51 73.6552 312.518 73.7672 312.534V311.734ZM75.0176 313.302C75.0496 312.806 75.4336 312.318 76.0656 312.318C76.7456 312.318 77.1056 312.75 77.1216 313.302H75.0176ZM77.2336 314.302C77.0896 314.734 76.7776 315.078 76.1536 315.078C75.5056 315.078 75.0096 314.598 74.9936 313.91H77.8896C77.8976 313.862 77.9056 313.766 77.9056 313.67C77.9056 312.47 77.2416 311.654 76.0576 311.654C75.0896 311.654 74.2176 312.478 74.2176 313.686C74.2176 314.99 75.1216 315.742 76.1536 315.742C77.0496 315.742 77.6656 315.206 77.8816 314.526L77.2336 314.302ZM78.6684 315.11C78.6684 315.422 78.9084 315.662 79.2204 315.662C79.5324 315.662 79.7804 315.422 79.7804 315.11C79.7804 314.798 79.5324 314.55 79.2204 314.55C78.9084 314.55 78.6684 314.798 78.6684 315.11ZM80.9028 315.11C80.9028 315.422 81.1428 315.662 81.4548 315.662C81.7668 315.662 82.0148 315.422 82.0148 315.11C82.0148 314.798 81.7668 314.55 81.4548 314.55C81.1428 314.55 80.9028 314.798 80.9028 315.11ZM83.1371 315.11C83.1371 315.422 83.3771 315.662 83.6891 315.662C84.0011 315.662 84.2491 315.422 84.2491 315.11C84.2491 314.798 84.0011 314.55 83.6891 314.55C83.3771 314.55 83.1371 314.798 83.1371 315.11Z" fill="#737D92"/>
<path d="M169.389 138.075V137.339H166.709V132.403H165.925V138.075H169.389ZM169.987 137.043C169.987 137.651 170.491 138.195 171.275 138.195C171.963 138.195 172.347 137.827 172.515 137.555C172.515 137.835 172.539 137.979 172.555 138.075H173.291C173.275 137.979 173.243 137.779 173.243 137.443V135.515C173.243 134.763 172.795 134.107 171.643 134.107C170.811 134.107 170.147 134.619 170.067 135.355L170.787 135.523C170.835 135.075 171.131 134.747 171.659 134.747C172.243 134.747 172.491 135.059 172.491 135.435C172.491 135.571 172.427 135.691 172.195 135.723L171.155 135.875C170.491 135.971 169.987 136.355 169.987 137.043ZM171.379 137.563C170.995 137.563 170.755 137.291 170.755 137.003C170.755 136.659 170.995 136.475 171.315 136.427L172.491 136.251V136.427C172.491 137.267 171.995 137.563 171.379 137.563ZM174.055 137.075C174.119 137.515 174.567 138.195 175.623 138.195C176.575 138.195 177.031 137.547 177.031 137.003C177.031 136.435 176.663 136.011 175.967 135.859L175.343 135.723C175.047 135.659 174.903 135.491 174.903 135.259C174.903 134.995 175.159 134.747 175.543 134.747C176.151 134.747 176.311 135.187 176.343 135.387L177.007 135.139C176.927 134.795 176.599 134.107 175.543 134.107C174.791 134.107 174.175 134.667 174.175 135.323C174.175 135.867 174.535 136.275 175.135 136.403L175.791 136.547C176.111 136.619 176.287 136.803 176.287 137.043C176.287 137.315 176.055 137.555 175.631 137.555C175.087 137.555 174.783 137.235 174.735 136.835L174.055 137.075ZM179.04 133.011H178.352V133.635C178.352 133.971 178.176 134.227 177.76 134.227H177.552V134.907H178.288V137.019C178.288 137.715 178.704 138.115 179.36 138.115C179.616 138.115 179.808 138.067 179.872 138.043V137.403C179.808 137.419 179.672 137.435 179.576 137.435C179.184 137.435 179.04 137.259 179.04 136.907V134.907H179.872V134.227H179.04V133.011ZM187.62 138.075V132.403H186.836V136.755L184.004 132.403H182.956V138.075H183.74V133.451L186.804 138.075H187.62ZM188.698 137.043C188.698 137.651 189.202 138.195 189.986 138.195C190.674 138.195 191.058 137.827 191.226 137.555C191.226 137.835 191.25 137.979 191.266 138.075H192.002C191.986 137.979 191.954 137.779 191.954 137.443V135.515C191.954 134.763 191.506 134.107 190.354 134.107C189.522 134.107 188.858 134.619 188.778 135.355L189.498 135.523C189.546 135.075 189.842 134.747 190.37 134.747C190.954 134.747 191.202 135.059 191.202 135.435C191.202 135.571 191.138 135.691 190.906 135.723L189.866 135.875C189.202 135.971 188.698 136.355 188.698 137.043ZM190.09 137.563C189.706 137.563 189.466 137.291 189.466 137.003C189.466 136.659 189.706 136.475 190.026 136.427L191.202 136.251V136.427C191.202 137.267 190.706 137.563 190.09 137.563ZM193.87 138.075V135.755C193.87 135.179 194.23 134.779 194.766 134.779C195.342 134.779 195.582 135.163 195.582 135.659V138.075H196.334V135.747C196.334 135.195 196.694 134.779 197.222 134.779C197.79 134.779 198.038 135.155 198.038 135.659V138.075H198.782V135.579C198.782 134.571 198.126 134.115 197.454 134.115C196.966 134.115 196.47 134.291 196.166 134.843C195.958 134.347 195.494 134.115 195.014 134.115C194.566 134.115 194.086 134.315 193.846 134.739V134.227H193.126V138.075H193.87ZM200.473 135.755C200.505 135.259 200.889 134.771 201.521 134.771C202.201 134.771 202.561 135.203 202.577 135.755H200.473ZM202.689 136.755C202.545 137.187 202.233 137.531 201.609 137.531C200.961 137.531 200.465 137.051 200.449 136.363H203.345C203.353 136.315 203.361 136.219 203.361 136.123C203.361 134.923 202.697 134.107 201.513 134.107C200.545 134.107 199.673 134.931 199.673 136.139C199.673 137.443 200.577 138.195 201.609 138.195C202.505 138.195 203.121 137.659 203.337 136.979L202.689 136.755Z" fill="#737D92"/>
<rect x="38.4785" y="109.688" width="115.782" height="16.0901" rx="1.5" stroke="#C3CAD7"/>
<rect x="38.4785" y="162.856" width="115.782" height="16.0901" rx="1.5" stroke="#C3CAD7"/>
<rect x="38.4785" y="303.375" width="243.009" height="59.7648" rx="1.5" stroke="#C3CAD7"/>
<rect x="38.4785" y="222.672" width="243.009" height="50.2703" rx="1.5" stroke="#C3CAD7" stroke-dasharray="2 2"/>
<rect x="165.705" y="109.688" width="115.782" height="16.0901" rx="1.5" stroke="#C3CAD7"/>
<path fill-rule="evenodd" clip-rule="evenodd" d="M155.178 230.566C155.874 229.521 157.432 228.049 159.82 228.049C161.591 228.049 162.854 228.946 163.649 229.985C164.164 230.66 164.528 231.438 164.717 232.266C165.369 232.372 166.125 232.624 166.799 233.109C167.792 233.823 168.546 235.007 168.546 236.775C168.546 238.541 167.792 239.726 166.799 240.441C165.848 241.125 164.732 241.345 163.976 241.345H160.236V235.872L161.31 236.947C161.467 237.098 161.677 237.182 161.895 237.18C162.113 237.178 162.321 237.091 162.475 236.936C162.63 236.782 162.717 236.574 162.719 236.356C162.721 236.138 162.637 235.928 162.486 235.772L159.992 233.278C159.837 233.123 159.625 233.035 159.405 233.035C159.185 233.035 158.973 233.123 158.817 233.278L156.324 235.772C156.245 235.848 156.182 235.94 156.138 236.041C156.095 236.143 156.072 236.252 156.071 236.362C156.07 236.472 156.091 236.582 156.133 236.684C156.174 236.786 156.236 236.879 156.314 236.957C156.392 237.035 156.485 237.097 156.587 237.138C156.689 237.18 156.799 237.201 156.909 237.2C157.019 237.199 157.128 237.176 157.23 237.133C157.331 237.089 157.423 237.026 157.499 236.947L158.574 235.872V241.345H155.665C154.77 241.345 153.446 241.083 152.323 240.275C151.157 239.435 150.264 238.043 150.264 235.944C150.264 233.844 151.157 232.452 152.323 231.612C153.257 230.94 154.328 230.646 155.178 230.565V230.566Z" fill="#C3CAD7"/>
<rect x="120.347" y="379.295" width="68.144" height="21.6066" rx="2" fill="#27BB5F"/>
<path d="M145.274 389.342C145.146 388.726 144.634 387.934 143.354 387.934C142.306 387.934 141.482 388.734 141.482 389.622C141.482 390.47 142.058 390.998 142.866 391.174L143.674 391.35C144.242 391.47 144.522 391.822 144.522 392.23C144.522 392.726 144.138 393.134 143.354 393.134C142.498 393.134 142.05 392.55 141.994 391.918L141.242 392.158C141.346 392.966 141.994 393.846 143.362 393.846C144.57 393.846 145.322 393.046 145.322 392.166C145.322 391.374 144.794 390.782 143.85 390.574L143.002 390.39C142.522 390.286 142.274 389.974 142.274 389.566C142.274 389.038 142.73 388.622 143.37 388.622C144.162 388.622 144.506 389.182 144.57 389.59L145.274 389.342ZM148.653 393.262C148.653 393.422 148.669 393.638 148.685 393.726H149.405C149.389 393.59 149.365 393.318 149.365 393.014V389.878H148.613V392.198C148.613 392.782 148.309 393.182 147.701 393.182C147.069 393.182 146.829 392.718 146.829 392.19V389.878H146.077V392.302C146.077 393.174 146.621 393.846 147.517 393.846C147.965 393.846 148.445 393.662 148.653 393.262ZM151.392 393.726V393.166C151.632 393.582 152.072 393.83 152.64 393.83C153.784 393.83 154.432 392.926 154.432 391.782C154.432 390.662 153.832 389.766 152.664 389.766C152.024 389.766 151.576 390.078 151.392 390.422V387.934H150.648V393.726H151.392ZM153.664 391.782C153.664 392.614 153.216 393.158 152.528 393.158C151.864 393.158 151.384 392.614 151.384 391.782C151.384 390.95 151.864 390.43 152.528 390.43C153.224 390.43 153.664 390.95 153.664 391.782ZM156.134 393.726V391.406C156.134 390.83 156.494 390.43 157.03 390.43C157.606 390.43 157.846 390.814 157.846 391.31V393.726H158.598V391.398C158.598 390.846 158.958 390.43 159.486 390.43C160.054 390.43 160.302 390.806 160.302 391.31V393.726H161.046V391.23C161.046 390.222 160.39 389.766 159.718 389.766C159.23 389.766 158.734 389.942 158.43 390.494C158.222 389.998 157.758 389.766 157.278 389.766C156.83 389.766 156.35 389.966 156.11 390.39V389.878H155.39V393.726H156.134ZM162.994 393.726V389.878H162.25V393.726H162.994ZM162.082 388.422C162.082 388.718 162.322 388.958 162.618 388.958C162.922 388.958 163.162 388.718 163.162 388.422C163.162 388.118 162.922 387.878 162.618 387.878C162.322 387.878 162.082 388.118 162.082 388.422ZM165.281 388.662H164.593V389.286C164.593 389.622 164.417 389.878 164.001 389.878H163.793V390.558H164.529V392.67C164.529 393.366 164.945 393.766 165.601 393.766C165.857 393.766 166.049 393.718 166.113 393.694V393.054C166.049 393.07 165.913 393.086 165.817 393.086C165.425 393.086 165.281 392.91 165.281 392.558V390.558H166.113V389.878H165.281V388.662Z" fill="white"/>
<path d="M319.015 0H0V14.2418H319.015V0Z" fill="#D9D9D9"/>
<path d="M14.7564 9.92105C16.389 9.92105 17.7126 8.59755 17.7126 6.96492C17.7126 5.33229 16.389 4.00879 14.7564 4.00879C13.1238 4.00879 11.8003 5.33229 11.8003 6.96492C11.8003 8.59755 13.1238 9.92105 14.7564 9.92105Z" fill="#F32D28"/>
<path d="M28.5284 9.92105C30.161 9.92105 31.4845 8.59755 31.4845 6.96492C31.4845 5.33229 30.161 4.00879 28.5284 4.00879C26.8958 4.00879 25.5723 5.33229 25.5723 6.96492C25.5723 8.59755 26.8958 9.92105 28.5284 9.92105Z" fill="#FAB41E"/>
<path d="M41.6622 9.92105C43.2948 9.92105 44.6183 8.59755 44.6183 6.96492C44.6183 5.33229 43.2948 4.00879 41.6622 4.00879C40.0296 4.00879 38.7061 5.33229 38.7061 6.96492C38.7061 8.59755 40.0296 9.92105 41.6622 9.92105Z" fill="#93979C"/>
<path d="M248.519 3.79785H74.0571V9.73192H248.519V3.79785Z" fill="white"/>
<defs>
<filter id="filter0_d" x="3.60205" y="5.95312" width="315.823" height="428.787" filterUnits="userSpaceOnUse" color-interpolation-filters="sRGB">
<feFlood flood-opacity="0" result="BackgroundImageFix"/>
<feColorMatrix in="SourceAlpha" type="matrix" values="0 0 0 0 0 0 0 0 0 0 0 0 0 0 0 0 0 0 127 0" result="hardAlpha"/>
<feOffset dy="4"/>
<feGaussianBlur stdDeviation="2"/>
<feComposite in2="hardAlpha" operator="out"/>
<feColorMatrix type="matrix" values="0 0 0 0 0 0 0 0 0 0 0 0 0 0 0 0 0 0 0.25 0"/>
<feBlend mode="normal" in2="BackgroundImageFix" result="effect1_dropShadow"/>
<feBlend mode="normal" in="SourceGraphic" in2="effect1_dropShadow" result="shape"/>
</filter>
</defs>
</svg>
