<svg width="322" height="434" viewBox="0 0 322 434" fill="none" xmlns="http://www.w3.org/2000/svg">
<rect x="2" y="1.89844" width="319.965" height="430.101" rx="15" fill="#134A88"/>
<g filter="url(#filter0_d)">
<path d="M39.0288 9.49512C9.59621 9.49512 4.05797 38.9281 4.84918 50.7962C5.89357 66.4622 14.8181 72.1589 11.9697 96.8446C9.08574 121.839 22.8883 168.053 39.0289 216.001C55.1696 263.948 21.4645 323.763 10.0709 383.104C-1.32271 442.445 89.8249 423.456 121.157 420.607C152.489 417.759 240.313 409.214 275.442 401.618C310.572 394.023 315.794 327.561 308.673 287.209C301.552 246.858 317.871 139.017 315.794 111.561C311.522 55.0687 243.636 18.5149 209.456 31.3325C175.275 44.1501 121.157 9.49512 39.0288 9.49512Z" fill="#5284BC"/>
</g>
<rect x="21.9385" y="29.4326" width="280.088" height="386.426" rx="10" fill="white"/>
<path d="M50.6832 53.7092C50.3952 52.3232 49.2432 50.5412 46.3632 50.5412C44.0052 50.5412 42.1512 52.3412 42.1512 54.3392C42.1512 56.2472 43.4472 57.4352 45.2652 57.8312L47.0832 58.2272C48.3612 58.4972 48.9912 59.2892 48.9912 60.2072C48.9912 61.3232 48.1272 62.2412 46.3632 62.2412C44.4372 62.2412 43.4292 60.9272 43.3032 59.5052L41.6112 60.0452C41.8452 61.8632 43.3032 63.8432 46.3812 63.8432C49.0992 63.8432 50.7912 62.0432 50.7912 60.0632C50.7912 58.2812 49.6032 56.9492 47.4792 56.4812L45.5712 56.0672C44.4912 55.8332 43.9332 55.1312 43.9332 54.2132C43.9332 53.0252 44.9592 52.0892 46.3992 52.0892C48.1812 52.0892 48.9552 53.3492 49.0992 54.2672L50.6832 53.7092ZM53.9594 58.3532C54.0314 57.2372 54.8954 56.1392 56.3174 56.1392C57.8474 56.1392 58.6574 57.1112 58.6934 58.3532H53.9594ZM58.9454 60.6032C58.6214 61.5752 57.9194 62.3492 56.5154 62.3492C55.0574 62.3492 53.9414 61.2692 53.9054 59.7212H60.4214C60.4394 59.6132 60.4574 59.3972 60.4574 59.1812C60.4574 56.4812 58.9634 54.6452 56.2994 54.6452C54.1214 54.6452 52.1594 56.4992 52.1594 59.2172C52.1594 62.1512 54.1934 63.8432 56.5154 63.8432C58.5314 63.8432 59.9174 62.6372 60.4034 61.1072L58.9454 60.6032ZM64.3092 58.5692C64.3092 57.2552 64.9932 56.1932 66.3252 56.1932C67.8372 56.1932 68.3412 57.1652 68.3412 58.3712V63.5732H70.0332V58.0832C70.0332 56.1572 69.0072 54.6632 66.9372 54.6632C65.9292 54.6632 64.9032 55.0772 64.2732 56.1572V54.9152H62.6172V63.5732H64.3092V58.5692ZM73.7327 59.2172C73.7327 57.4352 74.7407 56.1752 76.2887 56.1752C77.8367 56.1752 78.7727 57.3992 78.7727 59.1812C78.7727 60.9632 77.8187 62.3132 76.2707 62.3132C74.6507 62.3132 73.7327 60.9992 73.7327 59.2172ZM78.7907 62.4032C78.7907 62.9252 78.8447 63.3752 78.8807 63.5732H80.5187C80.5007 63.4292 80.4287 62.7992 80.4287 61.9712V50.5412H78.7547V56.1392C78.4667 55.4372 77.6387 54.6812 76.1087 54.6812C73.6607 54.6812 72.0047 56.7692 72.0047 59.2172C72.0047 61.7912 73.5707 63.8072 76.1087 63.8072C77.4587 63.8072 78.3767 63.0872 78.7907 62.2592V62.4032ZM93.5127 62.5292C93.5127 62.8892 93.5487 63.3752 93.5847 63.5732H95.2047C95.1687 63.2672 95.1147 62.6552 95.1147 61.9712V54.9152H93.4227V60.1352C93.4227 61.4492 92.7387 62.3492 91.3707 62.3492C89.9487 62.3492 89.4087 61.3052 89.4087 60.1172V54.9152H87.7167V60.3692C87.7167 62.3312 88.9407 63.8432 90.9567 63.8432C91.9647 63.8432 93.0447 63.4292 93.5127 62.5292ZM97.192 61.3232C97.336 62.3132 98.344 63.8432 100.72 63.8432C102.862 63.8432 103.888 62.3852 103.888 61.1612C103.888 59.8832 103.06 58.9292 101.494 58.5872L100.09 58.2812C99.424 58.1372 99.1 57.7592 99.1 57.2372C99.1 56.6432 99.676 56.0852 100.54 56.0852C101.908 56.0852 102.268 57.0752 102.34 57.5252L103.834 56.9672C103.654 56.1932 102.916 54.6452 100.54 54.6452C98.848 54.6452 97.462 55.9052 97.462 57.3812C97.462 58.6052 98.272 59.5232 99.622 59.8112L101.098 60.1352C101.818 60.2972 102.214 60.7112 102.214 61.2512C102.214 61.8632 101.692 62.4032 100.738 62.4032C99.514 62.4032 98.83 61.6832 98.722 60.7832L97.192 61.3232ZM112.801 67.1912L118.435 54.9152H116.617L114.025 60.8912L111.325 54.9152H109.381L113.107 62.6192L110.947 67.1912H112.801ZM123.419 62.3312C121.979 62.3312 120.719 61.2512 120.719 59.2352C120.719 57.2372 121.979 56.1572 123.419 56.1572C124.859 56.1572 126.119 57.2372 126.119 59.2352C126.119 61.2512 124.859 62.3312 123.419 62.3312ZM123.419 54.6452C120.827 54.6452 118.991 56.6072 118.991 59.2352C118.991 61.8812 120.827 63.8432 123.419 63.8432C126.011 63.8432 127.847 61.8812 127.847 59.2352C127.847 56.6072 126.011 54.6452 123.419 54.6452ZM135.63 62.5292C135.63 62.8892 135.666 63.3752 135.702 63.5732H137.322C137.286 63.2672 137.232 62.6552 137.232 61.9712V54.9152H135.54V60.1352C135.54 61.4492 134.856 62.3492 133.488 62.3492C132.066 62.3492 131.526 61.3052 131.526 60.1172V54.9152H129.834V60.3692C129.834 62.3312 131.058 63.8432 133.074 63.8432C134.082 63.8432 135.162 63.4292 135.63 62.5292ZM144.925 54.8252C144.835 54.8072 144.601 54.7712 144.367 54.7712C143.485 54.7712 142.405 55.0952 141.775 56.4272V54.9152H140.119V63.5732H141.811V59.2352C141.811 57.3272 142.765 56.5712 144.187 56.5712C144.421 56.5712 144.673 56.5892 144.925 56.6252V54.8252ZM153.173 63.5732V58.2092H158.609V56.5532H153.173V52.4492H159.167V50.8112H151.409V63.5732H153.173ZM162.729 63.5732V54.9152H161.055V63.5732H162.729ZM160.677 51.6392C160.677 52.3052 161.217 52.8452 161.883 52.8452C162.567 52.8452 163.107 52.3052 163.107 51.6392C163.107 50.9552 162.567 50.4152 161.883 50.4152C161.217 50.4152 160.677 50.9552 160.677 51.6392ZM167.299 63.5732V50.5412H165.607V63.5732H167.299ZM171.276 58.3532C171.348 57.2372 172.212 56.1392 173.634 56.1392C175.164 56.1392 175.974 57.1112 176.01 58.3532H171.276ZM176.262 60.6032C175.938 61.5752 175.236 62.3492 173.832 62.3492C172.374 62.3492 171.258 61.2692 171.222 59.7212H177.738C177.756 59.6132 177.774 59.3972 177.774 59.1812C177.774 56.4812 176.28 54.6452 173.616 54.6452C171.438 54.6452 169.476 56.4992 169.476 59.2172C169.476 62.1512 171.51 63.8432 173.832 63.8432C175.848 63.8432 177.234 62.6372 177.72 61.1072L176.262 60.6032ZM179.124 61.3232C179.268 62.3132 180.276 63.8432 182.652 63.8432C184.794 63.8432 185.82 62.3852 185.82 61.1612C185.82 59.8832 184.992 58.9292 183.426 58.5872L182.022 58.2812C181.356 58.1372 181.032 57.7592 181.032 57.2372C181.032 56.6432 181.608 56.0852 182.472 56.0852C183.84 56.0852 184.2 57.0752 184.272 57.5252L185.766 56.9672C185.586 56.1932 184.848 54.6452 182.472 54.6452C180.78 54.6452 179.394 55.9052 179.394 57.3812C179.394 58.6052 180.204 59.5232 181.554 59.8112L183.03 60.1352C183.75 60.2972 184.146 60.7112 184.146 61.2512C184.146 61.8632 183.624 62.4032 182.67 62.4032C181.446 62.4032 180.762 61.6832 180.654 60.7832L179.124 61.3232ZM190.484 50.8112H188.36L188.828 59.9192H190.034L190.484 50.8112ZM188.252 62.4932C188.252 63.1412 188.774 63.6632 189.422 63.6632C190.07 63.6632 190.61 63.1412 190.61 62.4932C190.61 61.8452 190.07 61.3052 189.422 61.3052C188.774 61.3052 188.252 61.8452 188.252 62.4932Z" fill="black"/>
<path d="M21.9385 79.7539H302.026" stroke="#D3D6EB" stroke-width="0.5"/>
<path d="M42.8072 101.146V98.1665H45.8272V97.2465H42.8072V94.9665H46.1372V94.0565H41.8272V101.146H42.8072ZM49.9558 100.566C49.9558 100.766 49.9758 101.036 49.9958 101.146H50.8958C50.8758 100.976 50.8458 100.636 50.8458 100.256V96.3365H49.9058V99.2365C49.9058 99.9665 49.5258 100.466 48.7658 100.466C47.9758 100.466 47.6758 99.8865 47.6758 99.2265V96.3365H46.7358V99.3665C46.7358 100.456 47.4158 101.296 48.5358 101.296C49.0958 101.296 49.6958 101.066 49.9558 100.566ZM53.3899 101.146V93.9065H52.4499V101.146H53.3899ZM55.929 101.146V93.9065H54.989V101.146H55.929ZM65.958 101.146V94.0565H64.978V99.4965L61.438 94.0565H60.128V101.146H61.108V95.3665L64.938 101.146H65.958ZM67.3062 99.8565C67.3062 100.616 67.9362 101.296 68.9162 101.296C69.7762 101.296 70.2562 100.836 70.4662 100.496C70.4662 100.846 70.4962 101.026 70.5162 101.146H71.4362C71.4162 101.026 71.3762 100.776 71.3762 100.356V97.9465C71.3762 97.0065 70.8162 96.1865 69.3762 96.1865C68.3362 96.1865 67.5062 96.8265 67.4062 97.7465L68.3062 97.9565C68.3662 97.3965 68.7362 96.9865 69.3962 96.9865C70.1262 96.9865 70.4362 97.3765 70.4362 97.8465C70.4362 98.0165 70.3562 98.1665 70.0662 98.2065L68.7662 98.3965C67.9362 98.5165 67.3062 98.9965 67.3062 99.8565ZM69.0462 100.506C68.5662 100.506 68.2662 100.166 68.2662 99.8065C68.2662 99.3765 68.5662 99.1465 68.9662 99.0865L70.4362 98.8665V99.0865C70.4362 100.136 69.8162 100.506 69.0462 100.506ZM73.7705 101.146V98.2465C73.7705 97.5265 74.2205 97.0265 74.8905 97.0265C75.6105 97.0265 75.9105 97.5065 75.9105 98.1265V101.146H76.8505V98.2365C76.8505 97.5465 77.3005 97.0265 77.9605 97.0265C78.6705 97.0265 78.9805 97.4965 78.9805 98.1265V101.146H79.9105V98.0265C79.9105 96.7665 79.0905 96.1965 78.2505 96.1965C77.6405 96.1965 77.0205 96.4165 76.6405 97.1065C76.3805 96.4865 75.8005 96.1965 75.2005 96.1965C74.6405 96.1965 74.0405 96.4465 73.7405 96.9765V96.3365H72.8405V101.146H73.7705ZM82.0247 98.2465C82.0647 97.6265 82.5447 97.0165 83.3347 97.0165C84.1847 97.0165 84.6347 97.5565 84.6547 98.2465H82.0247ZM84.7947 99.4965C84.6147 100.036 84.2247 100.466 83.4447 100.466C82.6347 100.466 82.0147 99.8665 81.9947 99.0065H85.6147C85.6247 98.9465 85.6347 98.8265 85.6347 98.7065C85.6347 97.2065 84.8047 96.1865 83.3247 96.1865C82.1147 96.1865 81.0247 97.2165 81.0247 98.7265C81.0247 100.356 82.1547 101.296 83.4447 101.296C84.5647 101.296 85.3347 100.626 85.6047 99.7765L84.7947 99.4965Z" fill="black"/>
<path d="M46.1372 153.366V152.456H42.8072V150.286H45.8272V149.366H42.8072V147.186H46.1372V146.276H41.8272V153.366H46.1372ZM49.849 150.906V150.086H47.139V150.906H49.849ZM52.0322 153.366V150.466C52.0322 149.746 52.4822 149.246 53.1522 149.246C53.8722 149.246 54.1722 149.726 54.1722 150.346V153.366H55.1122V150.456C55.1122 149.766 55.5622 149.246 56.2222 149.246C56.9322 149.246 57.2422 149.716 57.2422 150.346V153.366H58.1722V150.246C58.1722 148.986 57.3522 148.416 56.5122 148.416C55.9022 148.416 55.2822 148.636 54.9022 149.326C54.6422 148.706 54.0622 148.416 53.4622 148.416C52.9022 148.416 52.3022 148.666 52.0022 149.196V148.556H51.1022V153.366H52.0322ZM59.3765 152.076C59.3765 152.836 60.0065 153.516 60.9865 153.516C61.8465 153.516 62.3265 153.056 62.5365 152.716C62.5365 153.066 62.5665 153.246 62.5865 153.366H63.5065C63.4865 153.246 63.4465 152.996 63.4465 152.576V150.166C63.4465 149.226 62.8865 148.406 61.4465 148.406C60.4065 148.406 59.5765 149.046 59.4765 149.966L60.3765 150.176C60.4365 149.616 60.8065 149.206 61.4665 149.206C62.1965 149.206 62.5065 149.596 62.5065 150.066C62.5065 150.236 62.4265 150.386 62.1365 150.426L60.8365 150.616C60.0065 150.736 59.3765 151.216 59.3765 152.076ZM61.1165 152.726C60.6365 152.726 60.3365 152.386 60.3365 152.026C60.3365 151.596 60.6365 151.366 61.0365 151.306L62.5065 151.086V151.306C62.5065 152.356 61.8865 152.726 61.1165 152.726ZM65.8408 153.366V148.556H64.9108V153.366H65.8408ZM64.7008 146.736C64.7008 147.106 65.0008 147.406 65.3708 147.406C65.7508 147.406 66.0508 147.106 66.0508 146.736C66.0508 146.356 65.7508 146.056 65.3708 146.056C65.0008 146.056 64.7008 146.356 64.7008 146.736ZM68.3801 153.366V146.126H67.4401V153.366H68.3801Z" fill="black"/>
<path d="M44.2772 250.259C45.7172 250.259 46.8272 249.359 46.8272 247.689V243.019H45.8472V247.659C45.8472 248.739 45.2772 249.349 44.2772 249.349C43.2872 249.349 42.6972 248.739 42.6972 247.659V243.019H41.7272V247.689C41.7272 249.359 42.8372 250.259 44.2772 250.259ZM49.3076 252.009V249.459C49.5676 249.889 50.1276 250.239 50.8676 250.239C52.2776 250.239 53.1076 249.129 53.1076 247.699C53.1076 246.299 52.3376 245.189 50.8976 245.189C50.1176 245.189 49.5476 245.569 49.2876 246.049V245.299H48.3776V252.009H49.3076ZM52.1476 247.699C52.1476 248.689 51.5976 249.399 50.7276 249.399C49.8676 249.399 49.2976 248.689 49.2976 247.699C49.2976 246.739 49.8676 246.019 50.7276 246.019C51.6076 246.019 52.1476 246.739 52.1476 247.699ZM55.2454 250.109V242.869H54.3054V250.109H55.2454ZM58.9044 249.419C58.1044 249.419 57.4044 248.819 57.4044 247.699C57.4044 246.589 58.1044 245.989 58.9044 245.989C59.7044 245.989 60.4044 246.589 60.4044 247.699C60.4044 248.819 59.7044 249.419 58.9044 249.419ZM58.9044 245.149C57.4644 245.149 56.4444 246.239 56.4444 247.699C56.4444 249.169 57.4644 250.259 58.9044 250.259C60.3444 250.259 61.3644 249.169 61.3644 247.699C61.3644 246.239 60.3444 245.149 58.9044 245.149ZM62.2671 248.819C62.2671 249.579 62.8971 250.259 63.8771 250.259C64.7371 250.259 65.2171 249.799 65.4271 249.459C65.4271 249.809 65.4571 249.989 65.4771 250.109H66.3971C66.3771 249.989 66.3371 249.739 66.3371 249.319V246.909C66.3371 245.969 65.7771 245.149 64.3371 245.149C63.2971 245.149 62.4671 245.789 62.3671 246.709L63.2671 246.919C63.3271 246.359 63.6971 245.949 64.3571 245.949C65.0871 245.949 65.3971 246.339 65.3971 246.809C65.3971 246.979 65.3171 247.129 65.0271 247.169L63.7271 247.359C62.8971 247.479 62.2671 247.959 62.2671 248.819ZM64.0071 249.469C63.5271 249.469 63.2271 249.129 63.2271 248.769C63.2271 248.339 63.5271 248.109 63.9271 248.049L65.3971 247.829V248.049C65.3971 249.099 64.7771 249.469 64.0071 249.469ZM68.3615 247.689C68.3615 246.699 68.9215 245.999 69.7815 245.999C70.6415 245.999 71.1615 246.679 71.1615 247.669C71.1615 248.659 70.6315 249.409 69.7715 249.409C68.8715 249.409 68.3615 248.679 68.3615 247.689ZM71.1715 249.459C71.1715 249.749 71.2015 249.999 71.2215 250.109H72.1315C72.1215 250.029 72.0815 249.679 72.0815 249.219V242.869H71.1515V245.979C70.9915 245.589 70.5315 245.169 69.6815 245.169C68.3215 245.169 67.4015 246.329 67.4015 247.689C67.4015 249.119 68.2715 250.239 69.6815 250.239C70.4315 250.239 70.9415 249.839 71.1715 249.379V249.459ZM75.8804 248.819C75.8804 249.579 76.5104 250.259 77.4904 250.259C78.3504 250.259 78.8304 249.799 79.0404 249.459C79.0404 249.809 79.0704 249.989 79.0904 250.109H80.0104C79.9904 249.989 79.9504 249.739 79.9504 249.319V246.909C79.9504 245.969 79.3904 245.149 77.9504 245.149C76.9104 245.149 76.0804 245.789 75.9804 246.709L76.8804 246.919C76.9404 246.359 77.3104 245.949 77.9704 245.949C78.7004 245.949 79.0104 246.339 79.0104 246.809C79.0104 246.979 78.9304 247.129 78.6404 247.169L77.3404 247.359C76.5104 247.479 75.8804 247.959 75.8804 248.819ZM77.6204 249.469C77.1404 249.469 76.8404 249.129 76.8404 248.769C76.8404 248.339 77.1404 248.109 77.5404 248.049L79.0104 247.829V248.049C79.0104 249.099 78.3904 249.469 77.6204 249.469ZM84.9947 246.329V243.899H86.4147C87.2647 243.899 87.7847 244.379 87.7847 245.129C87.7847 245.859 87.2647 246.329 86.4147 246.329H84.9947ZM86.5947 247.209C87.9047 247.209 88.7847 246.319 88.7847 245.119C88.7847 243.929 87.9047 243.019 86.5947 243.019H84.0147V250.109H84.9947V247.209H86.5947ZM90.7239 247.279C90.7439 246.569 91.1239 246.009 91.8439 246.009C92.6839 246.009 92.9639 246.549 92.9639 247.219V250.109H93.9039V247.059C93.9039 245.989 93.3339 245.159 92.1839 245.159C91.6339 245.159 91.0739 245.349 90.7239 245.859V242.869H89.7839V250.109H90.7239V247.279ZM97.4591 249.419C96.6591 249.419 95.9591 248.819 95.9591 247.699C95.9591 246.589 96.6591 245.989 97.4591 245.989C98.2591 245.989 98.9591 246.589 98.9591 247.699C98.9591 248.819 98.2591 249.419 97.4591 249.419ZM97.4591 245.149C96.0191 245.149 94.9991 246.239 94.9991 247.699C94.9991 249.169 96.0191 250.259 97.4591 250.259C98.8991 250.259 99.9191 249.169 99.9191 247.699C99.9191 246.239 98.8991 245.149 97.4591 245.149ZM102.333 243.779H101.473V244.559C101.473 244.979 101.253 245.299 100.733 245.299H100.473V246.149H101.393V248.789C101.393 249.659 101.913 250.159 102.733 250.159C103.053 250.159 103.293 250.099 103.373 250.069V249.269C103.293 249.289 103.123 249.309 103.003 249.309C102.513 249.309 102.333 249.089 102.333 248.649V246.149H103.373V245.299H102.333V243.779ZM106.639 249.419C105.839 249.419 105.139 248.819 105.139 247.699C105.139 246.589 105.839 245.989 106.639 245.989C107.439 245.989 108.139 246.589 108.139 247.699C108.139 248.819 107.439 249.419 106.639 249.419ZM106.639 245.149C105.199 245.149 104.179 246.239 104.179 247.699C104.179 249.169 105.199 250.259 106.639 250.259C108.079 250.259 109.099 249.169 109.099 247.699C109.099 246.239 108.079 245.149 106.639 245.149Z" fill="black"/>
<path d="M142.426 286.12C143.578 286.12 144.466 285.4 144.466 284.064V280.328H143.682V284.04C143.682 284.904 143.226 285.392 142.426 285.392C141.634 285.392 141.162 284.904 141.162 284.04V280.328H140.386V284.064C140.386 285.4 141.274 286.12 142.426 286.12ZM146.45 287.52V285.48C146.658 285.824 147.106 286.104 147.698 286.104C148.826 286.104 149.49 285.216 149.49 284.072C149.49 282.952 148.874 282.064 147.722 282.064C147.098 282.064 146.642 282.368 146.434 282.752V282.152H145.706V287.52H146.45ZM148.722 284.072C148.722 284.864 148.282 285.432 147.586 285.432C146.898 285.432 146.442 284.864 146.442 284.072C146.442 283.304 146.898 282.728 147.586 282.728C148.29 282.728 148.722 283.304 148.722 284.072ZM151.201 286V280.208H150.449V286H151.201ZM154.128 285.448C153.488 285.448 152.928 284.968 152.928 284.072C152.928 283.184 153.488 282.704 154.128 282.704C154.768 282.704 155.328 283.184 155.328 284.072C155.328 284.968 154.768 285.448 154.128 285.448ZM154.128 282.032C152.976 282.032 152.16 282.904 152.16 284.072C152.16 285.248 152.976 286.12 154.128 286.12C155.28 286.12 156.096 285.248 156.096 284.072C156.096 282.904 155.28 282.032 154.128 282.032ZM156.818 284.968C156.818 285.576 157.322 286.12 158.106 286.12C158.794 286.12 159.178 285.752 159.346 285.48C159.346 285.76 159.37 285.904 159.386 286H160.122C160.106 285.904 160.074 285.704 160.074 285.368V283.44C160.074 282.688 159.626 282.032 158.474 282.032C157.642 282.032 156.978 282.544 156.898 283.28L157.618 283.448C157.666 283 157.962 282.672 158.49 282.672C159.074 282.672 159.322 282.984 159.322 283.36C159.322 283.496 159.258 283.616 159.026 283.648L157.986 283.8C157.322 283.896 156.818 284.28 156.818 284.968ZM158.21 285.488C157.826 285.488 157.586 285.216 157.586 284.928C157.586 284.584 157.826 284.4 158.146 284.352L159.322 284.176V284.352C159.322 285.192 158.826 285.488 158.21 285.488ZM161.693 284.064C161.693 283.272 162.141 282.712 162.829 282.712C163.517 282.712 163.933 283.256 163.933 284.048C163.933 284.84 163.509 285.44 162.821 285.44C162.101 285.44 161.693 284.856 161.693 284.064ZM163.941 285.48C163.941 285.712 163.965 285.912 163.981 286H164.709C164.701 285.936 164.669 285.656 164.669 285.288V280.208H163.925V282.696C163.797 282.384 163.429 282.048 162.749 282.048C161.661 282.048 160.925 282.976 160.925 284.064C160.925 285.208 161.621 286.104 162.749 286.104C163.349 286.104 163.757 285.784 163.941 285.416V285.48ZM167.709 284.968C167.709 285.576 168.213 286.12 168.997 286.12C169.685 286.12 170.069 285.752 170.237 285.48C170.237 285.76 170.261 285.904 170.277 286H171.013C170.997 285.904 170.965 285.704 170.965 285.368V283.44C170.965 282.688 170.517 282.032 169.365 282.032C168.533 282.032 167.869 282.544 167.789 283.28L168.509 283.448C168.557 283 168.853 282.672 169.381 282.672C169.965 282.672 170.213 282.984 170.213 283.36C170.213 283.496 170.149 283.616 169.917 283.648L168.877 283.8C168.213 283.896 167.709 284.28 167.709 284.968ZM169.101 285.488C168.717 285.488 168.477 285.216 168.477 284.928C168.477 284.584 168.717 284.4 169.037 284.352L170.213 284.176V284.352C170.213 285.192 169.717 285.488 169.101 285.488ZM175 286V283.616H177.416V282.88H175V281.056H177.664V280.328H174.216V286H175ZM179.247 286V282.152H178.503V286H179.247ZM178.335 280.696C178.335 280.992 178.575 281.232 178.871 281.232C179.175 281.232 179.415 280.992 179.415 280.696C179.415 280.392 179.175 280.152 178.871 280.152C178.575 280.152 178.335 280.392 178.335 280.696ZM181.279 286V280.208H180.527V286H181.279ZM183.046 283.68C183.078 283.184 183.462 282.696 184.094 282.696C184.774 282.696 185.134 283.128 185.15 283.68H183.046ZM185.262 284.68C185.118 285.112 184.806 285.456 184.182 285.456C183.534 285.456 183.038 284.976 183.022 284.288H185.918C185.926 284.24 185.934 284.144 185.934 284.048C185.934 282.848 185.27 282.032 184.086 282.032C183.118 282.032 182.246 282.856 182.246 284.064C182.246 285.368 183.15 286.12 184.182 286.12C185.078 286.12 185.694 285.584 185.91 284.904L185.262 284.68Z" fill="black"/>
<path d="M121.16 298.304V294.024H122.336C123.384 294.024 124.248 294.744 124.248 296.176C124.248 297.6 123.368 298.304 122.32 298.304H121.16ZM122.344 299C123.784 299 125.056 298.032 125.056 296.176C125.056 294.312 123.8 293.328 122.36 293.328H120.376V299H122.344ZM128.19 295.112C128.15 295.104 128.046 295.088 127.942 295.088C127.55 295.088 127.07 295.232 126.79 295.824V295.152H126.054V299H126.806V297.072C126.806 296.224 127.23 295.888 127.862 295.888C127.966 295.888 128.078 295.896 128.19 295.912V295.112ZM128.752 297.968C128.752 298.576 129.256 299.12 130.04 299.12C130.728 299.12 131.112 298.752 131.28 298.48C131.28 298.76 131.304 298.904 131.32 299H132.056C132.04 298.904 132.008 298.704 132.008 298.368V296.44C132.008 295.688 131.56 295.032 130.408 295.032C129.576 295.032 128.912 295.544 128.832 296.28L129.552 296.448C129.6 296 129.896 295.672 130.424 295.672C131.008 295.672 131.256 295.984 131.256 296.36C131.256 296.496 131.192 296.616 130.96 296.648L129.92 296.8C129.256 296.896 128.752 297.28 128.752 297.968ZM130.144 298.488C129.76 298.488 129.52 298.216 129.52 297.928C129.52 297.584 129.76 297.4 130.08 297.352L131.256 297.176V297.352C131.256 298.192 130.76 298.488 130.144 298.488ZM132.899 299.208C132.995 300.032 133.715 300.64 134.675 300.64C136.123 300.64 136.603 299.688 136.603 298.712V295.152H135.859V295.688C135.667 295.304 135.267 295.08 134.675 295.08C133.619 295.08 132.907 295.912 132.907 296.952C132.907 298.04 133.651 298.816 134.675 298.816C135.251 298.816 135.667 298.536 135.851 298.184V298.736C135.851 299.568 135.483 299.984 134.675 299.984C134.091 299.984 133.683 299.576 133.627 299.04L132.899 299.208ZM134.787 298.184C134.107 298.184 133.675 297.704 133.675 296.952C133.675 296.208 134.123 295.72 134.787 295.72C135.435 295.72 135.883 296.208 135.883 296.952C135.883 297.696 135.435 298.184 134.787 298.184ZM139.564 297.968C139.564 298.576 140.068 299.12 140.852 299.12C141.54 299.12 141.924 298.752 142.092 298.48C142.092 298.76 142.116 298.904 142.132 299H142.868C142.852 298.904 142.82 298.704 142.82 298.368V296.44C142.82 295.688 142.372 295.032 141.22 295.032C140.388 295.032 139.724 295.544 139.644 296.28L140.364 296.448C140.412 296 140.708 295.672 141.236 295.672C141.82 295.672 142.068 295.984 142.068 296.36C142.068 296.496 142.004 296.616 141.772 296.648L140.732 296.8C140.068 296.896 139.564 297.28 139.564 297.968ZM140.956 298.488C140.572 298.488 140.332 298.216 140.332 297.928C140.332 297.584 140.572 297.4 140.892 297.352L142.068 297.176V297.352C142.068 298.192 141.572 298.488 140.956 298.488ZM144.744 296.776C144.744 296.192 145.048 295.72 145.64 295.72C146.312 295.72 146.536 296.152 146.536 296.688V299H147.288V296.56C147.288 295.704 146.832 295.04 145.912 295.04C145.464 295.04 145.008 295.224 144.728 295.704V295.152H143.992V299H144.744V296.776ZM148.932 297.064C148.932 296.272 149.38 295.712 150.068 295.712C150.756 295.712 151.172 296.256 151.172 297.048C151.172 297.84 150.748 298.44 150.06 298.44C149.34 298.44 148.932 297.856 148.932 297.064ZM151.18 298.48C151.18 298.712 151.204 298.912 151.22 299H151.948C151.94 298.936 151.908 298.656 151.908 298.288V293.208H151.164V295.696C151.036 295.384 150.668 295.048 149.988 295.048C148.9 295.048 148.164 295.976 148.164 297.064C148.164 298.208 148.86 299.104 149.988 299.104C150.588 299.104 150.996 298.784 151.18 298.416V298.48ZM155.635 297.064C155.635 296.272 156.083 295.712 156.771 295.712C157.459 295.712 157.875 296.256 157.875 297.048C157.875 297.84 157.451 298.44 156.763 298.44C156.043 298.44 155.635 297.856 155.635 297.064ZM157.883 298.48C157.883 298.712 157.907 298.912 157.923 299H158.651C158.643 298.936 158.611 298.656 158.611 298.288V293.208H157.867V295.696C157.739 295.384 157.371 295.048 156.691 295.048C155.603 295.048 154.867 295.976 154.867 297.064C154.867 298.208 155.563 299.104 156.691 299.104C157.291 299.104 157.699 298.784 157.883 298.416V298.48ZM162.026 295.112C161.986 295.104 161.882 295.088 161.778 295.088C161.386 295.088 160.906 295.232 160.626 295.824V295.152H159.89V299H160.642V297.072C160.642 296.224 161.066 295.888 161.698 295.888C161.802 295.888 161.914 295.896 162.026 295.912V295.112ZM164.436 298.448C163.796 298.448 163.236 297.968 163.236 297.072C163.236 296.184 163.796 295.704 164.436 295.704C165.076 295.704 165.636 296.184 165.636 297.072C165.636 297.968 165.076 298.448 164.436 298.448ZM164.436 295.032C163.284 295.032 162.468 295.904 162.468 297.072C162.468 298.248 163.284 299.12 164.436 299.12C165.588 299.12 166.404 298.248 166.404 297.072C166.404 295.904 165.588 295.032 164.436 295.032ZM168.111 300.52V298.48C168.319 298.824 168.767 299.104 169.359 299.104C170.487 299.104 171.151 298.216 171.151 297.072C171.151 295.952 170.535 295.064 169.383 295.064C168.759 295.064 168.303 295.368 168.095 295.752V295.152H167.367V300.52H168.111ZM170.383 297.072C170.383 297.864 169.943 298.432 169.247 298.432C168.559 298.432 168.103 297.864 168.103 297.072C168.103 296.304 168.559 295.728 169.247 295.728C169.951 295.728 170.383 296.304 170.383 297.072ZM175.605 293.184C174.909 293.184 174.341 293.648 174.341 294.504V295.152H173.629V295.832H174.341V299H175.117V295.832H176.917V299H177.661V295.152H175.117V294.536C175.117 294.008 175.461 293.888 175.725 293.888C175.917 293.888 176.013 293.92 176.053 293.936V293.264C176.021 293.24 175.861 293.184 175.605 293.184ZM176.749 293.68C176.749 293.976 176.989 294.216 177.285 294.216C177.589 294.216 177.829 293.976 177.829 293.68C177.829 293.376 177.589 293.136 177.285 293.136C176.989 293.136 176.749 293.376 176.749 293.68ZM179.689 299V293.208H178.937V299H179.689ZM181.456 296.68C181.488 296.184 181.872 295.696 182.504 295.696C183.184 295.696 183.544 296.128 183.56 296.68H181.456ZM183.672 297.68C183.528 298.112 183.216 298.456 182.592 298.456C181.944 298.456 181.448 297.976 181.432 297.288H184.328C184.336 297.24 184.344 297.144 184.344 297.048C184.344 295.848 183.68 295.032 182.496 295.032C181.528 295.032 180.656 295.856 180.656 297.064C180.656 298.368 181.56 299.12 182.592 299.12C183.488 299.12 184.104 298.584 184.32 297.904L183.672 297.68ZM184.944 298C185.008 298.44 185.456 299.12 186.512 299.12C187.464 299.12 187.92 298.472 187.92 297.928C187.92 297.36 187.552 296.936 186.856 296.784L186.232 296.648C185.936 296.584 185.792 296.416 185.792 296.184C185.792 295.92 186.048 295.672 186.432 295.672C187.04 295.672 187.2 296.112 187.232 296.312L187.896 296.064C187.816 295.72 187.488 295.032 186.432 295.032C185.68 295.032 185.064 295.592 185.064 296.248C185.064 296.792 185.424 297.2 186.024 297.328L186.68 297.472C187 297.544 187.176 297.728 187.176 297.968C187.176 298.24 186.944 298.48 186.52 298.48C185.976 298.48 185.672 298.16 185.624 297.76L184.944 298ZM191.673 296.736C191.689 296.168 191.993 295.72 192.569 295.72C193.241 295.72 193.465 296.152 193.465 296.688V299H194.217V296.56C194.217 295.704 193.761 295.04 192.841 295.04C192.401 295.04 191.953 295.192 191.673 295.6V293.208H190.921V299H191.673V296.736ZM195.901 296.68C195.933 296.184 196.317 295.696 196.949 295.696C197.629 295.696 197.989 296.128 198.005 296.68H195.901ZM198.117 297.68C197.973 298.112 197.661 298.456 197.037 298.456C196.389 298.456 195.893 297.976 195.877 297.288H198.773C198.781 297.24 198.789 297.144 198.789 297.048C198.789 295.848 198.125 295.032 196.941 295.032C195.973 295.032 195.101 295.856 195.101 297.064C195.101 298.368 196.005 299.12 197.037 299.12C197.933 299.12 198.549 298.584 198.765 297.904L198.117 297.68ZM201.885 295.112C201.845 295.104 201.741 295.088 201.637 295.088C201.245 295.088 200.765 295.232 200.485 295.824V295.152H199.749V299H200.501V297.072C200.501 296.224 200.925 295.888 201.557 295.888C201.661 295.888 201.773 295.896 201.885 295.912V295.112ZM203.136 296.68C203.168 296.184 203.552 295.696 204.184 295.696C204.864 295.696 205.224 296.128 205.24 296.68H203.136ZM205.352 297.68C205.208 298.112 204.896 298.456 204.272 298.456C203.624 298.456 203.128 297.976 203.112 297.288H206.008C206.016 297.24 206.024 297.144 206.024 297.048C206.024 295.848 205.36 295.032 204.176 295.032C203.208 295.032 202.336 295.856 202.336 297.064C202.336 298.368 203.24 299.12 204.272 299.12C205.168 299.12 205.784 298.584 206 297.904L205.352 297.68Z" fill="#C3CAD7"/>
<path d="M46.7372 322.369H47.7972L44.9772 315.279H43.8472L41.0272 322.369H42.0772L42.8272 320.389H45.9672L46.7372 322.369ZM44.3872 316.299L45.6172 319.479H43.1772L44.3872 316.299ZM49.5911 319.589C49.5911 318.859 49.9711 318.269 50.7111 318.269C51.5511 318.269 51.8311 318.809 51.8311 319.479V322.369H52.7711V319.319C52.7711 318.249 52.2011 317.419 51.0511 317.419C50.4911 317.419 49.9211 317.649 49.5711 318.249V317.559H48.6511V322.369H49.5911V319.589ZM55.4663 324.379L58.5963 317.559H57.5863L56.1463 320.879L54.6463 317.559H53.5663L55.6363 321.839L54.4363 324.379H55.4663ZM62.9307 322.369V319.469C62.9307 318.749 63.3807 318.249 64.0507 318.249C64.7707 318.249 65.0707 318.729 65.0707 319.349V322.369H66.0107V319.459C66.0107 318.769 66.4607 318.249 67.1207 318.249C67.8307 318.249 68.1407 318.719 68.1407 319.349V322.369H69.0707V319.249C69.0707 317.989 68.2507 317.419 67.4107 317.419C66.8007 317.419 66.1807 317.639 65.8007 318.329C65.5407 317.709 64.9607 317.419 64.3607 317.419C63.8007 317.419 63.2007 317.669 62.9007 318.199V317.559H62.0007V322.369H62.9307ZM71.1849 319.469C71.2249 318.849 71.7049 318.239 72.4949 318.239C73.3449 318.239 73.7949 318.779 73.8149 319.469H71.1849ZM73.9549 320.719C73.7749 321.259 73.3849 321.689 72.6049 321.689C71.7949 321.689 71.1749 321.089 71.1549 320.229H74.7749C74.7849 320.169 74.7949 320.049 74.7949 319.929C74.7949 318.429 73.9649 317.409 72.4849 317.409C71.2749 317.409 70.1849 318.439 70.1849 319.949C70.1849 321.579 71.3149 322.519 72.6049 322.519C73.7249 322.519 74.4949 321.849 74.7649 320.999L73.9549 320.719ZM75.5448 321.119C75.6248 321.669 76.1848 322.519 77.5048 322.519C78.6948 322.519 79.2648 321.709 79.2648 321.029C79.2648 320.319 78.8048 319.789 77.9348 319.599L77.1548 319.429C76.7848 319.349 76.6048 319.139 76.6048 318.849C76.6048 318.519 76.9248 318.209 77.4048 318.209C78.1648 318.209 78.3648 318.759 78.4048 319.009L79.2348 318.699C79.1348 318.269 78.7248 317.409 77.4048 317.409C76.4648 317.409 75.6948 318.109 75.6948 318.929C75.6948 319.609 76.1448 320.119 76.8948 320.279L77.7148 320.459C78.1148 320.549 78.3348 320.779 78.3348 321.079C78.3348 321.419 78.0448 321.719 77.5148 321.719C76.8348 321.719 76.4548 321.319 76.3948 320.819L75.5448 321.119ZM80.0663 321.119C80.1463 321.669 80.7063 322.519 82.0263 322.519C83.2163 322.519 83.7863 321.709 83.7863 321.029C83.7863 320.319 83.3263 319.789 82.4563 319.599L81.6763 319.429C81.3063 319.349 81.1263 319.139 81.1263 318.849C81.1263 318.519 81.4463 318.209 81.9263 318.209C82.6863 318.209 82.8863 318.759 82.9263 319.009L83.7563 318.699C83.6563 318.269 83.2463 317.409 81.9263 317.409C80.9863 317.409 80.2163 318.109 80.2163 318.929C80.2163 319.609 80.6663 320.119 81.4163 320.279L82.2363 320.459C82.6363 320.549 82.8563 320.779 82.8563 321.079C82.8563 321.419 82.5663 321.719 82.0363 321.719C81.3563 321.719 80.9763 321.319 80.9163 320.819L80.0663 321.119ZM84.6401 321.079C84.6401 321.839 85.2701 322.519 86.2501 322.519C87.1101 322.519 87.5901 322.059 87.8001 321.719C87.8001 322.069 87.8301 322.249 87.8501 322.369H88.7701C88.7501 322.249 88.7101 321.999 88.7101 321.579V319.169C88.7101 318.229 88.1501 317.409 86.7101 317.409C85.6701 317.409 84.8401 318.049 84.7401 318.969L85.6401 319.179C85.7001 318.619 86.0701 318.209 86.7301 318.209C87.4601 318.209 87.7701 318.599 87.7701 319.069C87.7701 319.239 87.6901 319.389 87.4001 319.429L86.1001 319.619C85.2701 319.739 84.6401 320.219 84.6401 321.079ZM86.3801 321.729C85.9001 321.729 85.6001 321.389 85.6001 321.029C85.6001 320.599 85.9001 320.369 86.3001 320.309L87.7701 320.089V320.309C87.7701 321.359 87.1501 321.729 86.3801 321.729ZM89.8245 322.629C89.9445 323.659 90.8445 324.419 92.0445 324.419C93.8545 324.419 94.4545 323.229 94.4545 322.009V317.559H93.5245V318.229C93.2845 317.749 92.7845 317.469 92.0445 317.469C90.7245 317.469 89.8345 318.509 89.8345 319.809C89.8345 321.169 90.7645 322.139 92.0445 322.139C92.7645 322.139 93.2845 321.789 93.5145 321.349V322.039C93.5145 323.079 93.0545 323.599 92.0445 323.599C91.3145 323.599 90.8045 323.089 90.7345 322.419L89.8245 322.629ZM92.1845 321.349C91.3345 321.349 90.7945 320.749 90.7945 319.809C90.7945 318.879 91.3545 318.269 92.1845 318.269C92.9945 318.269 93.5545 318.879 93.5545 319.809C93.5545 320.739 92.9945 321.349 92.1845 321.349ZM96.5658 319.469C96.6058 318.849 97.0858 318.239 97.8758 318.239C98.7258 318.239 99.1758 318.779 99.1958 319.469H96.5658ZM99.3358 320.719C99.1558 321.259 98.7658 321.689 97.9858 321.689C97.1758 321.689 96.5558 321.089 96.5358 320.229H100.156C100.166 320.169 100.176 320.049 100.176 319.929C100.176 318.429 99.3458 317.409 97.8658 317.409C96.6558 317.409 95.5658 318.439 95.5658 319.949C95.5658 321.579 96.6958 322.519 97.9858 322.519C99.1058 322.519 99.8758 321.849 100.146 320.999L99.3358 320.719ZM103.162 320.339C103.152 320.239 103.152 320.199 103.152 320.149C103.152 319.759 103.282 319.399 103.592 319.189L104.052 318.879C104.632 318.489 105.072 317.939 105.072 317.139C105.072 316.119 104.282 315.129 102.882 315.129C101.342 315.129 100.672 316.259 100.672 317.179C100.672 317.359 100.692 317.519 100.732 317.659L101.702 317.779C101.662 317.669 101.632 317.459 101.632 317.289C101.632 316.659 102.012 316.009 102.882 316.009C103.682 316.009 104.072 316.559 104.072 317.149C104.072 317.539 103.882 317.899 103.542 318.129L103.102 318.429C102.512 318.829 102.272 319.329 102.272 319.989C102.272 320.119 102.272 320.219 102.282 320.339H103.162ZM102.062 321.769C102.062 322.129 102.352 322.419 102.712 322.419C103.072 322.419 103.372 322.129 103.372 321.769C103.372 321.409 103.072 321.109 102.712 321.109C102.352 321.109 102.062 321.409 102.062 321.769Z" fill="black"/>
<path d="M42.4312 133.327V130.943H44.8472V130.207H42.4312V128.383H45.0952V127.655H41.6472V133.327H42.4312ZM46.6784 133.327V129.479H45.9344V133.327H46.6784ZM45.7664 128.023C45.7664 128.319 46.0064 128.559 46.3024 128.559C46.6064 128.559 46.8464 128.319 46.8464 128.023C46.8464 127.719 46.6064 127.479 46.3024 127.479C46.0064 127.479 45.7664 127.719 45.7664 128.023ZM50.0939 129.439C50.0539 129.431 49.9499 129.415 49.8459 129.415C49.4539 129.415 48.9739 129.559 48.6939 130.151V129.479H47.9579V133.327H48.7099V131.399C48.7099 130.551 49.1339 130.215 49.7659 130.215C49.8699 130.215 49.9819 130.223 50.0939 130.239V129.439ZM50.5354 132.327C50.5994 132.767 51.0474 133.447 52.1034 133.447C53.0554 133.447 53.5114 132.799 53.5114 132.255C53.5114 131.687 53.1434 131.263 52.4474 131.111L51.8234 130.975C51.5274 130.911 51.3834 130.743 51.3834 130.511C51.3834 130.247 51.6394 129.999 52.0234 129.999C52.6314 129.999 52.7914 130.439 52.8234 130.639L53.4874 130.391C53.4074 130.047 53.0794 129.359 52.0234 129.359C51.2714 129.359 50.6554 129.919 50.6554 130.575C50.6554 131.119 51.0154 131.527 51.6154 131.655L52.2714 131.799C52.5914 131.871 52.7674 132.055 52.7674 132.295C52.7674 132.567 52.5354 132.807 52.1114 132.807C51.5674 132.807 51.2634 132.487 51.2154 132.087L50.5354 132.327ZM55.5206 128.263H54.8326V128.887C54.8326 129.223 54.6566 129.479 54.2406 129.479H54.0326V130.159H54.7686V132.271C54.7686 132.967 55.1846 133.367 55.8406 133.367C56.0966 133.367 56.2886 133.319 56.3526 133.295V132.655C56.2886 132.671 56.1526 132.687 56.0566 132.687C55.6646 132.687 55.5206 132.511 55.5206 132.159V130.159H56.3526V129.479H55.5206V128.263ZM64.1003 133.327V127.655H63.3163V132.007L60.4843 127.655H59.4363V133.327H60.2203V128.703L63.2843 133.327H64.1003ZM65.1788 132.295C65.1788 132.903 65.6828 133.447 66.4668 133.447C67.1548 133.447 67.5388 133.079 67.7068 132.807C67.7068 133.087 67.7308 133.231 67.7468 133.327H68.4828C68.4668 133.231 68.4348 133.031 68.4348 132.695V130.767C68.4348 130.015 67.9868 129.359 66.8348 129.359C66.0028 129.359 65.3388 129.871 65.2588 130.607L65.9788 130.775C66.0268 130.327 66.3228 129.999 66.8508 129.999C67.4348 129.999 67.6828 130.311 67.6828 130.687C67.6828 130.823 67.6188 130.943 67.3868 130.975L66.3468 131.127C65.6828 131.223 65.1788 131.607 65.1788 132.295ZM66.5708 132.815C66.1868 132.815 65.9468 132.543 65.9468 132.255C65.9468 131.911 66.1868 131.727 66.5068 131.679L67.6828 131.503V131.679C67.6828 132.519 67.1868 132.815 66.5708 132.815ZM70.3503 133.327V131.007C70.3503 130.431 70.7103 130.031 71.2463 130.031C71.8223 130.031 72.0623 130.415 72.0623 130.911V133.327H72.8143V130.999C72.8143 130.447 73.1743 130.031 73.7023 130.031C74.2703 130.031 74.5183 130.407 74.5183 130.911V133.327H75.2623V130.831C75.2623 129.823 74.6063 129.367 73.9343 129.367C73.4463 129.367 72.9503 129.543 72.6463 130.095C72.4383 129.599 71.9743 129.367 71.4943 129.367C71.0463 129.367 70.5663 129.567 70.3263 129.991V129.479H69.6063V133.327H70.3503ZM76.9537 131.007C76.9857 130.511 77.3697 130.023 78.0017 130.023C78.6817 130.023 79.0417 130.455 79.0577 131.007H76.9537ZM79.1697 132.007C79.0257 132.439 78.7137 132.783 78.0897 132.783C77.4417 132.783 76.9457 132.303 76.9297 131.615H79.8257C79.8337 131.567 79.8417 131.471 79.8417 131.375C79.8417 130.175 79.1777 129.359 77.9937 129.359C77.0257 129.359 76.1537 130.183 76.1537 131.391C76.1537 132.695 77.0577 133.447 78.0897 133.447C78.9857 133.447 79.6017 132.911 79.8177 132.231L79.1697 132.007Z" fill="#737D92"/>
<path d="M42.0552 184.176C42.0872 183.68 42.4712 183.192 43.1032 183.192C43.7832 183.192 44.1432 183.624 44.1592 184.176H42.0552ZM44.2712 185.176C44.1272 185.608 43.8152 185.952 43.1912 185.952C42.5432 185.952 42.0472 185.472 42.0312 184.784H44.9272C44.9352 184.736 44.9432 184.64 44.9432 184.544C44.9432 183.344 44.2792 182.528 43.0952 182.528C42.1272 182.528 41.2552 183.352 41.2552 184.56C41.2552 185.864 42.1592 186.616 43.1912 186.616C44.0872 186.616 44.7032 186.08 44.9192 185.4L44.2712 185.176ZM45.3041 186.496H46.2001L47.1761 185.08L48.1681 186.496H49.0721C48.8401 186.184 47.8881 184.848 47.6561 184.536L49.0241 182.648H48.1361L47.2081 184L46.2641 182.648H45.3521L46.7361 184.536L45.3041 186.496ZM49.5538 185.464C49.5538 186.072 50.0578 186.616 50.8418 186.616C51.5298 186.616 51.9138 186.248 52.0818 185.976C52.0818 186.256 52.1058 186.4 52.1218 186.496H52.8578C52.8418 186.4 52.8098 186.2 52.8098 185.864V183.936C52.8098 183.184 52.3618 182.528 51.2098 182.528C50.3778 182.528 49.7138 183.04 49.6338 183.776L50.3538 183.944C50.4018 183.496 50.6978 183.168 51.2258 183.168C51.8098 183.168 52.0578 183.48 52.0578 183.856C52.0578 183.992 51.9938 184.112 51.7618 184.144L50.7218 184.296C50.0578 184.392 49.5538 184.776 49.5538 185.464ZM50.9458 185.984C50.5618 185.984 50.3218 185.712 50.3218 185.424C50.3218 185.08 50.5618 184.896 50.8818 184.848L52.0578 184.672V184.848C52.0578 185.688 51.5618 185.984 50.9458 185.984ZM54.7253 186.496V184.176C54.7253 183.6 55.0853 183.2 55.6213 183.2C56.1973 183.2 56.4373 183.584 56.4373 184.08V186.496H57.1893V184.168C57.1893 183.616 57.5493 183.2 58.0773 183.2C58.6453 183.2 58.8933 183.576 58.8933 184.08V186.496H59.6373V184C59.6373 182.992 58.9813 182.536 58.3093 182.536C57.8213 182.536 57.3253 182.712 57.0213 183.264C56.8133 182.768 56.3493 182.536 55.8693 182.536C55.4213 182.536 54.9413 182.736 54.7013 183.16V182.648H53.9813V186.496H54.7253ZM61.5847 188.016V185.976C61.7927 186.32 62.2407 186.6 62.8327 186.6C63.9607 186.6 64.6247 185.712 64.6247 184.568C64.6247 183.448 64.0087 182.56 62.8567 182.56C62.2327 182.56 61.7767 182.864 61.5687 183.248V182.648H60.8407V188.016H61.5847ZM63.8567 184.568C63.8567 185.36 63.4167 185.928 62.7207 185.928C62.0327 185.928 61.5767 185.36 61.5767 184.568C61.5767 183.8 62.0327 183.224 62.7207 183.224C63.4247 183.224 63.8567 183.8 63.8567 184.568ZM66.3349 186.496V180.704H65.5829V186.496H66.3349ZM68.1021 184.176C68.1341 183.68 68.5181 183.192 69.1501 183.192C69.8301 183.192 70.1901 183.624 70.2061 184.176H68.1021ZM70.3181 185.176C70.1741 185.608 69.8621 185.952 69.2381 185.952C68.5901 185.952 68.0941 185.472 68.0781 184.784H70.9741C70.9821 184.736 70.9901 184.64 70.9901 184.544C70.9901 183.344 70.3261 182.528 69.1421 182.528C68.1741 182.528 67.3021 183.352 67.3021 184.56C67.3021 185.864 68.2061 186.616 69.2381 186.616C70.1341 186.616 70.7501 186.08 70.9661 185.4L70.3181 185.176ZM76.1181 185.4C76.9501 185.4 77.6381 184.512 77.6381 183.32C77.6381 181.824 76.3981 180.704 74.7741 180.704C73.0861 180.704 71.6701 181.976 71.6701 183.832C71.6701 185.648 72.9981 186.872 74.8701 186.872C75.5581 186.872 76.3741 186.6 76.8381 186.16L76.5101 185.728C76.0301 186.112 75.4541 186.288 74.8701 186.288C73.2701 186.288 72.3261 185.24 72.3261 183.84C72.3261 182.312 73.3741 181.288 74.7821 181.288C76.1341 181.288 77.0221 182.16 77.0221 183.328C77.0221 184.128 76.6061 184.848 76.1581 184.848C75.9341 184.848 75.8541 184.704 75.8541 184.52C75.8541 184.448 75.8621 184.376 75.8781 184.296L76.3101 182.288H75.6781L75.6061 182.712C75.4861 182.352 75.0861 182.184 74.7501 182.184C73.8861 182.184 73.1501 182.976 73.1501 184.048C73.1501 184.872 73.6541 185.416 74.3741 185.416C74.7181 185.416 75.0861 185.232 75.3261 184.888C75.4141 185.24 75.7421 185.4 76.1181 185.4ZM75.4301 183.536C75.4061 184.288 75.0301 184.832 74.4861 184.832C73.9661 184.832 73.8061 184.448 73.8061 183.96C73.8061 183.368 74.1821 182.784 74.7581 182.784C75.1901 182.784 75.4301 183.064 75.4301 183.536ZM79.0474 184.176C79.0794 183.68 79.4634 183.192 80.0954 183.192C80.7754 183.192 81.1354 183.624 81.1514 184.176H79.0474ZM81.2634 185.176C81.1194 185.608 80.8074 185.952 80.1834 185.952C79.5354 185.952 79.0394 185.472 79.0234 184.784H81.9194C81.9274 184.736 81.9354 184.64 81.9354 184.544C81.9354 183.344 81.2714 182.528 80.0874 182.528C79.1194 182.528 78.2474 183.352 78.2474 184.56C78.2474 185.864 79.1514 186.616 80.1834 186.616C81.0794 186.616 81.6954 186.08 81.9114 185.4L81.2634 185.176ZM82.2963 186.496H83.1923L84.1683 185.08L85.1603 186.496H86.0643C85.8323 186.184 84.8803 184.848 84.6483 184.536L86.0163 182.648H85.1283L84.2003 184L83.2563 182.648H82.3443L83.7283 184.536L82.2963 186.496ZM86.546 185.464C86.546 186.072 87.05 186.616 87.834 186.616C88.522 186.616 88.906 186.248 89.074 185.976C89.074 186.256 89.098 186.4 89.114 186.496H89.85C89.834 186.4 89.802 186.2 89.802 185.864V183.936C89.802 183.184 89.354 182.528 88.202 182.528C87.37 182.528 86.706 183.04 86.626 183.776L87.346 183.944C87.394 183.496 87.69 183.168 88.218 183.168C88.802 183.168 89.05 183.48 89.05 183.856C89.05 183.992 88.986 184.112 88.754 184.144L87.714 184.296C87.05 184.392 86.546 184.776 86.546 185.464ZM87.938 185.984C87.554 185.984 87.314 185.712 87.314 185.424C87.314 185.08 87.554 184.896 87.874 184.848L89.05 184.672V184.848C89.05 185.688 88.554 185.984 87.938 185.984ZM91.7175 186.496V184.176C91.7175 183.6 92.0775 183.2 92.6135 183.2C93.1895 183.2 93.4295 183.584 93.4295 184.08V186.496H94.1815V184.168C94.1815 183.616 94.5415 183.2 95.0695 183.2C95.6375 183.2 95.8855 183.576 95.8855 184.08V186.496H96.6295V184C96.6295 182.992 95.9735 182.536 95.3015 182.536C94.8135 182.536 94.3175 182.712 94.0135 183.264C93.8055 182.768 93.3415 182.536 92.8615 182.536C92.4135 182.536 91.9335 182.736 91.6935 183.16V182.648H90.9735V186.496H91.7175ZM98.5769 188.016V185.976C98.7849 186.32 99.2329 186.6 99.8249 186.6C100.953 186.6 101.617 185.712 101.617 184.568C101.617 183.448 101.001 182.56 99.8489 182.56C99.2249 182.56 98.7689 182.864 98.5609 183.248V182.648H97.8329V188.016H98.5769ZM100.849 184.568C100.849 185.36 100.409 185.928 99.7129 185.928C99.0249 185.928 98.5689 185.36 98.5689 184.568C98.5689 183.8 99.0249 183.224 99.7129 183.224C100.417 183.224 100.849 183.8 100.849 184.568ZM103.327 186.496V180.704H102.575V186.496H103.327ZM105.094 184.176C105.126 183.68 105.51 183.192 106.142 183.192C106.822 183.192 107.182 183.624 107.198 184.176H105.094ZM107.31 185.176C107.166 185.608 106.854 185.952 106.23 185.952C105.582 185.952 105.086 185.472 105.07 184.784H107.966C107.974 184.736 107.982 184.64 107.982 184.544C107.982 183.344 107.318 182.528 106.134 182.528C105.166 182.528 104.294 183.352 104.294 184.56C104.294 185.864 105.198 186.616 106.23 186.616C107.126 186.616 107.742 186.08 107.958 185.4L107.31 185.176ZM108.745 185.984C108.745 186.296 108.985 186.536 109.297 186.536C109.609 186.536 109.857 186.296 109.857 185.984C109.857 185.672 109.609 185.424 109.297 185.424C108.985 185.424 108.745 185.672 108.745 185.984ZM112.558 183.224C113.214 183.224 113.494 183.664 113.59 184.04L114.27 183.752C114.11 183.168 113.582 182.528 112.558 182.528C111.462 182.528 110.622 183.368 110.622 184.568C110.622 185.736 111.446 186.616 112.566 186.616C113.566 186.616 114.118 185.968 114.302 185.416L113.638 185.128C113.55 185.432 113.286 185.92 112.566 185.92C111.942 185.92 111.39 185.448 111.39 184.568C111.39 183.672 111.95 183.224 112.558 183.224ZM116.793 185.944C116.153 185.944 115.593 185.464 115.593 184.568C115.593 183.68 116.153 183.2 116.793 183.2C117.433 183.2 117.993 183.68 117.993 184.568C117.993 185.464 117.433 185.944 116.793 185.944ZM116.793 182.528C115.641 182.528 114.825 183.4 114.825 184.568C114.825 185.744 115.641 186.616 116.793 186.616C117.945 186.616 118.761 185.744 118.761 184.568C118.761 183.4 117.945 182.528 116.793 182.528ZM120.467 186.496V184.176C120.467 183.6 120.827 183.2 121.363 183.2C121.939 183.2 122.179 183.584 122.179 184.08V186.496H122.931V184.168C122.931 183.616 123.291 183.2 123.819 183.2C124.387 183.2 124.635 183.576 124.635 184.08V186.496H125.379V184C125.379 182.992 124.723 182.536 124.051 182.536C123.563 182.536 123.067 182.712 122.763 183.264C122.555 182.768 122.091 182.536 121.611 182.536C121.163 182.536 120.683 182.736 120.443 183.16V182.648H119.723V186.496H120.467Z" fill="#737D92"/>
<path d="M50.3308 335.364V334.636H45.7548V335.364H47.6508V340.308H48.4348V335.364H50.3308ZM51.4467 341.916L53.9507 336.46H53.1427L51.9907 339.116L50.7907 336.46H49.9267L51.5827 339.884L50.6227 341.916H51.4467ZM55.4182 341.828V339.788C55.6262 340.132 56.0742 340.412 56.6662 340.412C57.7942 340.412 58.4582 339.524 58.4582 338.38C58.4582 337.26 57.8422 336.372 56.6902 336.372C56.0662 336.372 55.6102 336.676 55.4022 337.06V336.46H54.6742V341.828H55.4182ZM57.6902 338.38C57.6902 339.172 57.2502 339.74 56.5542 339.74C55.8662 339.74 55.4102 339.172 55.4102 338.38C55.4102 337.612 55.8662 337.036 56.5542 337.036C57.2582 337.036 57.6902 337.612 57.6902 338.38ZM59.9044 337.988C59.9364 337.492 60.3204 337.004 60.9524 337.004C61.6324 337.004 61.9924 337.436 62.0084 337.988H59.9044ZM62.1204 338.988C61.9764 339.42 61.6644 339.764 61.0404 339.764C60.3924 339.764 59.8964 339.284 59.8804 338.596H62.7764C62.7844 338.548 62.7924 338.452 62.7924 338.356C62.7924 337.156 62.1284 336.34 60.9444 336.34C59.9764 336.34 59.1044 337.164 59.1044 338.372C59.1044 339.676 60.0084 340.428 61.0404 340.428C61.9364 340.428 62.5524 339.892 62.7684 339.212L62.1204 338.988ZM66.5043 338.044C66.5203 337.476 66.8243 337.028 67.4003 337.028C68.0723 337.028 68.2963 337.46 68.2963 337.996V340.308H69.0483V337.868C69.0483 337.012 68.5923 336.348 67.6723 336.348C67.2323 336.348 66.7843 336.5 66.5043 336.908V334.516H65.7523V340.308H66.5043V338.044ZM70.7325 337.988C70.7645 337.492 71.1485 337.004 71.7805 337.004C72.4605 337.004 72.8205 337.436 72.8365 337.988H70.7325ZM72.9485 338.988C72.8045 339.42 72.4925 339.764 71.8685 339.764C71.2205 339.764 70.7245 339.284 70.7085 338.596H73.6045C73.6125 338.548 73.6205 338.452 73.6205 338.356C73.6205 337.156 72.9565 336.34 71.7725 336.34C70.8045 336.34 69.9325 337.164 69.9325 338.372C69.9325 339.676 70.8365 340.428 71.8685 340.428C72.7645 340.428 73.3805 339.892 73.5965 339.212L72.9485 338.988ZM76.7164 336.42C76.6764 336.412 76.5724 336.396 76.4684 336.396C76.0764 336.396 75.5964 336.54 75.3164 337.132V336.46H74.5804V340.308H75.3324V338.38C75.3324 337.532 75.7564 337.196 76.3884 337.196C76.4924 337.196 76.6044 337.204 76.7164 337.22V336.42ZM77.9669 337.988C77.9989 337.492 78.3829 337.004 79.0149 337.004C79.6949 337.004 80.0549 337.436 80.0709 337.988H77.9669ZM80.1829 338.988C80.0389 339.42 79.7269 339.764 79.1029 339.764C78.4549 339.764 77.9589 339.284 77.9429 338.596H80.8389C80.8469 338.548 80.8549 338.452 80.8549 338.356C80.8549 337.156 80.1909 336.34 79.0069 336.34C78.0389 336.34 77.1669 337.164 77.1669 338.372C77.1669 339.676 78.0709 340.428 79.1029 340.428C79.9989 340.428 80.6149 339.892 80.8309 339.212L80.1829 338.988ZM81.6176 339.796C81.6176 340.108 81.8576 340.348 82.1696 340.348C82.4816 340.348 82.7296 340.108 82.7296 339.796C82.7296 339.484 82.4816 339.236 82.1696 339.236C81.8576 339.236 81.6176 339.484 81.6176 339.796ZM83.852 339.796C83.852 340.108 84.092 340.348 84.404 340.348C84.716 340.348 84.964 340.108 84.964 339.796C84.964 339.484 84.716 339.236 84.404 339.236C84.092 339.236 83.852 339.484 83.852 339.796ZM86.0864 339.796C86.0864 340.108 86.3264 340.348 86.6384 340.348C86.9504 340.348 87.1984 340.108 87.1984 339.796C87.1984 339.484 86.9504 339.236 86.6384 339.236C86.3264 339.236 86.0864 339.484 86.0864 339.796Z" fill="#737D92"/>
<path d="M172.338 133.327V132.591H169.658V127.655H168.874V133.327H172.338ZM172.937 132.295C172.937 132.903 173.441 133.447 174.225 133.447C174.913 133.447 175.297 133.079 175.465 132.807C175.465 133.087 175.489 133.231 175.505 133.327H176.241C176.225 133.231 176.193 133.031 176.193 132.695V130.767C176.193 130.015 175.745 129.359 174.593 129.359C173.761 129.359 173.097 129.871 173.017 130.607L173.737 130.775C173.785 130.327 174.081 129.999 174.609 129.999C175.193 129.999 175.441 130.311 175.441 130.687C175.441 130.823 175.377 130.943 175.145 130.975L174.105 131.127C173.441 131.223 172.937 131.607 172.937 132.295ZM174.329 132.815C173.945 132.815 173.705 132.543 173.705 132.255C173.705 131.911 173.945 131.727 174.265 131.679L175.441 131.503V131.679C175.441 132.519 174.945 132.815 174.329 132.815ZM177.004 132.327C177.068 132.767 177.516 133.447 178.572 133.447C179.524 133.447 179.98 132.799 179.98 132.255C179.98 131.687 179.612 131.263 178.916 131.111L178.292 130.975C177.996 130.911 177.852 130.743 177.852 130.511C177.852 130.247 178.108 129.999 178.492 129.999C179.1 129.999 179.26 130.439 179.292 130.639L179.956 130.391C179.876 130.047 179.548 129.359 178.492 129.359C177.74 129.359 177.124 129.919 177.124 130.575C177.124 131.119 177.484 131.527 178.084 131.655L178.74 131.799C179.06 131.871 179.236 132.055 179.236 132.295C179.236 132.567 179.004 132.807 178.58 132.807C178.036 132.807 177.732 132.487 177.684 132.087L177.004 132.327ZM181.989 128.263H181.301V128.887C181.301 129.223 181.125 129.479 180.709 129.479H180.501V130.159H181.237V132.271C181.237 132.967 181.653 133.367 182.309 133.367C182.565 133.367 182.757 133.319 182.821 133.295V132.655C182.757 132.671 182.621 132.687 182.525 132.687C182.133 132.687 181.989 132.511 181.989 132.159V130.159H182.821V129.479H181.989V128.263ZM190.569 133.327V127.655H189.785V132.007L186.953 127.655H185.905V133.327H186.689V128.703L189.753 133.327H190.569ZM191.648 132.295C191.648 132.903 192.152 133.447 192.936 133.447C193.624 133.447 194.008 133.079 194.176 132.807C194.176 133.087 194.2 133.231 194.216 133.327H194.952C194.936 133.231 194.904 133.031 194.904 132.695V130.767C194.904 130.015 194.456 129.359 193.304 129.359C192.472 129.359 191.808 129.871 191.728 130.607L192.448 130.775C192.496 130.327 192.792 129.999 193.32 129.999C193.904 129.999 194.152 130.311 194.152 130.687C194.152 130.823 194.088 130.943 193.856 130.975L192.816 131.127C192.152 131.223 191.648 131.607 191.648 132.295ZM193.04 132.815C192.656 132.815 192.416 132.543 192.416 132.255C192.416 131.911 192.656 131.727 192.976 131.679L194.152 131.503V131.679C194.152 132.519 193.656 132.815 193.04 132.815ZM196.819 133.327V131.007C196.819 130.431 197.179 130.031 197.715 130.031C198.291 130.031 198.531 130.415 198.531 130.911V133.327H199.283V130.999C199.283 130.447 199.643 130.031 200.171 130.031C200.739 130.031 200.987 130.407 200.987 130.911V133.327H201.731V130.831C201.731 129.823 201.075 129.367 200.403 129.367C199.915 129.367 199.419 129.543 199.115 130.095C198.907 129.599 198.443 129.367 197.963 129.367C197.515 129.367 197.035 129.567 196.795 129.991V129.479H196.075V133.327H196.819ZM203.422 131.007C203.454 130.511 203.838 130.023 204.47 130.023C205.15 130.023 205.51 130.455 205.526 131.007H203.422ZM205.638 132.007C205.494 132.439 205.182 132.783 204.558 132.783C203.91 132.783 203.414 132.303 203.398 131.615H206.294C206.302 131.567 206.31 131.471 206.31 131.375C206.31 130.175 205.646 129.359 204.462 129.359C203.494 129.359 202.622 130.183 202.622 131.391C202.622 132.695 203.526 133.447 204.558 133.447C205.454 133.447 206.07 132.911 206.286 132.231L205.638 132.007Z" fill="#737D92"/>
<rect x="41.4272" y="104.939" width="115.782" height="16.0901" rx="1.5" stroke="#C3CAD7"/>
<rect x="41.4272" y="158.108" width="115.782" height="16.0901" rx="1.5" stroke="#C3CAD7"/>
<path d="M46.3472 203.904C46.1872 203.134 45.5472 202.144 43.9472 202.144C42.6372 202.144 41.6072 203.144 41.6072 204.254C41.6072 205.314 42.3272 205.974 43.3372 206.194L44.3472 206.414C45.0572 206.564 45.4072 207.004 45.4072 207.514C45.4072 208.134 44.9272 208.644 43.9472 208.644C42.8772 208.644 42.3172 207.914 42.2472 207.124L41.3072 207.424C41.4372 208.434 42.2472 209.534 43.9572 209.534C45.4672 209.534 46.4072 208.534 46.4072 207.434C46.4072 206.444 45.7472 205.704 44.5672 205.444L43.5072 205.214C42.9072 205.084 42.5972 204.694 42.5972 204.184C42.5972 203.524 43.1672 203.004 43.9672 203.004C44.9572 203.004 45.3872 203.704 45.4672 204.214L46.3472 203.904ZM48.1673 206.484C48.2073 205.864 48.6873 205.254 49.4773 205.254C50.3273 205.254 50.7773 205.794 50.7973 206.484H48.1673ZM50.9373 207.734C50.7573 208.274 50.3673 208.704 49.5873 208.704C48.7773 208.704 48.1573 208.104 48.1373 207.244H51.7573C51.7673 207.184 51.7773 207.064 51.7773 206.944C51.7773 205.444 50.9473 204.424 49.4673 204.424C48.2573 204.424 47.1673 205.454 47.1673 206.964C47.1673 208.594 48.2973 209.534 49.5873 209.534C50.7073 209.534 51.4773 208.864 51.7473 208.014L50.9373 207.734ZM53.9172 209.384V202.144H52.9772V209.384H53.9172ZM56.1263 206.484C56.1663 205.864 56.6463 205.254 57.4363 205.254C58.2863 205.254 58.7363 205.794 58.7563 206.484H56.1263ZM58.8963 207.734C58.7163 208.274 58.3263 208.704 57.5463 208.704C56.7363 208.704 56.1163 208.104 56.0963 207.244H59.7163C59.7263 207.184 59.7363 207.064 59.7363 206.944C59.7363 205.444 58.9063 204.424 57.4263 204.424C56.2163 204.424 55.1263 205.454 55.1263 206.964C55.1263 208.594 56.2563 209.534 57.5463 209.534C58.6663 209.534 59.4363 208.864 59.7063 208.014L58.8963 207.734ZM62.9562 205.294C63.7762 205.294 64.1262 205.844 64.2462 206.314L65.0962 205.954C64.8962 205.224 64.2362 204.424 62.9562 204.424C61.5862 204.424 60.5362 205.474 60.5362 206.974C60.5362 208.434 61.5662 209.534 62.9662 209.534C64.2162 209.534 64.9062 208.724 65.1362 208.034L64.3062 207.674C64.1962 208.054 63.8662 208.664 62.9662 208.664C62.1862 208.664 61.4962 208.074 61.4962 206.974C61.4962 205.854 62.1962 205.294 62.9562 205.294ZM67.499 203.054H66.639V203.834C66.639 204.254 66.419 204.574 65.899 204.574H65.639V205.424H66.559V208.064C66.559 208.934 67.079 209.434 67.899 209.434C68.219 209.434 68.459 209.374 68.539 209.344V208.544C68.459 208.564 68.289 208.584 68.169 208.584C67.679 208.584 67.499 208.364 67.499 207.924V205.424H68.539V204.574H67.499V203.054ZM73.4937 211.394L76.6237 204.574H75.6137L74.1737 207.894L72.6737 204.574H71.5937L73.6637 208.854L72.4637 211.394H73.4937ZM79.3927 208.694C78.5927 208.694 77.8927 208.094 77.8927 206.974C77.8927 205.864 78.5927 205.264 79.3927 205.264C80.1927 205.264 80.8927 205.864 80.8927 206.974C80.8927 208.094 80.1927 208.694 79.3927 208.694ZM79.3927 204.424C77.9527 204.424 76.9327 205.514 76.9327 206.974C76.9327 208.444 77.9527 209.534 79.3927 209.534C80.8327 209.534 81.8527 208.444 81.8527 206.974C81.8527 205.514 80.8327 204.424 79.3927 204.424ZM86.1765 208.804C86.1765 209.004 86.1965 209.274 86.2165 209.384H87.1165C87.0965 209.214 87.0665 208.874 87.0665 208.494V204.574H86.1265V207.474C86.1265 208.204 85.7465 208.704 84.9865 208.704C84.1965 208.704 83.8965 208.124 83.8965 207.464V204.574H82.9565V207.604C82.9565 208.694 83.6365 209.534 84.7565 209.534C85.3165 209.534 85.9165 209.304 86.1765 208.804ZM91.3406 204.524C91.2906 204.514 91.1606 204.494 91.0306 204.494C90.5406 204.494 89.9406 204.674 89.5906 205.414V204.574H88.6706V209.384H89.6106V206.974C89.6106 205.914 90.1406 205.494 90.9306 205.494C91.0606 205.494 91.2006 205.504 91.3406 205.524V204.524ZM96.7125 202.114C95.8425 202.114 95.1325 202.694 95.1325 203.764V204.574H94.2425V205.424H95.1325V209.384H96.1025V205.424H98.3525V209.384H99.2825V204.574H96.1025V203.804C96.1025 203.144 96.5325 202.994 96.8625 202.994C97.1025 202.994 97.2225 203.034 97.2725 203.054V202.214C97.2325 202.184 97.0325 202.114 96.7125 202.114ZM98.1425 202.734C98.1425 203.104 98.4425 203.404 98.8125 203.404C99.1925 203.404 99.4925 203.104 99.4925 202.734C99.4925 202.354 99.1925 202.054 98.8125 202.054C98.4425 202.054 98.1425 202.354 98.1425 202.734ZM101.818 209.384V202.144H100.878V209.384H101.818ZM104.027 206.484C104.067 205.864 104.547 205.254 105.337 205.254C106.187 205.254 106.637 205.794 106.657 206.484H104.027ZM106.797 207.734C106.617 208.274 106.227 208.704 105.447 208.704C104.637 208.704 104.017 208.104 103.997 207.244H107.617C107.627 207.184 107.637 207.064 107.637 206.944C107.637 205.444 106.807 204.424 105.327 204.424C104.117 204.424 103.027 205.454 103.027 206.964C103.027 208.594 104.157 209.534 105.447 209.534C106.567 209.534 107.337 208.864 107.607 208.014L106.797 207.734ZM112.597 203.054H111.737V203.834C111.737 204.254 111.517 204.574 110.997 204.574H110.737V205.424H111.657V208.064C111.657 208.934 112.177 209.434 112.997 209.434C113.317 209.434 113.557 209.374 113.637 209.344V208.544C113.557 208.564 113.387 208.584 113.267 208.584C112.777 208.584 112.597 208.364 112.597 207.924V205.424H113.637V204.574H112.597V203.054ZM116.14 211.394L119.27 204.574H118.26L116.82 207.894L115.32 204.574H114.24L116.31 208.854L115.11 211.394H116.14ZM121.105 211.284V208.734C121.365 209.164 121.925 209.514 122.665 209.514C124.075 209.514 124.905 208.404 124.905 206.974C124.905 205.574 124.135 204.464 122.695 204.464C121.915 204.464 121.345 204.844 121.085 205.324V204.574H120.175V211.284H121.105ZM123.945 206.974C123.945 207.964 123.395 208.674 122.525 208.674C121.665 208.674 121.095 207.964 121.095 206.974C121.095 206.014 121.665 205.294 122.525 205.294C123.405 205.294 123.945 206.014 123.945 206.974ZM126.712 206.484C126.752 205.864 127.232 205.254 128.022 205.254C128.872 205.254 129.322 205.794 129.342 206.484H126.712ZM129.482 207.734C129.302 208.274 128.912 208.704 128.132 208.704C127.322 208.704 126.702 208.104 126.682 207.244H130.302C130.312 207.184 130.322 207.064 130.322 206.944C130.322 205.444 129.492 204.424 128.012 204.424C126.802 204.424 125.712 205.454 125.712 206.964C125.712 208.594 126.842 209.534 128.132 209.534C129.252 209.534 130.022 208.864 130.292 208.014L129.482 207.734ZM131.072 208.134C131.152 208.684 131.712 209.534 133.032 209.534C134.222 209.534 134.792 208.724 134.792 208.044C134.792 207.334 134.332 206.804 133.462 206.614L132.682 206.444C132.312 206.364 132.132 206.154 132.132 205.864C132.132 205.534 132.452 205.224 132.932 205.224C133.692 205.224 133.892 205.774 133.932 206.024L134.762 205.714C134.662 205.284 134.252 204.424 132.932 204.424C131.992 204.424 131.222 205.124 131.222 205.944C131.222 206.624 131.672 207.134 132.422 207.294L133.242 207.474C133.642 207.564 133.862 207.794 133.862 208.094C133.862 208.434 133.572 208.734 133.042 208.734C132.362 208.734 131.982 208.334 131.922 207.834L131.072 208.134Z" fill="black"/>
<path d="M47.1788 222.4V220.456H48.3148C48.9948 220.456 49.4108 220.84 49.4108 221.44C49.4108 222.024 48.9948 222.4 48.3148 222.4H47.1788ZM48.4588 223.104C49.5068 223.104 50.2108 222.392 50.2108 221.432C50.2108 220.48 49.5068 219.752 48.4588 219.752H46.3948V225.424H47.1788V223.104H48.4588ZM51.7621 225.424V219.632H51.0101V225.424H51.7621ZM53.5294 223.104C53.5614 222.608 53.9454 222.12 54.5774 222.12C55.2574 222.12 55.6174 222.552 55.6334 223.104H53.5294ZM55.7454 224.104C55.6014 224.536 55.2894 224.88 54.6654 224.88C54.0174 224.88 53.5214 224.4 53.5054 223.712H56.4014C56.4094 223.664 56.4174 223.568 56.4174 223.472C56.4174 222.272 55.7534 221.456 54.5694 221.456C53.6014 221.456 52.7294 222.28 52.7294 223.488C52.7294 224.792 53.6334 225.544 54.6654 225.544C55.5614 225.544 56.1774 225.008 56.3934 224.328L55.7454 224.104ZM57.1373 224.392C57.1373 225 57.6413 225.544 58.4253 225.544C59.1133 225.544 59.4973 225.176 59.6653 224.904C59.6653 225.184 59.6893 225.328 59.7053 225.424H60.4413C60.4253 225.328 60.3933 225.128 60.3933 224.792V222.864C60.3933 222.112 59.9453 221.456 58.7933 221.456C57.9613 221.456 57.2973 221.968 57.2173 222.704L57.9373 222.872C57.9853 222.424 58.2813 222.096 58.8093 222.096C59.3933 222.096 59.6413 222.408 59.6413 222.784C59.6413 222.92 59.5773 223.04 59.3453 223.072L58.3053 223.224C57.6413 223.32 57.1373 223.704 57.1373 224.392ZM58.5293 224.912C58.1453 224.912 57.9053 224.64 57.9053 224.352C57.9053 224.008 58.1453 223.824 58.4653 223.776L59.6413 223.6V223.776C59.6413 224.616 59.1453 224.912 58.5293 224.912ZM61.2048 224.424C61.2688 224.864 61.7168 225.544 62.7728 225.544C63.7248 225.544 64.1808 224.896 64.1808 224.352C64.1808 223.784 63.8128 223.36 63.1168 223.208L62.4928 223.072C62.1968 223.008 62.0528 222.84 62.0528 222.608C62.0528 222.344 62.3088 222.096 62.6928 222.096C63.3008 222.096 63.4608 222.536 63.4928 222.736L64.1568 222.488C64.0768 222.144 63.7488 221.456 62.6928 221.456C61.9408 221.456 61.3248 222.016 61.3248 222.672C61.3248 223.216 61.6848 223.624 62.2848 223.752L62.9408 223.896C63.2608 223.968 63.4368 224.152 63.4368 224.392C63.4368 224.664 63.2048 224.904 62.7808 224.904C62.2368 224.904 61.9328 224.584 61.8848 224.184L61.2048 224.424ZM65.6309 223.104C65.6629 222.608 66.0469 222.12 66.6789 222.12C67.3589 222.12 67.7189 222.552 67.7349 223.104H65.6309ZM67.8469 224.104C67.7029 224.536 67.3909 224.88 66.7669 224.88C66.1189 224.88 65.6229 224.4 65.6069 223.712H68.5029C68.5109 223.664 68.5189 223.568 68.5189 223.472C68.5189 222.272 67.8549 221.456 66.6709 221.456C65.7029 221.456 64.8309 222.28 64.8309 223.488C64.8309 224.792 65.7349 225.544 66.7669 225.544C67.6629 225.544 68.2789 225.008 68.4949 224.328L67.8469 224.104ZM75.1749 221.04C75.0469 220.424 74.5349 219.632 73.2549 219.632C72.2069 219.632 71.3829 220.432 71.3829 221.32C71.3829 222.168 71.9589 222.696 72.7669 222.872L73.5749 223.048C74.1429 223.168 74.4229 223.52 74.4229 223.928C74.4229 224.424 74.0389 224.832 73.2549 224.832C72.3989 224.832 71.9509 224.248 71.8949 223.616L71.1429 223.856C71.2469 224.664 71.8949 225.544 73.2629 225.544C74.4709 225.544 75.2229 224.744 75.2229 223.864C75.2229 223.072 74.6949 222.48 73.7509 222.272L72.9029 222.088C72.4229 221.984 72.1749 221.672 72.1749 221.264C72.1749 220.736 72.6309 220.32 73.2709 220.32C74.0629 220.32 74.4069 220.88 74.4709 221.288L75.1749 221.04ZM76.6309 223.104C76.6629 222.608 77.0469 222.12 77.6789 222.12C78.3589 222.12 78.7189 222.552 78.7349 223.104H76.6309ZM78.8469 224.104C78.7029 224.536 78.3909 224.88 77.7669 224.88C77.1189 224.88 76.6229 224.4 76.6069 223.712H79.5029C79.5109 223.664 79.5189 223.568 79.5189 223.472C79.5189 222.272 78.8549 221.456 77.6709 221.456C76.7029 221.456 75.8309 222.28 75.8309 223.488C75.8309 224.792 76.7349 225.544 77.7669 225.544C78.6629 225.544 79.2789 225.008 79.4949 224.328L78.8469 224.104ZM81.2309 225.424V219.632H80.4789V225.424H81.2309ZM82.9981 223.104C83.0301 222.608 83.4141 222.12 84.0461 222.12C84.7261 222.12 85.0861 222.552 85.1021 223.104H82.9981ZM85.2141 224.104C85.0701 224.536 84.7581 224.88 84.1341 224.88C83.4861 224.88 82.9901 224.4 82.9741 223.712H85.8701C85.8781 223.664 85.8861 223.568 85.8861 223.472C85.8861 222.272 85.2221 221.456 84.0381 221.456C83.0701 221.456 82.1981 222.28 82.1981 223.488C82.1981 224.792 83.1021 225.544 84.1341 225.544C85.0301 225.544 85.6461 225.008 85.8621 224.328L85.2141 224.104ZM88.4621 222.152C89.1181 222.152 89.3981 222.592 89.4941 222.968L90.1741 222.68C90.0141 222.096 89.4861 221.456 88.4621 221.456C87.3661 221.456 86.5261 222.296 86.5261 223.496C86.5261 224.664 87.3501 225.544 88.4701 225.544C89.4701 225.544 90.0221 224.896 90.2061 224.344L89.5421 224.056C89.4541 224.36 89.1901 224.848 88.4701 224.848C87.8461 224.848 87.2941 224.376 87.2941 223.496C87.2941 222.6 87.8541 222.152 88.4621 222.152ZM92.0962 220.36H91.4082V220.984C91.4082 221.32 91.2322 221.576 90.8162 221.576H90.6082V222.256H91.3442V224.368C91.3442 225.064 91.7602 225.464 92.4162 225.464C92.6722 225.464 92.8642 225.416 92.9282 225.392V224.752C92.8642 224.768 92.7282 224.784 92.6322 224.784C92.2402 224.784 92.0962 224.608 92.0962 224.256V222.256H92.9282V221.576H92.0962V220.36Z" fill="#737D92"/>
<rect x="41.4272" y="214.126" width="115.782" height="16.0901" rx="1.5" stroke="#C3CAD7"/>
<rect x="41.4272" y="329.959" width="243.009" height="38.8769" rx="1.5" stroke="#C3CAD7"/>
<rect x="41.4272" y="255.901" width="243.009" height="50.2703" rx="1.5" stroke="#C3CAD7" stroke-dasharray="2 2"/>
<rect x="168.654" y="104.939" width="115.782" height="16.0901" rx="1.5" stroke="#C3CAD7"/>
<path d="M147.266 221.222L148.933 222.888C149.323 223.279 149.957 223.279 150.347 222.888L152.014 221.222" stroke="#5C6881"/>
<path fill-rule="evenodd" clip-rule="evenodd" d="M158.127 263.795C158.823 262.751 160.381 261.278 162.77 261.278C164.54 261.278 165.803 262.176 166.598 263.215C167.113 263.89 167.478 264.668 167.666 265.496C168.318 265.601 169.075 265.853 169.748 266.338C170.741 267.052 171.495 268.236 171.495 270.004C171.495 271.771 170.741 272.955 169.748 273.671C168.797 274.354 167.681 274.575 166.925 274.575H163.185V269.102L164.26 270.176C164.416 270.327 164.626 270.411 164.844 270.409C165.062 270.407 165.271 270.32 165.425 270.166C165.579 270.012 165.666 269.803 165.668 269.586C165.67 269.368 165.586 269.158 165.435 269.001L162.942 266.508C162.786 266.352 162.575 266.265 162.354 266.265C162.134 266.265 161.922 266.352 161.767 266.508L159.274 269.001C159.194 269.078 159.131 269.169 159.087 269.271C159.044 269.372 159.021 269.481 159.02 269.592C159.019 269.702 159.04 269.811 159.082 269.913C159.124 270.016 159.185 270.108 159.263 270.186C159.341 270.264 159.434 270.326 159.536 270.368C159.638 270.41 159.748 270.431 159.858 270.43C159.968 270.429 160.077 270.406 160.179 270.362C160.28 270.319 160.372 270.255 160.449 270.176L161.523 269.102V274.575H158.615C157.72 274.575 156.396 274.313 155.272 273.504C154.106 272.664 153.213 271.272 153.213 269.173C153.213 267.074 154.106 265.682 155.272 264.842C156.206 264.169 157.277 263.875 158.127 263.795V263.795Z" fill="#C3CAD7"/>
<rect x="40.9272" y="379.294" width="68.144" height="21.6066" rx="2" fill="#27BB5F"/>
<path d="M58.9162 389.094C58.7882 388.478 58.2762 387.686 56.9962 387.686C55.9482 387.686 55.1242 388.486 55.1242 389.374C55.1242 390.222 55.7002 390.75 56.5082 390.926L57.3162 391.102C57.8842 391.222 58.1642 391.574 58.1642 391.982C58.1642 392.478 57.7802 392.886 56.9962 392.886C56.1402 392.886 55.6922 392.302 55.6362 391.67L54.8842 391.91C54.9882 392.718 55.6362 393.598 57.0042 393.598C58.2122 393.598 58.9642 392.798 58.9642 391.918C58.9642 391.126 58.4362 390.534 57.4922 390.326L56.6442 390.142C56.1642 390.038 55.9162 389.726 55.9162 389.318C55.9162 388.79 56.3722 388.374 57.0122 388.374C57.8042 388.374 58.1482 388.934 58.2122 389.342L58.9162 389.094ZM60.3723 391.158C60.4043 390.662 60.7883 390.174 61.4203 390.174C62.1003 390.174 62.4603 390.606 62.4763 391.158H60.3723ZM62.5883 392.158C62.4443 392.59 62.1323 392.934 61.5083 392.934C60.8603 392.934 60.3643 392.454 60.3483 391.766H63.2443C63.2523 391.718 63.2603 391.622 63.2603 391.526C63.2603 390.326 62.5963 389.51 61.4123 389.51C60.4443 389.51 59.5723 390.334 59.5723 391.542C59.5723 392.846 60.4763 393.598 61.5083 393.598C62.4043 393.598 63.0203 393.062 63.2363 392.382L62.5883 392.158ZM64.9722 391.254C64.9722 390.67 65.2762 390.198 65.8682 390.198C66.5402 390.198 66.7642 390.63 66.7642 391.166V393.478H67.5162V391.038C67.5162 390.182 67.0602 389.518 66.1402 389.518C65.6922 389.518 65.2362 389.702 64.9562 390.182V389.63H64.2202V393.478H64.9722V391.254ZM69.1604 391.542C69.1604 390.75 69.6084 390.19 70.2964 390.19C70.9844 390.19 71.4004 390.734 71.4004 391.526C71.4004 392.318 70.9764 392.918 70.2884 392.918C69.5684 392.918 69.1604 392.334 69.1604 391.542ZM71.4084 392.958C71.4084 393.19 71.4324 393.39 71.4484 393.478H72.1764C72.1684 393.414 72.1364 393.134 72.1364 392.766V387.686H71.3924V390.174C71.2644 389.862 70.8964 389.526 70.2164 389.526C69.1284 389.526 68.3924 390.454 68.3924 391.542C68.3924 392.686 69.0884 393.582 70.2164 393.582C70.8164 393.582 71.2244 393.262 71.4084 392.894V392.958ZM80.1595 393.478V387.806H79.3755V392.158L76.5435 387.806H75.4955V393.478H76.2795V388.854L79.3435 393.478H80.1595ZM83.1651 392.926C82.5251 392.926 81.9651 392.446 81.9651 391.55C81.9651 390.662 82.5251 390.182 83.1651 390.182C83.8051 390.182 84.3651 390.662 84.3651 391.55C84.3651 392.446 83.8051 392.926 83.1651 392.926ZM83.1651 389.51C82.0131 389.51 81.1971 390.382 81.1971 391.55C81.1971 392.726 82.0131 393.598 83.1651 393.598C84.3171 393.598 85.1331 392.726 85.1331 391.55C85.1331 390.382 84.3171 389.51 83.1651 389.51ZM88.1851 389.63L87.1851 392.526L86.3211 389.63H85.4971L86.7611 393.478H87.5531L88.5531 390.55L89.5771 393.478H90.3531L91.6011 389.63H90.8091L89.9611 392.526L88.9611 389.63H88.1851ZM93.4328 387.806H92.4888L92.6968 391.854H93.2328L93.4328 387.806ZM92.4408 392.998C92.4408 393.286 92.6728 393.518 92.9608 393.518C93.2488 393.518 93.4888 393.286 93.4888 392.998C93.4888 392.71 93.2488 392.47 92.9608 392.47C92.6728 392.47 92.4408 392.71 92.4408 392.998Z" fill="white"/>
<path d="M321.965 0H2V14.2418H321.965V0Z" fill="#D9D9D9"/>
<path d="M16.8007 9.9217C18.4384 9.9217 19.766 8.59805 19.766 6.96524C19.766 5.33244 18.4384 4.00879 16.8007 4.00879C15.163 4.00879 13.8354 5.33244 13.8354 6.96524C13.8354 8.59805 15.163 9.9217 16.8007 9.9217Z" fill="#F32D28"/>
<path d="M30.6132 9.9217C32.2509 9.9217 33.5785 8.59805 33.5785 6.96524C33.5785 5.33244 32.2509 4.00879 30.6132 4.00879C28.9755 4.00879 27.6479 5.33244 27.6479 6.96524C27.6479 8.59805 28.9755 9.9217 30.6132 9.9217Z" fill="#FAB41E"/>
<path d="M43.7861 9.9217C45.4237 9.9217 46.7513 8.59805 46.7513 6.96524C46.7513 5.33244 45.4237 4.00879 43.7861 4.00879C42.1484 4.00879 40.8208 5.33244 40.8208 6.96524C40.8208 8.59805 42.1484 9.9217 43.7861 9.9217Z" fill="#93979C"/>
<path d="M251.258 3.79785H76.2773V9.73192H251.258V3.79785Z" fill="white"/>
<defs>
<filter id="filter0_d" x="0.778809" y="9.49512" width="319.199" height="424.246" filterUnits="userSpaceOnUse" color-interpolation-filters="sRGB">
<feFlood flood-opacity="0" result="BackgroundImageFix"/>
<feColorMatrix in="SourceAlpha" type="matrix" values="0 0 0 0 0 0 0 0 0 0 0 0 0 0 0 0 0 0 127 0" result="hardAlpha"/>
<feOffset dy="4"/>
<feGaussianBlur stdDeviation="2"/>
<feComposite in2="hardAlpha" operator="out"/>
<feColorMatrix type="matrix" values="0 0 0 0 0 0 0 0 0 0 0 0 0 0 0 0 0 0 0.25 0"/>
<feBlend mode="normal" in2="BackgroundImageFix" result="effect1_dropShadow"/>
<feBlend mode="normal" in="SourceGraphic" in2="effect1_dropShadow" result="shape"/>
</filter>
</defs>
</svg>
