<svg width="49" height="28" viewBox="0 0 49 28" fill="none" xmlns="http://www.w3.org/2000/svg">
<path d="M17.9188 21.9192C17.8792 21.9825 17.8554 22.0173 17.8349 22.054C16.8322 23.8478 15.4076 25.1947 13.5532 26.0819C12.7566 26.4631 11.9199 26.7196 11.0476 26.862C10.4277 26.9631 9.80376 27.0085 9.17707 26.9847C7.94368 26.938 6.75687 26.6761 5.63035 26.1661C3.74887 25.3142 2.28944 23.9919 1.25415 22.2052C0.713207 21.2716 0.351188 20.2707 0.157258 19.2087C0.0471125 18.6039 0.000391916 17.9947 0.00052242 17.3802C0.00169696 12.2472 0.00156646 7.11405 4.02251e-07 1.98089C-0.000130102 1.68588 0.031452 1.39921 0.156997 1.1295C0.460159 0.478527 0.966125 0.100782 1.68129 0.0136198C2.64585 -0.103944 3.49256 0.554858 3.70019 1.39986C3.74222 1.57118 3.76662 1.75151 3.76688 1.92766C3.77106 4.51603 3.76975 7.10426 3.76988 9.69263C3.76988 9.74691 3.77249 9.80106 3.77471 9.88509C6.14937 8.19196 8.74328 7.59135 11.5691 8.21793C14.4018 8.84607 16.4825 10.5111 17.9146 13.0377C19.3336 10.525 21.4087 8.88417 24.2147 8.22158C25.8649 7.83196 27.5116 7.90438 29.1326 8.4036C30.7158 8.89121 32.0793 9.74221 33.2206 10.943C36.7242 14.6294 36.7026 20.4422 33.1479 24.1029C32.7681 24.494 32.3582 24.8501 31.918 25.1714C31.4778 25.4928 31.013 25.7737 30.5243 26.0145C30.0399 26.2531 29.5382 26.4485 29.0198 26.6009C28.4975 26.7544 27.9665 26.865 27.4255 26.9239C26.8847 26.9829 26.3432 27.0044 25.7985 26.9718C25.2547 26.9392 24.7177 26.8672 24.1873 26.7466C23.6567 26.6259 23.1408 26.4571 22.639 26.2453C22.1371 26.0334 21.657 25.7803 21.1985 25.4858C20.7436 25.1935 20.3162 24.8656 19.918 24.5C19.5167 24.1314 19.1477 23.733 18.8135 23.3021C18.4814 22.8736 18.1906 22.4175 17.9188 21.9192ZM32.0593 17.4915C32.0729 14.3875 29.5623 11.7557 26.3308 11.7523C23.1811 11.749 20.5949 14.2779 20.5948 17.4854C20.5946 20.69 23.1776 23.2142 26.3182 23.2181C29.5469 23.222 32.0661 20.597 32.0593 17.4915ZM3.76975 17.4853C3.75735 20.5785 6.26239 23.2111 9.4912 23.2181C12.6319 23.225 15.2299 20.7069 15.2339 17.4918C15.238 14.2924 12.6614 11.7529 9.50412 11.7524C6.27492 11.7518 3.75918 14.3793 3.76975 17.4853Z" fill="#0081C6"/>
<path d="M41.4065 14.329C41.4517 14.2746 41.489 14.2334 41.5222 14.189C42.6506 12.6814 43.7786 11.1734 44.9067 9.66559C45.1334 9.36261 45.3591 9.05911 45.5872 8.75718C46.0145 8.1918 46.588 7.92692 47.2894 7.98525C48.1356 8.05558 48.7855 8.66884 48.9536 9.44952C49.0781 10.0277 48.9528 10.5522 48.5994 11.0246C47.0258 13.1279 45.4523 15.2314 43.8788 17.3348C43.7427 17.5167 43.7516 17.4794 43.8808 17.6521C45.4411 19.7383 47.0014 21.8244 48.5637 23.9091C48.7624 24.1744 48.9102 24.4595 48.9698 24.788C49.1481 25.7698 48.5304 26.7492 47.5293 26.9593C46.7286 27.1272 46.0684 26.866 45.5781 26.2138C44.2245 24.413 42.8781 22.6068 41.5284 20.8029C41.4928 20.7552 41.4536 20.7104 41.4064 20.6522C41.3665 20.7003 41.3352 20.7349 41.3074 20.7721C39.9812 22.5447 38.655 24.3173 37.3297 26.0906C37.1835 26.2862 37.0341 26.477 36.8368 26.6259C36.506 26.8756 36.1306 27.0079 35.7211 27.0096C34.6734 27.0139 33.9233 26.2283 33.8274 25.3444C33.7703 24.819 33.9139 24.3575 34.2271 23.94C34.7543 23.2373 35.2804 22.5338 35.8067 21.8303C36.854 20.4303 37.9011 19.0301 38.9482 17.6301C38.9613 17.6127 38.9748 17.5956 38.9874 17.5779C39.0464 17.4941 39.0483 17.4888 38.9876 17.4068C38.8168 17.1761 38.6441 16.9469 38.4721 16.717C37.0521 14.8191 35.633 12.9206 34.2114 11.024C33.9606 10.6894 33.8168 10.3153 33.8126 9.90033C33.8069 9.31825 34.0189 8.8202 34.4633 8.43554C34.8722 8.08154 35.355 7.93084 35.8902 7.98629C36.4408 8.04344 36.8864 8.30336 37.2196 8.74857C38.0928 9.91481 38.9655 11.0815 39.8384 12.248C40.3283 12.9026 40.8181 13.5572 41.3083 14.2116C41.3365 14.2486 41.368 14.283 41.4065 14.329Z" fill="#0081C6"/>
</svg>
