<svg width="144" height="40" viewBox="0 0 144 40" fill="none" xmlns="http://www.w3.org/2000/svg">
<mask id="mask0" mask-type="alpha" maskUnits="userSpaceOnUse" x="0" y="0" width="144" height="40">
<rect width="144" height="40" fill="white"/>
</mask>
<g mask="url(#mask0)">
<path d="M161 -28H-17V61H161V-28Z" fill="white"/>
<path opacity="0.1" d="M20.555 31.8049C29.0078 31.8049 35.8601 24.9526 35.8601 16.4999C35.8601 8.04712 29.0078 1.19482 20.555 1.19482C12.1023 1.19482 5.25 8.04712 5.25 16.4999C5.25 24.9526 12.1023 31.8049 20.555 31.8049Z" fill="#424242"/>
<path opacity="0.05" d="M33.0834 19.0215L34.9435 11.2814C33.5581 7.47742 30.7261 4.37463 27.0641 2.64844L24.2695 17.7221L13.8535 26.1771L33.0834 19.0215Z" fill="black"/>
<path d="M20.5548 1.19484C19.1609 1.19505 17.7735 1.38569 16.4311 1.76147L15.0605 6.82557L17.9145 7.22904L20.8574 8.24067L23.5274 9.5727L25.6456 2.0611C24.0102 1.48542 22.2886 1.19248 20.5548 1.19484Z" fill="#F38632"/>
<path d="M16.7252 21.4424L13.8564 26.1772L14.2006 20.6177L15.0401 20.6533L16.0636 20.9351L16.7252 21.4424Z" fill="#4E4E4E"/>
<path d="M16.7253 21.4424L16.0638 20.9351L15.0403 20.6533L14.2007 20.6177L15.0581 6.82568L17.912 7.23212L20.8549 8.24375L23.5131 9.57578L16.7253 21.4424Z" fill="url(#paint0_linear)"/>
<path d="M16.4282 1.76454L15.0576 6.82865L17.9116 7.23211L19.6471 1.22461C18.5579 1.28903 17.4788 1.47004 16.4282 1.76454V1.76454Z" fill="#F6A259"/>
<g style="mix-blend-mode:multiply" opacity="0.2">
<path d="M25.6312 2.06135C24.7486 1.74765 23.8389 1.51625 22.9137 1.37012L20.8548 8.23498L13.8535 26.1774L16.7193 21.4307L23.507 9.56405L25.6312 2.06135Z" fill="#1A1A1A"/>
</g>
<path opacity="0.15" d="M13.8564 26.106L17.9119 7.23212L15.0579 6.82568L13.8564 26.106Z" fill="white"/>
<path d="M93.36 9.67677H85.1126L83.9349 15.0168H91.5266L90.6989 19.1701H83.1072L81.2738 27.7734H76.8208L81.5793 5.52344H94.2322L93.36 9.67677Z" fill="#F38632"/>
<path d="M101.041 9.83105C95.4573 9.83105 93.4934 14.2811 92.5351 18.7311C91.6184 23.0535 92.2741 28.1117 98.2934 28.1117C103.88 28.1117 105.802 23.7062 106.76 19.1701C107.674 14.8922 107.06 9.83105 101.041 9.83105ZM102.61 19.1227C101.913 22.4394 100.646 24.0948 98.3795 24.0117C96.0239 23.9227 96.1545 21.1756 96.6766 18.7756C97.3767 15.5478 98.596 13.845 100.868 13.934C103.355 14.017 103.091 16.8116 102.61 19.1227Z" fill="#F38632"/>
<path d="M117.627 14.0615C114.18 14.278 113.352 16.687 112.958 18.6094L110.994 27.7734H106.677L110.43 9.97342H112.522L112.741 12.4091C113.874 10.7507 115.447 9.63818 118.588 9.63818L117.627 14.0615Z" fill="#F38632"/>
<path d="M136.442 27.7733H132.12L134.475 16.7284C134.695 15.6426 135.131 13.827 133.472 13.827C131.989 13.827 131.333 15.1086 130.897 17.1585L128.631 27.7733H124.267L126.622 16.7284C126.886 15.5981 127.281 13.827 125.667 13.827C124.139 13.827 123.484 15.1086 123.05 17.1585L120.778 27.7733H116.456L120.208 9.97326H122.344L122.522 12.3674C123.022 11.5817 123.71 10.9327 124.523 10.479C125.336 10.0253 126.249 9.78117 127.18 9.76855C128.749 9.76855 130.188 10.6081 130.58 12.219C131.805 10.4746 133.33 9.78339 135.077 9.78339C138.961 9.78339 139.569 13.1061 138.655 17.47L136.442 27.7733Z" fill="#F38632"/>
<path d="M49.0023 21.5434C48.1301 25.8599 46.8218 28.3905 39.5327 27.8654L40.3634 23.9375C43.2855 23.9791 44.1577 23.3264 44.5523 21.3684L47.9521 5.52344H52.4021L49.0023 21.5434Z" fill="#F38632"/>
<path d="M60.4298 9.83105C54.8466 9.83105 52.8826 14.2811 51.9214 18.7311C51.0077 23.0535 51.6574 28.1117 57.6827 28.1117C63.266 28.1117 65.1854 23.7062 66.1496 19.1701C67.0544 14.8922 66.4433 9.83105 60.4298 9.83105ZM62.0022 19.1227C61.302 22.4394 60.0382 24.0948 57.7687 24.0117C55.4132 23.9227 55.5437 21.1756 56.0688 18.7756C56.763 15.5478 57.9853 13.845 60.2578 13.934C62.7379 14.017 62.4739 16.8116 61.9962 19.1227H62.0022Z" fill="#F38632"/>
<path d="M77.4912 13.8301H74.0469L72.2966 22.0596C71.902 23.807 72.2966 24.0799 75.3018 24.1363L74.4771 28.0286C68.3658 28.2896 67.013 26.21 67.9771 21.6769L69.6266 13.8301H67.6182L68.0988 11.4182L70.4721 10.0179L71.4274 5.52344H75.7468L74.7856 9.97344H78.3219L77.4912 13.8301Z" fill="#F38632"/>
</g>
<defs>
<linearGradient id="paint0_linear" x1="14.2223" y1="13.931" x2="22.881" y2="14.9543" gradientUnits="userSpaceOnUse">
<stop stop-color="#F1CEBA"/>
<stop offset="1" stop-color="#B8846F"/>
</linearGradient>
</defs>
</svg>
