<svg width="373" height="245" viewBox="0 0 373 245" fill="none" xmlns="http://www.w3.org/2000/svg">
<g filter="url(#filter0_d)">
<rect x="4" width="365" height="237" rx="10" fill="white"/>
</g>
<rect x="53" y="6" width="297" height="227" fill="white"/>
<path d="M361.424 33.2793H12.9999V47.9684H361.424V33.2793Z" fill="#ED8A18"/>
<path d="M361.425 16.2402H13.0001V33.2795H361.425V16.2402Z" fill="white"/>
<path d="M208.741 33.3193H160.168V47.7329H208.741V33.3193Z" fill="#F69C47"/>
<path d="M128.004 37.6635V42.6265H129.838C130.762 42.6265 131.378 42.0525 131.378 41.2545C131.378 40.6665 131.014 40.2115 130.489 40.0715C130.916 39.9175 131.224 39.5255 131.224 39.0005C131.224 38.2235 130.664 37.6635 129.712 37.6635H128.004ZM128.837 39.7635V38.3775H129.579C130.09 38.3775 130.384 38.6505 130.384 39.0705C130.384 39.4835 130.09 39.7635 129.6 39.7635H128.837ZM128.837 41.9125V40.4705H129.719C130.237 40.4705 130.524 40.7715 130.524 41.1985C130.524 41.6395 130.195 41.9125 129.691 41.9125H128.837ZM134.048 42.7315C135.091 42.7315 135.903 42.0945 135.903 40.8975V37.6635H135.063V40.8485C135.063 41.5485 134.685 41.9335 134.048 41.9335C133.418 41.9335 133.033 41.5485 133.033 40.8485V37.6635H132.2V40.8975C132.2 42.0945 133.012 42.7315 134.048 42.7315ZM137.888 42.6265V37.6635H137.034V42.6265H137.888ZM142.193 42.6265V41.8285H139.918V37.6635H139.078V42.6265H142.193ZM143.801 41.8565V38.4335H144.69C145.551 38.4335 146.258 38.9935 146.258 40.1555C146.258 41.3035 145.544 41.8565 144.683 41.8565H143.801ZM144.711 42.6265C146.055 42.6265 147.133 41.7445 147.133 40.1555C147.133 38.5595 146.069 37.6635 144.718 37.6635H142.961V42.6265H144.711Z" fill="white"/>
<path d="M172.733 38.7918C172.621 38.2388 172.166 37.5248 170.997 37.5248C170.073 37.5248 169.31 38.2108 169.31 39.0438C169.31 39.7858 169.814 40.2828 170.57 40.4368L171.27 40.5838C171.697 40.6748 171.935 40.9338 171.935 41.2558C171.935 41.6408 171.627 41.9418 171.032 41.9418C170.318 41.9418 169.947 41.4658 169.898 40.9478L169.114 41.1718C169.191 41.8858 169.772 42.6978 171.032 42.6978C172.166 42.6978 172.789 41.9628 172.789 41.1928C172.789 40.4928 172.32 39.9398 171.445 39.7648L170.731 39.6178C170.346 39.5338 170.15 39.2958 170.15 38.9808C170.15 38.6028 170.5 38.2668 171.004 38.2668C171.669 38.2668 171.928 38.7218 171.977 39.0298L172.733 38.7918ZM176.728 42.5928V41.8088H174.502V40.4928H176.518V39.7298H174.502V38.4138H176.728V37.6298H173.662V42.5928H176.728ZM181.347 38.4208V37.6298H177.28V38.4208H178.89V42.5928H179.73V38.4208H181.347ZM185.736 38.4208V37.6298H181.669V38.4208H183.279V42.5928H184.119V38.4208H185.736ZM187.278 42.5928V37.6298H186.424V42.5928H187.278ZM192.633 42.5928V37.6298H191.793V41.1508L189.539 37.6298H188.468V42.5928H189.308V38.8338L191.758 42.5928H192.633ZM198.224 42.5928V40.0798H195.795V40.8148H197.433C197.391 41.2418 197.013 41.9278 196.012 41.9278C195.158 41.9278 194.374 41.3188 194.374 40.1078C194.374 38.8758 195.214 38.3018 196.019 38.3018C196.81 38.3018 197.3 38.7778 197.468 39.3378L198.259 39.0368C197.993 38.2178 197.223 37.5248 196.019 37.5248C194.731 37.5248 193.52 38.4768 193.52 40.1078C193.52 41.7458 194.668 42.6978 195.963 42.6978C196.754 42.6978 197.265 42.3268 197.482 41.9628L197.545 42.5928H198.224ZM202.504 38.7918C202.392 38.2388 201.937 37.5248 200.768 37.5248C199.844 37.5248 199.081 38.2108 199.081 39.0438C199.081 39.7858 199.585 40.2828 200.341 40.4368L201.041 40.5838C201.468 40.6748 201.706 40.9338 201.706 41.2558C201.706 41.6408 201.398 41.9418 200.803 41.9418C200.089 41.9418 199.718 41.4658 199.669 40.9478L198.885 41.1718C198.962 41.8858 199.543 42.6978 200.803 42.6978C201.937 42.6978 202.56 41.9628 202.56 41.1928C202.56 40.4928 202.091 39.9398 201.216 39.7648L200.502 39.6178C200.117 39.5338 199.921 39.2958 199.921 38.9808C199.921 38.6028 200.271 38.2668 200.775 38.2668C201.44 38.2668 201.699 38.7218 201.748 39.0298L202.504 38.7918Z" fill="white"/>
<path d="M222.231 39.9113V38.3713H223.106C223.638 38.3713 223.96 38.6723 223.96 39.1483C223.96 39.6173 223.638 39.9113 223.106 39.9113H222.231ZM223.232 40.6533C224.184 40.6533 224.814 40.0163 224.814 39.1413C224.814 38.2733 224.184 37.6293 223.232 37.6293H221.391V42.5923H222.231V40.6533H223.232ZM227.381 42.6973C228.424 42.6973 229.236 42.0603 229.236 40.8633V37.6293H228.396V40.8143C228.396 41.5143 228.018 41.8993 227.381 41.8993C226.751 41.8993 226.366 41.5143 226.366 40.8143V37.6293H225.533V40.8633C225.533 42.0603 226.345 42.6973 227.381 42.6973ZM230.367 37.6293V42.5923H232.201C233.125 42.5923 233.741 42.0183 233.741 41.2203C233.741 40.6323 233.377 40.1773 232.852 40.0373C233.279 39.8833 233.587 39.4913 233.587 38.9663C233.587 38.1893 233.027 37.6293 232.075 37.6293H230.367ZM231.2 39.7293V38.3433H231.942C232.453 38.3433 232.747 38.6163 232.747 39.0363C232.747 39.4493 232.453 39.7293 231.963 39.7293H231.2ZM231.2 41.8783V40.4363H232.082C232.6 40.4363 232.887 40.7373 232.887 41.1643C232.887 41.6053 232.558 41.8783 232.054 41.8783H231.2ZM237.734 42.5923V41.7943H235.459V37.6293H234.619V42.5923H237.734ZM239.356 42.5923V37.6293H238.502V42.5923H239.356ZM243.808 38.7913C243.696 38.2383 243.241 37.5243 242.072 37.5243C241.148 37.5243 240.385 38.2103 240.385 39.0433C240.385 39.7853 240.889 40.2823 241.645 40.4363L242.345 40.5833C242.772 40.6743 243.01 40.9333 243.01 41.2553C243.01 41.6403 242.702 41.9413 242.107 41.9413C241.393 41.9413 241.022 41.4653 240.973 40.9473L240.189 41.1713C240.266 41.8853 240.847 42.6973 242.107 42.6973C243.241 42.6973 243.864 41.9623 243.864 41.1923C243.864 40.4923 243.395 39.9393 242.52 39.7643L241.806 39.6173C241.421 39.5333 241.225 39.2953 241.225 38.9803C241.225 38.6023 241.575 38.2663 242.079 38.2663C242.744 38.2663 243.003 38.7213 243.052 39.0293L243.808 38.7913ZM248.754 42.5923V37.6293H247.907V39.6803H245.576V37.6293H244.736V42.5923H245.576V40.4713H247.907V42.5923H248.754Z" fill="white"/>
<path d="M24.7815 30.0695C27.6803 30.0695 30.0304 27.7195 30.0304 24.8207C30.0304 21.9218 27.6803 19.5718 24.7815 19.5718C21.8826 19.5718 19.5326 21.9218 19.5326 24.8207C19.5326 27.7195 21.8826 30.0695 24.7815 30.0695Z" fill="white"/>
<path opacity="0.1" d="M24.7815 30.0695C27.6803 30.0695 30.0304 27.7195 30.0304 24.8207C30.0304 21.9218 27.6803 19.5718 24.7815 19.5718C21.8826 19.5718 19.5326 21.9218 19.5326 24.8207C19.5326 27.7195 21.8826 30.0695 24.7815 30.0695Z" fill="#545454"/>
<path opacity="0.05" d="M29.1164 25.6537L29.7829 22.9876C29.283 21.6546 28.3665 20.6548 27.1168 19.9883L26.117 25.1538L22.5344 28.0699L29.1164 25.6537Z" fill="black"/>
<path d="M24.7816 19.5713C24.2817 19.5713 23.8651 19.6546 23.3652 19.7379L22.8654 21.4875L23.8651 21.6542L24.8649 21.9874L25.7814 22.404L26.5312 19.8212C25.948 19.6546 25.3648 19.5713 24.7816 19.5713Z" fill="#F29540"/>
<path d="M23.448 26.4868L22.4482 28.1531L22.6149 26.2368H22.8648L23.1981 26.3201L23.448 26.4868Z" fill="#616161"/>
<path d="M23.4494 26.4877L23.1994 26.3211L22.8662 26.2378H22.6162L22.8662 21.4888L23.8659 21.6554L24.8657 21.9887L25.7822 22.4052L23.4494 26.4877Z" fill="url(#paint0_linear)"/>
<path d="M23.3652 19.7379L22.8654 21.4875L23.8651 21.6542L24.4484 19.5713C24.1151 19.5713 23.6985 19.6546 23.3652 19.7379Z" fill="#F5AD6B"/>
<path opacity="0.2" d="M26.5336 19.8212C26.2003 19.7379 25.9504 19.6546 25.6171 19.5713L24.9506 21.9041L22.5344 28.0695L23.5342 26.4032L25.867 22.3207L26.5336 19.8212Z" fill="#222222"/>
<path opacity="0.15" d="M22.4482 28.0707L23.8646 21.6554L22.8648 21.4888L22.4482 28.0707Z" fill="white"/>
<path d="M48.9435 22.8211H46.1941L45.7775 24.5708H48.277L48.0271 25.9038H45.5276L44.9444 28.7366H43.4447L45.0277 21.4048H49.1935L48.9435 22.8211Z" fill="#EF7B2E"/>
<path d="M51.4436 22.8198C49.6107 22.8198 48.9441 24.3195 48.6109 25.7359C48.2776 27.1522 48.5276 28.8185 50.5271 28.8185C52.3601 28.8185 53.0266 27.4022 53.2766 25.9025C53.6098 24.4861 53.4432 22.8198 51.4436 22.8198ZM51.9435 25.9025C51.6936 26.9856 51.277 27.5688 50.5271 27.4855C49.7773 27.4855 49.7773 26.569 49.9439 25.7359C50.1939 24.6528 50.6105 24.1529 51.3603 24.1529C52.1935 24.2362 52.1101 25.1527 51.9435 25.9025Z" fill="#EF7B2E"/>
<path d="M56.8583 24.2362C55.6919 24.3195 55.442 25.0693 55.3586 25.7359L54.6921 28.7352H53.2758L54.5255 22.9031H55.192L55.2753 23.7363C55.6086 23.1531 56.1918 22.8198 57.1916 22.8198L56.8583 24.2362Z" fill="#EF7B2E"/>
<path d="M63.1093 28.7352H61.6929L62.4427 25.0693C62.5261 24.7361 62.6927 24.1529 62.1095 24.1529C61.6096 24.1529 61.443 24.5695 61.2763 25.236L60.5265 28.7352H59.1101L59.86 25.0693C59.9433 24.7361 60.1099 24.1529 59.5267 24.1529C59.0268 24.1529 58.7769 24.5695 58.6935 25.236L57.9437 28.7352H56.5273L57.7771 22.9031H58.4436L58.5269 23.653C58.8602 23.1531 59.4434 22.8198 60.0266 22.8198C60.5265 22.8198 61.0264 23.0698 61.1097 23.653C61.5263 23.0698 62.0262 22.8198 62.6094 22.8198C63.8591 22.8198 64.1091 23.9029 63.7758 25.3193L63.1093 28.7352Z" fill="#EF7B2E"/>
<path d="M34.2793 26.737C34.0294 28.1533 33.5295 28.9865 31.1967 28.8199L31.4466 27.4868C32.4464 27.4868 32.6963 27.3202 32.863 26.6537L33.9461 21.4048H35.4457L34.2793 26.737Z" fill="#EF7B2E"/>
<path d="M38.0302 22.8198C36.1972 22.8198 35.5307 24.3195 35.1974 25.7359C34.8642 27.1522 35.1141 28.8185 37.1137 28.8185C38.9466 28.8185 39.6132 27.4022 39.8631 25.9025C40.2797 24.4861 40.0297 22.8198 38.0302 22.8198ZM38.6134 25.9025C38.3634 26.9856 37.9468 27.5688 37.197 27.4855C36.4472 27.4855 36.4472 26.569 36.6138 25.7359C36.8637 24.6528 37.2803 24.1529 38.0302 24.1529C38.8633 24.2362 38.78 25.1527 38.6134 25.9025Z" fill="#EF7B2E"/>
<path d="M43.695 24.154H42.5286L41.9454 26.9034C41.7787 27.4867 41.9454 27.57 42.9451 27.57L42.6952 28.8197C40.6956 28.903 40.279 28.2365 40.529 26.7368L41.1122 24.154H40.4457L40.6123 23.3209L41.3621 22.821L41.6954 21.3213H43.1118L42.7785 22.821H43.9449L43.695 24.154Z" fill="#EF7B2E"/>
<path d="M135.264 24.464V21.548H136.968C137.988 21.548 138.612 22.124 138.612 23.024C138.612 23.9 137.988 24.464 136.968 24.464H135.264ZM137.184 25.52C138.756 25.52 139.812 24.452 139.812 23.012C139.812 21.584 138.756 20.492 137.184 20.492H134.088V29H135.264V25.52H137.184ZM142.139 25.604C142.163 24.752 142.619 24.08 143.483 24.08C144.491 24.08 144.827 24.728 144.827 25.532V29H145.955V25.34C145.955 24.056 145.271 23.06 143.891 23.06C143.231 23.06 142.559 23.288 142.139 23.9V20.312H141.011V29H142.139V25.604ZM150.221 28.172C149.261 28.172 148.421 27.452 148.421 26.108C148.421 24.776 149.261 24.056 150.221 24.056C151.181 24.056 152.021 24.776 152.021 26.108C152.021 27.452 151.181 28.172 150.221 28.172ZM150.221 23.048C148.493 23.048 147.269 24.356 147.269 26.108C147.269 27.872 148.493 29.18 150.221 29.18C151.949 29.18 153.173 27.872 153.173 26.108C153.173 24.356 151.949 23.048 150.221 23.048ZM156.07 21.404H155.038V22.34C155.038 22.844 154.774 23.228 154.15 23.228H153.838V24.248H154.942V27.416C154.942 28.46 155.566 29.06 156.55 29.06C156.934 29.06 157.222 28.988 157.318 28.952V27.992C157.222 28.016 157.018 28.04 156.874 28.04C156.286 28.04 156.07 27.776 156.07 27.248V24.248H157.318V23.228H156.07V21.404ZM161.237 28.172C160.277 28.172 159.437 27.452 159.437 26.108C159.437 24.776 160.277 24.056 161.237 24.056C162.197 24.056 163.037 24.776 163.037 26.108C163.037 27.452 162.197 28.172 161.237 28.172ZM161.237 23.048C159.509 23.048 158.285 24.356 158.285 26.108C158.285 27.872 159.509 29.18 161.237 29.18C162.965 29.18 164.189 27.872 164.189 26.108C164.189 24.356 162.965 23.048 161.237 23.048ZM172.436 29.18C174.392 29.18 175.736 28.04 176.192 26.444L175.148 26.06C174.8 27.224 173.888 28.1 172.436 28.1C170.888 28.1 169.412 26.96 169.412 24.74C169.412 22.52 170.888 21.392 172.436 21.392C173.828 21.392 174.764 22.112 175.088 23.396L176.18 23.012C175.748 21.368 174.38 20.312 172.436 20.312C170.324 20.312 168.212 21.896 168.212 24.74C168.212 27.584 170.24 29.18 172.436 29.18ZM179.87 28.172C178.91 28.172 178.07 27.452 178.07 26.108C178.07 24.776 178.91 24.056 179.87 24.056C180.83 24.056 181.67 24.776 181.67 26.108C181.67 27.452 180.83 28.172 179.87 28.172ZM179.87 23.048C178.142 23.048 176.918 24.356 176.918 26.108C176.918 27.872 178.142 29.18 179.87 29.18C181.598 29.18 182.822 27.872 182.822 26.108C182.822 24.356 181.598 23.048 179.87 23.048ZM185.393 25.664C185.393 24.788 185.849 24.08 186.737 24.08C187.745 24.08 188.081 24.728 188.081 25.532V29H189.209V25.34C189.209 24.056 188.525 23.06 187.145 23.06C186.473 23.06 185.789 23.336 185.369 24.056V23.228H184.265V29H185.393V25.664ZM192.515 21.404H191.483V22.34C191.483 22.844 191.219 23.228 190.595 23.228H190.283V24.248H191.387V27.416C191.387 28.46 192.011 29.06 192.995 29.06C193.379 29.06 193.667 28.988 193.763 28.952V27.992C193.667 28.016 193.463 28.04 193.319 28.04C192.731 28.04 192.515 27.776 192.515 27.248V24.248H193.763V23.228H192.515V21.404ZM195.942 25.52C195.99 24.776 196.566 24.044 197.514 24.044C198.534 24.044 199.074 24.692 199.098 25.52H195.942ZM199.266 27.02C199.05 27.668 198.582 28.184 197.646 28.184C196.674 28.184 195.93 27.464 195.906 26.432H200.25C200.262 26.36 200.274 26.216 200.274 26.072C200.274 24.272 199.278 23.048 197.502 23.048C196.05 23.048 194.742 24.284 194.742 26.096C194.742 28.052 196.098 29.18 197.646 29.18C198.99 29.18 199.914 28.376 200.238 27.356L199.266 27.02ZM201.174 27.5C201.27 28.16 201.942 29.18 203.526 29.18C204.954 29.18 205.638 28.208 205.638 27.392C205.638 26.54 205.086 25.904 204.042 25.676L203.106 25.472C202.662 25.376 202.446 25.124 202.446 24.776C202.446 24.38 202.83 24.008 203.406 24.008C204.318 24.008 204.558 24.668 204.606 24.968L205.602 24.596C205.482 24.08 204.99 23.048 203.406 23.048C202.278 23.048 201.354 23.888 201.354 24.872C201.354 25.688 201.894 26.3 202.794 26.492L203.778 26.708C204.258 26.816 204.522 27.092 204.522 27.452C204.522 27.86 204.174 28.22 203.538 28.22C202.722 28.22 202.266 27.74 202.194 27.14L201.174 27.5ZM208.652 21.404H207.62V22.34C207.62 22.844 207.356 23.228 206.732 23.228H206.42V24.248H207.524V27.416C207.524 28.46 208.148 29.06 209.132 29.06C209.516 29.06 209.804 28.988 209.9 28.952V27.992C209.804 28.016 209.6 28.04 209.456 28.04C208.868 28.04 208.652 27.776 208.652 27.248V24.248H209.9V23.228H208.652V21.404ZM219.697 29V27.908H215.701V25.304H219.325V24.2H215.701V21.584H219.697V20.492H214.525V29H219.697ZM222.33 25.664C222.33 24.788 222.786 24.08 223.674 24.08C224.682 24.08 225.018 24.728 225.018 25.532V29H226.146V25.34C226.146 24.056 225.462 23.06 224.082 23.06C223.41 23.06 222.726 23.336 222.306 24.056V23.228H221.202V29H222.33V25.664ZM229.452 21.404H228.42V22.34C228.42 22.844 228.156 23.228 227.532 23.228H227.22V24.248H228.324V27.416C228.324 28.46 228.948 29.06 229.932 29.06C230.316 29.06 230.604 28.988 230.7 28.952V27.992C230.604 28.016 230.4 28.04 230.256 28.04C229.668 28.04 229.452 27.776 229.452 27.248V24.248H230.7V23.228H229.452V21.404ZM235.293 23.168C235.233 23.156 235.077 23.132 234.921 23.132C234.333 23.132 233.613 23.348 233.193 24.236V23.228H232.089V29H233.217V26.108C233.217 24.836 233.853 24.332 234.801 24.332C234.957 24.332 235.125 24.344 235.293 24.368V23.168ZM238.111 31.412L241.867 23.228H240.655L238.927 27.212L237.127 23.228H235.831L238.315 28.364L236.875 31.412H238.111Z" fill="#7F7F7F"/>
<path d="M361.424 47.9683H12.9999V226H361.424V47.9683Z" fill="#FCFCFC"/>
<path d="M101.305 47.9683H12.9999V226H101.305V47.9683Z" fill="#303640"/>
<path d="M100.396 49.2256H14.6967V69.7727H100.396V49.2256Z" fill="#3E4652"/>
<path d="M100.396 71.0303H14.6967V91.5774H100.396V71.0303Z" fill="#3E4652"/>
<path d="M100.396 92.834H14.6967V113.381H100.396V92.834Z" fill="#3E4652"/>
<path d="M100.396 114.595H14.6967V135.142H100.396V114.595Z" fill="#3E4652"/>
<path d="M100.397 136.399H14.6971V156.946H100.397V136.399Z" fill="#3E4652"/>
<path d="M103.564 136.617H14.6455V157.365H103.564V136.617Z" fill="#FCFCFC"/>
<path d="M100.396 158.544H14.6963V179.091H100.396V158.544Z" fill="#3E4652"/>
<path d="M100.396 180.447H14.6963V200.994H100.396V180.447Z" fill="#3E4652"/>
<path d="M33.435 62V59.998H35.451V59.221H33.435V57.828H35.682V57.037H32.595V62H33.435ZM37.0173 59.515C37.0173 58.318 37.8433 57.723 38.6763 57.723C39.5163 57.723 40.3423 58.318 40.3423 59.515C40.3423 60.712 39.5163 61.307 38.6763 61.307C37.8433 61.307 37.0173 60.712 37.0173 59.515ZM36.1563 59.515C36.1563 61.146 37.3743 62.105 38.6763 62.105C39.9783 62.105 41.2033 61.146 41.2033 59.515C41.2033 57.891 39.9783 56.932 38.6763 56.932C37.3743 56.932 36.1563 57.891 36.1563 59.515ZM44.5961 62H45.5481L44.4281 59.956C45.1211 59.788 45.5481 59.249 45.5481 58.542C45.5481 57.702 44.9531 57.037 43.9941 57.037H42.0901V62H42.9371V60.04H43.5531L44.5961 62ZM42.9371 59.298V57.779H43.8401C44.3581 57.779 44.6941 58.08 44.6941 58.542C44.6941 58.997 44.3581 59.298 43.8401 59.298H42.9371ZM51.9046 62V57.037H50.7636L49.1746 60.824L47.5646 57.037H46.4446V62H47.2636V58.36L48.7966 62H49.5246L51.0716 58.346V62H51.9046ZM58.0943 58.199C57.9823 57.646 57.5273 56.932 56.3583 56.932C55.4343 56.932 54.6713 57.618 54.6713 58.451C54.6713 59.193 55.1753 59.69 55.9313 59.844L56.6313 59.991C57.0583 60.082 57.2963 60.341 57.2963 60.663C57.2963 61.048 56.9883 61.349 56.3933 61.349C55.6793 61.349 55.3083 60.873 55.2593 60.355L54.4753 60.579C54.5523 61.293 55.1333 62.105 56.3933 62.105C57.5273 62.105 58.1503 61.37 58.1503 60.6C58.1503 59.9 57.6813 59.347 56.8063 59.172L56.0923 59.025C55.7073 58.941 55.5113 58.703 55.5113 58.388C55.5113 58.01 55.8613 57.674 56.3653 57.674C57.0303 57.674 57.2893 58.129 57.3383 58.437L58.0943 58.199ZM62.0887 62V61.216H59.8627V59.9H61.8787V59.137H59.8627V57.821H62.0887V57.037H59.0227V62H62.0887ZM66.7078 57.828V57.037H62.6408V57.828H64.2508V62H65.0908V57.828H66.7078ZM71.0965 57.828V57.037H67.0295V57.828H68.6395V62H69.4795V57.828H71.0965ZM72.6394 62V57.037H71.7854V62H72.6394ZM77.9944 62V57.037H77.1544V60.558L74.9004 57.037H73.8294V62H74.6694V58.241L77.1194 62H77.9944ZM83.5849 62V59.487H81.1559V60.222H82.7939C82.7519 60.649 82.3739 61.335 81.3729 61.335C80.5189 61.335 79.7349 60.726 79.7349 59.515C79.7349 58.283 80.5749 57.709 81.3799 57.709C82.1709 57.709 82.6609 58.185 82.8289 58.745L83.6199 58.444C83.3539 57.625 82.5839 56.932 81.3799 56.932C80.0919 56.932 78.8809 57.884 78.8809 59.515C78.8809 61.153 80.0289 62.105 81.3239 62.105C82.1149 62.105 82.6259 61.734 82.8429 61.37L82.9059 62H83.5849ZM87.8648 58.199C87.7528 57.646 87.2978 56.932 86.1288 56.932C85.2048 56.932 84.4418 57.618 84.4418 58.451C84.4418 59.193 84.9458 59.69 85.7018 59.844L86.4018 59.991C86.8288 60.082 87.0668 60.341 87.0668 60.663C87.0668 61.048 86.7588 61.349 86.1638 61.349C85.4498 61.349 85.0788 60.873 85.0298 60.355L84.2458 60.579C84.3228 61.293 84.9038 62.105 86.1638 62.105C87.2978 62.105 87.9208 61.37 87.9208 60.6C87.9208 59.9 87.4518 59.347 86.5768 59.172L85.8628 59.025C85.4778 58.941 85.2818 58.703 85.2818 58.388C85.2818 58.01 85.6318 57.674 86.1358 57.674C86.8008 57.674 87.0598 58.129 87.1088 58.437L87.8648 58.199Z" fill="white"/>
<path d="M35.661 84V83.216H33.435V81.9H35.451V81.137H33.435V79.821H35.661V79.037H32.595V84H35.661ZM42.1292 84V79.037H40.9882L39.3992 82.824L37.7892 79.037H36.6692V84H37.4882V80.36L39.0212 84H39.7492L41.2962 80.346V84H42.1292ZM46.7156 84H47.6326L45.7006 79.037H44.7276L42.7956 84H43.6846L44.1466 82.754H46.2466L46.7156 84ZM45.1966 79.947L45.9526 81.977H44.4406L45.1966 79.947ZM49.1511 84V79.037H48.2971V84H49.1511ZM53.4561 84V83.202H51.1811V79.037H50.3411V84H53.4561ZM57.4996 80.199C57.3876 79.646 56.9326 78.932 55.7636 78.932C54.8396 78.932 54.0766 79.618 54.0766 80.451C54.0766 81.193 54.5806 81.69 55.3366 81.844L56.0366 81.991C56.4636 82.082 56.7016 82.341 56.7016 82.663C56.7016 83.048 56.3936 83.349 55.7986 83.349C55.0846 83.349 54.7136 82.873 54.6646 82.355L53.8806 82.579C53.9576 83.293 54.5386 84.105 55.7986 84.105C56.9326 84.105 57.5556 83.37 57.5556 82.6C57.5556 81.9 57.0866 81.347 56.2116 81.172L55.4976 81.025C55.1126 80.941 54.9166 80.703 54.9166 80.388C54.9166 80.01 55.2666 79.674 55.7706 79.674C56.4356 79.674 56.6946 80.129 56.7436 80.437L57.4996 80.199Z" fill="white"/>
<path d="M34.8 106.105C36.067 106.105 36.823 105.3 37.047 104.46L36.277 104.208C36.109 104.768 35.633 105.3 34.8 105.3C33.953 105.3 33.155 104.684 33.155 103.522C33.155 102.318 33.974 101.723 34.793 101.723C35.626 101.723 36.088 102.206 36.235 102.808L37.026 102.542C36.802 101.674 36.053 100.932 34.793 100.932C33.505 100.932 32.294 101.905 32.294 103.522C32.294 105.139 33.463 106.105 34.8 106.105ZM38.405 103.515C38.405 102.318 39.231 101.723 40.064 101.723C40.904 101.723 41.73 102.318 41.73 103.515C41.73 104.712 40.904 105.307 40.064 105.307C39.231 105.307 38.405 104.712 38.405 103.515ZM37.544 103.515C37.544 105.146 38.762 106.105 40.064 106.105C41.366 106.105 42.591 105.146 42.591 103.515C42.591 101.891 41.366 100.932 40.064 100.932C38.762 100.932 37.544 101.891 37.544 103.515ZM47.6428 106V101.037H46.8028V104.558L44.5488 101.037H43.4778V106H44.3178V102.241L46.7678 106H47.6428ZM49.6704 105.23V101.807H50.5594C51.4204 101.807 52.1274 102.367 52.1274 103.529C52.1274 104.677 51.4134 105.23 50.5524 105.23H49.6704ZM50.5804 106C51.9244 106 53.0024 105.118 53.0024 103.529C53.0024 101.933 51.9384 101.037 50.5874 101.037H48.8304V106H50.5804ZM54.7361 106V101.037H53.8821V106H54.7361ZM59.4891 101.828V101.037H55.4221V101.828H57.0321V106H57.8721V101.828H59.4891ZM61.032 106V101.037H60.178V106H61.032ZM62.782 103.515C62.782 102.318 63.608 101.723 64.441 101.723C65.281 101.723 66.107 102.318 66.107 103.515C66.107 104.712 65.281 105.307 64.441 105.307C63.608 105.307 62.782 104.712 62.782 103.515ZM61.921 103.515C61.921 105.146 63.139 106.105 64.441 106.105C65.743 106.105 66.968 105.146 66.968 103.515C66.968 101.891 65.743 100.932 64.441 100.932C63.139 100.932 61.921 101.891 61.921 103.515ZM72.0198 106V101.037H71.1798V104.558L68.9258 101.037H67.8548V106H68.6948V102.241L71.1448 106H72.0198ZM76.4693 102.199C76.3573 101.646 75.9023 100.932 74.7333 100.932C73.8093 100.932 73.0463 101.618 73.0463 102.451C73.0463 103.193 73.5503 103.69 74.3063 103.844L75.0063 103.991C75.4333 104.082 75.6713 104.341 75.6713 104.663C75.6713 105.048 75.3633 105.349 74.7683 105.349C74.0543 105.349 73.6833 104.873 73.6343 104.355L72.8503 104.579C72.9273 105.293 73.5083 106.105 74.7683 106.105C75.9023 106.105 76.5253 105.37 76.5253 104.6C76.5253 103.9 76.0563 103.347 75.1813 103.172L74.4673 103.025C74.0823 102.941 73.8863 102.703 73.8863 102.388C73.8863 102.01 74.2363 101.674 74.7403 101.674C75.4053 101.674 75.6643 102.129 75.7133 102.437L76.4693 102.199Z" fill="white"/>
<path d="M36.158 123.828V123.037H32.091V123.828H33.701V128H34.541V123.828H36.158ZM40.865 128V123.037H40.018V125.088H37.687V123.037H36.847V128H37.687V125.879H40.018V128H40.865ZM45.4509 128H46.3679L44.4359 123.037H43.4629L41.5309 128H42.4199L42.8819 126.754H44.9819L45.4509 128ZM43.9319 123.947L44.6879 125.977H43.1759L43.9319 123.947ZM51.1975 128V123.037H50.3575V126.558L48.1035 123.037H47.0325V128H47.8725V124.241L50.3225 128H51.1975ZM55.43 128H56.487L54.457 125.228L56.466 123.037H55.36L53.225 125.417V123.037H52.385V128H53.225V126.572L53.883 125.851L55.43 128ZM60.1244 125.9V128H60.9644V125.9L62.7144 123.037H61.7694L60.5724 125.116L59.3824 123.037H58.3884L60.1244 125.9ZM63.6091 125.515C63.6091 124.318 64.4351 123.723 65.2681 123.723C66.1081 123.723 66.9341 124.318 66.9341 125.515C66.9341 126.712 66.1081 127.307 65.2681 127.307C64.4351 127.307 63.6091 126.712 63.6091 125.515ZM62.7481 125.515C62.7481 127.146 63.9661 128.105 65.2681 128.105C66.5701 128.105 67.7951 127.146 67.7951 125.515C67.7951 123.891 66.5701 122.932 65.2681 122.932C63.9661 122.932 62.7481 123.891 62.7481 125.515ZM70.4739 128.105C71.5169 128.105 72.3289 127.468 72.3289 126.271V123.037H71.4889V126.222C71.4889 126.922 71.1109 127.307 70.4739 127.307C69.8439 127.307 69.4589 126.922 69.4589 126.222V123.037H68.6259V126.271C68.6259 127.468 69.4379 128.105 70.4739 128.105ZM76.0366 125.319V123.779H76.9116C77.4436 123.779 77.7656 124.08 77.7656 124.556C77.7656 125.025 77.4436 125.319 76.9116 125.319H76.0366ZM77.0376 126.061C77.9896 126.061 78.6196 125.424 78.6196 124.549C78.6196 123.681 77.9896 123.037 77.0376 123.037H75.1966V128H76.0366V126.061H77.0376ZM82.3992 128H83.3162L81.3842 123.037H80.4112L78.4792 128H79.3682L79.8302 126.754H81.9302L82.3992 128ZM80.8802 123.947L81.6362 125.977H80.1242L80.8802 123.947ZM88.1718 128V125.487H85.7428V126.222H87.3808C87.3388 126.649 86.9608 127.335 85.9598 127.335C85.1058 127.335 84.3218 126.726 84.3218 125.515C84.3218 124.283 85.1618 123.709 85.9668 123.709C86.7578 123.709 87.2478 124.185 87.4158 124.745L88.2068 124.444C87.9408 123.625 87.1708 122.932 85.9668 122.932C84.6788 122.932 83.4678 123.884 83.4678 125.515C83.4678 127.153 84.6158 128.105 85.9108 128.105C86.7018 128.105 87.2128 127.734 87.4298 127.37L87.4928 128H88.1718ZM92.2557 128V127.216H90.0297V125.9H92.0457V125.137H90.0297V123.821H92.2557V123.037H89.1897V128H92.2557Z" fill="white"/>
<path d="M33.449 150V145.037H32.595V150H33.449ZM38.8039 150V145.037H37.9639V148.558L35.7099 145.037H34.6389V150H35.4789V146.241L37.9289 150H38.8039ZM43.5545 145.828V145.037H39.4875V145.828H41.0975V150H41.9375V145.828H43.5545ZM47.3094 150V149.216H45.0834V147.9H47.0994V147.137H45.0834V145.821H47.3094V145.037H44.2434V150H47.3094ZM52.7001 150V147.487H50.2711V148.222H51.9091C51.8671 148.649 51.4891 149.335 50.4881 149.335C49.6341 149.335 48.8501 148.726 48.8501 147.515C48.8501 146.283 49.6901 145.709 50.4951 145.709C51.2861 145.709 51.7761 146.185 51.9441 146.745L52.7351 146.444C52.4691 145.625 51.6991 144.932 50.4951 144.932C49.2071 144.932 47.9961 145.884 47.9961 147.515C47.9961 149.153 49.1441 150.105 50.4391 150.105C51.2301 150.105 51.7411 149.734 51.9581 149.37L52.0211 150H52.7001ZM56.224 150H57.176L56.056 147.956C56.749 147.788 57.176 147.249 57.176 146.542C57.176 145.702 56.581 145.037 55.622 145.037H53.718V150H54.565V148.04H55.181L56.224 150ZM54.565 147.298V145.779H55.468C55.986 145.779 56.322 146.08 56.322 146.542C56.322 146.997 55.986 147.298 55.468 147.298H54.565ZM61.447 150H62.364L60.432 145.037H59.459L57.527 150H58.416L58.878 148.754H60.978L61.447 150ZM59.928 145.947L60.684 147.977H59.172L59.928 145.947ZM66.1336 145.828V145.037H62.0666V145.828H63.6766V150H64.5166V145.828H66.1336ZM67.6765 150V145.037H66.8225V150H67.6765ZM69.4265 147.515C69.4265 146.318 70.2525 145.723 71.0855 145.723C71.9255 145.723 72.7515 146.318 72.7515 147.515C72.7515 148.712 71.9255 149.307 71.0855 149.307C70.2525 149.307 69.4265 148.712 69.4265 147.515ZM68.5655 147.515C68.5655 149.146 69.7835 150.105 71.0855 150.105C72.3875 150.105 73.6125 149.146 73.6125 147.515C73.6125 145.891 72.3875 144.932 71.0855 144.932C69.7835 144.932 68.5655 145.891 68.5655 147.515ZM78.6643 150V145.037H77.8243V148.558L75.5703 145.037H74.4993V150H75.3393V146.241L77.7893 150H78.6643ZM83.1138 146.199C83.0018 145.646 82.5468 144.932 81.3778 144.932C80.4538 144.932 79.6908 145.618 79.6908 146.451C79.6908 147.193 80.1948 147.69 80.9508 147.844L81.6508 147.991C82.0778 148.082 82.3158 148.341 82.3158 148.663C82.3158 149.048 82.0078 149.349 81.4128 149.349C80.6988 149.349 80.3278 148.873 80.2788 148.355L79.4948 148.579C79.5718 149.293 80.1528 150.105 81.4128 150.105C82.5468 150.105 83.1698 149.37 83.1698 148.6C83.1698 147.9 82.7008 147.347 81.8258 147.172L81.1118 147.025C80.7268 146.941 80.5308 146.703 80.5308 146.388C80.5308 146.01 80.8808 145.674 81.3848 145.674C82.0498 145.674 82.3088 146.129 82.3578 146.437L83.1138 146.199Z" fill="#3E4652"/>
<path d="M35.99 172H36.907L34.975 167.037H34.002L32.07 172H32.959L33.421 170.754H35.521L35.99 172ZM34.471 167.947L35.227 169.977H33.715L34.471 167.947ZM38.4116 169.319V167.779H39.2866C39.8186 167.779 40.1406 168.08 40.1406 168.556C40.1406 169.025 39.8186 169.319 39.2866 169.319H38.4116ZM39.4126 170.061C40.3646 170.061 40.9946 169.424 40.9946 168.549C40.9946 167.681 40.3646 167.037 39.4126 167.037H37.5716V172H38.4116V170.061H39.4126ZM42.6088 169.319V167.779H43.4838C44.0158 167.779 44.3378 168.08 44.3378 168.556C44.3378 169.025 44.0158 169.319 43.4838 169.319H42.6088ZM43.6098 170.061C44.5618 170.061 45.1918 169.424 45.1918 168.549C45.1918 167.681 44.5618 167.037 43.6098 167.037H41.7688V172H42.6088V170.061H43.6098ZM48.4721 172H49.4241L48.3041 169.956C48.9971 169.788 49.4241 169.249 49.4241 168.542C49.4241 167.702 48.8291 167.037 47.8701 167.037H45.9661V172H46.8131V170.04H47.4291L48.4721 172ZM46.8131 169.298V167.779H47.7161C48.2341 167.779 48.5701 168.08 48.5701 168.542C48.5701 168.997 48.2341 169.298 47.7161 169.298H46.8131ZM50.8464 169.515C50.8464 168.318 51.6724 167.723 52.5054 167.723C53.3454 167.723 54.1714 168.318 54.1714 169.515C54.1714 170.712 53.3454 171.307 52.5054 171.307C51.6724 171.307 50.8464 170.712 50.8464 169.515ZM49.9854 169.515C49.9854 171.146 51.2034 172.105 52.5054 172.105C53.8074 172.105 55.0324 171.146 55.0324 169.515C55.0324 167.891 53.8074 166.932 52.5054 166.932C51.2034 166.932 49.9854 167.891 49.9854 169.515ZM57.5125 170.901L56.1265 167.037H55.2165L57.0645 172H57.9185L59.7945 167.037H58.9055L57.5125 170.901ZM63.45 172H64.367L62.435 167.037H61.462L59.53 172H60.419L60.881 170.754H62.981L63.45 172ZM61.931 167.947L62.687 169.977H61.175L61.931 167.947ZM68.1465 172V171.202H65.8715V167.037H65.0315V172H68.1465ZM71.4907 172V169.998H73.5067V169.221H71.4907V167.828H73.7377V167.037H70.6507V172H71.4907ZM77.6621 172V171.202H75.3871V167.037H74.5471V172H77.6621ZM78.7917 169.515C78.7917 168.318 79.6177 167.723 80.4507 167.723C81.2907 167.723 82.1167 168.318 82.1167 169.515C82.1167 170.712 81.2907 171.307 80.4507 171.307C79.6177 171.307 78.7917 170.712 78.7917 169.515ZM77.9307 169.515C77.9307 171.146 79.1487 172.105 80.4507 172.105C81.7527 172.105 82.9777 171.146 82.9777 169.515C82.9777 167.891 81.7527 166.932 80.4507 166.932C79.1487 166.932 77.9307 167.891 77.9307 169.515ZM88.2993 170.691L87.1163 167.037H86.2413L85.0793 170.663L84.0853 167.037H83.2033L84.6103 172H85.4713L86.6753 168.248L87.8793 172H88.7473L90.1403 167.037H89.2723L88.2993 170.691ZM94.0718 168.199C93.9598 167.646 93.5048 166.932 92.3358 166.932C91.4118 166.932 90.6488 167.618 90.6488 168.451C90.6488 169.193 91.1528 169.69 91.9088 169.844L92.6088 169.991C93.0358 170.082 93.2738 170.341 93.2738 170.663C93.2738 171.048 92.9658 171.349 92.3708 171.349C91.6568 171.349 91.2858 170.873 91.2368 170.355L90.4528 170.579C90.5298 171.293 91.1108 172.105 92.3708 172.105C93.5048 172.105 94.1278 171.37 94.1278 170.6C94.1278 169.9 93.6588 169.347 92.7838 169.172L92.0698 169.025C91.6848 168.941 91.4888 168.703 91.4888 168.388C91.4888 168.01 91.8388 167.674 92.3428 167.674C93.0078 167.674 93.2668 168.129 93.3158 168.437L94.0718 168.199Z" fill="white"/>
<path d="M38.055 189V184.037H36.914L35.325 187.824L33.715 184.037H32.595V189H33.414V185.36L34.947 189H35.675L37.222 185.346V189H38.055ZM39.8064 186.515C39.8064 185.318 40.6324 184.723 41.4654 184.723C42.3054 184.723 43.1314 185.318 43.1314 186.515C43.1314 187.712 42.3054 188.307 41.4654 188.307C40.6324 188.307 39.8064 187.712 39.8064 186.515ZM38.9454 186.515C38.9454 188.146 40.1634 189.105 41.4654 189.105C42.7674 189.105 43.9924 188.146 43.9924 186.515C43.9924 184.891 42.7674 183.932 41.4654 183.932C40.1634 183.932 38.9454 184.891 38.9454 186.515ZM44.8792 184.037V189H46.7132C47.6372 189 48.2532 188.426 48.2532 187.628C48.2532 187.04 47.8892 186.585 47.3642 186.445C47.7912 186.291 48.0992 185.899 48.0992 185.374C48.0992 184.597 47.5392 184.037 46.5872 184.037H44.8792ZM45.7122 186.137V184.751H46.4542C46.9652 184.751 47.2592 185.024 47.2592 185.444C47.2592 185.857 46.9652 186.137 46.4752 186.137H45.7122ZM45.7122 188.286V186.844H46.5942C47.1122 186.844 47.3992 187.145 47.3992 187.572C47.3992 188.013 47.0702 188.286 46.5662 188.286H45.7122ZM49.9851 189V184.037H49.1311V189H49.9851ZM54.2901 189V188.202H52.0151V184.037H51.1751V189H54.2901ZM58.1239 189V188.216H55.8979V186.9H57.9139V186.137H55.8979V184.821H58.1239V184.037H55.0579V189H58.1239ZM36.76 198V193.037H35.92V196.558L33.666 193.037H32.595V198H33.435V194.241L35.885 198H36.76ZM38.5075 195.515C38.5075 194.318 39.3335 193.723 40.1665 193.723C41.0065 193.723 41.8325 194.318 41.8325 195.515C41.8325 196.712 41.0065 197.307 40.1665 197.307C39.3335 197.307 38.5075 196.712 38.5075 195.515ZM37.6465 195.515C37.6465 197.146 38.8645 198.105 40.1665 198.105C41.4685 198.105 42.6935 197.146 42.6935 195.515C42.6935 193.891 41.4685 192.932 40.1665 192.932C38.8645 192.932 37.6465 193.891 37.6465 195.515ZM46.9861 193.828V193.037H42.9191V193.828H44.5291V198H45.3691V193.828H46.9861ZM48.5291 198V193.037H47.6751V198H48.5291ZM50.559 198V195.998H52.575V195.221H50.559V193.828H52.806V193.037H49.719V198H50.559ZM54.4695 198V193.037H53.6155V198H54.4695ZM57.8645 198.105C59.1315 198.105 59.8875 197.3 60.1115 196.46L59.3415 196.208C59.1735 196.768 58.6975 197.3 57.8645 197.3C57.0175 197.3 56.2195 196.684 56.2195 195.522C56.2195 194.318 57.0385 193.723 57.8575 193.723C58.6905 193.723 59.1525 194.206 59.2995 194.808L60.0905 194.542C59.8665 193.674 59.1175 192.932 57.8575 192.932C56.5695 192.932 55.3585 193.905 55.3585 195.522C55.3585 197.139 56.5275 198.105 57.8645 198.105ZM64.1814 198H65.0984L63.1664 193.037H62.1934L60.2614 198H61.1504L61.6124 196.754H63.7124L64.1814 198ZM62.6624 193.947L63.4184 195.977H61.9064L62.6624 193.947ZM68.868 193.828V193.037H64.801V193.828H66.411V198H67.251V193.828H68.868ZM70.4109 198V193.037H69.5569V198H70.4109ZM72.1609 195.515C72.1609 194.318 72.9869 193.723 73.8199 193.723C74.6599 193.723 75.4859 194.318 75.4859 195.515C75.4859 196.712 74.6599 197.307 73.8199 197.307C72.9869 197.307 72.1609 196.712 72.1609 195.515ZM71.2999 195.515C71.2999 197.146 72.5179 198.105 73.8199 198.105C75.1219 198.105 76.3469 197.146 76.3469 195.515C76.3469 193.891 75.1219 192.932 73.8199 192.932C72.5179 192.932 71.2999 193.891 71.2999 195.515ZM81.3987 198V193.037H80.5587V196.558L78.3047 193.037H77.2337V198H78.0737V194.241L80.5237 198H81.3987ZM85.8482 194.199C85.7362 193.646 85.2812 192.932 84.1122 192.932C83.1882 192.932 82.4252 193.618 82.4252 194.451C82.4252 195.193 82.9292 195.69 83.6852 195.844L84.3852 195.991C84.8122 196.082 85.0502 196.341 85.0502 196.663C85.0502 197.048 84.7422 197.349 84.1472 197.349C83.4332 197.349 83.0622 196.873 83.0132 196.355L82.2292 196.579C82.3062 197.293 82.8872 198.105 84.1472 198.105C85.2812 198.105 85.9042 197.37 85.9042 196.6C85.9042 195.9 85.4352 195.347 84.5602 195.172L83.8462 195.025C83.4612 194.941 83.2652 194.703 83.2652 194.388C83.2652 194.01 83.6152 193.674 84.1192 193.674C84.7842 193.674 85.0432 194.129 85.0922 194.437L85.8482 194.199Z" fill="white"/>
<path d="M28.0904 78.1827C28.0471 78.1393 28.0471 78.1393 28.0904 78.1827C27.9604 78.0526 27.787 78.0093 27.6136 78.0093H20.5045C20.3311 78.0093 20.201 78.0526 20.071 78.1393C20.071 78.1393 20.0277 78.1393 20.0277 78.1827C19.8976 78.3127 19.8109 78.4861 19.8109 78.7029V83.9046C19.8109 84.078 19.8543 84.2081 19.9843 84.3381C19.9843 84.3381 19.9843 84.3381 19.9843 84.3815C20.1144 84.5115 20.2877 84.5982 20.5045 84.5982H27.6136C28.0037 84.5982 28.3072 84.2948 28.3072 83.9046V78.7029C28.3072 78.4861 28.2205 78.3127 28.0904 78.1827ZM25.4895 80.7836L27.8737 78.6595V83.7312L25.4895 80.7836ZM20.2877 83.6879V78.6595L22.7152 80.7836L20.2877 83.6879ZM20.7212 78.4428H27.4402L24.059 81.4338L20.7212 78.4428ZM20.5045 84.1214L23.0187 81.1304L23.8857 81.9106C23.929 81.954 23.9723 81.954 24.0157 81.954C24.059 81.954 24.1457 81.9106 24.1457 81.9106L25.0561 81.087L27.4836 84.1214H20.5045Z" fill="#FCFCFC"/>
<path d="M28.5257 58.7628L27.7021 58.6327C27.6154 58.2426 27.442 57.8525 27.2253 57.5057L27.7021 56.8555C27.8755 56.5954 27.8321 56.2919 27.6154 56.0752L27.4853 55.9451C27.2686 55.7284 26.9218 55.6851 26.7051 55.8584L26.0549 56.3353C25.7081 56.1185 25.3179 55.9451 24.9278 55.8584L24.7978 55.0348C24.7544 54.7314 24.4943 54.5146 24.1909 54.5146H24.0175C23.714 54.5146 23.454 54.7314 23.4106 55.0348L23.2806 55.8584C22.8904 55.9451 22.5003 56.1185 22.1535 56.3353L21.5033 55.8584C21.2432 55.6851 20.9398 55.7284 20.723 55.9451L20.593 56.0752C20.3762 56.2919 20.3329 56.6387 20.5063 56.8555L20.9831 57.5057C20.7664 57.8525 20.593 58.2426 20.5063 58.6327L19.6827 58.7628C19.3792 58.8061 19.1625 59.0662 19.1625 59.3697V59.543C19.1625 59.8465 19.3792 60.1066 19.6827 60.1499L20.5063 60.28C20.593 60.6701 20.7664 61.0602 20.9831 61.407L20.5063 62.0573C20.3329 62.3173 20.3762 62.6208 20.593 62.8375L20.723 62.9676C20.9398 63.1843 21.2865 63.2277 21.5033 63.0543L22.1535 62.5774C22.5003 62.7942 22.8904 62.9676 23.2806 63.0543L23.4106 63.8779C23.454 64.1813 23.714 64.3981 24.0175 64.3981H24.1909C24.4943 64.3981 24.7544 64.1813 24.7978 63.8779L24.9278 63.0543C25.3179 62.9676 25.7081 62.7942 26.0549 62.5774L26.7051 63.0543C26.9652 63.2277 27.2686 63.1843 27.4853 62.9676L27.6154 62.8375C27.8321 62.6208 27.8755 62.274 27.7021 62.0573L27.2253 61.407C27.442 61.0602 27.6154 60.6701 27.7021 60.28L28.5257 60.1499C28.8291 60.1066 29.0459 59.8465 29.0459 59.543V59.3697C29.0892 59.1096 28.8291 58.8495 28.5257 58.7628ZM24.0608 61.3637C23.0205 61.3637 22.1969 60.5401 22.1969 59.4997C22.1969 58.4593 23.0205 57.6357 24.0608 57.6357C25.1012 57.6357 25.9248 58.4593 25.9248 59.4997C25.9248 60.5401 25.1012 61.3637 24.0608 61.3637Z" fill="#FCFCFC"/>
<path d="M26.4 102.025H27.267V102.545L28.8709 100.941L27.267 99.3369V99.8571H25.8798C25.7498 99.8571 25.6198 99.9004 25.4897 100.03L21.545 103.975C21.4583 104.062 21.3283 104.149 21.1549 104.149H20.3746H20.3313C19.8111 104.149 19.3776 104.539 19.2476 105.016C19.2476 105.059 19.2476 105.146 19.2476 105.189C19.2476 105.796 19.7244 106.273 20.3313 106.273H21.7184C21.8485 106.273 21.9785 106.229 22.1085 106.099L26.0532 102.155C26.1399 102.068 26.27 102.025 26.4 102.025ZM27.267 104.149H26.4C26.27 104.149 26.1399 104.105 26.0099 103.975L25.3597 103.325L24.0159 104.669L25.4464 106.099C25.5331 106.186 25.6631 106.273 25.8365 106.273H27.267V106.793L28.8709 105.189L27.267 103.585V104.149ZM20.3313 102.025H21.1982C21.3283 102.025 21.4583 102.068 21.5884 102.198L22.2386 102.848L23.5824 101.504L22.1519 100.074C22.0652 99.9871 21.9352 99.9004 21.7618 99.9004H20.4613H20.418C19.8978 99.9004 19.4643 100.291 19.3343 100.767C19.3343 100.811 19.3343 100.897 19.3343 100.941C19.2476 101.548 19.7244 102.025 20.3313 102.025Z" fill="#FCFCFC"/>
<path d="M24.8406 145.242L22.6299 147.453C22.4565 147.626 22.4565 147.887 22.6299 148.06C22.8033 148.233 23.0634 148.233 23.2367 148.06L25.4475 145.849C25.6209 145.676 25.6209 145.416 25.4475 145.242C25.3175 145.069 25.014 145.069 24.8406 145.242ZM23.5402 148.147C23.5402 148.363 23.4535 148.537 23.2801 148.71L22.3264 149.664C21.9796 150.011 21.4161 150.011 21.0693 149.664C20.7225 149.317 20.7225 148.753 21.0693 148.407L22.023 147.453C22.1964 147.28 22.3698 147.193 22.5865 147.193L23.3234 146.456C22.6732 146.196 21.8929 146.326 21.3728 146.846L20.4191 147.8C19.7255 148.493 19.7255 149.62 20.4191 150.314C21.1127 151.008 22.2397 151.008 22.9333 150.314L23.887 149.36C24.4071 148.84 24.5372 148.06 24.2771 147.41L23.5402 148.147ZM25.1441 143.075L24.1904 144.029C23.6702 144.549 23.5402 145.329 23.8003 145.979L24.5372 145.242C24.5372 145.026 24.6239 144.852 24.7973 144.679L25.7509 143.725C26.0977 143.378 26.6613 143.378 27.008 143.725C27.3548 144.072 27.3548 144.635 27.008 144.982L26.0544 145.936C25.881 146.109 25.7076 146.196 25.4909 146.196L24.7539 146.933C25.4042 147.193 26.1844 147.063 26.7046 146.543L27.6583 145.589C28.3518 144.896 28.3518 143.768 27.6583 143.075C26.9647 142.381 25.8376 142.381 25.1441 143.075Z" fill="#3E4652"/>
<path d="M24.0582 120.88C21.8475 120.88 20.0702 122.657 20.0702 124.868C20.0702 127.079 21.8475 128.856 24.0582 128.856C26.269 128.856 28.0463 127.079 28.0463 124.868C28.0463 122.657 26.269 120.88 24.0582 120.88ZM26.0523 124.001L24.0582 126.472C23.9715 126.602 23.8415 126.645 23.7114 126.645H23.6681C23.5381 126.645 23.4514 126.602 23.3213 126.515L22.1076 125.388C21.8908 125.215 21.8908 124.868 22.0642 124.651C22.2376 124.434 22.5844 124.391 22.7578 124.608L23.5814 125.388L25.2286 123.307C25.402 123.091 25.7488 123.047 25.9222 123.264C26.2256 123.437 26.2256 123.741 26.0523 124.001Z" fill="#FCFCFC"/>
<path fill-rule="evenodd" clip-rule="evenodd" d="M25.4006 163.79C26.9611 163.921 28.2182 165.134 28.4783 166.651C28.7384 168.212 27.9581 169.773 26.5276 170.423C26.4409 170.466 26.4409 170.509 26.4409 170.596C26.4409 171.593 26.4409 172.634 26.4409 173.631V173.804H19.5919V164.787H19.722C20.6756 164.787 21.5859 164.787 22.5396 164.787C22.583 164.787 22.6696 164.744 22.713 164.701C23.4933 164.051 24.3602 163.704 25.4006 163.79ZM22.1061 165.524H20.2855V173.11H25.704V170.726C25.6607 170.726 25.6173 170.726 25.6173 170.726C24.8804 170.856 24.1868 170.726 23.5366 170.379C23.4933 170.336 23.4066 170.336 23.3199 170.336C22.713 170.336 22.0628 170.336 21.4559 170.336H21.3258V169.642H22.5396C22.4096 169.426 22.2795 169.252 22.1495 169.036C22.1061 168.992 22.0628 168.949 21.9761 168.949C21.7593 168.949 21.5426 168.949 21.3258 168.949V168.255H21.8027C21.6726 167.779 21.6293 167.302 21.6726 166.825C21.716 166.391 21.8894 165.915 22.1061 165.524ZM24.707 171.03V171.723H21.3258V171.03H24.707ZM25.0971 164.484C23.5366 164.484 22.3229 165.698 22.3229 167.258C22.3229 168.819 23.5366 170.076 25.0538 170.076C26.571 170.076 27.7847 168.819 27.8281 167.302C27.8281 165.741 26.6143 164.484 25.0971 164.484ZM26.571 165.915L27.0478 166.391L24.577 168.906C24.0568 168.342 23.4933 167.822 22.9731 167.258L23.4499 166.782L24.6203 167.952L26.571 165.915Z" fill="#FCFCFC"/>
<path d="M26.0954 187.198V185.854C26.0954 185.464 25.7919 185.16 25.4018 185.16H19.9832C19.5931 185.16 19.2897 185.464 19.2897 185.854V195.347C19.2897 195.737 19.5931 196.041 19.9832 196.041H25.4018C25.7919 196.041 26.0954 195.737 26.0954 195.347V193.31H25.4018V194.003H19.9832V186.547H25.4018V187.241H26.0954V187.198Z" fill="#FCFCFC"/>
<path d="M28.1342 187.891H24.0594C23.6693 187.891 23.3658 188.194 23.3658 188.584V191.315C23.3658 191.705 23.6693 192.009 24.0161 192.009H24.7096V192.702C24.7096 192.876 24.883 193.049 25.0564 193.049C25.1431 193.049 25.1865 193.006 25.2732 192.962L26.5303 192.009H28.1342C28.5243 192.009 28.8277 191.705 28.8277 191.358V188.628C28.8277 188.194 28.5243 187.891 28.1342 187.891ZM25.1865 190.578C24.9264 190.578 24.6663 190.361 24.6663 190.101C24.6663 189.841 24.883 189.625 25.1431 189.625C25.4032 189.625 25.62 189.885 25.62 190.145C25.6633 190.361 25.4466 190.578 25.1865 190.578ZM27.2238 190.578C26.9638 190.578 26.7037 190.361 26.7037 190.101C26.7037 189.841 26.9204 189.625 27.1805 189.625C27.4406 189.625 27.6573 189.885 27.6573 190.145C27.7007 190.361 27.4839 190.578 27.2238 190.578Z" fill="#FCFCFC"/>
<path d="M159.165 121.104C159.136 121.15 159.118 121.176 159.103 121.203C158.367 122.521 157.32 123.51 155.957 124.162C155.372 124.442 154.757 124.631 154.117 124.735C153.661 124.81 153.203 124.843 152.742 124.826C151.836 124.791 150.964 124.599 150.137 124.224C148.754 123.598 147.682 122.627 146.921 121.314C146.524 120.628 146.258 119.893 146.116 119.112C146.035 118.668 146 118.221 146 117.769C146.001 113.998 146.001 110.227 146 106.455C146 106.239 146.023 106.028 146.115 105.83C146.338 105.352 146.71 105.074 147.235 105.01C147.944 104.924 148.566 105.408 148.719 106.028C148.749 106.154 148.767 106.287 148.768 106.416C148.771 108.318 148.77 110.219 148.77 112.121C148.77 112.161 148.772 112.201 148.773 112.263C150.518 111.019 152.424 110.577 154.5 111.038C156.581 111.499 158.11 112.722 159.162 114.579C160.204 112.733 161.729 111.527 163.79 111.04C165.003 110.754 166.213 110.807 167.404 111.174C168.567 111.532 169.568 112.158 170.407 113.04C172.981 115.748 172.965 120.019 170.354 122.708C170.075 122.996 169.773 123.257 169.45 123.493C169.127 123.729 168.785 123.936 168.426 124.113C168.07 124.288 167.702 124.432 167.321 124.543C166.937 124.656 166.547 124.738 166.149 124.781C165.752 124.824 165.354 124.84 164.954 124.816C164.554 124.792 164.16 124.739 163.77 124.651C163.38 124.562 163.001 124.438 162.633 124.282C162.264 124.127 161.911 123.941 161.574 123.724C161.24 123.509 160.926 123.269 160.634 123C160.339 122.729 160.068 122.436 159.822 122.12C159.578 121.805 159.365 121.47 159.165 121.104ZM169.554 117.851C169.564 115.57 167.719 113.637 165.345 113.634C163.031 113.632 161.131 115.49 161.131 117.846C161.131 120.201 163.028 122.055 165.336 122.058C167.708 122.061 169.559 120.132 169.554 117.851ZM148.77 117.846C148.761 120.119 150.601 122.053 152.973 122.058C155.281 122.063 157.189 120.213 157.192 117.851C157.195 115.501 155.302 113.635 152.983 113.634C150.61 113.634 148.762 115.564 148.77 117.846Z" fill="#0075C9"/>
<path d="M176.421 115.528C176.454 115.488 176.481 115.457 176.506 115.425C177.335 114.317 178.163 113.209 178.992 112.101C179.159 111.879 179.325 111.656 179.492 111.434C179.806 111.019 180.227 110.824 180.743 110.867C181.365 110.919 181.842 111.369 181.966 111.943C182.057 112.367 181.965 112.753 181.705 113.1C180.549 114.645 179.393 116.191 178.237 117.736C178.137 117.87 178.144 117.842 178.239 117.969C179.385 119.502 180.531 121.034 181.679 122.566C181.825 122.761 181.934 122.97 181.977 123.212C182.108 123.933 181.655 124.653 180.919 124.807C180.331 124.93 179.846 124.738 179.486 124.259C178.491 122.936 177.502 121.609 176.51 120.284C176.484 120.249 176.455 120.216 176.421 120.173C176.391 120.209 176.368 120.234 176.348 120.261C175.374 121.564 174.399 122.866 173.426 124.169C173.318 124.312 173.208 124.453 173.063 124.562C172.82 124.745 172.545 124.843 172.244 124.844C171.474 124.847 170.923 124.27 170.852 123.621C170.81 123.234 170.916 122.895 171.146 122.589C171.533 122.072 171.92 121.556 172.307 121.039C173.076 120.01 173.845 118.981 174.615 117.953C174.624 117.94 174.634 117.928 174.643 117.914C174.687 117.853 174.688 117.849 174.644 117.789C174.518 117.619 174.391 117.451 174.265 117.282C173.222 115.888 172.179 114.493 171.135 113.099C170.95 112.854 170.845 112.579 170.842 112.274C170.837 111.846 170.993 111.48 171.32 111.198C171.62 110.938 171.975 110.827 172.368 110.868C172.772 110.91 173.1 111.101 173.345 111.428C173.986 112.284 174.627 113.142 175.269 113.999C175.629 114.48 175.988 114.961 176.349 115.441C176.369 115.469 176.392 115.494 176.421 115.528Z" fill="#0075C9"/>
<path d="M142.863 65V58.619H141.765V65H142.863ZM149.748 65V58.619H148.668V63.146L145.77 58.619H144.393V65H145.473V60.167L148.623 65H149.748ZM155.856 59.636V58.619H150.627V59.636H152.697V65H153.777V59.636H155.856ZM160.684 65V63.992H157.822V62.3H160.414V61.319H157.822V59.627H160.684V58.619H156.742V65H160.684ZM167.614 65V61.769H164.491V62.714H166.597C166.543 63.263 166.057 64.145 164.77 64.145C163.672 64.145 162.664 63.362 162.664 61.805C162.664 60.221 163.744 59.483 164.779 59.483C165.796 59.483 166.426 60.095 166.642 60.815L167.659 60.428C167.317 59.375 166.327 58.484 164.779 58.484C163.123 58.484 161.566 59.708 161.566 61.805C161.566 63.911 163.042 65.135 164.707 65.135C165.724 65.135 166.381 64.658 166.66 64.19L166.741 65H167.614ZM172.145 65H173.369L171.929 62.372C172.82 62.156 173.369 61.463 173.369 60.554C173.369 59.474 172.604 58.619 171.371 58.619H168.923V65H170.012V62.48H170.804L172.145 65ZM170.012 61.526V59.573H171.173C171.839 59.573 172.271 59.96 172.271 60.554C172.271 61.139 171.839 61.526 171.173 61.526H170.012ZM178.86 65H180.039L177.555 58.619H176.304L173.82 65H174.963L175.557 63.398H178.257L178.86 65ZM176.907 59.789L177.879 62.399H175.935L176.907 59.789ZM184.886 59.636V58.619H179.657V59.636H181.727V65H182.807V59.636H184.886ZM186.87 65V58.619H185.772V65H186.87ZM189.12 61.805C189.12 60.266 190.182 59.501 191.253 59.501C192.333 59.501 193.395 60.266 193.395 61.805C193.395 63.344 192.333 64.109 191.253 64.109C190.182 64.109 189.12 63.344 189.12 61.805ZM188.013 61.805C188.013 63.902 189.579 65.135 191.253 65.135C192.927 65.135 194.502 63.902 194.502 61.805C194.502 59.717 192.927 58.484 191.253 58.484C189.579 58.484 188.013 59.717 188.013 61.805ZM200.997 65V58.619H199.917V63.146L197.019 58.619H195.642V65H196.722V60.167L199.872 65H200.997ZM206.718 60.113C206.574 59.402 205.989 58.484 204.486 58.484C203.298 58.484 202.317 59.366 202.317 60.437C202.317 61.391 202.965 62.03 203.937 62.228L204.837 62.417C205.386 62.534 205.692 62.867 205.692 63.281C205.692 63.776 205.296 64.163 204.531 64.163C203.613 64.163 203.136 63.551 203.073 62.885L202.065 63.173C202.164 64.091 202.911 65.135 204.531 65.135C205.989 65.135 206.79 64.19 206.79 63.2C206.79 62.3 206.187 61.589 205.062 61.364L204.144 61.175C203.649 61.067 203.397 60.761 203.397 60.356C203.397 59.87 203.847 59.438 204.495 59.438C205.35 59.438 205.683 60.023 205.746 60.419L206.718 60.113Z" fill="#596066"/>
<rect x="127.582" y="55.9746" width="10.1645" height="10.1645" rx="1" fill="#EE8932"/>
<path d="M133.291 59.9229L131.564 61.6501C131.428 61.7855 131.428 61.9887 131.564 62.1242C131.699 62.2596 131.902 62.2596 132.038 62.1242L133.765 60.397C133.9 60.2616 133.9 60.0584 133.765 59.9229C133.663 59.7875 133.426 59.7875 133.291 59.9229ZM132.275 62.1919C132.275 62.3612 132.207 62.4967 132.072 62.6322L131.327 63.3772C131.056 63.6481 130.615 63.6481 130.345 63.3772C130.074 63.1063 130.074 62.666 130.345 62.3951L131.09 61.6501C131.225 61.5146 131.361 61.4469 131.53 61.4469L132.106 60.8712C131.598 60.668 130.988 60.7696 130.582 61.1759L129.837 61.921C129.295 62.4628 129.295 63.3434 129.837 63.8852C130.378 64.4271 131.259 64.4271 131.801 63.8852L132.546 63.1402C132.952 62.7338 133.054 62.1242 132.851 61.6162L132.275 62.1919ZM133.528 58.2296L132.783 58.9747C132.376 59.3811 132.275 59.9906 132.478 60.4986L133.054 59.9229C133.054 59.7536 133.122 59.6181 133.257 59.4827L134.002 58.7376C134.273 58.4667 134.713 58.4667 134.984 58.7376C135.255 59.0085 135.255 59.4488 134.984 59.7197L134.239 60.4648C134.104 60.6002 133.968 60.668 133.799 60.668L133.223 61.2437C133.731 61.4469 134.341 61.3453 134.747 60.9389L135.492 60.1938C136.034 59.652 136.034 58.7715 135.492 58.2296C134.95 57.6878 134.07 57.6878 133.528 58.2296Z" fill="white"/>
<rect x="128.125" y="73.125" width="108.75" height="12.75" rx="0.875" stroke="#909090" stroke-width="0.25"/>
<rect x="241.125" y="73.125" width="109.75" height="12.75" rx="0.875" stroke="#909090" stroke-width="0.25"/>
<path d="M230.295 81.7074L227.275 77.3934C227.159 77.2277 227.278 77 227.48 77H233.52C233.722 77 233.841 77.2277 233.725 77.3934L230.705 81.7074C230.605 81.8496 230.395 81.8496 230.295 81.7074Z" fill="#C4C4C4"/>
<path d="M136.794 78.164C136.682 77.625 136.234 76.932 135.114 76.932C134.197 76.932 133.476 77.632 133.476 78.409C133.476 79.151 133.98 79.613 134.687 79.767L135.394 79.921C135.891 80.026 136.136 80.334 136.136 80.691C136.136 81.125 135.8 81.482 135.114 81.482C134.365 81.482 133.973 80.971 133.924 80.418L133.266 80.628C133.357 81.335 133.924 82.105 135.121 82.105C136.178 82.105 136.836 81.405 136.836 80.635C136.836 79.942 136.374 79.424 135.548 79.242L134.806 79.081C134.386 78.99 134.169 78.717 134.169 78.36C134.169 77.898 134.568 77.534 135.128 77.534C135.821 77.534 136.122 78.024 136.178 78.381L136.794 78.164ZM138.068 79.97C138.096 79.536 138.432 79.109 138.985 79.109C139.58 79.109 139.895 79.487 139.909 79.97H138.068ZM140.007 80.845C139.881 81.223 139.608 81.524 139.062 81.524C138.495 81.524 138.061 81.104 138.047 80.502H140.581C140.588 80.46 140.595 80.376 140.595 80.292C140.595 79.242 140.014 78.528 138.978 78.528C138.131 78.528 137.368 79.249 137.368 80.306C137.368 81.447 138.159 82.105 139.062 82.105C139.846 82.105 140.385 81.636 140.574 81.041L140.007 80.845ZM141.862 79.97C141.89 79.536 142.226 79.109 142.779 79.109C143.374 79.109 143.689 79.487 143.703 79.97H141.862ZM143.801 80.845C143.675 81.223 143.402 81.524 142.856 81.524C142.289 81.524 141.855 81.104 141.841 80.502H144.375C144.382 80.46 144.389 80.376 144.389 80.292C144.389 79.242 143.808 78.528 142.772 78.528C141.925 78.528 141.162 79.249 141.162 80.306C141.162 81.447 141.953 82.105 142.856 82.105C143.64 82.105 144.179 81.636 144.368 81.041L143.801 80.845ZM150.486 82H151.228L149.254 77.037H148.463L146.489 82H147.224L147.749 80.614H149.947L150.486 82ZM148.841 77.751L149.702 79.977H147.994L148.841 77.751ZM152.518 82V76.932H151.86V82H152.518ZM154.295 82V76.932H153.637V82H154.295Z" fill="#596066"/>
<path d="M136.16 147.164C136.048 146.625 135.6 145.932 134.48 145.932C133.563 145.932 132.842 146.632 132.842 147.409C132.842 148.151 133.346 148.613 134.053 148.767L134.76 148.921C135.257 149.026 135.502 149.334 135.502 149.691C135.502 150.125 135.166 150.482 134.48 150.482C133.731 150.482 133.339 149.971 133.29 149.418L132.632 149.628C132.723 150.335 133.29 151.105 134.487 151.105C135.544 151.105 136.202 150.405 136.202 149.635C136.202 148.942 135.74 148.424 134.914 148.242L134.172 148.081C133.752 147.99 133.535 147.717 133.535 147.36C133.535 146.898 133.934 146.534 134.494 146.534C135.187 146.534 135.488 147.024 135.544 147.381L136.16 147.164ZM137.434 148.97C137.462 148.536 137.798 148.109 138.351 148.109C138.946 148.109 139.261 148.487 139.275 148.97H137.434ZM139.373 149.845C139.247 150.223 138.974 150.524 138.428 150.524C137.861 150.524 137.427 150.104 137.413 149.502H139.947C139.954 149.46 139.961 149.376 139.961 149.292C139.961 148.242 139.38 147.528 138.344 147.528C137.497 147.528 136.734 148.249 136.734 149.306C136.734 150.447 137.525 151.105 138.428 151.105C139.212 151.105 139.751 150.636 139.94 150.041L139.373 149.845ZM141.459 149.054C141.459 148.543 141.725 148.13 142.243 148.13C142.831 148.13 143.027 148.508 143.027 148.977V151H143.685V148.865C143.685 148.116 143.286 147.535 142.481 147.535C142.089 147.535 141.69 147.696 141.445 148.116V147.633H140.801V151H141.459V149.054ZM145.123 149.306C145.123 148.613 145.515 148.123 146.117 148.123C146.719 148.123 147.083 148.599 147.083 149.292C147.083 149.985 146.712 150.51 146.11 150.51C145.48 150.51 145.123 149.999 145.123 149.306ZM147.09 150.545C147.09 150.748 147.111 150.923 147.125 151H147.762C147.755 150.944 147.727 150.699 147.727 150.377V145.932H147.076V148.109C146.964 147.836 146.642 147.542 146.047 147.542C145.095 147.542 144.451 148.354 144.451 149.306C144.451 150.307 145.06 151.091 146.047 151.091C146.572 151.091 146.929 150.811 147.09 150.489V150.545ZM151.906 145.911C151.297 145.911 150.8 146.317 150.8 147.066V147.633H150.177V148.228H150.8V151H151.479V148.228H153.054V151H153.705V147.633H151.479V147.094C151.479 146.632 151.78 146.527 152.011 146.527C152.179 146.527 152.263 146.555 152.298 146.569V145.981C152.27 145.96 152.13 145.911 151.906 145.911ZM152.907 146.345C152.907 146.604 153.117 146.814 153.376 146.814C153.642 146.814 153.852 146.604 153.852 146.345C153.852 146.079 153.642 145.869 153.376 145.869C153.117 145.869 152.907 146.079 152.907 146.345ZM155.479 151V145.932H154.821V151H155.479ZM157.026 148.97C157.054 148.536 157.39 148.109 157.943 148.109C158.538 148.109 158.853 148.487 158.867 148.97H157.026ZM158.965 149.845C158.839 150.223 158.566 150.524 158.02 150.524C157.453 150.524 157.019 150.104 157.005 149.502H159.539C159.546 149.46 159.553 149.376 159.553 149.292C159.553 148.242 158.972 147.528 157.936 147.528C157.089 147.528 156.326 148.249 156.326 149.306C156.326 150.447 157.117 151.105 158.02 151.105C158.804 151.105 159.343 150.636 159.532 150.041L158.965 149.845ZM164.362 150.594C164.362 150.734 164.376 150.923 164.39 151H165.02C165.006 150.881 164.985 150.643 164.985 150.377V147.633H164.327V149.663C164.327 150.174 164.061 150.524 163.529 150.524C162.976 150.524 162.766 150.118 162.766 149.656V147.633H162.108V149.754C162.108 150.517 162.584 151.105 163.368 151.105C163.76 151.105 164.18 150.944 164.362 150.594ZM166.758 152.33V150.545C166.94 150.846 167.332 151.091 167.85 151.091C168.837 151.091 169.418 150.314 169.418 149.313C169.418 148.333 168.879 147.556 167.871 147.556C167.325 147.556 166.926 147.822 166.744 148.158V147.633H166.107V152.33H166.758ZM168.746 149.313C168.746 150.006 168.361 150.503 167.752 150.503C167.15 150.503 166.751 150.006 166.751 149.313C166.751 148.641 167.15 148.137 167.752 148.137C168.368 148.137 168.746 148.641 168.746 149.313ZM170.915 151V145.932H170.257V151H170.915ZM173.476 150.517C172.916 150.517 172.426 150.097 172.426 149.313C172.426 148.536 172.916 148.116 173.476 148.116C174.036 148.116 174.526 148.536 174.526 149.313C174.526 150.097 174.036 150.517 173.476 150.517ZM173.476 147.528C172.468 147.528 171.754 148.291 171.754 149.313C171.754 150.342 172.468 151.105 173.476 151.105C174.484 151.105 175.198 150.342 175.198 149.313C175.198 148.291 174.484 147.528 173.476 147.528ZM175.83 150.097C175.83 150.629 176.271 151.105 176.957 151.105C177.559 151.105 177.895 150.783 178.042 150.545C178.042 150.79 178.063 150.916 178.077 151H178.721C178.707 150.916 178.679 150.741 178.679 150.447V148.76C178.679 148.102 178.287 147.528 177.279 147.528C176.551 147.528 175.97 147.976 175.9 148.62L176.53 148.767C176.572 148.375 176.831 148.088 177.293 148.088C177.804 148.088 178.021 148.361 178.021 148.69C178.021 148.809 177.965 148.914 177.762 148.942L176.852 149.075C176.271 149.159 175.83 149.495 175.83 150.097ZM177.048 150.552C176.712 150.552 176.502 150.314 176.502 150.062C176.502 149.761 176.712 149.6 176.992 149.558L178.021 149.404V149.558C178.021 150.293 177.587 150.552 177.048 150.552ZM180.096 149.306C180.096 148.613 180.488 148.123 181.09 148.123C181.692 148.123 182.056 148.599 182.056 149.292C182.056 149.985 181.685 150.51 181.083 150.51C180.453 150.51 180.096 149.999 180.096 149.306ZM182.063 150.545C182.063 150.748 182.084 150.923 182.098 151H182.735C182.728 150.944 182.7 150.699 182.7 150.377V145.932H182.049V148.109C181.937 147.836 181.615 147.542 181.02 147.542C180.068 147.542 179.424 148.354 179.424 149.306C179.424 150.307 180.033 151.091 181.02 151.091C181.545 151.091 181.902 150.811 182.063 150.489V150.545ZM183.504 150.125C183.56 150.51 183.952 151.105 184.876 151.105C185.709 151.105 186.108 150.538 186.108 150.062C186.108 149.565 185.786 149.194 185.177 149.061L184.631 148.942C184.372 148.886 184.246 148.739 184.246 148.536C184.246 148.305 184.47 148.088 184.806 148.088C185.338 148.088 185.478 148.473 185.506 148.648L186.087 148.431C186.017 148.13 185.73 147.528 184.806 147.528C184.148 147.528 183.609 148.018 183.609 148.592C183.609 149.068 183.924 149.425 184.449 149.537L185.023 149.663C185.303 149.726 185.457 149.887 185.457 150.097C185.457 150.335 185.254 150.545 184.883 150.545C184.407 150.545 184.141 150.265 184.099 149.915L183.504 150.125ZM189.616 146.569H189.014V147.115C189.014 147.409 188.86 147.633 188.496 147.633H188.314V148.228H188.958V150.076C188.958 150.685 189.322 151.035 189.896 151.035C190.12 151.035 190.288 150.993 190.344 150.972V150.412C190.288 150.426 190.169 150.44 190.085 150.44C189.742 150.44 189.616 150.286 189.616 149.978V148.228H190.344V147.633H189.616V146.569ZM192.63 150.517C192.07 150.517 191.58 150.097 191.58 149.313C191.58 148.536 192.07 148.116 192.63 148.116C193.19 148.116 193.68 148.536 193.68 149.313C193.68 150.097 193.19 150.517 192.63 150.517ZM192.63 147.528C191.622 147.528 190.908 148.291 190.908 149.313C190.908 150.342 191.622 151.105 192.63 151.105C193.638 151.105 194.352 150.342 194.352 149.313C194.352 148.291 193.638 147.528 192.63 147.528ZM135.529 161.407L137.72 156.633H137.013L136.005 158.957L134.955 156.633H134.199L135.648 159.629L134.808 161.407H135.529ZM139.659 159.517C139.099 159.517 138.609 159.097 138.609 158.313C138.609 157.536 139.099 157.116 139.659 157.116C140.219 157.116 140.709 157.536 140.709 158.313C140.709 159.097 140.219 159.517 139.659 159.517ZM139.659 156.528C138.651 156.528 137.937 157.291 137.937 158.313C137.937 159.342 138.651 160.105 139.659 160.105C140.667 160.105 141.381 159.342 141.381 158.313C141.381 157.291 140.667 156.528 139.659 156.528ZM144.407 159.594C144.407 159.734 144.421 159.923 144.435 160H145.065C145.051 159.881 145.03 159.643 145.03 159.377V156.633H144.372V158.663C144.372 159.174 144.106 159.524 143.574 159.524C143.021 159.524 142.811 159.118 142.811 158.656V156.633H142.153V158.754C142.153 159.517 142.629 160.105 143.413 160.105C143.805 160.105 144.225 159.944 144.407 159.594ZM148.022 156.598C147.987 156.591 147.896 156.577 147.805 156.577C147.462 156.577 147.042 156.703 146.797 157.221V156.633H146.153V160H146.811V158.313C146.811 157.571 147.182 157.277 147.735 157.277C147.826 157.277 147.924 157.284 148.022 157.298V156.598ZM151.888 157.137C152.462 157.137 152.707 157.522 152.791 157.851L153.386 157.599C153.246 157.088 152.784 156.528 151.888 156.528C150.929 156.528 150.194 157.263 150.194 158.313C150.194 159.335 150.915 160.105 151.895 160.105C152.77 160.105 153.253 159.538 153.414 159.055L152.833 158.803C152.756 159.069 152.525 159.496 151.895 159.496C151.349 159.496 150.866 159.083 150.866 158.313C150.866 157.529 151.356 157.137 151.888 157.137ZM154.843 160V154.932H154.185V160H154.843ZM157.405 159.517C156.845 159.517 156.355 159.097 156.355 158.313C156.355 157.536 156.845 157.116 157.405 157.116C157.965 157.116 158.455 157.536 158.455 158.313C158.455 159.097 157.965 159.517 157.405 159.517ZM157.405 156.528C156.397 156.528 155.683 157.291 155.683 158.313C155.683 159.342 156.397 160.105 157.405 160.105C158.413 160.105 159.127 159.342 159.127 158.313C159.127 157.291 158.413 156.528 157.405 156.528ZM162.154 159.594C162.154 159.734 162.168 159.923 162.182 160H162.812C162.798 159.881 162.777 159.643 162.777 159.377V156.633H162.119V158.663C162.119 159.174 161.853 159.524 161.321 159.524C160.768 159.524 160.558 159.118 160.558 158.656V156.633H159.9V158.754C159.9 159.517 160.376 160.105 161.16 160.105C161.552 160.105 161.972 159.944 162.154 159.594ZM164.257 158.306C164.257 157.613 164.649 157.123 165.251 157.123C165.853 157.123 166.217 157.599 166.217 158.292C166.217 158.985 165.846 159.51 165.244 159.51C164.614 159.51 164.257 158.999 164.257 158.306ZM166.224 159.545C166.224 159.748 166.245 159.923 166.259 160H166.896C166.889 159.944 166.861 159.699 166.861 159.377V154.932H166.21V157.109C166.098 156.836 165.776 156.542 165.181 156.542C164.229 156.542 163.585 157.354 163.585 158.306C163.585 159.307 164.194 160.091 165.181 160.091C165.706 160.091 166.063 159.811 166.224 159.489V159.545ZM169.415 159.125C169.471 159.51 169.863 160.105 170.787 160.105C171.62 160.105 172.019 159.538 172.019 159.062C172.019 158.565 171.697 158.194 171.088 158.061L170.542 157.942C170.283 157.886 170.157 157.739 170.157 157.536C170.157 157.305 170.381 157.088 170.717 157.088C171.249 157.088 171.389 157.473 171.417 157.648L171.998 157.431C171.928 157.13 171.641 156.528 170.717 156.528C170.059 156.528 169.52 157.018 169.52 157.592C169.52 158.068 169.835 158.425 170.36 158.537L170.934 158.663C171.214 158.726 171.368 158.887 171.368 159.097C171.368 159.335 171.165 159.545 170.794 159.545C170.318 159.545 170.052 159.265 170.01 158.915L169.415 159.125ZM173.777 155.569H173.175V156.115C173.175 156.409 173.021 156.633 172.657 156.633H172.475V157.228H173.119V159.076C173.119 159.685 173.483 160.035 174.057 160.035C174.281 160.035 174.449 159.993 174.505 159.972V159.412C174.449 159.426 174.33 159.44 174.246 159.44C173.903 159.44 173.777 159.286 173.777 158.978V157.228H174.505V156.633H173.777V155.569ZM176.792 159.517C176.232 159.517 175.742 159.097 175.742 158.313C175.742 157.536 176.232 157.116 176.792 157.116C177.352 157.116 177.842 157.536 177.842 158.313C177.842 159.097 177.352 159.517 176.792 159.517ZM176.792 156.528C175.784 156.528 175.07 157.291 175.07 158.313C175.07 159.342 175.784 160.105 176.792 160.105C177.8 160.105 178.514 159.342 178.514 158.313C178.514 157.291 177.8 156.528 176.792 156.528ZM181.224 156.598C181.189 156.591 181.098 156.577 181.007 156.577C180.664 156.577 180.244 156.703 179.999 157.221V156.633H179.355V160H180.013V158.313C180.013 157.571 180.384 157.277 180.937 157.277C181.028 157.277 181.126 157.284 181.224 157.298V156.598ZM181.716 159.097C181.716 159.629 182.157 160.105 182.843 160.105C183.445 160.105 183.781 159.783 183.928 159.545C183.928 159.79 183.949 159.916 183.963 160H184.607C184.593 159.916 184.565 159.741 184.565 159.447V157.76C184.565 157.102 184.173 156.528 183.165 156.528C182.437 156.528 181.856 156.976 181.786 157.62L182.416 157.767C182.458 157.375 182.717 157.088 183.179 157.088C183.69 157.088 183.907 157.361 183.907 157.69C183.907 157.809 183.851 157.914 183.648 157.942L182.738 158.075C182.157 158.159 181.716 158.495 181.716 159.097ZM182.934 159.552C182.598 159.552 182.388 159.314 182.388 159.062C182.388 158.761 182.598 158.6 182.878 158.558L183.907 158.404V158.558C183.907 159.293 183.473 159.552 182.934 159.552ZM185.345 160.182C185.429 160.903 186.059 161.435 186.899 161.435C188.166 161.435 188.586 160.602 188.586 159.748V156.633H187.935V157.102C187.767 156.766 187.417 156.57 186.899 156.57C185.975 156.57 185.352 157.298 185.352 158.208C185.352 159.16 186.003 159.839 186.899 159.839C187.403 159.839 187.767 159.594 187.928 159.286V159.769C187.928 160.497 187.606 160.861 186.899 160.861C186.388 160.861 186.031 160.504 185.982 160.035L185.345 160.182ZM186.997 159.286C186.402 159.286 186.024 158.866 186.024 158.208C186.024 157.557 186.416 157.13 186.997 157.13C187.564 157.13 187.956 157.557 187.956 158.208C187.956 158.859 187.564 159.286 186.997 159.286ZM190.064 157.97C190.092 157.536 190.428 157.109 190.981 157.109C191.576 157.109 191.891 157.487 191.905 157.97H190.064ZM192.003 158.845C191.877 159.223 191.604 159.524 191.058 159.524C190.491 159.524 190.057 159.104 190.043 158.502H192.577C192.584 158.46 192.591 158.376 192.591 158.292C192.591 157.242 192.01 156.528 190.974 156.528C190.127 156.528 189.364 157.249 189.364 158.306C189.364 159.447 190.155 160.105 191.058 160.105C191.842 160.105 192.381 159.636 192.57 159.041L192.003 158.845Z" fill="#596066"/>
<path d="M225 73V86" stroke="#909090" stroke-width="0.25"/>
<path d="M247.63 77.037V82H249.366C250.276 82 250.899 81.433 250.899 80.649C250.899 80.096 250.57 79.592 250.003 79.452C250.437 79.291 250.745 78.913 250.745 78.381C250.745 77.597 250.192 77.037 249.247 77.037H247.63ZM248.316 79.207V77.639H249.142C249.709 77.639 250.052 77.947 250.052 78.416C250.052 78.878 249.723 79.207 249.17 79.207H248.316ZM248.316 81.398V79.795H249.296C249.898 79.795 250.199 80.131 250.199 80.607C250.199 81.09 249.821 81.398 249.268 81.398H248.316ZM253.247 81.517C252.687 81.517 252.197 81.097 252.197 80.313C252.197 79.536 252.687 79.116 253.247 79.116C253.807 79.116 254.297 79.536 254.297 80.313C254.297 81.097 253.807 81.517 253.247 81.517ZM253.247 78.528C252.239 78.528 251.525 79.291 251.525 80.313C251.525 81.342 252.239 82.105 253.247 82.105C254.255 82.105 254.969 81.342 254.969 80.313C254.969 79.291 254.255 78.528 253.247 78.528ZM255.253 82H256.037L256.891 80.761L257.759 82H258.55C258.347 81.727 257.514 80.558 257.311 80.285L258.508 78.633H257.731L256.919 79.816L256.093 78.633H255.295L256.506 80.285L255.253 82Z" fill="#596066"/>
<path d="M157.662 133.619V140H160.02C161.208 140 162 139.262 162 138.236C162 137.48 161.532 136.895 160.857 136.715C161.406 136.517 161.802 136.013 161.802 135.338C161.802 134.339 161.082 133.619 159.858 133.619H157.662ZM158.733 136.319V134.537H159.687C160.344 134.537 160.722 134.888 160.722 135.428C160.722 135.959 160.344 136.319 159.714 136.319H158.733ZM158.733 139.082V137.228H159.867C160.533 137.228 160.902 137.615 160.902 138.164C160.902 138.731 160.479 139.082 159.831 139.082H158.733ZM165.009 139.199C164.37 139.199 163.785 138.713 163.785 137.804C163.785 136.895 164.37 136.427 165.009 136.427C165.657 136.427 166.233 136.895 166.233 137.804C166.233 138.722 165.657 139.199 165.009 139.199ZM165.009 135.482C163.704 135.482 162.741 136.463 162.741 137.804C162.741 139.154 163.704 140.135 165.009 140.135C166.323 140.135 167.286 139.154 167.286 137.804C167.286 136.463 166.323 135.482 165.009 135.482ZM167.587 140H168.784C168.865 139.865 169.684 138.668 169.774 138.533L170.791 140H172.015L170.422 137.768L171.961 135.617H170.773L169.819 137.021C169.738 136.895 168.937 135.752 168.856 135.617H167.614L169.18 137.786L167.587 140Z" fill="#596066"/>
<path d="M342.875 81.8094C344.247 81.8094 345.359 80.6995 345.359 79.3303C345.359 77.961 344.247 76.8511 342.875 76.8511C341.503 76.8511 340.391 77.961 340.391 79.3303C340.391 80.6995 341.503 81.8094 342.875 81.8094Z" stroke="#767676" stroke-width="0.5" stroke-miterlimit="10"/>
<path d="M346.263 82.7117L344.908 81.3594" stroke="#767676" stroke-width="0.5" stroke-miterlimit="10" stroke-linecap="round"/>
<rect x="128.5" y="95.5" width="71" height="72" rx="2.5" stroke="#B9B9B9"/>
<path d="M361.367 7H13V16.2405H361.367V7Z" fill="#D9D9D9"/>
<path d="M21.9405 13.0642C22.9296 13.0642 23.7314 12.2624 23.7314 11.2733C23.7314 10.2842 22.9296 9.48242 21.9405 9.48242C20.9515 9.48242 20.1497 10.2842 20.1497 11.2733C20.1497 12.2624 20.9515 13.0642 21.9405 13.0642Z" fill="#F32D28"/>
<path d="M30.2839 13.0642C31.273 13.0642 32.0748 12.2624 32.0748 11.2733C32.0748 10.2842 31.273 9.48242 30.2839 9.48242C29.2948 9.48242 28.493 10.2842 28.493 11.2733C28.493 12.2624 29.2948 13.0642 30.2839 13.0642Z" fill="#FAB41E"/>
<path d="M38.2399 13.0642C39.2289 13.0642 40.0307 12.2624 40.0307 11.2733C40.0307 10.2842 39.2289 9.48242 38.2399 9.48242C37.2508 9.48242 36.449 10.2842 36.449 11.2733C36.449 12.2624 37.2508 13.0642 38.2399 13.0642Z" fill="#93979C"/>
<path d="M240.316 9.77246H135.898V13.4687H240.316V9.77246Z" fill="white"/>
<path d="M357.437 24.4683C357.437 27.7646 354.765 30.4367 351.468 30.4367C348.172 30.4367 345.5 27.7646 345.5 24.4683C345.5 21.1721 348.172 18.5 351.468 18.5C354.765 18.5 357.437 21.1721 357.437 24.4683Z" fill="#F69C47" stroke="#FC7B14"/>
<path d="M193.93 155L202.397 177.444L206.075 171.242L208.676 173.777C209.852 174.94 211.789 174.891 212.935 173.694C214.082 172.497 214.036 170.529 212.86 169.365L210.259 166.831L216.228 162.888L193.93 155Z" fill="white"/>
<path d="M213.441 163.229L196.035 157.055L202.65 174.506L205.839 169.2L209.554 172.831C210.235 173.515 211.396 173.498 212.07 172.806C212.744 172.113 212.729 170.933 212.049 170.249L208.333 166.619L213.441 163.229Z" fill="#373B41"/>
<defs>
<filter id="filter0_d" x="0" y="0" width="373" height="245" filterUnits="userSpaceOnUse" color-interpolation-filters="sRGB">
<feFlood flood-opacity="0" result="BackgroundImageFix"/>
<feColorMatrix in="SourceAlpha" type="matrix" values="0 0 0 0 0 0 0 0 0 0 0 0 0 0 0 0 0 0 127 0" result="hardAlpha"/>
<feOffset dy="4"/>
<feGaussianBlur stdDeviation="2"/>
<feComposite in2="hardAlpha" operator="out"/>
<feColorMatrix type="matrix" values="0 0 0 0 0 0 0 0 0 0 0 0 0 0 0 0 0 0 0.25 0"/>
<feBlend mode="normal" in2="BackgroundImageFix" result="effect1_dropShadow"/>
<feBlend mode="normal" in="SourceGraphic" in2="effect1_dropShadow" result="shape"/>
</filter>
<linearGradient id="paint0_linear" x1="22.7017" y1="23.8926" x2="25.6724" y2="24.2438" gradientUnits="userSpaceOnUse">
<stop stop-color="#F1D4C3"/>
<stop offset="1" stop-color="#C29380"/>
</linearGradient>
</defs>
</svg>
