<svg width="373" height="245" viewBox="0 0 373 245" fill="none" xmlns="http://www.w3.org/2000/svg">
<g filter="url(#filter0_d)">
<rect x="4" width="365" height="237" rx="10" fill="white"/>
</g>
<rect x="33" y="6" width="265" height="227" fill="white"/>
<rect x="71" y="18" width="290" height="210" fill="white"/>
<path d="M307.103 89.3589V84.8229H306.501C306.396 85.3129 305.962 85.6629 305.332 85.6769V86.1599H306.431V89.3589H307.103ZM308.047 88.9109C308.047 89.1839 308.257 89.3939 308.53 89.3939C308.803 89.3939 309.02 89.1839 309.02 88.9109C309.02 88.6379 308.803 88.4209 308.53 88.4209C308.257 88.4209 308.047 88.6379 308.047 88.9109ZM311.403 86.7549C310.92 86.7479 310.563 86.4539 310.563 86.0129C310.563 85.6069 310.892 85.2849 311.403 85.2849C311.914 85.2849 312.243 85.6069 312.243 86.0129C312.243 86.4539 311.886 86.7479 311.403 86.7549ZM311.403 88.8689C310.794 88.8689 310.451 88.5329 310.451 88.1059C310.451 87.6719 310.801 87.3289 311.403 87.3289C312.005 87.3289 312.355 87.6719 312.355 88.1059C312.355 88.5329 312.012 88.8689 311.403 88.8689ZM311.403 89.4639C312.446 89.4639 313.048 88.8899 313.048 88.1619C313.048 87.6089 312.67 87.1959 312.187 87.0419C312.607 86.8879 312.929 86.4679 312.929 85.9779C312.929 85.2359 312.271 84.7179 311.403 84.7179C310.535 84.7179 309.877 85.2359 309.877 85.9779C309.877 86.4819 310.206 86.8879 310.619 87.0419C310.136 87.2029 309.758 87.6089 309.758 88.1619C309.758 88.8899 310.36 89.4639 311.403 89.4639ZM321.102 89.3589V84.3959H320.185L318.421 88.4349L316.671 84.3959H315.74V89.3589H316.419V85.4949L318.099 89.3589H318.729L320.423 85.4949V89.3589H321.102ZM322.364 84.3959V89.3589H324.1C325.01 89.3589 325.633 88.7919 325.633 88.0079C325.633 87.4549 325.304 86.9509 324.737 86.8109C325.171 86.6499 325.479 86.2719 325.479 85.7399C325.479 84.9559 324.926 84.3959 323.981 84.3959H322.364ZM323.05 86.5659V84.9979H323.876C324.443 84.9979 324.786 85.3059 324.786 85.7749C324.786 86.2369 324.457 86.5659 323.904 86.5659H323.05ZM323.05 88.7569V87.1539H324.03C324.632 87.1539 324.933 87.4899 324.933 87.9659C324.933 88.4489 324.555 88.7569 324.002 88.7569H323.05Z" fill="black"/>
<path d="M306.144 107.592C306.137 107.522 306.13 107.452 306.13 107.389C306.13 106.871 306.41 106.458 307.005 106.458C307.579 106.458 307.859 106.843 307.859 107.256C307.859 107.606 307.663 107.928 307.236 108.201L306.48 108.691C305.71 109.188 305.416 109.755 305.402 110.497H308.58V109.86H306.249C306.312 109.58 306.543 109.391 306.802 109.223L307.698 108.649C308.216 108.32 308.552 107.844 308.552 107.249C308.552 106.493 307.992 105.856 307.019 105.856C306.025 105.856 305.451 106.549 305.451 107.326C305.451 107.382 305.451 107.445 305.458 107.508L306.144 107.592ZM309.352 110.049C309.352 110.322 309.562 110.532 309.835 110.532C310.108 110.532 310.325 110.322 310.325 110.049C310.325 109.776 310.108 109.559 309.835 109.559C309.562 109.559 309.352 109.776 309.352 110.049ZM312.392 108.39C312.511 108.348 312.651 108.32 312.791 108.32C313.239 108.32 313.715 108.572 313.715 109.167C313.715 109.622 313.379 110.007 312.756 110.007C312.21 110.007 311.776 109.629 311.748 109.027L311.076 109.181C311.118 109.923 311.713 110.609 312.763 110.609C313.82 110.609 314.408 109.916 314.408 109.153C314.408 108.222 313.673 107.774 313.008 107.774L314.303 106.577V105.961H311.223V106.591H313.393L312.056 107.823L312.392 108.39ZM322.429 110.497V105.534H321.512L319.748 109.573L317.998 105.534H317.067V110.497H317.746V106.633L319.426 110.497H320.056L321.75 106.633V110.497H322.429ZM323.691 105.534V110.497H325.427C326.337 110.497 326.96 109.93 326.96 109.146C326.96 108.593 326.631 108.089 326.064 107.949C326.498 107.788 326.806 107.41 326.806 106.878C326.806 106.094 326.253 105.534 325.308 105.534H323.691ZM324.377 107.704V106.136H325.203C325.77 106.136 326.113 106.444 326.113 106.913C326.113 107.375 325.784 107.704 325.231 107.704H324.377ZM324.377 109.895V108.292H325.357C325.959 108.292 326.26 108.628 326.26 109.104C326.26 109.587 325.882 109.895 325.329 109.895H324.377Z" fill="black"/>
<path d="M306.732 128.018C306.851 127.976 306.991 127.948 307.131 127.948C307.579 127.948 308.055 128.2 308.055 128.795C308.055 129.25 307.719 129.635 307.096 129.635C306.55 129.635 306.116 129.257 306.088 128.655L305.416 128.809C305.458 129.551 306.053 130.237 307.103 130.237C308.16 130.237 308.748 129.544 308.748 128.781C308.748 127.85 308.013 127.402 307.348 127.402L308.643 126.205V125.589H305.563V126.219H307.733L306.396 127.451L306.732 128.018ZM309.448 129.677C309.448 129.95 309.658 130.16 309.931 130.16C310.204 130.16 310.421 129.95 310.421 129.677C310.421 129.404 310.204 129.187 309.931 129.187C309.658 129.187 309.448 129.404 309.448 129.677ZM311.158 128.893C311.221 129.607 311.872 130.237 312.838 130.237C313.846 130.237 314.504 129.544 314.504 128.69C314.504 127.752 313.853 127.185 312.964 127.185C312.607 127.185 312.243 127.297 312.04 127.521L312.376 126.219H314.315V125.589H311.921L311.333 127.843C311.564 127.927 311.767 128.018 312.005 128.109C312.201 127.906 312.509 127.78 312.831 127.78C313.356 127.78 313.811 128.095 313.811 128.718C313.811 129.278 313.377 129.635 312.838 129.635C312.271 129.635 311.858 129.257 311.816 128.697L311.158 128.893ZM322.49 130.125V125.162H321.573L319.809 129.201L318.059 125.162H317.128V130.125H317.807V126.261L319.487 130.125H320.117L321.811 126.261V130.125H322.49ZM323.752 125.162V130.125H325.488C326.398 130.125 327.021 129.558 327.021 128.774C327.021 128.221 326.692 127.717 326.125 127.577C326.559 127.416 326.867 127.038 326.867 126.506C326.867 125.722 326.314 125.162 325.369 125.162H323.752ZM324.438 127.332V125.764H325.264C325.831 125.764 326.174 126.072 326.174 126.541C326.174 127.003 325.845 127.332 325.292 127.332H324.438ZM324.438 129.523V127.92H325.418C326.02 127.92 326.321 128.256 326.321 128.732C326.321 129.215 325.943 129.523 325.39 129.523H324.438Z" fill="black"/>
<path d="M307.103 150.508V145.972H306.501C306.396 146.462 305.962 146.812 305.332 146.826V147.309H306.431V150.508H307.103ZM308.047 150.06C308.047 150.333 308.257 150.543 308.53 150.543C308.803 150.543 309.02 150.333 309.02 150.06C309.02 149.787 308.803 149.57 308.53 149.57C308.257 149.57 308.047 149.787 308.047 150.06ZM310.499 147.603C310.492 147.533 310.485 147.463 310.485 147.4C310.485 146.882 310.765 146.469 311.36 146.469C311.934 146.469 312.214 146.854 312.214 147.267C312.214 147.617 312.018 147.939 311.591 148.212L310.835 148.702C310.065 149.199 309.771 149.766 309.757 150.508H312.935V149.871H310.604C310.667 149.591 310.898 149.402 311.157 149.234L312.053 148.66C312.571 148.331 312.907 147.855 312.907 147.26C312.907 146.504 312.347 145.867 311.374 145.867C310.38 145.867 309.806 146.56 309.806 147.337C309.806 147.393 309.806 147.456 309.813 147.519L310.499 147.603ZM320.959 150.508V145.545H320.042L318.278 149.584L316.528 145.545H315.597V150.508H316.276V146.644L317.956 150.508H318.586L320.28 146.644V150.508H320.959ZM322.221 145.545V150.508H323.957C324.867 150.508 325.49 149.941 325.49 149.157C325.49 148.604 325.161 148.1 324.594 147.96C325.028 147.799 325.336 147.421 325.336 146.889C325.336 146.105 324.783 145.545 323.838 145.545H322.221ZM322.907 147.715V146.147H323.733C324.3 146.147 324.643 146.455 324.643 146.924C324.643 147.386 324.314 147.715 323.761 147.715H322.907ZM322.907 149.906V148.303H323.887C324.489 148.303 324.79 148.639 324.79 149.115C324.79 149.598 324.412 149.906 323.859 149.906H322.907Z" fill="black"/>
<path d="M78.679 76.3193H353.473" stroke="#909090" stroke-width="0.25" stroke-linejoin="round"/>
<path d="M78.679 95.1924H353.473" stroke="#909090" stroke-width="0.25" stroke-linejoin="round"/>
<path d="M78.679 114.821H353.473" stroke="#909090" stroke-width="0.25" stroke-linejoin="round"/>
<path d="M78.679 135.204H353.473" stroke="#909090" stroke-width="0.25" stroke-linejoin="round"/>
<path d="M78.679 155.587H352.718" stroke="#909090" stroke-width="0.25" stroke-linejoin="round"/>
<path d="M310.035 66.9552C309.891 66.2622 309.315 65.3712 307.875 65.3712C306.696 65.3712 305.769 66.2712 305.769 67.2702C305.769 68.2242 306.417 68.8182 307.326 69.0162L308.235 69.2142C308.874 69.3492 309.189 69.7452 309.189 70.2042C309.189 70.7622 308.757 71.2212 307.875 71.2212C306.912 71.2212 306.408 70.5642 306.345 69.8532L305.499 70.1232C305.616 71.0322 306.345 72.0222 307.884 72.0222C309.243 72.0222 310.089 71.1222 310.089 70.1322C310.089 69.2412 309.495 68.5752 308.433 68.3412L307.479 68.1342C306.939 68.0172 306.66 67.6662 306.66 67.2072C306.66 66.6132 307.173 66.1452 307.893 66.1452C308.784 66.1452 309.171 66.7752 309.243 67.2342L310.035 66.9552ZM312.005 71.8872V67.5582H311.168V71.8872H312.005ZM310.979 65.9202C310.979 66.2532 311.249 66.5232 311.582 66.5232C311.924 66.5232 312.194 66.2532 312.194 65.9202C312.194 65.5782 311.924 65.3082 311.582 65.3082C311.249 65.3082 310.979 65.5782 310.979 65.9202ZM316.559 71.8872V71.1222H314.138L316.514 68.2962V67.5582H313.121V68.3232H315.461L313.085 71.1492V71.8872H316.559ZM318.186 69.2772C318.222 68.7192 318.654 68.1702 319.365 68.1702C320.13 68.1702 320.535 68.6562 320.553 69.2772H318.186ZM320.679 70.4022C320.517 70.8882 320.166 71.2752 319.464 71.2752C318.735 71.2752 318.177 70.7352 318.159 69.9612H321.417C321.426 69.9072 321.435 69.7992 321.435 69.6912C321.435 68.3412 320.688 67.4232 319.356 67.4232C318.267 67.4232 317.286 68.3502 317.286 69.7092C317.286 71.1762 318.303 72.0222 319.464 72.0222C320.472 72.0222 321.165 71.4192 321.408 70.6542L320.679 70.4022Z" fill="#7E7E7E"/>
<path d="M84.736 71.8872V65.5062H83.854V70.4022L80.668 65.5062H79.489V71.8872H80.371V66.6852L83.818 71.8872H84.736ZM85.9493 70.7262C85.9493 71.4102 86.5163 72.0222 87.3983 72.0222C88.1723 72.0222 88.6043 71.6082 88.7933 71.3022C88.7933 71.6172 88.8203 71.7792 88.8383 71.8872H89.6663C89.6483 71.7792 89.6123 71.5542 89.6123 71.1762V69.0072C89.6123 68.1612 89.1083 67.4232 87.8123 67.4232C86.8763 67.4232 86.1293 67.9992 86.0393 68.8272L86.8493 69.0162C86.9033 68.5122 87.2363 68.1432 87.8303 68.1432C88.4873 68.1432 88.7663 68.4942 88.7663 68.9172C88.7663 69.0702 88.6943 69.2052 88.4333 69.2412L87.2633 69.4122C86.5163 69.5202 85.9493 69.9522 85.9493 70.7262ZM87.5153 71.3112C87.0833 71.3112 86.8133 71.0052 86.8133 70.6812C86.8133 70.2942 87.0833 70.0872 87.4433 70.0332L88.7663 69.8352V70.0332C88.7663 70.9782 88.2083 71.3112 87.5153 71.3112ZM91.7672 71.8872V69.2772C91.7672 68.6292 92.1722 68.1792 92.7752 68.1792C93.4232 68.1792 93.6932 68.6112 93.6932 69.1692V71.8872H94.5392V69.2682C94.5392 68.6472 94.9442 68.1792 95.5382 68.1792C96.1772 68.1792 96.4562 68.6022 96.4562 69.1692V71.8872H97.2932V69.0792C97.2932 67.9452 96.5552 67.4322 95.7992 67.4322C95.2502 67.4322 94.6922 67.6302 94.3502 68.2512C94.1162 67.6932 93.5942 67.4322 93.0542 67.4322C92.5502 67.4322 92.0102 67.6572 91.7402 68.1342V67.5582H90.9302V71.8872H91.7672ZM99.196 69.2772C99.232 68.7192 99.664 68.1702 100.375 68.1702C101.14 68.1702 101.545 68.6562 101.563 69.2772H99.196ZM101.689 70.4022C101.527 70.8882 101.176 71.2752 100.474 71.2752C99.745 71.2752 99.187 70.7352 99.169 69.9612H102.427C102.436 69.9072 102.445 69.7992 102.445 69.6912C102.445 68.3412 101.698 67.4232 100.366 67.4232C99.277 67.4232 98.296 68.3502 98.296 69.7092C98.296 71.1762 99.313 72.0222 100.474 72.0222C101.482 72.0222 102.175 71.4192 102.418 70.6542L101.689 70.4022Z" fill="#A3A3A3"/>
<rect x="13" y="18" width="58" height="210" fill="#0F64D2"/>
<rect x="16.1633" y="46.96" width="51.6683" height="11.599" rx="3" fill="#0A51A9"/>
<path d="M238.51 85.4855V84.8485H234.506V85.4855H236.165V89.8115H236.851V85.4855H238.51ZM239.917 89.3285C239.357 89.3285 238.867 88.9085 238.867 88.1245C238.867 87.3475 239.357 86.9275 239.917 86.9275C240.477 86.9275 240.967 87.3475 240.967 88.1245C240.967 88.9085 240.477 89.3285 239.917 89.3285ZM239.917 86.3395C238.909 86.3395 238.195 87.1025 238.195 88.1245C238.195 89.1535 238.909 89.9165 239.917 89.9165C240.925 89.9165 241.639 89.1535 241.639 88.1245C241.639 87.1025 240.925 86.3395 239.917 86.3395ZM242.873 88.1175C242.873 87.4245 243.265 86.9345 243.867 86.9345C244.469 86.9345 244.833 87.4105 244.833 88.1035C244.833 88.7965 244.462 89.3215 243.86 89.3215C243.23 89.3215 242.873 88.8105 242.873 88.1175ZM244.84 89.3565C244.84 89.5595 244.861 89.7345 244.875 89.8115H245.512C245.505 89.7555 245.477 89.5105 245.477 89.1885V84.7435H244.826V86.9205C244.714 86.6475 244.392 86.3535 243.797 86.3535C242.845 86.3535 242.201 87.1655 242.201 88.1175C242.201 89.1185 242.81 89.9025 243.797 89.9025C244.322 89.9025 244.679 89.6225 244.84 89.3005V89.3565ZM246.386 88.9085C246.386 89.4405 246.827 89.9165 247.513 89.9165C248.115 89.9165 248.451 89.5945 248.598 89.3565C248.598 89.6015 248.619 89.7275 248.633 89.8115H249.277C249.263 89.7275 249.235 89.5525 249.235 89.2585V87.5715C249.235 86.9135 248.843 86.3395 247.835 86.3395C247.107 86.3395 246.526 86.7875 246.456 87.4315L247.086 87.5785C247.128 87.1865 247.387 86.8995 247.849 86.8995C248.36 86.8995 248.577 87.1725 248.577 87.5015C248.577 87.6205 248.521 87.7255 248.318 87.7535L247.408 87.8865C246.827 87.9705 246.386 88.3065 246.386 88.9085ZM247.604 89.3635C247.268 89.3635 247.058 89.1255 247.058 88.8735C247.058 88.5725 247.268 88.4115 247.548 88.3695L248.577 88.2155V88.3695C248.577 89.1045 248.143 89.3635 247.604 89.3635ZM251.032 91.2185L253.223 86.4445H252.516L251.508 88.7685L250.458 86.4445H249.702L251.151 89.4405L250.311 91.2185H251.032ZM256.257 89.8115V89.3215C256.467 89.6855 256.852 89.9025 257.349 89.9025C258.35 89.9025 258.917 89.1115 258.917 88.1105C258.917 87.1305 258.392 86.3465 257.37 86.3465C256.81 86.3465 256.418 86.6195 256.257 86.9205V84.7435H255.606V89.8115H256.257ZM258.245 88.1105C258.245 88.8385 257.853 89.3145 257.251 89.3145C256.67 89.3145 256.25 88.8385 256.25 88.1105C256.25 87.3825 256.67 86.9275 257.251 86.9275C257.86 86.9275 258.245 87.3825 258.245 88.1105ZM260.459 91.2185L262.65 86.4445H261.943L260.935 88.7685L259.885 86.4445H259.129L260.578 89.4405L259.738 91.2185H260.459ZM264.613 88.3345C264.613 89.2865 265.187 89.9165 266.16 89.9165C267.084 89.9165 267.651 89.1955 267.651 88.3275V84.8485H266.965V88.3765C266.965 88.9505 266.657 89.2795 266.153 89.2795C265.656 89.2795 265.299 88.9855 265.299 88.3275V87.8585L264.613 88.0125V88.3345ZM269.165 87.7815C269.193 87.3475 269.529 86.9205 270.082 86.9205C270.677 86.9205 270.992 87.2985 271.006 87.7815H269.165ZM271.104 88.6565C270.978 89.0345 270.705 89.3355 270.159 89.3355C269.592 89.3355 269.158 88.9155 269.144 88.3135H271.678C271.685 88.2715 271.692 88.1875 271.692 88.1035C271.692 87.0535 271.111 86.3395 270.075 86.3395C269.228 86.3395 268.465 87.0605 268.465 88.1175C268.465 89.2585 269.256 89.9165 270.159 89.9165C270.943 89.9165 271.482 89.4475 271.671 88.8525L271.104 88.6565ZM272.322 88.9085C272.322 89.4405 272.763 89.9165 273.449 89.9165C274.051 89.9165 274.387 89.5945 274.534 89.3565C274.534 89.6015 274.555 89.7275 274.569 89.8115H275.213C275.199 89.7275 275.171 89.5525 275.171 89.2585V87.5715C275.171 86.9135 274.779 86.3395 273.771 86.3395C273.043 86.3395 272.462 86.7875 272.392 87.4315L273.022 87.5785C273.064 87.1865 273.323 86.8995 273.785 86.8995C274.296 86.8995 274.513 87.1725 274.513 87.5015C274.513 87.6205 274.457 87.7255 274.254 87.7535L273.344 87.8865C272.763 87.9705 272.322 88.3065 272.322 88.9085ZM273.54 89.3635C273.204 89.3635 272.994 89.1255 272.994 88.8735C272.994 88.5725 273.204 88.4115 273.484 88.3695L274.513 88.2155V88.3695C274.513 89.1045 274.079 89.3635 273.54 89.3635ZM276.854 87.8655C276.854 87.3545 277.12 86.9415 277.638 86.9415C278.226 86.9415 278.422 87.3195 278.422 87.7885V89.8115H279.08V87.6765C279.08 86.9275 278.681 86.3465 277.876 86.3465C277.484 86.3465 277.085 86.5075 276.84 86.9275V86.4445H276.196V89.8115H276.854V87.8655ZM280.553 87.7815C280.581 87.3475 280.917 86.9205 281.47 86.9205C282.065 86.9205 282.38 87.2985 282.394 87.7815H280.553ZM282.492 88.6565C282.366 89.0345 282.093 89.3355 281.547 89.3355C280.98 89.3355 280.546 88.9155 280.532 88.3135H283.066C283.073 88.2715 283.08 88.1875 283.08 88.1035C283.08 87.0535 282.499 86.3395 281.463 86.3395C280.616 86.3395 279.853 87.0605 279.853 88.1175C279.853 89.2585 280.644 89.9165 281.547 89.9165C282.331 89.9165 282.87 89.4475 283.059 88.8525L282.492 88.6565ZM284.802 85.3805H284.2V85.9265C284.2 86.2205 284.046 86.4445 283.682 86.4445H283.5V87.0395H284.144V88.8875C284.144 89.4965 284.508 89.8465 285.082 89.8465C285.306 89.8465 285.474 89.8045 285.53 89.7835V89.2235C285.474 89.2375 285.355 89.2515 285.271 89.2515C284.928 89.2515 284.802 89.0975 284.802 88.7895V87.0395H285.53V86.4445H284.802V85.3805ZM287.291 85.3805H286.689V85.9265C286.689 86.2205 286.535 86.4445 286.171 86.4445H285.989V87.0395H286.633V88.8875C286.633 89.4965 286.997 89.8465 287.571 89.8465C287.795 89.8465 287.963 89.8045 288.019 89.7835V89.2235C287.963 89.2375 287.844 89.2515 287.76 89.2515C287.417 89.2515 287.291 89.0975 287.291 88.7895V87.0395H288.019V86.4445H287.291V85.3805ZM289.29 87.7815C289.318 87.3475 289.654 86.9205 290.207 86.9205C290.802 86.9205 291.117 87.2985 291.131 87.7815H289.29ZM291.229 88.6565C291.103 89.0345 290.83 89.3355 290.284 89.3355C289.717 89.3355 289.283 88.9155 289.269 88.3135H291.803C291.81 88.2715 291.817 88.1875 291.817 88.1035C291.817 87.0535 291.236 86.3395 290.2 86.3395C289.353 86.3395 288.59 87.0605 288.59 88.1175C288.59 89.2585 289.381 89.9165 290.284 89.9165C291.068 89.9165 291.607 89.4475 291.796 88.8525L291.229 88.6565Z" fill="black"/>
<path d="M238.51 106.574V105.937H234.506V106.574H236.165V110.9H236.851V106.574H238.51ZM239.917 110.417C239.357 110.417 238.867 109.997 238.867 109.213C238.867 108.436 239.357 108.016 239.917 108.016C240.477 108.016 240.967 108.436 240.967 109.213C240.967 109.997 240.477 110.417 239.917 110.417ZM239.917 107.428C238.909 107.428 238.195 108.191 238.195 109.213C238.195 110.242 238.909 111.005 239.917 111.005C240.925 111.005 241.639 110.242 241.639 109.213C241.639 108.191 240.925 107.428 239.917 107.428ZM242.873 109.206C242.873 108.513 243.265 108.023 243.867 108.023C244.469 108.023 244.833 108.499 244.833 109.192C244.833 109.885 244.462 110.41 243.86 110.41C243.23 110.41 242.873 109.899 242.873 109.206ZM244.84 110.445C244.84 110.648 244.861 110.823 244.875 110.9H245.512C245.505 110.844 245.477 110.599 245.477 110.277V105.832H244.826V108.009C244.714 107.736 244.392 107.442 243.797 107.442C242.845 107.442 242.201 108.254 242.201 109.206C242.201 110.207 242.81 110.991 243.797 110.991C244.322 110.991 244.679 110.711 244.84 110.389V110.445ZM246.386 109.997C246.386 110.529 246.827 111.005 247.513 111.005C248.115 111.005 248.451 110.683 248.598 110.445C248.598 110.69 248.619 110.816 248.633 110.9H249.277C249.263 110.816 249.235 110.641 249.235 110.347V108.66C249.235 108.002 248.843 107.428 247.835 107.428C247.107 107.428 246.526 107.876 246.456 108.52L247.086 108.667C247.128 108.275 247.387 107.988 247.849 107.988C248.36 107.988 248.577 108.261 248.577 108.59C248.577 108.709 248.521 108.814 248.318 108.842L247.408 108.975C246.827 109.059 246.386 109.395 246.386 109.997ZM247.604 110.452C247.268 110.452 247.058 110.214 247.058 109.962C247.058 109.661 247.268 109.5 247.548 109.458L248.577 109.304V109.458C248.577 110.193 248.143 110.452 247.604 110.452ZM251.032 112.307L253.223 107.533H252.516L251.508 109.857L250.458 107.533H249.702L251.151 110.529L250.311 112.307H251.032ZM256.257 110.9V110.41C256.467 110.774 256.852 110.991 257.349 110.991C258.35 110.991 258.917 110.2 258.917 109.199C258.917 108.219 258.392 107.435 257.37 107.435C256.81 107.435 256.418 107.708 256.257 108.009V105.832H255.606V110.9H256.257ZM258.245 109.199C258.245 109.927 257.853 110.403 257.251 110.403C256.67 110.403 256.25 109.927 256.25 109.199C256.25 108.471 256.67 108.016 257.251 108.016C257.86 108.016 258.245 108.471 258.245 109.199ZM260.459 112.307L262.65 107.533H261.943L260.935 109.857L259.885 107.533H259.129L260.578 110.529L259.738 112.307H260.459ZM270.465 110.9V105.937H269.548L267.784 109.976L266.034 105.937H265.103V110.9H265.782V107.036L267.462 110.9H268.092L269.786 107.036V110.9H270.465ZM273.099 110.417C272.539 110.417 272.049 109.997 272.049 109.213C272.049 108.436 272.539 108.016 273.099 108.016C273.659 108.016 274.149 108.436 274.149 109.213C274.149 109.997 273.659 110.417 273.099 110.417ZM273.099 107.428C272.091 107.428 271.377 108.191 271.377 109.213C271.377 110.242 272.091 111.005 273.099 111.005C274.107 111.005 274.821 110.242 274.821 109.213C274.821 108.191 274.107 107.428 273.099 107.428ZM276.321 108.954C276.321 108.443 276.587 108.03 277.105 108.03C277.693 108.03 277.889 108.408 277.889 108.877V110.9H278.547V108.765C278.547 108.016 278.148 107.435 277.343 107.435C276.951 107.435 276.552 107.596 276.307 108.016V107.533H275.663V110.9H276.321V108.954ZM279.383 109.997C279.383 110.529 279.824 111.005 280.51 111.005C281.112 111.005 281.448 110.683 281.595 110.445C281.595 110.69 281.616 110.816 281.63 110.9H282.274C282.26 110.816 282.232 110.641 282.232 110.347V108.66C282.232 108.002 281.84 107.428 280.832 107.428C280.104 107.428 279.523 107.876 279.453 108.52L280.083 108.667C280.125 108.275 280.384 107.988 280.846 107.988C281.357 107.988 281.574 108.261 281.574 108.59C281.574 108.709 281.518 108.814 281.315 108.842L280.405 108.975C279.824 109.059 279.383 109.395 279.383 109.997ZM280.601 110.452C280.265 110.452 280.055 110.214 280.055 109.962C280.055 109.661 280.265 109.5 280.545 109.458L281.574 109.304V109.458C281.574 110.193 281.14 110.452 280.601 110.452Z" fill="black"/>
<path d="M238.51 125.555V124.918H234.506V125.555H236.165V129.881H236.851V125.555H238.51ZM239.917 129.398C239.357 129.398 238.867 128.978 238.867 128.194C238.867 127.417 239.357 126.997 239.917 126.997C240.477 126.997 240.967 127.417 240.967 128.194C240.967 128.978 240.477 129.398 239.917 129.398ZM239.917 126.409C238.909 126.409 238.195 127.172 238.195 128.194C238.195 129.223 238.909 129.986 239.917 129.986C240.925 129.986 241.639 129.223 241.639 128.194C241.639 127.172 240.925 126.409 239.917 126.409ZM242.873 128.187C242.873 127.494 243.265 127.004 243.867 127.004C244.469 127.004 244.833 127.48 244.833 128.173C244.833 128.866 244.462 129.391 243.86 129.391C243.23 129.391 242.873 128.88 242.873 128.187ZM244.84 129.426C244.84 129.629 244.861 129.804 244.875 129.881H245.512C245.505 129.825 245.477 129.58 245.477 129.258V124.813H244.826V126.99C244.714 126.717 244.392 126.423 243.797 126.423C242.845 126.423 242.201 127.235 242.201 128.187C242.201 129.188 242.81 129.972 243.797 129.972C244.322 129.972 244.679 129.692 244.84 129.37V129.426ZM246.386 128.978C246.386 129.51 246.827 129.986 247.513 129.986C248.115 129.986 248.451 129.664 248.598 129.426C248.598 129.671 248.619 129.797 248.633 129.881H249.277C249.263 129.797 249.235 129.622 249.235 129.328V127.641C249.235 126.983 248.843 126.409 247.835 126.409C247.107 126.409 246.526 126.857 246.456 127.501L247.086 127.648C247.128 127.256 247.387 126.969 247.849 126.969C248.36 126.969 248.577 127.242 248.577 127.571C248.577 127.69 248.521 127.795 248.318 127.823L247.408 127.956C246.827 128.04 246.386 128.376 246.386 128.978ZM247.604 129.433C247.268 129.433 247.058 129.195 247.058 128.943C247.058 128.642 247.268 128.481 247.548 128.439L248.577 128.285V128.439C248.577 129.174 248.143 129.433 247.604 129.433ZM251.032 131.288L253.223 126.514H252.516L251.508 128.838L250.458 126.514H249.702L251.151 129.51L250.311 131.288H251.032ZM256.257 129.881V129.391C256.467 129.755 256.852 129.972 257.349 129.972C258.35 129.972 258.917 129.181 258.917 128.18C258.917 127.2 258.392 126.416 257.37 126.416C256.81 126.416 256.418 126.689 256.257 126.99V124.813H255.606V129.881H256.257ZM258.245 128.18C258.245 128.908 257.853 129.384 257.251 129.384C256.67 129.384 256.25 128.908 256.25 128.18C256.25 127.452 256.67 126.997 257.251 126.997C257.86 126.997 258.245 127.452 258.245 128.18ZM260.459 131.288L262.65 126.514H261.943L260.935 128.838L259.885 126.514H259.129L260.578 129.51L259.738 131.288H260.459ZM264.613 128.404C264.613 129.356 265.187 129.986 266.16 129.986C267.084 129.986 267.651 129.265 267.651 128.397V124.918H266.965V128.446C266.965 129.02 266.657 129.349 266.153 129.349C265.656 129.349 265.299 129.055 265.299 128.397V127.928L264.613 128.082V128.404ZM268.562 128.978C268.562 129.51 269.003 129.986 269.689 129.986C270.291 129.986 270.627 129.664 270.774 129.426C270.774 129.671 270.795 129.797 270.809 129.881H271.453C271.439 129.797 271.411 129.622 271.411 129.328V127.641C271.411 126.983 271.019 126.409 270.011 126.409C269.283 126.409 268.702 126.857 268.632 127.501L269.262 127.648C269.304 127.256 269.563 126.969 270.025 126.969C270.536 126.969 270.753 127.242 270.753 127.571C270.753 127.69 270.697 127.795 270.494 127.823L269.584 127.956C269.003 128.04 268.562 128.376 268.562 128.978ZM269.78 129.433C269.444 129.433 269.234 129.195 269.234 128.943C269.234 128.642 269.444 128.481 269.724 128.439L270.753 128.285V128.439C270.753 129.174 270.319 129.433 269.78 129.433ZM273.85 127.018C274.424 127.018 274.669 127.403 274.753 127.732L275.348 127.48C275.208 126.969 274.746 126.409 273.85 126.409C272.891 126.409 272.156 127.144 272.156 128.194C272.156 129.216 272.877 129.986 273.857 129.986C274.732 129.986 275.215 129.419 275.376 128.936L274.795 128.684C274.718 128.95 274.487 129.377 273.857 129.377C273.311 129.377 272.828 128.964 272.828 128.194C272.828 127.41 273.318 127.018 273.85 127.018ZM279.165 126.514H278.255L276.799 128.005V124.813H276.148V129.881H276.799V128.866L277.268 128.397L278.367 129.881H279.193L277.73 127.935L279.165 126.514Z" fill="black"/>
<path d="M238.51 146.644V146.007H234.506V146.644H236.165V150.97H236.851V146.644H238.51ZM239.917 150.487C239.357 150.487 238.867 150.067 238.867 149.283C238.867 148.506 239.357 148.086 239.917 148.086C240.477 148.086 240.967 148.506 240.967 149.283C240.967 150.067 240.477 150.487 239.917 150.487ZM239.917 147.498C238.909 147.498 238.195 148.261 238.195 149.283C238.195 150.312 238.909 151.075 239.917 151.075C240.925 151.075 241.639 150.312 241.639 149.283C241.639 148.261 240.925 147.498 239.917 147.498ZM242.873 149.276C242.873 148.583 243.265 148.093 243.867 148.093C244.469 148.093 244.833 148.569 244.833 149.262C244.833 149.955 244.462 150.48 243.86 150.48C243.23 150.48 242.873 149.969 242.873 149.276ZM244.84 150.515C244.84 150.718 244.861 150.893 244.875 150.97H245.512C245.505 150.914 245.477 150.669 245.477 150.347V145.902H244.826V148.079C244.714 147.806 244.392 147.512 243.797 147.512C242.845 147.512 242.201 148.324 242.201 149.276C242.201 150.277 242.81 151.061 243.797 151.061C244.322 151.061 244.679 150.781 244.84 150.459V150.515ZM246.386 150.067C246.386 150.599 246.827 151.075 247.513 151.075C248.115 151.075 248.451 150.753 248.598 150.515C248.598 150.76 248.619 150.886 248.633 150.97H249.277C249.263 150.886 249.235 150.711 249.235 150.417V148.73C249.235 148.072 248.843 147.498 247.835 147.498C247.107 147.498 246.526 147.946 246.456 148.59L247.086 148.737C247.128 148.345 247.387 148.058 247.849 148.058C248.36 148.058 248.577 148.331 248.577 148.66C248.577 148.779 248.521 148.884 248.318 148.912L247.408 149.045C246.827 149.129 246.386 149.465 246.386 150.067ZM247.604 150.522C247.268 150.522 247.058 150.284 247.058 150.032C247.058 149.731 247.268 149.57 247.548 149.528L248.577 149.374V149.528C248.577 150.263 248.143 150.522 247.604 150.522ZM251.032 152.377L253.223 147.603H252.516L251.508 149.927L250.458 147.603H249.702L251.151 150.599L250.311 152.377H251.032ZM256.257 150.97V150.48C256.467 150.844 256.852 151.061 257.349 151.061C258.35 151.061 258.917 150.27 258.917 149.269C258.917 148.289 258.392 147.505 257.37 147.505C256.81 147.505 256.418 147.778 256.257 148.079V145.902H255.606V150.97H256.257ZM258.245 149.269C258.245 149.997 257.853 150.473 257.251 150.473C256.67 150.473 256.25 149.997 256.25 149.269C256.25 148.541 256.67 148.086 257.251 148.086C257.86 148.086 258.245 148.541 258.245 149.269ZM260.459 152.377L262.65 147.603H261.943L260.935 149.927L259.885 147.603H259.129L260.578 150.599L259.738 152.377H260.459ZM268.54 150.97H269.282L267.308 146.007H266.517L264.543 150.97H265.278L265.803 149.584H268.001L268.54 150.97ZM266.895 146.721L267.756 148.947H266.048L266.895 146.721ZM270.237 149.276C270.237 148.583 270.629 148.093 271.231 148.093C271.833 148.093 272.197 148.569 272.197 149.262C272.197 149.955 271.826 150.48 271.224 150.48C270.594 150.48 270.237 149.969 270.237 149.276ZM272.204 150.515C272.204 150.718 272.225 150.893 272.239 150.97H272.876C272.869 150.914 272.841 150.669 272.841 150.347V145.902H272.19V148.079C272.078 147.806 271.756 147.512 271.161 147.512C270.209 147.512 269.565 148.324 269.565 149.276C269.565 150.277 270.174 151.061 271.161 151.061C271.686 151.061 272.043 150.781 272.204 150.459V150.515ZM273.75 150.067C273.75 150.599 274.191 151.075 274.877 151.075C275.479 151.075 275.815 150.753 275.962 150.515C275.962 150.76 275.983 150.886 275.997 150.97H276.641C276.627 150.886 276.599 150.711 276.599 150.417V148.73C276.599 148.072 276.207 147.498 275.199 147.498C274.471 147.498 273.89 147.946 273.82 148.59L274.45 148.737C274.492 148.345 274.751 148.058 275.213 148.058C275.724 148.058 275.941 148.331 275.941 148.66C275.941 148.779 275.885 148.884 275.682 148.912L274.772 149.045C274.191 149.129 273.75 149.465 273.75 150.067ZM274.968 150.522C274.632 150.522 274.422 150.284 274.422 150.032C274.422 149.731 274.632 149.57 274.912 149.528L275.941 149.374V149.528C275.941 150.263 275.507 150.522 274.968 150.522ZM278.275 150.97V148.94C278.275 148.436 278.59 148.086 279.059 148.086C279.563 148.086 279.773 148.422 279.773 148.856V150.97H280.431V148.933C280.431 148.45 280.746 148.086 281.208 148.086C281.705 148.086 281.922 148.415 281.922 148.856V150.97H282.573V148.786C282.573 147.904 281.999 147.505 281.411 147.505C280.984 147.505 280.55 147.659 280.284 148.142C280.102 147.708 279.696 147.505 279.276 147.505C278.884 147.505 278.464 147.68 278.254 148.051V147.603H277.624V150.97H278.275Z" fill="black"/>
<path d="M104.299 89.3589V84.3959H103.382L101.618 88.4349L99.8679 84.3959H98.9369V89.3589H99.6159V85.4949L101.296 89.3589H101.926L103.62 85.4949V89.3589H104.299ZM106.933 88.8759C106.373 88.8759 105.883 88.4559 105.883 87.6719C105.883 86.8949 106.373 86.4749 106.933 86.4749C107.493 86.4749 107.983 86.8949 107.983 87.6719C107.983 88.4559 107.493 88.8759 106.933 88.8759ZM106.933 85.8869C105.925 85.8869 105.211 86.6499 105.211 87.6719C105.211 88.7009 105.925 89.4639 106.933 89.4639C107.941 89.4639 108.655 88.7009 108.655 87.6719C108.655 86.6499 107.941 85.8869 106.933 85.8869ZM110.155 87.4129C110.155 86.9019 110.421 86.4889 110.939 86.4889C111.527 86.4889 111.723 86.8669 111.723 87.3359V89.3589H112.381V87.2239C112.381 86.4749 111.982 85.8939 111.177 85.8939C110.785 85.8939 110.386 86.0549 110.141 86.4749V85.9919H109.497V89.3589H110.155V87.4129ZM113.217 88.4559C113.217 88.9879 113.658 89.4639 114.344 89.4639C114.946 89.4639 115.282 89.1419 115.429 88.9039C115.429 89.1489 115.45 89.2749 115.464 89.3589H116.108C116.094 89.2749 116.066 89.0999 116.066 88.8059V87.1189C116.066 86.4609 115.674 85.8869 114.666 85.8869C113.938 85.8869 113.357 86.3349 113.287 86.9789L113.917 87.1259C113.959 86.7339 114.218 86.4469 114.68 86.4469C115.191 86.4469 115.408 86.7199 115.408 87.0489C115.408 87.1679 115.352 87.2729 115.149 87.3009L114.239 87.4339C113.658 87.5179 113.217 87.8539 113.217 88.4559ZM114.435 88.9109C114.099 88.9109 113.889 88.6729 113.889 88.4209C113.889 88.1199 114.099 87.9589 114.379 87.9169L115.408 87.7629V87.9169C115.408 88.6519 114.974 88.9109 114.435 88.9109ZM123.426 88.3229L122.152 84.3959H121.431L120.185 88.2809L119.093 84.3959H118.386L119.821 89.3589H120.507L121.788 85.3339L123.083 89.3589H123.79L125.204 84.3959H124.497L123.426 88.3229ZM126.527 87.3779C126.541 86.8809 126.807 86.4889 127.311 86.4889C127.899 86.4889 128.095 86.8669 128.095 87.3359V89.3589H128.753V87.2239C128.753 86.4749 128.354 85.8939 127.549 85.8939C127.164 85.8939 126.772 86.0269 126.527 86.3839V84.2909H125.869V89.3589H126.527V87.3779ZM130.451 89.3589V85.9919H129.8V89.3589H130.451ZM129.653 84.7179C129.653 84.9769 129.863 85.1869 130.122 85.1869C130.388 85.1869 130.598 84.9769 130.598 84.7179C130.598 84.4519 130.388 84.2419 130.122 84.2419C129.863 84.2419 129.653 84.4519 129.653 84.7179ZM132.452 84.9279H131.85V85.4739C131.85 85.7679 131.696 85.9919 131.332 85.9919H131.15V86.5869H131.794V88.4349C131.794 89.0439 132.158 89.3939 132.732 89.3939C132.956 89.3939 133.124 89.3519 133.18 89.3309V88.7709C133.124 88.7849 133.005 88.7989 132.921 88.7989C132.578 88.7989 132.452 88.6449 132.452 88.3369V86.5869H133.18V85.9919H132.452V84.9279ZM134.451 87.3289C134.479 86.8949 134.815 86.4679 135.368 86.4679C135.963 86.4679 136.278 86.8459 136.292 87.3289H134.451ZM136.39 88.2039C136.264 88.5819 135.991 88.8829 135.445 88.8829C134.878 88.8829 134.444 88.4629 134.43 87.8609H136.964C136.971 87.8189 136.978 87.7349 136.978 87.6509C136.978 86.6009 136.397 85.8869 135.361 85.8869C134.514 85.8869 133.751 86.6079 133.751 87.6649C133.751 88.8059 134.542 89.4639 135.445 89.4639C136.229 89.4639 136.768 88.9949 136.957 88.3999L136.39 88.2039Z" fill="black"/>
<path d="M98.9369 105.534V110.497H100.673C101.583 110.497 102.206 109.93 102.206 109.146C102.206 108.593 101.877 108.089 101.31 107.949C101.744 107.788 102.052 107.41 102.052 106.878C102.052 106.094 101.499 105.534 100.554 105.534H98.9369ZM99.6229 107.704V106.136H100.449C101.016 106.136 101.359 106.444 101.359 106.913C101.359 107.375 101.03 107.704 100.477 107.704H99.6229ZM99.6229 109.895V108.292H100.603C101.205 108.292 101.506 108.628 101.506 109.104C101.506 109.587 101.128 109.895 100.575 109.895H99.6229ZM103.729 110.497V107.13H103.078V110.497H103.729ZM102.931 105.856C102.931 106.115 103.141 106.325 103.4 106.325C103.666 106.325 103.876 106.115 103.876 105.856C103.876 105.59 103.666 105.38 103.4 105.38C103.141 105.38 102.931 105.59 102.931 105.856ZM106.717 107.095C106.682 107.088 106.591 107.074 106.5 107.074C106.157 107.074 105.737 107.2 105.492 107.718V107.13H104.848V110.497H105.506V108.81C105.506 108.068 105.877 107.774 106.43 107.774C106.521 107.774 106.619 107.781 106.717 107.795V107.095ZM108.478 106.066H107.876V106.612C107.876 106.906 107.722 107.13 107.358 107.13H107.176V107.725H107.82V109.573C107.82 110.182 108.184 110.532 108.758 110.532C108.982 110.532 109.15 110.49 109.206 110.469V109.909C109.15 109.923 109.031 109.937 108.947 109.937C108.604 109.937 108.478 109.783 108.478 109.475V107.725H109.206V107.13H108.478V106.066ZM110.743 108.516C110.757 108.019 111.023 107.627 111.527 107.627C112.115 107.627 112.311 108.005 112.311 108.474V110.497H112.969V108.362C112.969 107.613 112.57 107.032 111.765 107.032C111.38 107.032 110.988 107.165 110.743 107.522V105.429H110.085V110.497H110.743V108.516ZM114.407 108.803C114.407 108.11 114.799 107.62 115.401 107.62C116.003 107.62 116.367 108.096 116.367 108.789C116.367 109.482 115.996 110.007 115.394 110.007C114.764 110.007 114.407 109.496 114.407 108.803ZM116.374 110.042C116.374 110.245 116.395 110.42 116.409 110.497H117.046C117.039 110.441 117.011 110.196 117.011 109.874V105.429H116.36V107.606C116.248 107.333 115.926 107.039 115.331 107.039C114.379 107.039 113.735 107.851 113.735 108.803C113.735 109.804 114.344 110.588 115.331 110.588C115.856 110.588 116.213 110.308 116.374 109.986V110.042ZM117.921 109.594C117.921 110.126 118.362 110.602 119.048 110.602C119.65 110.602 119.986 110.28 120.133 110.042C120.133 110.287 120.154 110.413 120.168 110.497H120.812C120.798 110.413 120.77 110.238 120.77 109.944V108.257C120.77 107.599 120.378 107.025 119.37 107.025C118.642 107.025 118.061 107.473 117.991 108.117L118.621 108.264C118.663 107.872 118.922 107.585 119.384 107.585C119.895 107.585 120.112 107.858 120.112 108.187C120.112 108.306 120.056 108.411 119.853 108.439L118.943 108.572C118.362 108.656 117.921 108.992 117.921 109.594ZM119.139 110.049C118.803 110.049 118.593 109.811 118.593 109.559C118.593 109.258 118.803 109.097 119.083 109.055L120.112 108.901V109.055C120.112 109.79 119.678 110.049 119.139 110.049ZM122.566 111.904L124.757 107.13H124.05L123.042 109.454L121.992 107.13H121.236L122.685 110.126L121.845 111.904H122.566ZM127.896 107.851V106.15H128.89C129.485 106.15 129.849 106.486 129.849 107.011C129.849 107.522 129.485 107.851 128.89 107.851H127.896ZM129.016 108.467C129.933 108.467 130.549 107.844 130.549 107.004C130.549 106.171 129.933 105.534 129.016 105.534H127.21V110.497H127.896V108.467H129.016ZM130.895 109.594C130.895 110.126 131.336 110.602 132.022 110.602C132.624 110.602 132.96 110.28 133.107 110.042C133.107 110.287 133.128 110.413 133.142 110.497H133.786C133.772 110.413 133.744 110.238 133.744 109.944V108.257C133.744 107.599 133.352 107.025 132.344 107.025C131.616 107.025 131.035 107.473 130.965 108.117L131.595 108.264C131.637 107.872 131.896 107.585 132.358 107.585C132.869 107.585 133.086 107.858 133.086 108.187C133.086 108.306 133.03 108.411 132.827 108.439L131.917 108.572C131.336 108.656 130.895 108.992 130.895 109.594ZM132.113 110.049C131.777 110.049 131.567 109.811 131.567 109.559C131.567 109.258 131.777 109.097 132.057 109.055L133.086 108.901V109.055C133.086 109.79 132.652 110.049 132.113 110.049ZM136.638 107.095C136.603 107.088 136.512 107.074 136.421 107.074C136.078 107.074 135.658 107.2 135.413 107.718V107.13H134.769V110.497H135.427V108.81C135.427 108.068 135.798 107.774 136.351 107.774C136.442 107.774 136.54 107.781 136.638 107.795V107.095ZM138.399 106.066H137.797V106.612C137.797 106.906 137.643 107.13 137.279 107.13H137.097V107.725H137.741V109.573C137.741 110.182 138.105 110.532 138.679 110.532C138.903 110.532 139.071 110.49 139.127 110.469V109.909C139.071 109.923 138.952 109.937 138.868 109.937C138.525 109.937 138.399 109.783 138.399 109.475V107.725H139.127V107.13H138.399V106.066ZM140.88 111.904L143.071 107.13H142.364L141.356 109.454L140.306 107.13H139.55L140.999 110.126L140.159 111.904H140.88ZM146.21 110.497V108.411H148.324V107.767H146.21V106.171H148.541V105.534H145.524V110.497H146.21ZM150.505 110.014C149.945 110.014 149.455 109.594 149.455 108.81C149.455 108.033 149.945 107.613 150.505 107.613C151.065 107.613 151.555 108.033 151.555 108.81C151.555 109.594 151.065 110.014 150.505 110.014ZM150.505 107.025C149.497 107.025 148.783 107.788 148.783 108.81C148.783 109.839 149.497 110.602 150.505 110.602C151.513 110.602 152.227 109.839 152.227 108.81C152.227 107.788 151.513 107.025 150.505 107.025ZM154.938 107.095C154.903 107.088 154.812 107.074 154.721 107.074C154.378 107.074 153.958 107.2 153.713 107.718V107.13H153.069V110.497H153.727V108.81C153.727 108.068 154.098 107.774 154.651 107.774C154.742 107.774 154.84 107.781 154.938 107.795V107.095ZM156.29 110.497V108.467C156.29 107.963 156.605 107.613 157.074 107.613C157.578 107.613 157.788 107.949 157.788 108.383V110.497H158.446V108.46C158.446 107.977 158.761 107.613 159.223 107.613C159.72 107.613 159.937 107.942 159.937 108.383V110.497H160.588V108.313C160.588 107.431 160.014 107.032 159.426 107.032C158.999 107.032 158.565 107.186 158.299 107.669C158.117 107.235 157.711 107.032 157.291 107.032C156.899 107.032 156.479 107.207 156.269 107.578V107.13H155.639V110.497H156.29Z" fill="black"/>
<path d="M101.506 130.125H102.304L101.121 128.046C101.87 127.906 102.325 127.353 102.325 126.639C102.325 125.82 101.744 125.162 100.806 125.162H98.9369V130.125H99.6299V128.095H100.372L101.506 130.125ZM99.6299 127.479V125.778H100.68C101.24 125.778 101.618 126.114 101.618 126.639C101.618 127.15 101.24 127.479 100.68 127.479H99.6299ZM102.957 129.222C102.957 129.754 103.398 130.23 104.084 130.23C104.686 130.23 105.022 129.908 105.169 129.67C105.169 129.915 105.19 130.041 105.204 130.125H105.848C105.834 130.041 105.806 129.866 105.806 129.572V127.885C105.806 127.227 105.414 126.653 104.406 126.653C103.678 126.653 103.097 127.101 103.027 127.745L103.657 127.892C103.699 127.5 103.958 127.213 104.42 127.213C104.931 127.213 105.148 127.486 105.148 127.815C105.148 127.934 105.092 128.039 104.889 128.067L103.979 128.2C103.398 128.284 102.957 128.62 102.957 129.222ZM104.175 129.677C103.839 129.677 103.629 129.439 103.629 129.187C103.629 128.886 103.839 128.725 104.119 128.683L105.148 128.529V128.683C105.148 129.418 104.714 129.677 104.175 129.677ZM107.489 130.125V125.057H106.831V130.125H107.489ZM109.259 131.455V129.67C109.441 129.971 109.833 130.216 110.351 130.216C111.338 130.216 111.919 129.439 111.919 128.438C111.919 127.458 111.38 126.681 110.372 126.681C109.826 126.681 109.427 126.947 109.245 127.283V126.758H108.608V131.455H109.259ZM111.247 128.438C111.247 129.131 110.862 129.628 110.253 129.628C109.651 129.628 109.252 129.131 109.252 128.438C109.252 127.766 109.651 127.262 110.253 127.262C110.869 127.262 111.247 127.766 111.247 128.438ZM113.416 128.144C113.43 127.647 113.696 127.255 114.2 127.255C114.788 127.255 114.984 127.633 114.984 128.102V130.125H115.642V127.99C115.642 127.241 115.243 126.66 114.438 126.66C114.053 126.66 113.661 126.793 113.416 127.15V125.057H112.758V130.125H113.416V128.144ZM116.06 125.533C116.06 125.813 116.256 125.981 116.501 125.981C116.571 125.981 116.62 125.96 116.641 125.946C116.634 126.261 116.417 126.583 116.102 126.653V126.989C116.508 126.94 117.068 126.583 117.068 125.715C117.068 125.309 116.816 125.099 116.536 125.099C116.263 125.099 116.06 125.302 116.06 125.533ZM117.207 129.25C117.263 129.635 117.655 130.23 118.579 130.23C119.412 130.23 119.811 129.663 119.811 129.187C119.811 128.69 119.489 128.319 118.88 128.186L118.334 128.067C118.075 128.011 117.949 127.864 117.949 127.661C117.949 127.43 118.173 127.213 118.509 127.213C119.041 127.213 119.181 127.598 119.209 127.773L119.79 127.556C119.72 127.255 119.433 126.653 118.509 126.653C117.851 126.653 117.312 127.143 117.312 127.717C117.312 128.193 117.627 128.55 118.152 128.662L118.726 128.788C119.006 128.851 119.16 129.012 119.16 129.222C119.16 129.46 118.957 129.67 118.586 129.67C118.11 129.67 117.844 129.39 117.802 129.04L117.207 129.25ZM125.076 130.125H125.874L124.691 128.046C125.44 127.906 125.895 127.353 125.895 126.639C125.895 125.82 125.314 125.162 124.376 125.162H122.507V130.125H123.2V128.095H123.942L125.076 130.125ZM123.2 127.479V125.778H124.25C124.81 125.778 125.188 126.114 125.188 126.639C125.188 127.15 124.81 127.479 124.25 127.479H123.2ZM127.061 128.095C127.089 127.661 127.425 127.234 127.978 127.234C128.573 127.234 128.888 127.612 128.902 128.095H127.061ZM129 128.97C128.874 129.348 128.601 129.649 128.055 129.649C127.488 129.649 127.054 129.229 127.04 128.627H129.574C129.581 128.585 129.588 128.501 129.588 128.417C129.588 127.367 129.007 126.653 127.971 126.653C127.124 126.653 126.361 127.374 126.361 128.431C126.361 129.572 127.152 130.23 128.055 130.23C128.839 130.23 129.378 129.761 129.567 129.166L129 128.97ZM131.31 125.694H130.708V126.24C130.708 126.534 130.554 126.758 130.19 126.758H130.008V127.353H130.652V129.201C130.652 129.81 131.016 130.16 131.59 130.16C131.814 130.16 131.982 130.118 132.038 130.097V129.537C131.982 129.551 131.863 129.565 131.779 129.565C131.436 129.565 131.31 129.411 131.31 129.103V127.353H132.038V126.758H131.31V125.694ZM133.568 130.125V126.758H132.917V130.125H133.568ZM132.77 125.484C132.77 125.743 132.98 125.953 133.239 125.953C133.505 125.953 133.715 125.743 133.715 125.484C133.715 125.218 133.505 125.008 133.239 125.008C132.98 125.008 132.77 125.218 132.77 125.484ZM136.556 126.723C136.521 126.716 136.43 126.702 136.339 126.702C135.996 126.702 135.576 126.828 135.331 127.346V126.758H134.687V130.125H135.345V128.438C135.345 127.696 135.716 127.402 136.269 127.402C136.36 127.402 136.458 127.409 136.556 127.423V126.723ZM137.65 128.095C137.678 127.661 138.014 127.234 138.567 127.234C139.162 127.234 139.477 127.612 139.491 128.095H137.65ZM139.589 128.97C139.463 129.348 139.19 129.649 138.644 129.649C138.077 129.649 137.643 129.229 137.629 128.627H140.163C140.17 128.585 140.177 128.501 140.177 128.417C140.177 127.367 139.596 126.653 138.56 126.653C137.713 126.653 136.95 127.374 136.95 128.431C136.95 129.572 137.741 130.23 138.644 130.23C139.428 130.23 139.967 129.761 140.156 129.166L139.589 128.97ZM141.668 130.125V128.095C141.668 127.591 141.983 127.241 142.452 127.241C142.956 127.241 143.166 127.577 143.166 128.011V130.125H143.824V128.088C143.824 127.605 144.139 127.241 144.601 127.241C145.098 127.241 145.315 127.57 145.315 128.011V130.125H145.966V127.941C145.966 127.059 145.392 126.66 144.804 126.66C144.377 126.66 143.943 126.814 143.677 127.297C143.495 126.863 143.089 126.66 142.669 126.66C142.277 126.66 141.857 126.835 141.647 127.206V126.758H141.017V130.125H141.668ZM147.446 128.095C147.474 127.661 147.81 127.234 148.363 127.234C148.958 127.234 149.273 127.612 149.287 128.095H147.446ZM149.385 128.97C149.259 129.348 148.986 129.649 148.44 129.649C147.873 129.649 147.439 129.229 147.425 128.627H149.959C149.966 128.585 149.973 128.501 149.973 128.417C149.973 127.367 149.392 126.653 148.356 126.653C147.509 126.653 146.746 127.374 146.746 128.431C146.746 129.572 147.537 130.23 148.44 130.23C149.224 130.23 149.763 129.761 149.952 129.166L149.385 128.97ZM151.471 128.179C151.471 127.668 151.737 127.255 152.255 127.255C152.843 127.255 153.039 127.633 153.039 128.102V130.125H153.697V127.99C153.697 127.241 153.298 126.66 152.493 126.66C152.101 126.66 151.702 126.821 151.457 127.241V126.758H150.813V130.125H151.471V128.179ZM155.626 125.694H155.024V126.24C155.024 126.534 154.87 126.758 154.506 126.758H154.324V127.353H154.968V129.201C154.968 129.81 155.332 130.16 155.906 130.16C156.13 130.16 156.298 130.118 156.354 130.097V129.537C156.298 129.551 156.179 129.565 156.095 129.565C155.752 129.565 155.626 129.411 155.626 129.103V127.353H156.354V126.758H155.626V125.694ZM159.738 127.479V125.778H160.732C161.327 125.778 161.691 126.114 161.691 126.639C161.691 127.15 161.327 127.479 160.732 127.479H159.738ZM160.858 128.095C161.775 128.095 162.391 127.472 162.391 126.632C162.391 125.799 161.775 125.162 160.858 125.162H159.052V130.125H159.738V128.095H160.858ZM162.737 129.222C162.737 129.754 163.178 130.23 163.864 130.23C164.466 130.23 164.802 129.908 164.949 129.67C164.949 129.915 164.97 130.041 164.984 130.125H165.628C165.614 130.041 165.586 129.866 165.586 129.572V127.885C165.586 127.227 165.194 126.653 164.186 126.653C163.458 126.653 162.877 127.101 162.807 127.745L163.437 127.892C163.479 127.5 163.738 127.213 164.2 127.213C164.711 127.213 164.928 127.486 164.928 127.815C164.928 127.934 164.872 128.039 164.669 128.067L163.759 128.2C163.178 128.284 162.737 128.62 162.737 129.222ZM163.955 129.677C163.619 129.677 163.409 129.439 163.409 129.187C163.409 128.886 163.619 128.725 163.899 128.683L164.928 128.529V128.683C164.928 129.418 164.494 129.677 163.955 129.677ZM168.48 126.723C168.445 126.716 168.354 126.702 168.263 126.702C167.92 126.702 167.5 126.828 167.255 127.346V126.758H166.611V130.125H167.269V128.438C167.269 127.696 167.64 127.402 168.193 127.402C168.284 127.402 168.382 127.409 168.48 127.423V126.723ZM170.241 125.694H169.639V126.24C169.639 126.534 169.485 126.758 169.121 126.758H168.939V127.353H169.583V129.201C169.583 129.81 169.947 130.16 170.521 130.16C170.745 130.16 170.913 130.118 170.969 130.097V129.537C170.913 129.551 170.794 129.565 170.71 129.565C170.367 129.565 170.241 129.411 170.241 129.103V127.353H170.969V126.758H170.241V125.694ZM172.722 131.532L174.913 126.758H174.206L173.198 129.082L172.148 126.758H171.392L172.841 129.754L172.001 131.532H172.722Z" fill="black"/>
<path d="M101.954 150.508V149.871H99.6229V148.352H101.737V147.708H99.6229V146.182H101.954V145.545H98.9369V150.508H101.954ZM103.483 150.508V148.478C103.483 147.974 103.798 147.624 104.267 147.624C104.771 147.624 104.981 147.96 104.981 148.394V150.508H105.639V148.471C105.639 147.988 105.954 147.624 106.416 147.624C106.913 147.624 107.13 147.953 107.13 148.394V150.508H107.781V148.324C107.781 147.442 107.207 147.043 106.619 147.043C106.192 147.043 105.758 147.197 105.492 147.68C105.31 147.246 104.904 147.043 104.484 147.043C104.092 147.043 103.672 147.218 103.462 147.589V147.141H102.832V150.508H103.483ZM109.261 148.478C109.289 148.044 109.625 147.617 110.178 147.617C110.773 147.617 111.088 147.995 111.102 148.478H109.261ZM111.2 149.353C111.074 149.731 110.801 150.032 110.255 150.032C109.688 150.032 109.254 149.612 109.24 149.01H111.774C111.781 148.968 111.788 148.884 111.788 148.8C111.788 147.75 111.207 147.036 110.171 147.036C109.324 147.036 108.561 147.757 108.561 148.814C108.561 149.955 109.352 150.613 110.255 150.613C111.039 150.613 111.578 150.144 111.767 149.549L111.2 149.353ZM114.497 147.106C114.462 147.099 114.371 147.085 114.28 147.085C113.937 147.085 113.517 147.211 113.272 147.729V147.141H112.628V150.508H113.286V148.821C113.286 148.079 113.657 147.785 114.21 147.785C114.301 147.785 114.399 147.792 114.497 147.806V147.106ZM114.919 150.69C115.003 151.411 115.633 151.943 116.473 151.943C117.74 151.943 118.16 151.11 118.16 150.256V147.141H117.509V147.61C117.341 147.274 116.991 147.078 116.473 147.078C115.549 147.078 114.926 147.806 114.926 148.716C114.926 149.668 115.577 150.347 116.473 150.347C116.977 150.347 117.341 150.102 117.502 149.794V150.277C117.502 151.005 117.18 151.369 116.473 151.369C115.962 151.369 115.605 151.012 115.556 150.543L114.919 150.69ZM116.571 149.794C115.976 149.794 115.598 149.374 115.598 148.716C115.598 148.065 115.99 147.638 116.571 147.638C117.138 147.638 117.53 148.065 117.53 148.716C117.53 149.367 117.138 149.794 116.571 149.794ZM119.638 148.478C119.666 148.044 120.002 147.617 120.555 147.617C121.15 147.617 121.465 147.995 121.479 148.478H119.638ZM121.577 149.353C121.451 149.731 121.178 150.032 120.632 150.032C120.065 150.032 119.631 149.612 119.617 149.01H122.151C122.158 148.968 122.165 148.884 122.165 148.8C122.165 147.75 121.584 147.036 120.548 147.036C119.701 147.036 118.938 147.757 118.938 148.814C118.938 149.955 119.729 150.613 120.632 150.613C121.416 150.613 121.955 150.144 122.144 149.549L121.577 149.353ZM123.663 148.562C123.663 148.051 123.929 147.638 124.447 147.638C125.035 147.638 125.231 148.016 125.231 148.485V150.508H125.889V148.373C125.889 147.624 125.49 147.043 124.685 147.043C124.293 147.043 123.894 147.204 123.649 147.624V147.141H123.005V150.508H123.663V148.562ZM128.349 147.645C128.923 147.645 129.168 148.03 129.252 148.359L129.847 148.107C129.707 147.596 129.245 147.036 128.349 147.036C127.39 147.036 126.655 147.771 126.655 148.821C126.655 149.843 127.376 150.613 128.356 150.613C129.231 150.613 129.714 150.046 129.875 149.563L129.294 149.311C129.217 149.577 128.986 150.004 128.356 150.004C127.81 150.004 127.327 149.591 127.327 148.821C127.327 148.037 127.817 147.645 128.349 147.645ZM131.453 151.915L133.644 147.141H132.937L131.929 149.465L130.879 147.141H130.123L131.572 150.137L130.732 151.915H131.453ZM138.246 150.613C139.387 150.613 140.171 149.948 140.437 149.017L139.828 148.793C139.625 149.472 139.093 149.983 138.246 149.983C137.343 149.983 136.482 149.318 136.482 148.023C136.482 146.728 137.343 146.07 138.246 146.07C139.058 146.07 139.604 146.49 139.793 147.239L140.43 147.015C140.178 146.056 139.38 145.44 138.246 145.44C137.014 145.44 135.782 146.364 135.782 148.023C135.782 149.682 136.965 150.613 138.246 150.613ZM142.582 150.025C142.022 150.025 141.532 149.605 141.532 148.821C141.532 148.044 142.022 147.624 142.582 147.624C143.142 147.624 143.632 148.044 143.632 148.821C143.632 149.605 143.142 150.025 142.582 150.025ZM142.582 147.036C141.574 147.036 140.86 147.799 140.86 148.821C140.86 149.85 141.574 150.613 142.582 150.613C143.59 150.613 144.304 149.85 144.304 148.821C144.304 147.799 143.59 147.036 142.582 147.036ZM145.804 148.562C145.804 148.051 146.07 147.638 146.588 147.638C147.176 147.638 147.372 148.016 147.372 148.485V150.508H148.03V148.373C148.03 147.624 147.631 147.043 146.826 147.043C146.434 147.043 146.035 147.204 145.79 147.624V147.141H145.146V150.508H145.804V148.562ZM149.959 146.077H149.357V146.623C149.357 146.917 149.203 147.141 148.839 147.141H148.657V147.736H149.301V149.584C149.301 150.193 149.665 150.543 150.239 150.543C150.463 150.543 150.631 150.501 150.687 150.48V149.92C150.631 149.934 150.512 149.948 150.428 149.948C150.085 149.948 149.959 149.794 149.959 149.486V147.736H150.687V147.141H149.959V146.077ZM151.355 149.605C151.355 150.137 151.796 150.613 152.482 150.613C153.084 150.613 153.42 150.291 153.567 150.053C153.567 150.298 153.588 150.424 153.602 150.508H154.246C154.232 150.424 154.204 150.249 154.204 149.955V148.268C154.204 147.61 153.812 147.036 152.804 147.036C152.076 147.036 151.495 147.484 151.425 148.128L152.055 148.275C152.097 147.883 152.356 147.596 152.818 147.596C153.329 147.596 153.546 147.869 153.546 148.198C153.546 148.317 153.49 148.422 153.287 148.45L152.377 148.583C151.796 148.667 151.355 149.003 151.355 149.605ZM152.573 150.06C152.237 150.06 152.027 149.822 152.027 149.57C152.027 149.269 152.237 149.108 152.517 149.066L153.546 148.912V149.066C153.546 149.801 153.112 150.06 152.573 150.06ZM156.643 147.645C157.217 147.645 157.462 148.03 157.546 148.359L158.141 148.107C158.001 147.596 157.539 147.036 156.643 147.036C155.684 147.036 154.949 147.771 154.949 148.821C154.949 149.843 155.67 150.613 156.65 150.613C157.525 150.613 158.008 150.046 158.169 149.563L157.588 149.311C157.511 149.577 157.28 150.004 156.65 150.004C156.104 150.004 155.621 149.591 155.621 148.821C155.621 148.037 156.111 147.645 156.643 147.645ZM159.823 146.077H159.221V146.623C159.221 146.917 159.067 147.141 158.703 147.141H158.521V147.736H159.165V149.584C159.165 150.193 159.529 150.543 160.103 150.543C160.327 150.543 160.495 150.501 160.551 150.48V149.92C160.495 149.934 160.376 149.948 160.292 149.948C159.949 149.948 159.823 149.794 159.823 149.486V147.736H160.551V147.141H159.823V146.077ZM163.935 150.508V148.422H166.049V147.778H163.935V146.182H166.266V145.545H163.249V150.508H163.935ZM168.231 150.025C167.671 150.025 167.181 149.605 167.181 148.821C167.181 148.044 167.671 147.624 168.231 147.624C168.791 147.624 169.281 148.044 169.281 148.821C169.281 149.605 168.791 150.025 168.231 150.025ZM168.231 147.036C167.223 147.036 166.509 147.799 166.509 148.821C166.509 149.85 167.223 150.613 168.231 150.613C169.239 150.613 169.953 149.85 169.953 148.821C169.953 147.799 169.239 147.036 168.231 147.036ZM172.664 147.106C172.629 147.099 172.538 147.085 172.447 147.085C172.104 147.085 171.684 147.211 171.439 147.729V147.141H170.795V150.508H171.453V148.821C171.453 148.079 171.824 147.785 172.377 147.785C172.468 147.785 172.566 147.792 172.664 147.806V147.106ZM174.016 150.508V148.478C174.016 147.974 174.331 147.624 174.8 147.624C175.304 147.624 175.514 147.96 175.514 148.394V150.508H176.172V148.471C176.172 147.988 176.487 147.624 176.949 147.624C177.446 147.624 177.663 147.953 177.663 148.394V150.508H178.314V148.324C178.314 147.442 177.74 147.043 177.152 147.043C176.725 147.043 176.291 147.197 176.025 147.68C175.843 147.246 175.437 147.043 175.017 147.043C174.625 147.043 174.205 147.218 173.995 147.589V147.141H173.365V150.508H174.016Z" fill="black"/>
<path d="M30.2393 36.5253C30.2167 36.5614 30.2031 36.5813 30.1914 36.6023C29.6184 37.6273 28.8044 38.397 27.7447 38.904C27.2895 39.1218 26.8114 39.2684 26.3129 39.3497C25.9587 39.4075 25.6022 39.4334 25.244 39.4199C24.5392 39.3932 23.8611 39.2435 23.2173 38.9521C22.1422 38.4653 21.3083 37.7097 20.7167 36.6887C20.4075 36.1552 20.2007 35.5832 20.0899 34.9764C20.0269 34.6308 20.0002 34.2827 20.0003 33.9316C20.001 30.9984 20.0009 28.0652 20 25.1319C19.9999 24.9634 20.018 24.7995 20.0897 24.6454C20.2629 24.2734 20.5521 24.0576 20.9607 24.0078C21.5119 23.9406 21.9958 24.3171 22.1144 24.7999C22.1384 24.8978 22.1524 25.0009 22.1525 25.1015C22.1549 26.5806 22.1541 28.0596 22.1542 29.5387C22.1542 29.5697 22.1557 29.6006 22.157 29.6486C23.5139 28.6811 24.9962 28.3379 26.6109 28.696C28.2296 29.0549 29.4186 30.0064 30.2369 31.4501C31.0478 30.0143 32.2336 29.0767 33.837 28.698C34.78 28.4754 35.721 28.5168 36.6472 28.8021C37.5519 29.0807 38.331 29.567 38.9832 30.2532C40.9853 32.3597 40.9729 35.6813 38.9417 37.7731C38.7246 37.9966 38.4904 38.2 38.2389 38.3837C37.9873 38.5673 37.7217 38.7279 37.4425 38.8654C37.1657 39.0018 36.879 39.1134 36.5827 39.2005C36.2843 39.2883 35.9808 39.3514 35.6717 39.3851C35.3627 39.4188 35.0533 39.4311 34.742 39.4125C34.4313 39.3938 34.1244 39.3527 33.8213 39.2838C33.5181 39.2148 33.2233 39.1183 32.9366 38.9973C32.6498 38.8762 32.3754 38.7316 32.1134 38.5633C31.8535 38.3963 31.6092 38.2089 31.3817 38C31.1524 37.7894 30.9416 37.5617 30.7506 37.3155C30.5608 37.0707 30.3947 36.81 30.2393 36.5253ZM38.3196 33.9952C38.3274 32.2214 36.8927 30.7175 35.0462 30.7156C33.2464 30.7137 31.7685 32.1588 31.7685 33.9917C31.7684 35.8229 33.2444 37.2653 35.039 37.2675C36.8839 37.2697 38.3235 35.7697 38.3196 33.9952ZM22.1541 33.9916C22.1471 35.7591 23.5785 37.2635 25.4235 37.2675C27.2182 37.2715 28.7028 35.8325 28.7051 33.9953C28.7074 32.1671 27.2351 30.716 25.4309 30.7157C23.5857 30.7153 22.1481 32.2167 22.1541 33.9916Z" fill="white"/>
<path d="M43.6609 32.1879C43.6867 32.1569 43.708 32.1333 43.7269 32.1079C44.3718 31.2465 45.0163 30.3848 45.6609 29.5231C45.7905 29.35 45.9195 29.1766 46.0498 29.004C46.294 28.681 46.6217 28.5296 47.0225 28.5629C47.5061 28.6031 47.8774 28.9536 47.9735 29.3997C48.0446 29.73 47.973 30.0298 47.7711 30.2997C46.8719 31.5016 45.9727 32.7036 45.0736 33.9055C44.9958 34.0095 45.0009 33.9881 45.0747 34.0869C45.9663 35.2789 46.8579 36.471 47.7507 37.6623C47.8642 37.8139 47.9486 37.9768 47.9827 38.1645C48.0846 38.7255 47.7316 39.2852 47.1596 39.4052C46.7021 39.5012 46.3248 39.3519 46.0446 38.9793C45.2711 37.9502 44.5018 36.9181 43.7305 35.8873C43.7102 35.8601 43.6878 35.8344 43.6608 35.8012C43.638 35.8287 43.6201 35.8484 43.6042 35.8697C42.8464 36.8826 42.0885 37.8955 41.3312 38.9089C41.2477 39.0206 41.1623 39.1297 41.0496 39.2147C40.8605 39.3574 40.6461 39.433 40.412 39.434C39.8134 39.4365 39.3847 38.9875 39.3299 38.4825C39.2973 38.1822 39.3793 37.9185 39.5583 37.68C39.8596 37.2784 40.1602 36.8764 40.461 36.4744C41.0594 35.6744 41.6577 34.8743 42.2561 34.0743C42.2636 34.0643 42.2713 34.0546 42.2785 34.0444C42.3122 33.9966 42.3133 33.9935 42.2786 33.9467C42.181 33.8149 42.0824 33.6839 41.9841 33.5525C41.1726 32.468 40.3617 31.3831 39.5494 30.2994C39.406 30.1081 39.3239 29.8944 39.3215 29.6573C39.3182 29.3246 39.4394 29.04 39.6933 28.8202C39.9269 28.618 40.2029 28.5318 40.5087 28.5635C40.8233 28.5962 41.0779 28.7447 41.2683 28.9991C41.7673 29.6655 42.266 30.3322 42.7648 30.9988C43.0447 31.3728 43.3246 31.7469 43.6047 32.1208C43.6208 32.142 43.6389 32.1616 43.6609 32.1879Z" fill="white"/>
<path d="M19.3293 54.8401V50.2662C19.3293 49.7435 19.9114 49.6128 20.2024 49.6128H22.3849C22.8214 49.6128 23.0397 50.2662 23.2579 50.2662H26.3135C26.6627 50.2662 27.1865 50.484 27.1865 50.9196V55.0579C27.1865 55.4064 26.75 55.7114 26.3135 55.7114H20.2024C19.5039 55.7114 19.3293 55.1305 19.3293 54.8401Z" fill="white"/>
<path d="M20.5002 51.3555C20.8944 51.3555 25.6255 51.3555 26.0198 51.3555C26.414 51.3555 26.414 52.2267 26.0198 52.2267C25.6255 52.2267 20.8948 52.2267 20.5002 52.2267C20.1056 52.2267 20.1059 51.3555 20.5002 51.3555Z" fill="#0A51A9"/>
<path d="M328.56 31.6474C328.82 31.6477 329.073 31.5752 329.285 31.4399C329.497 31.3046 329.656 31.1133 329.742 30.8925H327.378C327.463 31.1133 327.623 31.3046 327.835 31.4399C328.047 31.5752 328.3 31.6477 328.56 31.6474V31.6474ZM331.496 28.8489V27.1179C331.496 25.9036 330.579 24.8806 329.338 24.573C329.215 24.2944 328.915 24.0981 328.56 24.0981C328.205 24.0981 327.905 24.2944 327.782 24.573C326.54 24.881 325.624 25.9036 325.624 27.1179V28.8489L324.908 29.4932C324.869 29.5282 324.838 29.5698 324.817 29.6156C324.796 29.6614 324.785 29.7105 324.785 29.7601V30.1376C324.785 30.2377 324.829 30.3337 324.908 30.4045C324.987 30.4753 325.093 30.515 325.205 30.515H331.915C332.026 30.515 332.133 30.4753 332.212 30.4045C332.29 30.3337 332.334 30.2377 332.334 30.1376V29.7601C332.335 29.7105 332.324 29.6614 332.303 29.6156C332.282 29.5698 332.251 29.5282 332.212 29.4932L331.496 28.8489Z" fill="#909090"/>
<path d="M290.814 24.0981C288.729 24.0981 287.039 25.7881 287.039 27.8728C287.039 29.9575 288.729 31.6474 290.814 31.6474C292.898 31.6474 294.588 29.9575 294.588 27.8728C294.588 25.7881 292.898 24.0981 290.814 24.0981V24.0981ZM291.158 30.0468H290.455V29.3729H291.158V30.0471V30.0468ZM291.158 28.653V28.8758H290.455V28.6015C290.455 27.7731 291.398 27.6416 291.398 27.0529C291.398 26.7846 291.158 26.5789 290.844 26.5789C290.518 26.5789 290.233 26.8189 290.233 26.8189L289.833 26.3213C289.833 26.3213 290.227 25.9094 290.907 25.9094C291.552 25.9094 292.152 26.3093 292.152 26.9835C292.152 27.9268 291.158 28.0354 291.158 28.6527L291.158 28.653Z" fill="#909090"/>
<path fill-rule="evenodd" clip-rule="evenodd" d="M309.252 24.8353C309.154 24.8353 309.06 24.8742 308.991 24.9433C308.922 25.0124 308.883 25.1062 308.883 25.2039C308.883 25.3017 308.922 25.3954 308.991 25.4646C309.06 25.5337 309.154 25.5725 309.252 25.5725H310.73C310.828 25.5725 310.922 25.5337 310.991 25.4646C311.06 25.3954 311.099 25.3017 311.099 25.2039C311.099 25.1062 311.06 25.0124 310.991 24.9433C310.922 24.8742 310.828 24.8353 310.73 24.8353H309.252ZM309.252 24.0981C309.023 24.0981 308.8 24.1689 308.612 24.301C308.425 24.433 308.284 24.6197 308.207 24.8353H307.775C307.481 24.8353 307.199 24.9518 306.991 25.1592C306.784 25.3666 306.667 25.6479 306.667 25.9411V30.3643C306.667 30.6576 306.784 30.9388 306.991 31.1462C307.199 31.3536 307.481 31.4701 307.775 31.4701H312.207C312.501 31.4701 312.783 31.3536 312.991 31.1462C313.199 30.9388 313.315 30.6576 313.315 30.3643V25.9411C313.315 25.6479 313.199 25.3666 312.991 25.1592C312.783 24.9518 312.501 24.8353 312.207 24.8353H311.775C311.699 24.6197 311.557 24.433 311.37 24.301C311.183 24.1689 310.959 24.0981 310.73 24.0981H309.252ZM311.36 27.6761C311.428 27.6066 311.465 27.5135 311.464 27.4168C311.463 27.3202 311.424 27.2278 311.356 27.1594C311.287 27.0911 311.195 27.0523 311.098 27.0515C311.001 27.0506 310.908 27.0878 310.838 27.1549L309.622 28.3687L309.144 27.8921C309.074 27.825 308.981 27.7878 308.884 27.7887C308.787 27.7895 308.695 27.8283 308.626 27.8966C308.558 27.9649 308.519 28.0574 308.518 28.154C308.517 28.2507 308.555 28.3438 308.622 28.4133L309.361 29.1505C309.43 29.2196 309.524 29.2584 309.622 29.2584C309.72 29.2584 309.814 29.2196 309.883 29.1505L311.36 27.6761Z" fill="#909090"/>
<path d="M22.968 98.3732C25.1377 98.3732 26.8966 96.618 26.8966 94.4527C26.8966 92.2875 25.1377 90.5322 22.968 90.5322C20.7983 90.5322 19.0394 92.2875 19.0394 94.4527C19.0394 96.618 20.7983 98.3732 22.968 98.3732Z" fill="#B7D1F2"/>
<path d="M21.3984 94.6488L22.577 95.825L24.5413 93.4727" stroke="#0F64D2" stroke-linecap="round" stroke-linejoin="round"/>
<path d="M22.9051 117.098C22.9051 117.43 22.5865 117.668 22.2608 117.668L19.6316 117.702C19.3059 117.702 19.0394 117.43 19.0394 117.098C19.0394 116.766 19.3059 116.494 19.6316 116.494H22.2608C22.5865 116.494 22.9051 116.766 22.9051 117.098ZM19.0394 114.682C19.0394 115.014 19.3059 115.286 19.6316 115.286H23.9789C24.3046 115.286 24.4521 115.014 24.4521 114.682C24.4521 114.35 24.3046 114.078 23.9789 114.078H19.6316C19.3059 114.078 19.0394 114.35 19.0394 114.682ZM21.6165 119.508C21.6165 119.175 21.5127 118.91 21.187 118.91H19.6316C19.3059 118.91 19.0394 119.181 19.0394 119.514C19.0394 119.846 19.3059 120.118 19.6316 120.118H21.187C21.5127 120.118 21.6165 119.84 21.6165 119.508ZM26.2494 115.207L26.6699 114.779C26.7247 114.723 26.7898 114.678 26.8614 114.648C26.933 114.618 27.0098 114.602 27.0874 114.602C27.1649 114.602 27.2417 114.618 27.3134 114.648C27.385 114.678 27.4501 114.723 27.5049 114.779L27.9253 115.207C28.1563 115.443 28.1563 115.824 27.9253 116.059L27.5049 116.488L26.2494 115.207ZM25.829 115.636L22.7732 118.753C22.72 118.807 22.6903 118.879 22.6903 118.964V119.816C22.6903 119.985 22.8206 120.118 22.9864 120.118H23.8214C23.8984 120.118 23.9754 120.087 24.0287 120.027L27.0844 116.911L25.829 115.636Z" fill="#B7D1F2"/>
<path d="M21.4221 138.335L20.5491 133.107H27.0967C26.8785 134.487 26.3983 137.464 26.2237 138.335C26.0491 139.206 25.4234 139.569 25.1324 139.642H22.5134C21.6403 139.642 21.4221 138.77 21.4221 138.335Z" fill="#B7D1F2"/>
<path d="M22.5129 134.632H25.132" stroke="#0F64D2"/>
<path d="M36.0932 78.1035H37.1192L35.5982 75.4305C36.5612 75.2505 37.1462 74.5395 37.1462 73.6215C37.1462 72.5685 36.3992 71.7225 35.1932 71.7225H32.7902V78.1035H33.6812V75.4935H34.6352L36.0932 78.1035ZM33.6812 74.7015V72.5145H35.0312C35.7512 72.5145 36.2372 72.9465 36.2372 73.6215C36.2372 74.2785 35.7512 74.7015 35.0312 74.7015H33.6812ZM38.6457 75.4935C38.6817 74.9355 39.1137 74.3865 39.8247 74.3865C40.5897 74.3865 40.9947 74.8725 41.0127 75.4935H38.6457ZM41.1387 76.6185C40.9767 77.1045 40.6257 77.4915 39.9237 77.4915C39.1947 77.4915 38.6367 76.9515 38.6187 76.1775H41.8767C41.8857 76.1235 41.8947 76.0155 41.8947 75.9075C41.8947 74.5575 41.1477 73.6395 39.8157 73.6395C38.7267 73.6395 37.7457 74.5665 37.7457 75.9255C37.7457 77.3925 38.7627 78.2385 39.9237 78.2385C40.9317 78.2385 41.6247 77.6355 41.8677 76.8705L41.1387 76.6185ZM44.7926 74.4225C45.5306 74.4225 45.8456 74.9175 45.9536 75.3405L46.7186 75.0165C46.5386 74.3595 45.9446 73.6395 44.7926 73.6395C43.5596 73.6395 42.6146 74.5845 42.6146 75.9345C42.6146 77.2485 43.5416 78.2385 44.8016 78.2385C45.9266 78.2385 46.5476 77.5095 46.7546 76.8885L46.0076 76.5645C45.9086 76.9065 45.6116 77.4555 44.8016 77.4555C44.0996 77.4555 43.4786 76.9245 43.4786 75.9345C43.4786 74.9265 44.1086 74.4225 44.7926 74.4225ZM48.2522 75.4935C48.2882 74.9355 48.7202 74.3865 49.4312 74.3865C50.1962 74.3865 50.6012 74.8725 50.6192 75.4935H48.2522ZM50.7452 76.6185C50.5832 77.1045 50.2322 77.4915 49.5302 77.4915C48.8012 77.4915 48.2432 76.9515 48.2252 76.1775H51.4832C51.4922 76.1235 51.5012 76.0155 51.5012 75.9075C51.5012 74.5575 50.7542 73.6395 49.4222 73.6395C48.3332 73.6395 47.3522 74.5665 47.3522 75.9255C47.3522 77.3925 48.3692 78.2385 49.5302 78.2385C50.5382 78.2385 51.2312 77.6355 51.4742 76.8705L50.7452 76.6185ZM53.4271 75.6015C53.4271 74.9445 53.7691 74.4135 54.4351 74.4135C55.1911 74.4135 55.4431 74.8995 55.4431 75.5025V78.1035H56.2891V75.3585C56.2891 74.3955 55.7761 73.6485 54.7411 73.6485C54.2371 73.6485 53.7241 73.8555 53.4091 74.3955V73.7745H52.5811V78.1035H53.4271V75.6015ZM58.7688 72.4065H57.9948V73.1085C57.9948 73.4865 57.7968 73.7745 57.3288 73.7745H57.0948V74.5395H57.9228V76.9155C57.9228 77.6985 58.3908 78.1485 59.1288 78.1485C59.4168 78.1485 59.6328 78.0945 59.7048 78.0675V77.3475C59.6328 77.3655 59.4798 77.3835 59.3718 77.3835C58.9308 77.3835 58.7688 77.1855 58.7688 76.7895V74.5395H59.7048V73.7745H58.7688V72.4065ZM60.473 76.9785C60.545 77.4735 61.049 78.2385 62.237 78.2385C63.308 78.2385 63.821 77.5095 63.821 76.8975C63.821 76.2585 63.407 75.7815 62.624 75.6105L61.922 75.4575C61.589 75.3855 61.427 75.1965 61.427 74.9355C61.427 74.6385 61.715 74.3595 62.147 74.3595C62.831 74.3595 63.011 74.8545 63.047 75.0795L63.794 74.8005C63.704 74.4135 63.335 73.6395 62.147 73.6395C61.301 73.6395 60.608 74.2695 60.608 75.0075C60.608 75.6195 61.013 76.0785 61.688 76.2225L62.426 76.3845C62.786 76.4655 62.984 76.6725 62.984 76.9425C62.984 77.2485 62.723 77.5185 62.246 77.5185C61.634 77.5185 61.292 77.1585 61.238 76.7085L60.473 76.9785Z" fill="#DBE8F8"/>
<path d="M37.2092 55.96H38.1632L35.6252 49.579H34.6082L32.0702 55.96H33.0152L33.6902 54.178H36.5162L37.2092 55.96ZM35.0942 50.497L36.2012 53.359H34.0052L35.0942 50.497ZM39.8216 55.96V49.444H38.9756V55.96H39.8216ZM42.1068 55.96V49.444H41.2608V55.96H42.1068ZM46.7679 55.96V53.278H49.4859V52.45H46.7679V50.398H49.7649V49.579H45.8859V55.96H46.7679ZM51.546 55.96V51.631H50.709V55.96H51.546ZM50.52 49.993C50.52 50.326 50.79 50.596 51.123 50.596C51.465 50.596 51.735 50.326 51.735 49.993C51.735 49.651 51.465 49.381 51.123 49.381C50.79 49.381 50.52 49.651 50.52 49.993ZM53.8314 55.96V49.444H52.9854V55.96H53.8314ZM55.8195 53.35C55.8555 52.792 56.2875 52.243 56.9985 52.243C57.7635 52.243 58.1685 52.729 58.1865 53.35H55.8195ZM58.3125 54.475C58.1505 54.961 57.7995 55.348 57.0975 55.348C56.3685 55.348 55.8105 54.808 55.7925 54.034H59.0505C59.0595 53.98 59.0685 53.872 59.0685 53.764C59.0685 52.414 58.3215 51.496 56.9895 51.496C55.9005 51.496 54.9195 52.423 54.9195 53.782C54.9195 55.249 55.9365 56.095 57.0975 56.095C58.1055 56.095 58.7985 55.492 59.0415 54.727L58.3125 54.475ZM59.7435 54.835C59.8155 55.33 60.3195 56.095 61.5075 56.095C62.5785 56.095 63.0915 55.366 63.0915 54.754C63.0915 54.115 62.6775 53.638 61.8945 53.467L61.1925 53.314C60.8595 53.242 60.6975 53.053 60.6975 52.792C60.6975 52.495 60.9855 52.216 61.4175 52.216C62.1015 52.216 62.2815 52.711 62.3175 52.936L63.0645 52.657C62.9745 52.27 62.6055 51.496 61.4175 51.496C60.5715 51.496 59.8785 52.126 59.8785 52.864C59.8785 53.476 60.2835 53.935 60.9585 54.079L61.6965 54.241C62.0565 54.322 62.2545 54.529 62.2545 54.799C62.2545 55.105 61.9935 55.375 61.5165 55.375C60.9045 55.375 60.5625 55.015 60.5085 54.565L59.7435 54.835Z" fill="white"/>
<path d="M36.8582 93.2067C36.7142 92.5137 36.1382 91.6227 34.6982 91.6227C33.5192 91.6227 32.5922 92.5227 32.5922 93.5217C32.5922 94.4757 33.2402 95.0697 34.1492 95.2677L35.0582 95.4657C35.6972 95.6007 36.0122 95.9967 36.0122 96.4557C36.0122 97.0137 35.5802 97.4727 34.6982 97.4727C33.7352 97.4727 33.2312 96.8157 33.1682 96.1047L32.3222 96.3747C32.4392 97.2837 33.1682 98.2737 34.7072 98.2737C36.0662 98.2737 36.9122 97.3737 36.9122 96.3837C36.9122 95.4927 36.3182 94.8267 35.2562 94.5927L34.3022 94.3857C33.7622 94.2687 33.4832 93.9177 33.4832 93.4587C33.4832 92.8647 33.9962 92.3967 34.7162 92.3967C35.6072 92.3967 35.9942 93.0267 36.0662 93.4857L36.8582 93.2067ZM38.8867 99.9477L41.7037 93.8097H40.7947L39.4987 96.7977L38.1487 93.8097H37.1767L39.0397 97.6617L37.9597 99.9477H38.8867ZM43.3636 95.6367C43.3636 94.9797 43.7056 94.4487 44.3716 94.4487C45.1276 94.4487 45.3796 94.9347 45.3796 95.5377V98.1387H46.2256V95.3937C46.2256 94.4307 45.7126 93.6837 44.6776 93.6837C44.1736 93.6837 43.6606 93.8907 43.3456 94.4307V93.8097H42.5176V98.1387H43.3636V95.6367ZM49.3893 94.4577C50.1273 94.4577 50.4423 94.9527 50.5503 95.3757L51.3153 95.0517C51.1353 94.3947 50.5413 93.6747 49.3893 93.6747C48.1563 93.6747 47.2113 94.6197 47.2113 95.9697C47.2113 97.2837 48.1383 98.2737 49.3983 98.2737C50.5233 98.2737 51.1443 97.5447 51.3513 96.9237L50.6043 96.5997C50.5053 96.9417 50.2083 97.4907 49.3983 97.4907C48.6963 97.4907 48.0753 96.9597 48.0753 95.9697C48.0753 94.9617 48.7053 94.4577 49.3893 94.4577ZM52.8488 95.5287C52.8848 94.9707 53.3168 94.4217 54.0278 94.4217C54.7928 94.4217 55.1978 94.9077 55.2158 95.5287H52.8488ZM55.3418 96.6537C55.1798 97.1397 54.8288 97.5267 54.1268 97.5267C53.3978 97.5267 52.8398 96.9867 52.8218 96.2127H56.0798C56.0888 96.1587 56.0978 96.0507 56.0978 95.9427C56.0978 94.5927 55.3508 93.6747 54.0188 93.6747C52.9298 93.6747 51.9488 94.6017 51.9488 95.9607C51.9488 97.4277 52.9658 98.2737 54.1268 98.2737C55.1348 98.2737 55.8278 97.6707 56.0708 96.9057L55.3418 96.6537ZM57.6818 95.9607C57.6818 95.0697 58.1858 94.4397 58.9598 94.4397C59.7338 94.4397 60.2018 95.0517 60.2018 95.9427C60.2018 96.8337 59.7248 97.5087 58.9508 97.5087C58.1408 97.5087 57.6818 96.8517 57.6818 95.9607ZM60.2108 97.5537C60.2108 97.8147 60.2378 98.0397 60.2558 98.1387H61.0748C61.0658 98.0667 61.0298 97.7517 61.0298 97.3377V91.6227H60.1928V94.4217C60.0488 94.0707 59.6348 93.6927 58.8698 93.6927C57.6458 93.6927 56.8178 94.7367 56.8178 95.9607C56.8178 97.2477 57.6008 98.2557 58.8698 98.2557C59.5448 98.2557 60.0038 97.8957 60.2108 97.4817V97.5537Z" fill="#DBE8F8"/>
<path d="M38.0372 119.228V112.847H37.1552V117.743L33.9692 112.847H32.7902V119.228H33.6722V114.026L37.1192 119.228H38.0372ZM41.4185 118.607C40.6985 118.607 40.0685 118.067 40.0685 117.059C40.0685 116.06 40.6985 115.52 41.4185 115.52C42.1385 115.52 42.7685 116.06 42.7685 117.059C42.7685 118.067 42.1385 118.607 41.4185 118.607ZM41.4185 114.764C40.1225 114.764 39.2045 115.745 39.2045 117.059C39.2045 118.382 40.1225 119.363 41.4185 119.363C42.7145 119.363 43.6325 118.382 43.6325 117.059C43.6325 115.745 42.7145 114.764 41.4185 114.764ZM45.8049 113.531H45.0309V114.233C45.0309 114.611 44.8329 114.899 44.3649 114.899H44.1309V115.664H44.9589V118.04C44.9589 118.823 45.4269 119.273 46.1649 119.273C46.4529 119.273 46.6689 119.219 46.7409 119.192V118.472C46.6689 118.49 46.5159 118.508 46.4079 118.508C45.9669 118.508 45.8049 118.31 45.8049 117.914V115.664H46.7409V114.899H45.8049V113.531ZM48.3752 116.618C48.4112 116.06 48.8432 115.511 49.5542 115.511C50.3192 115.511 50.7242 115.997 50.7422 116.618H48.3752ZM50.8682 117.743C50.7062 118.229 50.3552 118.616 49.6532 118.616C48.9242 118.616 48.3662 118.076 48.3482 117.302H51.6062C51.6152 117.248 51.6242 117.14 51.6242 117.032C51.6242 115.682 50.8772 114.764 49.5452 114.764C48.4562 114.764 47.4752 115.691 47.4752 117.05C47.4752 118.517 48.4922 119.363 49.6532 119.363C50.6612 119.363 51.3542 118.76 51.5972 117.995L50.8682 117.743ZM52.2991 118.103C52.3711 118.598 52.8751 119.363 54.0631 119.363C55.1341 119.363 55.6471 118.634 55.6471 118.022C55.6471 117.383 55.2331 116.906 54.4501 116.735L53.7481 116.582C53.4151 116.51 53.2531 116.321 53.2531 116.06C53.2531 115.763 53.5411 115.484 53.9731 115.484C54.6571 115.484 54.8371 115.979 54.8731 116.204L55.6201 115.925C55.5301 115.538 55.1611 114.764 53.9731 114.764C53.1271 114.764 52.4341 115.394 52.4341 116.132C52.4341 116.744 52.8391 117.203 53.5141 117.347L54.2521 117.509C54.6121 117.59 54.8101 117.797 54.8101 118.067C54.8101 118.373 54.5491 118.643 54.0721 118.643C53.4601 118.643 53.1181 118.283 53.0641 117.833L52.2991 118.103Z" fill="#DBE8F8"/>
<rect x="78.3762" y="23.7622" width="125.48" height="11.599" rx="5.7995" fill="#F4F4F4"/>
<path d="M37.2182 133.7V132.881H32.0702V133.7H34.2032V139.262H35.0852V133.7H37.2182ZM39.8933 134.888C39.8483 134.879 39.7313 134.861 39.6143 134.861C39.1733 134.861 38.6333 135.023 38.3183 135.689V134.933H37.4903V139.262H38.3363V137.093C38.3363 136.139 38.8133 135.761 39.5243 135.761C39.6413 135.761 39.7673 135.77 39.8933 135.788V134.888ZM40.525 138.101C40.525 138.785 41.092 139.397 41.974 139.397C42.748 139.397 43.18 138.983 43.369 138.677C43.369 138.992 43.396 139.154 43.414 139.262H44.242C44.224 139.154 44.188 138.929 44.188 138.551V136.382C44.188 135.536 43.684 134.798 42.388 134.798C41.452 134.798 40.705 135.374 40.615 136.202L41.425 136.391C41.479 135.887 41.812 135.518 42.406 135.518C43.063 135.518 43.342 135.869 43.342 136.292C43.342 136.445 43.27 136.58 43.009 136.616L41.839 136.787C41.092 136.895 40.525 137.327 40.525 138.101ZM42.091 138.686C41.659 138.686 41.389 138.38 41.389 138.056C41.389 137.669 41.659 137.462 42.019 137.408L43.342 137.21V137.408C43.342 138.353 42.784 138.686 42.091 138.686ZM45.1009 138.137C45.1729 138.632 45.6769 139.397 46.8649 139.397C47.9359 139.397 48.4489 138.668 48.4489 138.056C48.4489 137.417 48.0349 136.94 47.2519 136.769L46.5499 136.616C46.2169 136.544 46.0549 136.355 46.0549 136.094C46.0549 135.797 46.3429 135.518 46.7749 135.518C47.4589 135.518 47.6389 136.013 47.6749 136.238L48.4219 135.959C48.3319 135.572 47.9629 134.798 46.7749 134.798C45.9289 134.798 45.2359 135.428 45.2359 136.166C45.2359 136.778 45.6409 137.237 46.3159 137.381L47.0539 137.543C47.4139 137.624 47.6119 137.831 47.6119 138.101C47.6119 138.407 47.3509 138.677 46.8739 138.677C46.2619 138.677 45.9199 138.317 45.8659 137.867L45.1009 138.137ZM50.4212 136.715C50.4392 136.076 50.7812 135.572 51.4292 135.572C52.1852 135.572 52.4372 136.058 52.4372 136.661V139.262H53.2832V136.517C53.2832 135.554 52.7702 134.807 51.7352 134.807C51.2402 134.807 50.7362 134.978 50.4212 135.437V132.746H49.5752V139.262H50.4212V136.715Z" fill="#DBE8F8"/>
<ellipse cx="22.968" cy="75.4234" rx="3.92859" ry="3.92051" fill="#B7D1F2"/>
<path d="M22.0966 75.6157V73.002C22.4458 72.6535 22.6786 72.8568 22.7513 73.002V75.2054C22.7513 75.5539 22.7513 75.641 22.9696 75.6157H23.8426C24.2791 75.6157 24.2791 75.8335 24.2791 76.0513C24.2791 76.2255 23.9881 76.2691 23.8426 76.2691H22.7513C22.2275 76.2691 22.0966 75.8335 22.0966 75.6157Z" fill="#0F64D2"/>
<path d="M85.9352 31.4369C87.5718 31.4369 88.8986 30.1129 88.8986 28.4797C88.8986 26.8465 87.5718 25.5225 85.9352 25.5225C84.2986 25.5225 82.9719 26.8465 82.9719 28.4797C82.9719 30.1129 84.2986 31.4369 85.9352 31.4369Z" stroke="#767676" stroke-miterlimit="10"/>
<path d="M89.9757 32.5124L88.3594 30.8994" stroke="#767676" stroke-miterlimit="10" stroke-linecap="round"/>
<path d="M98.5291 27.3782C98.4011 26.7622 97.8891 25.9702 96.6091 25.9702C95.5611 25.9702 94.7371 26.7702 94.7371 27.6582C94.7371 28.5062 95.3131 29.0342 96.1211 29.2102L96.9291 29.3862C97.4971 29.5062 97.7771 29.8582 97.7771 30.2662C97.7771 30.7622 97.3931 31.1702 96.6091 31.1702C95.7531 31.1702 95.3051 30.5862 95.2491 29.9542L94.4971 30.1942C94.6011 31.0022 95.2491 31.8822 96.6171 31.8822C97.8251 31.8822 98.5771 31.0822 98.5771 30.2022C98.5771 29.4102 98.0491 28.8182 97.1051 28.6102L96.2571 28.4262C95.7771 28.3222 95.5291 28.0102 95.5291 27.6022C95.5291 27.0742 95.9851 26.6582 96.6251 26.6582C97.4171 26.6582 97.7611 27.2182 97.8251 27.6262L98.5291 27.3782ZM99.9852 29.4422C100.017 28.9462 100.401 28.4582 101.033 28.4582C101.713 28.4582 102.073 28.8902 102.089 29.4422H99.9852ZM102.201 30.4422C102.057 30.8742 101.745 31.2182 101.121 31.2182C100.473 31.2182 99.9772 30.7382 99.9612 30.0502H102.857C102.865 30.0022 102.873 29.9062 102.873 29.8102C102.873 28.6102 102.209 27.7942 101.025 27.7942C100.057 27.7942 99.1852 28.6182 99.1852 29.8262C99.1852 31.1302 100.089 31.8822 101.121 31.8822C102.017 31.8822 102.633 31.3462 102.849 30.6662L102.201 30.4422ZM103.593 30.7302C103.593 31.3382 104.097 31.8822 104.881 31.8822C105.569 31.8822 105.953 31.5142 106.121 31.2422C106.121 31.5222 106.145 31.6662 106.161 31.7622H106.897C106.881 31.6662 106.849 31.4662 106.849 31.1302V29.2022C106.849 28.4502 106.401 27.7942 105.249 27.7942C104.417 27.7942 103.753 28.3062 103.673 29.0422L104.393 29.2102C104.441 28.7622 104.737 28.4342 105.265 28.4342C105.849 28.4342 106.097 28.7462 106.097 29.1222C106.097 29.2582 106.033 29.3782 105.801 29.4102L104.761 29.5622C104.097 29.6582 103.593 30.0422 103.593 30.7302ZM104.985 31.2502C104.601 31.2502 104.361 30.9782 104.361 30.6902C104.361 30.3462 104.601 30.1622 104.921 30.1142L106.097 29.9382V30.1142C106.097 30.9542 105.601 31.2502 104.985 31.2502ZM110.157 27.8742C110.117 27.8662 110.013 27.8502 109.909 27.8502C109.517 27.8502 109.037 27.9942 108.757 28.5862V27.9142H108.021V31.7622H108.773V29.8342C108.773 28.9862 109.197 28.6502 109.829 28.6502C109.933 28.6502 110.045 28.6582 110.157 28.6742V27.8742ZM112.535 28.4902C113.191 28.4902 113.471 28.9302 113.567 29.3062L114.247 29.0182C114.087 28.4342 113.559 27.7942 112.535 27.7942C111.439 27.7942 110.599 28.6342 110.599 29.8342C110.599 31.0022 111.423 31.8822 112.543 31.8822C113.543 31.8822 114.095 31.2342 114.279 30.6822L113.615 30.3942C113.527 30.6982 113.263 31.1862 112.543 31.1862C111.919 31.1862 111.367 30.7142 111.367 29.8342C111.367 28.9382 111.927 28.4902 112.535 28.4902ZM115.913 29.4982C115.929 28.9302 116.233 28.4822 116.809 28.4822C117.481 28.4822 117.705 28.9142 117.705 29.4502V31.7622H118.457V29.3222C118.457 28.4662 118.001 27.8022 117.081 27.8022C116.641 27.8022 116.193 27.9542 115.913 28.3622V25.9702H115.161V31.7622H115.913V29.4982ZM122.517 31.7622V29.3782H124.933V28.6422H122.517V26.8182H125.181V26.0902H121.733V31.7622H122.517ZM126.765 31.7622V27.9142H126.021V31.7622H126.765ZM125.853 26.4582C125.853 26.7542 126.093 26.9942 126.389 26.9942C126.693 26.9942 126.933 26.7542 126.933 26.4582C126.933 26.1542 126.693 25.9142 126.389 25.9142C126.093 25.9142 125.853 26.1542 125.853 26.4582ZM128.796 31.7622V25.9702H128.044V31.7622H128.796ZM130.563 29.4422C130.595 28.9462 130.979 28.4582 131.611 28.4582C132.291 28.4582 132.651 28.8902 132.667 29.4422H130.563ZM132.779 30.4422C132.635 30.8742 132.323 31.2182 131.699 31.2182C131.051 31.2182 130.555 30.7382 130.539 30.0502H133.435C133.443 30.0022 133.451 29.9062 133.451 29.8102C133.451 28.6102 132.787 27.7942 131.603 27.7942C130.635 27.7942 129.763 28.6182 129.763 29.8262C129.763 31.1302 130.667 31.8822 131.699 31.8822C132.595 31.8822 133.211 31.3462 133.427 30.6662L132.779 30.4422ZM134.051 30.7622C134.115 31.2022 134.563 31.8822 135.619 31.8822C136.571 31.8822 137.027 31.2342 137.027 30.6902C137.027 30.1222 136.659 29.6982 135.963 29.5462L135.339 29.4102C135.043 29.3462 134.899 29.1782 134.899 28.9462C134.899 28.6822 135.155 28.4342 135.539 28.4342C136.147 28.4342 136.307 28.8742 136.339 29.0742L137.003 28.8262C136.923 28.4822 136.595 27.7942 135.539 27.7942C134.787 27.7942 134.171 28.3542 134.171 29.0102C134.171 29.5542 134.531 29.9622 135.131 30.0902L135.787 30.2342C136.107 30.3062 136.283 30.4902 136.283 30.7302C136.283 31.0022 136.051 31.2422 135.627 31.2422C135.083 31.2422 134.779 30.9222 134.731 30.5222L134.051 30.7622ZM139.788 30.7302C139.788 31.3382 140.292 31.8822 141.076 31.8822C141.764 31.8822 142.148 31.5142 142.316 31.2422C142.316 31.5222 142.34 31.6662 142.356 31.7622H143.092C143.076 31.6662 143.044 31.4662 143.044 31.1302V29.2022C143.044 28.4502 142.596 27.7942 141.444 27.7942C140.612 27.7942 139.948 28.3062 139.868 29.0422L140.588 29.2102C140.636 28.7622 140.932 28.4342 141.46 28.4342C142.044 28.4342 142.292 28.7462 142.292 29.1222C142.292 29.2582 142.228 29.3782 141.996 29.4102L140.956 29.5622C140.292 29.6582 139.788 30.0422 139.788 30.7302ZM141.18 31.2502C140.796 31.2502 140.556 30.9782 140.556 30.6902C140.556 30.3462 140.796 30.1622 141.116 30.1142L142.292 29.9382V30.1142C142.292 30.9542 141.796 31.2502 141.18 31.2502ZM144.968 29.5382C144.968 28.9542 145.272 28.4822 145.864 28.4822C146.536 28.4822 146.76 28.9142 146.76 29.4502V31.7622H147.512V29.3222C147.512 28.4662 147.056 27.8022 146.136 27.8022C145.688 27.8022 145.232 27.9862 144.952 28.4662V27.9142H144.216V31.7622H144.968V29.5382ZM149.156 29.8262C149.156 29.0342 149.604 28.4742 150.292 28.4742C150.98 28.4742 151.396 29.0182 151.396 29.8102C151.396 30.6022 150.972 31.2022 150.284 31.2022C149.564 31.2022 149.156 30.6182 149.156 29.8262ZM151.404 31.2422C151.404 31.4742 151.428 31.6742 151.444 31.7622H152.172C152.164 31.6982 152.132 31.4182 152.132 31.0502V25.9702H151.388V28.4582C151.26 28.1462 150.892 27.8102 150.212 27.8102C149.124 27.8102 148.388 28.7382 148.388 29.8262C148.388 30.9702 149.084 31.8662 150.212 31.8662C150.812 31.8662 151.22 31.5462 151.404 31.1782V31.2422ZM156.275 31.7622V29.3782H158.691V28.6422H156.275V26.8182H158.939V26.0902H155.491V31.7622H156.275ZM161.184 31.2102C160.544 31.2102 159.984 30.7302 159.984 29.8342C159.984 28.9462 160.544 28.4662 161.184 28.4662C161.824 28.4662 162.384 28.9462 162.384 29.8342C162.384 30.7302 161.824 31.2102 161.184 31.2102ZM161.184 27.7942C160.032 27.7942 159.216 28.6662 159.216 29.8342C159.216 31.0102 160.032 31.8822 161.184 31.8822C162.336 31.8822 163.152 31.0102 163.152 29.8342C163.152 28.6662 162.336 27.7942 161.184 27.7942ZM164.866 31.7622V25.9702H164.114V31.7622H164.866ZM166.594 29.8262C166.594 29.0342 167.042 28.4742 167.73 28.4742C168.418 28.4742 168.834 29.0182 168.834 29.8102C168.834 30.6022 168.41 31.2022 167.722 31.2022C167.002 31.2022 166.594 30.6182 166.594 29.8262ZM168.842 31.2422C168.842 31.4742 168.866 31.6742 168.882 31.7622H169.61C169.602 31.6982 169.57 31.4182 169.57 31.0502V25.9702H168.826V28.4582C168.698 28.1462 168.33 27.8102 167.65 27.8102C166.562 27.8102 165.826 28.7382 165.826 29.8262C165.826 30.9702 166.522 31.8662 167.65 31.8662C168.25 31.8662 168.658 31.5462 168.842 31.1782V31.2422ZM171.337 29.4422C171.369 28.9462 171.753 28.4582 172.385 28.4582C173.065 28.4582 173.425 28.8902 173.441 29.4422H171.337ZM173.553 30.4422C173.409 30.8742 173.097 31.2182 172.473 31.2182C171.825 31.2182 171.329 30.7382 171.313 30.0502H174.209C174.217 30.0022 174.225 29.9062 174.225 29.8102C174.225 28.6102 173.561 27.7942 172.377 27.7942C171.409 27.7942 170.537 28.6182 170.537 29.8262C170.537 31.1302 171.441 31.8822 172.473 31.8822C173.369 31.8822 173.985 31.3462 174.201 30.6662L173.553 30.4422ZM177.321 27.8742C177.281 27.8662 177.177 27.8502 177.073 27.8502C176.681 27.8502 176.201 27.9942 175.921 28.5862V27.9142H175.185V31.7622H175.937V29.8342C175.937 28.9862 176.361 28.6502 176.993 28.6502C177.097 28.6502 177.209 28.6582 177.321 28.6742V27.8742ZM177.762 30.7622C177.826 31.2022 178.274 31.8822 179.33 31.8822C180.282 31.8822 180.738 31.2342 180.738 30.6902C180.738 30.1222 180.37 29.6982 179.674 29.5462L179.05 29.4102C178.754 29.3462 178.61 29.1782 178.61 28.9462C178.61 28.6822 178.866 28.4342 179.25 28.4342C179.858 28.4342 180.018 28.8742 180.05 29.0742L180.714 28.8262C180.634 28.4822 180.306 27.7942 179.25 27.7942C178.498 27.7942 177.882 28.3542 177.882 29.0102C177.882 29.5542 178.242 29.9622 178.842 30.0902L179.498 30.2342C179.818 30.3062 179.994 30.4902 179.994 30.7302C179.994 31.0022 179.762 31.2422 179.338 31.2422C178.794 31.2422 178.49 30.9222 178.442 30.5222L177.762 30.7622Z" fill="#ACACAC"/>
<path d="M86.2707 55.7969H87.8427L84.5307 47.2889H82.8627L79.5507 55.7969H81.0747L81.8667 53.6609H85.4667L86.2707 55.7969ZM83.6667 48.8489L84.9627 52.3289H82.3707L83.6667 48.8489ZM90.2539 55.7969V47.1089H88.8619V55.7969H90.2539ZM93.4414 55.7969V47.1089H92.0494V55.7969H93.4414ZM99.7735 55.7969V52.3649H103.229V51.0329H99.7735V48.6449H103.625V47.2889H98.3335V55.7969H99.7735ZM106.238 55.7969V49.9529H104.858V55.7969H106.238ZM104.642 47.9009C104.642 48.4049 105.05 48.8009 105.542 48.8009C106.046 48.8009 106.454 48.4049 106.454 47.9009C106.454 47.3969 106.046 46.9889 105.542 46.9889C105.05 46.9889 104.642 47.3969 104.642 47.9009ZM109.426 55.7969V47.1089H108.034V55.7969H109.426ZM112.193 52.2329C112.241 51.6089 112.745 50.9369 113.621 50.9369C114.581 50.9369 115.037 51.5489 115.061 52.2329H112.193ZM115.217 53.7569C115.025 54.3329 114.593 54.7769 113.753 54.7769C112.889 54.7769 112.193 54.1409 112.157 53.2529H116.429C116.441 53.2289 116.465 53.0369 116.465 52.8089C116.465 50.9609 115.409 49.7729 113.609 49.7729C112.133 49.7729 110.765 50.9969 110.765 52.8449C110.765 54.8249 112.169 55.9769 113.753 55.9769C115.157 55.9769 116.081 55.1489 116.393 54.1289L115.217 53.7569ZM117.28 54.2129C117.352 54.8729 118 55.9769 119.692 55.9769C121.18 55.9769 121.9 54.9929 121.9 54.1049C121.9 53.2409 121.324 52.5689 120.22 52.3289L119.332 52.1489C118.972 52.0769 118.744 51.8489 118.744 51.5369C118.744 51.1769 119.092 50.8649 119.584 50.8649C120.364 50.8649 120.616 51.4049 120.664 51.7409L121.84 51.4049C121.744 50.8289 121.216 49.7729 119.584 49.7729C118.372 49.7729 117.436 50.6369 117.436 51.6569C117.436 52.4609 117.976 53.1329 119.008 53.3609L119.872 53.5529C120.34 53.6489 120.556 53.8889 120.556 54.2009C120.556 54.5609 120.256 54.8729 119.68 54.8729C118.936 54.8729 118.54 54.4049 118.492 53.8769L117.28 54.2129Z" fill="black"/>
<path d="M237.209 72.0222C238.505 72.0222 239.504 71.2122 239.504 69.7092V65.5062H238.622V69.6822C238.622 70.6542 238.109 71.2032 237.209 71.2032C236.318 71.2032 235.787 70.6542 235.787 69.6822V65.5062H234.914V69.7092C234.914 71.2122 235.913 72.0222 237.209 72.0222ZM241.736 73.5972V71.3022C241.97 71.6892 242.474 72.0042 243.14 72.0042C244.409 72.0042 245.156 71.0052 245.156 69.7182C245.156 68.4582 244.463 67.4592 243.167 67.4592C242.465 67.4592 241.952 67.8012 241.718 68.2332V67.5582H240.899V73.5972H241.736ZM244.292 69.7182C244.292 70.6092 243.797 71.2482 243.014 71.2482C242.24 71.2482 241.727 70.6092 241.727 69.7182C241.727 68.8542 242.24 68.2062 243.014 68.2062C243.806 68.2062 244.292 68.8542 244.292 69.7182ZM246.738 69.7092C246.738 68.8182 247.242 68.1882 248.016 68.1882C248.79 68.1882 249.258 68.8002 249.258 69.6912C249.258 70.5822 248.781 71.2572 248.007 71.2572C247.197 71.2572 246.738 70.6002 246.738 69.7092ZM249.267 71.3022C249.267 71.5632 249.294 71.7882 249.312 71.8872H250.131C250.122 71.8152 250.086 71.5002 250.086 71.0862V65.3712H249.249V68.1702C249.105 67.8192 248.691 67.4412 247.926 67.4412C246.702 67.4412 245.874 68.4852 245.874 69.7092C245.874 70.9962 246.657 72.0042 247.926 72.0042C248.601 72.0042 249.06 71.6442 249.267 71.2302V71.3022ZM251.255 70.7262C251.255 71.4102 251.822 72.0222 252.704 72.0222C253.478 72.0222 253.91 71.6082 254.099 71.3022C254.099 71.6172 254.126 71.7792 254.144 71.8872H254.972C254.954 71.7792 254.918 71.5542 254.918 71.1762V69.0072C254.918 68.1612 254.414 67.4232 253.118 67.4232C252.182 67.4232 251.435 67.9992 251.345 68.8272L252.155 69.0162C252.209 68.5122 252.542 68.1432 253.136 68.1432C253.793 68.1432 254.072 68.4942 254.072 68.9172C254.072 69.0702 254 69.2052 253.739 69.2412L252.569 69.4122C251.822 69.5202 251.255 69.9522 251.255 70.7262ZM252.821 71.3112C252.389 71.3112 252.119 71.0052 252.119 70.6812C252.119 70.2942 252.389 70.0872 252.749 70.0332L254.072 69.8352V70.0332C254.072 70.9782 253.514 71.3112 252.821 71.3112ZM257.37 66.1902H256.596V66.8922C256.596 67.2702 256.398 67.5582 255.93 67.5582H255.696V68.3232H256.524V70.6992C256.524 71.4822 256.992 71.9322 257.73 71.9322C258.018 71.9322 258.234 71.8782 258.306 71.8512V71.1312C258.234 71.1492 258.081 71.1672 257.973 71.1672C257.532 71.1672 257.37 70.9692 257.37 70.5732V68.3232H258.306V67.5582H257.37V66.1902ZM259.94 69.2772C259.976 68.7192 260.408 68.1702 261.119 68.1702C261.884 68.1702 262.289 68.6562 262.307 69.2772H259.94ZM262.433 70.4022C262.271 70.8882 261.92 71.2752 261.218 71.2752C260.489 71.2752 259.931 70.7352 259.913 69.9612H263.171C263.18 69.9072 263.189 69.7992 263.189 69.6912C263.189 68.3412 262.442 67.4232 261.11 67.4232C260.021 67.4232 259.04 68.3502 259.04 69.7092C259.04 71.1762 260.057 72.0222 261.218 72.0222C262.226 72.0222 262.919 71.4192 263.162 70.6542L262.433 70.4022ZM264.773 69.7092C264.773 68.8182 265.277 68.1882 266.051 68.1882C266.825 68.1882 267.293 68.8002 267.293 69.6912C267.293 70.5822 266.816 71.2572 266.042 71.2572C265.232 71.2572 264.773 70.6002 264.773 69.7092ZM267.302 71.3022C267.302 71.5632 267.329 71.7882 267.347 71.8872H268.166C268.157 71.8152 268.121 71.5002 268.121 71.0862V65.3712H267.284V68.1702C267.14 67.8192 266.726 67.4412 265.961 67.4412C264.737 67.4412 263.909 68.4852 263.909 69.7092C263.909 70.9962 264.692 72.0042 265.961 72.0042C266.636 72.0042 267.095 71.6442 267.302 71.2302V71.3022Z" fill="black"/>
<path fill-rule="evenodd" clip-rule="evenodd" d="M80.726 79.377C80.3217 79.377 79.934 79.5393 79.6482 79.8282C79.3624 80.1172 79.2018 80.5091 79.2018 80.9177V90.1625C79.2018 91.013 79.8846 91.7033 80.726 91.7033H91.6129C92.0172 91.7033 92.4049 91.541 92.6907 91.252C92.9765 90.9631 93.1371 90.5712 93.1371 90.1625V82.6787C93.1371 82.27 92.9765 81.8781 92.6907 81.5891C92.4049 81.3002 92.0172 81.1379 91.6129 81.1379H85.9517C85.9179 81.1379 85.8846 81.1299 85.8543 81.1146C85.8241 81.0993 85.7978 81.0772 85.7775 81.0498L84.9937 79.9933C84.7062 79.6059 84.2533 79.377 83.7743 79.377H80.726Z" fill="#F8D656"/>
<path d="M80.1705 82.2325C79.2746 82.2325 79.1573 82.8746 79.2106 83.1957L79.2108 90.0982C79.2109 91.3824 79.8506 91.7035 80.1705 91.7035H91.5288C92.9366 91.7035 93.1819 90.7403 93.1285 90.2588V83.1957C93.1285 82.2967 92.062 82.179 91.5288 82.2325H80.1705Z" fill="#FBEAA8"/>
<path fill-rule="evenodd" clip-rule="evenodd" d="M80.726 99.6055C80.3217 99.6055 79.934 99.7678 79.6482 100.057C79.3624 100.346 79.2018 100.738 79.2018 101.146V110.391C79.2018 111.242 79.8846 111.932 80.726 111.932H91.6129C92.0172 111.932 92.4049 111.769 92.6907 111.481C92.9765 111.192 93.1371 110.8 93.1371 110.391V102.907C93.1371 102.499 92.9765 102.107 92.6907 101.818C92.4049 101.529 92.0172 101.366 91.6129 101.366H85.9517C85.9179 101.366 85.8846 101.358 85.8543 101.343C85.8241 101.328 85.7978 101.306 85.7775 101.278L84.9937 100.222C84.7062 99.8344 84.2533 99.6055 83.7743 99.6055H80.726Z" fill="#F8D656"/>
<path d="M80.1705 102.46C79.2746 102.46 79.1573 103.102 79.2106 103.423L79.2108 110.326C79.2109 111.61 79.8506 111.931 80.1705 111.931H91.5288C92.9366 111.931 93.1819 110.968 93.1285 110.486V103.423C93.1285 102.524 92.062 102.407 91.5288 102.46H80.1705Z" fill="#FBEAA8"/>
<path fill-rule="evenodd" clip-rule="evenodd" d="M80.726 119.833C80.3217 119.833 79.934 119.995 79.6482 120.284C79.3624 120.573 79.2018 120.965 79.2018 121.374V130.619C79.2018 131.469 79.8846 132.159 80.726 132.159H91.6129C92.0172 132.159 92.4049 131.997 92.6907 131.708C92.9765 131.419 93.1371 131.027 93.1371 130.619V123.135C93.1371 122.726 92.9765 122.334 92.6907 122.045C92.4049 121.756 92.0172 121.594 91.6129 121.594H85.9517C85.9179 121.594 85.8846 121.586 85.8543 121.571C85.8241 121.555 85.7978 121.533 85.7775 121.506L84.9937 120.449C84.7062 120.062 84.2533 119.833 83.7743 119.833H80.726Z" fill="#F8D656"/>
<path d="M80.1705 122.689C79.2746 122.689 79.1573 123.331 79.2106 123.652L79.2108 130.554C79.2109 131.838 79.8506 132.16 80.1705 132.16H91.5288C92.9366 132.16 93.1819 131.196 93.1285 130.715V123.652C93.1285 122.753 92.062 122.635 91.5288 122.689H80.1705Z" fill="#FBEAA8"/>
<path fill-rule="evenodd" clip-rule="evenodd" d="M80.4083 140.061C80.0041 140.061 79.6164 140.223 79.3306 140.512C79.0447 140.801 78.8842 141.193 78.8842 141.601V150.846C78.8842 151.697 79.567 152.387 80.4083 152.387H91.2953C91.6995 152.387 92.0872 152.225 92.3731 151.936C92.6589 151.647 92.8195 151.255 92.8195 150.846V143.362C92.8195 142.954 92.6589 142.562 92.3731 142.273C92.0872 141.984 91.6995 141.821 91.2953 141.821H85.6341C85.6003 141.821 85.5669 141.813 85.5367 141.798C85.5065 141.783 85.4802 141.761 85.4599 141.733L84.676 140.677C84.3886 140.289 83.9357 140.061 83.4567 140.061H80.4083Z" fill="#F8D656"/>
<path d="M79.8546 142.916C78.9587 142.916 78.8414 143.558 78.8947 143.879L78.8948 150.782C78.8949 152.066 79.5347 152.387 79.8546 152.387H91.2129C92.6207 152.387 92.8659 151.424 92.8126 150.942V143.879C92.8126 142.98 91.7461 142.863 91.2129 142.916H79.8546Z" fill="#FBEAA8"/>
<circle cx="347.81" cy="28.2503" r="4.90703" fill="#0A51A9"/>
<path d="M360.744 9H13V18.3018H360.744V9Z" fill="#D9D9D9"/>
<path d="M21.914 15.141C22.9002 15.141 23.6996 14.3416 23.6996 13.3554C23.6996 12.3693 22.9002 11.5698 21.914 11.5698C20.9279 11.5698 20.1284 12.3693 20.1284 13.3554C20.1284 14.3416 20.9279 15.141 21.914 15.141Z" fill="#F32D28"/>
<path d="M30.2311 15.14C31.2173 15.14 32.0167 14.3406 32.0167 13.3544C32.0167 12.3683 31.2173 11.5688 30.2311 11.5688C29.245 11.5688 28.4456 12.3683 28.4456 13.3544C28.4456 14.3406 29.245 15.14 30.2311 15.14Z" fill="#FAB41E"/>
<path d="M38.1644 15.14C39.1505 15.14 39.95 14.3406 39.95 13.3544C39.95 12.3683 39.1505 11.5688 38.1644 11.5688C37.1782 11.5688 36.3788 12.3683 36.3788 13.3544C36.3788 14.3406 37.1782 15.14 38.1644 15.14Z" fill="#93979C"/>
<path d="M239.821 11.8623H135.354V15.4399H239.821V11.8623Z" fill="white"/>
<defs>
<filter id="filter0_d" x="0" y="0" width="373" height="245" filterUnits="userSpaceOnUse" color-interpolation-filters="sRGB">
<feFlood flood-opacity="0" result="BackgroundImageFix"/>
<feColorMatrix in="SourceAlpha" type="matrix" values="0 0 0 0 0 0 0 0 0 0 0 0 0 0 0 0 0 0 127 0" result="hardAlpha"/>
<feOffset dy="4"/>
<feGaussianBlur stdDeviation="2"/>
<feComposite in2="hardAlpha" operator="out"/>
<feColorMatrix type="matrix" values="0 0 0 0 0 0 0 0 0 0 0 0 0 0 0 0 0 0 0.25 0"/>
<feBlend mode="normal" in2="BackgroundImageFix" result="effect1_dropShadow"/>
<feBlend mode="normal" in="SourceGraphic" in2="effect1_dropShadow" result="shape"/>
</filter>
</defs>
</svg>
