<svg width="373" height="245" viewBox="0 0 373 245" fill="none" xmlns="http://www.w3.org/2000/svg">
<g filter="url(#filter0_d)">
<rect x="4" width="365" height="237" rx="10" fill="white"/>
</g>
<rect x="13" y="33.7432" width="347.661" height="191.813" fill="white"/>
<rect x="13" y="16.2217" width="347.661" height="17.5214" fill="#282F41"/>
<path d="M360.661 7H13V16.2218H360.661V7Z" fill="#D9D9D9"/>
<path d="M21.9225 13.0521C22.9096 13.0521 23.7098 12.2519 23.7098 11.2648C23.7098 10.2777 22.9096 9.47754 21.9225 9.47754C20.9354 9.47754 20.1353 10.2777 20.1353 11.2648C20.1353 12.2519 20.9354 13.0521 21.9225 13.0521Z" fill="#F32D28"/>
<path d="M30.2487 13.0521C31.2358 13.0521 32.0359 12.2519 32.0359 11.2648C32.0359 10.2777 31.2358 9.47754 30.2487 9.47754C29.2616 9.47754 28.4614 10.2777 28.4614 11.2648C28.4614 12.2519 29.2616 13.0521 30.2487 13.0521Z" fill="#FAB41E"/>
<path d="M38.1889 13.0521C39.1759 13.0521 39.9761 12.2519 39.9761 11.2648C39.9761 10.2777 39.1759 9.47754 38.1889 9.47754C37.2018 9.47754 36.4016 10.2777 36.4016 11.2648C36.4016 12.2519 37.2018 13.0521 38.1889 13.0521Z" fill="#93979C"/>
<path d="M239.856 9.7666H135.65V13.4553H239.856V9.7666Z" fill="white"/>
<path d="M355.551 25.4435C355.551 28.7325 352.884 31.3988 349.595 31.3988C346.306 31.3988 343.64 28.7325 343.64 25.4435C343.64 22.1545 346.306 19.4883 349.595 19.4883C352.884 19.4883 355.551 22.1545 355.551 25.4435Z" fill="#F9A650" stroke="#FC7B14"/>
<path d="M99 25L100.823 26.8232C100.921 26.9209 101.079 26.9209 101.177 26.8232L103 25" stroke="white"/>
<path d="M56.3425 22.6768V28.2098" stroke="#3E4454" stroke-width="0.25"/>
<path d="M65.848 28V22.328H64.8L62.784 26.944L60.784 22.328H59.72V28H60.496V23.584L62.416 28H63.136L65.072 23.584V28H65.848ZM68.1703 29.608L70.6743 24.152H69.8663L68.7143 26.808L67.5143 24.152H66.6503L68.3063 27.576L67.3463 29.608H68.1703ZM74.2618 28V25.616H76.6778V24.88H74.2618V23.056H76.9258V22.328H73.4778V28H74.2618ZM79.1708 27.448C78.5308 27.448 77.9708 26.968 77.9708 26.072C77.9708 25.184 78.5308 24.704 79.1708 24.704C79.8108 24.704 80.3708 25.184 80.3708 26.072C80.3708 26.968 79.8108 27.448 79.1708 27.448ZM79.1708 24.032C78.0188 24.032 77.2028 24.904 77.2028 26.072C77.2028 27.248 78.0188 28.12 79.1708 28.12C80.3228 28.12 81.1388 27.248 81.1388 26.072C81.1388 24.904 80.3228 24.032 79.1708 24.032ZM84.2369 24.112C84.1969 24.104 84.0929 24.088 83.9889 24.088C83.5969 24.088 83.1169 24.232 82.8369 24.824V24.152H82.1009V28H82.8529V26.072C82.8529 25.224 83.2769 24.888 83.9089 24.888C84.0129 24.888 84.1249 24.896 84.2369 24.912V24.112ZM85.7824 28V25.68C85.7824 25.104 86.1424 24.704 86.6784 24.704C87.2544 24.704 87.4944 25.088 87.4944 25.584V28H88.2464V25.672C88.2464 25.12 88.6064 24.704 89.1344 24.704C89.7024 24.704 89.9504 25.08 89.9504 25.584V28H90.6944V25.504C90.6944 24.496 90.0384 24.04 89.3664 24.04C88.8784 24.04 88.3824 24.216 88.0784 24.768C87.8704 24.272 87.4064 24.04 86.9264 24.04C86.4784 24.04 85.9984 24.24 85.7584 24.664V24.152H85.0384V28H85.7824ZM91.5378 27C91.6018 27.44 92.0498 28.12 93.1058 28.12C94.0578 28.12 94.5138 27.472 94.5138 26.928C94.5138 26.36 94.1458 25.936 93.4498 25.784L92.8258 25.648C92.5298 25.584 92.3858 25.416 92.3858 25.184C92.3858 24.92 92.6418 24.672 93.0258 24.672C93.6338 24.672 93.7938 25.112 93.8258 25.312L94.4898 25.064C94.4098 24.72 94.0818 24.032 93.0258 24.032C92.2738 24.032 91.6578 24.592 91.6578 25.248C91.6578 25.792 92.0178 26.2 92.6178 26.328L93.2738 26.472C93.5938 26.544 93.7698 26.728 93.7698 26.968C93.7698 27.24 93.5378 27.48 93.1138 27.48C92.5698 27.48 92.2658 27.16 92.2178 26.76L91.5378 27Z" fill="white"/>
<path d="M20.8806 29.2016C23.1846 29.2016 25.0524 27.3338 25.0524 25.0297C25.0524 22.7257 23.1846 20.8579 20.8806 20.8579C18.5765 20.8579 16.7087 22.7257 16.7087 25.0297C16.7087 27.3338 18.5765 29.2016 20.8806 29.2016Z" fill="white"/>
<path opacity="0.1" d="M20.8806 29.2016C23.1846 29.2016 25.0524 27.3338 25.0524 25.0297C25.0524 22.7257 23.1846 20.8579 20.8806 20.8579C18.5765 20.8579 16.7087 22.7257 16.7087 25.0297C16.7087 27.3338 18.5765 29.2016 20.8806 29.2016Z" fill="#545454"/>
<path opacity="0.05" d="M24.3265 25.6909L24.8563 23.5719C24.459 22.5124 23.7306 21.7177 22.7373 21.188L21.9427 25.2936L19.0952 27.6113L24.3265 25.6909Z" fill="black"/>
<path d="M20.8807 20.8569C20.4834 20.8569 20.1523 20.9232 19.755 20.9894L19.3577 22.38L20.1523 22.5124L20.9469 22.7773L21.6753 23.1084L22.2713 21.0556C21.8078 20.9232 21.3442 20.8569 20.8807 20.8569Z" fill="#F29540"/>
<path d="M19.821 26.3534L19.0264 27.6778L19.1588 26.1548H19.3575L19.6223 26.221L19.821 26.3534Z" fill="#616161"/>
<path d="M19.8214 26.3545L19.6227 26.2221L19.3578 26.1559H19.1592L19.3578 22.3813L20.1525 22.5138L20.9471 22.7787L21.6755 23.1098L19.8214 26.3545Z" fill="url(#paint0_linear)"/>
<path d="M19.755 20.9894L19.3577 22.38L20.1523 22.5124L20.6158 20.8569C20.351 20.8569 20.0199 20.9232 19.755 20.9894Z" fill="#F5AD6B"/>
<path opacity="0.2" d="M22.2737 21.0556C22.0089 20.9894 21.8102 20.9232 21.5453 20.8569L21.0156 22.7111L19.0952 27.6113L19.8898 26.2869L21.744 23.0422L22.2737 21.0556Z" fill="#222222"/>
<path opacity="0.15" d="M19.0264 27.6127L20.1521 22.5138L19.3575 22.3813L19.0264 27.6127Z" fill="white"/>
<path d="M40.0846 23.4397H37.8994L37.5683 24.8303H39.5548L39.3562 25.8898H37.3696L36.9061 28.1413H35.7141L36.9723 22.314H40.2833L40.0846 23.4397Z" fill="white"/>
<path d="M42.0716 23.439C40.6147 23.439 40.085 24.6309 39.8201 25.7566C39.5552 26.8824 39.7539 28.2068 41.3431 28.2068C42.8 28.2068 43.3297 27.081 43.5284 25.8891C43.7933 24.7634 43.6608 23.439 42.0716 23.439ZM42.4689 25.8891C42.2702 26.7499 41.9391 27.2135 41.3431 27.1473C40.7472 27.1473 40.7472 26.4188 40.8796 25.7566C41.0783 24.8958 41.4094 24.4985 42.0053 24.4985C42.6675 24.5647 42.6013 25.2931 42.4689 25.8891Z" fill="white"/>
<path d="M46.3758 24.5647C45.4487 24.6309 45.25 25.2269 45.1838 25.7566L44.654 28.1405H43.5283L44.5216 23.5052H45.0514L45.1176 24.1674C45.3825 23.7038 45.846 23.439 46.6406 23.439L46.3758 24.5647Z" fill="white"/>
<path d="M51.3441 28.1405H50.2184L50.8144 25.2269C50.8806 24.962 51.013 24.4985 50.5495 24.4985C50.1522 24.4985 50.0197 24.8296 49.8873 25.3593L49.2913 28.1405H48.1656L48.7616 25.2269C48.8278 24.962 48.9602 24.4985 48.4967 24.4985C48.0994 24.4985 47.9007 24.8296 47.8345 25.3593L47.2385 28.1405H46.1128L47.1061 23.5052H47.6358L47.7021 24.1012C47.9669 23.7038 48.4305 23.439 48.894 23.439C49.2913 23.439 49.6886 23.6376 49.7549 24.1012C50.086 23.6376 50.4833 23.439 50.9468 23.439C51.9401 23.439 52.1388 24.2998 51.8739 25.4255L51.3441 28.1405Z" fill="white"/>
<path d="M28.4296 26.552C28.231 27.6777 27.8336 28.3399 25.9795 28.2075L26.1781 27.148C26.9728 27.148 27.1714 27.0155 27.3039 26.4858L28.1647 22.314H29.3567L28.4296 26.552Z" fill="white"/>
<path d="M31.4112 23.439C29.9543 23.439 29.4246 24.6309 29.1597 25.7566C28.8948 26.8824 29.0935 28.2068 30.6827 28.2068C32.1396 28.2068 32.6693 27.081 32.868 25.8891C33.1991 24.7634 33.0004 23.439 31.4112 23.439ZM31.8747 25.8891C31.676 26.7499 31.3449 27.2135 30.749 27.1473C30.153 27.1473 30.153 26.4188 30.2854 25.7566C30.4841 24.8958 30.8152 24.4985 31.4112 24.4985C32.0734 24.5647 32.0071 25.2931 31.8747 25.8891Z" fill="white"/>
<path d="M35.9129 24.499H34.9858L34.5223 26.6843C34.3898 27.1478 34.5223 27.214 35.3169 27.214L35.1182 28.2073C33.529 28.2735 33.1979 27.7438 33.3965 26.5518L33.8601 24.499H33.3303L33.4628 23.8368L34.0587 23.4395L34.3236 22.2476H35.4493L35.1845 23.4395H36.1115L35.9129 24.499Z" fill="white"/>
<rect x="52" y="74" width="82" height="85" rx="2" fill="#F3F4F7"/>
<rect x="145" y="74" width="82" height="85" rx="2" fill="#F3F4F7"/>
<rect x="236" y="74" width="83" height="85" rx="2" fill="#F3F4F7"/>
<rect x="163" y="87" width="46" height="59" rx="2" fill="white"/>
<rect x="257" y="87" width="45" height="59" rx="2" fill="white"/>
<circle cx="290" cy="128" r="9" fill="#4978DF"/>
<rect x="166" y="93" width="40" height="12" rx="1" fill="#4978DF"/>
<path d="M56.8 62.18C58.972 62.18 60.268 60.8 60.652 59.36L59.332 58.928C59.044 59.888 58.228 60.8 56.8 60.8C55.348 60.8 53.98 59.744 53.98 57.752C53.98 55.688 55.384 54.668 56.788 54.668C58.216 54.668 59.008 55.496 59.26 56.528L60.616 56.072C60.232 54.584 58.948 53.312 56.788 53.312C54.58 53.312 52.504 54.98 52.504 57.752C52.504 60.524 54.508 62.18 56.8 62.18ZM65.2731 56.12C65.2131 56.108 65.0691 56.084 64.9011 56.084C64.1331 56.084 63.4851 56.456 63.2091 57.092V56.156H61.8531V62H63.2451V59.216C63.2451 58.124 63.7371 57.5 64.8171 57.5C64.9611 57.5 65.1171 57.512 65.2731 57.536V56.12ZM67.3486 58.436C67.3966 57.812 67.9006 57.14 68.7766 57.14C69.7366 57.14 70.1926 57.752 70.2166 58.436H67.3486ZM70.3726 59.96C70.1806 60.536 69.7486 60.98 68.9086 60.98C68.0446 60.98 67.3486 60.344 67.3126 59.456H71.5846C71.5966 59.432 71.6206 59.24 71.6206 59.012C71.6206 57.164 70.5646 55.976 68.7646 55.976C67.2886 55.976 65.9206 57.2 65.9206 59.048C65.9206 61.028 67.3246 62.18 68.9086 62.18C70.3126 62.18 71.2366 61.352 71.5486 60.332L70.3726 59.96ZM72.5908 60.416C72.5908 61.34 73.3468 62.18 74.5708 62.18C75.5188 62.18 76.0948 61.7 76.3708 61.256C76.3708 61.724 76.4188 61.964 76.4308 62H77.7268C77.7148 61.94 77.6548 61.592 77.6548 61.064V58.16C77.6548 56.996 76.9708 55.976 75.1708 55.976C73.7308 55.976 72.8188 56.876 72.7108 57.884L73.9828 58.172C74.0428 57.584 74.4508 57.116 75.1828 57.116C75.9508 57.116 76.2868 57.512 76.2868 58.004C76.2868 58.208 76.1908 58.376 75.8548 58.424L74.3548 58.652C73.3588 58.796 72.5908 59.372 72.5908 60.416ZM74.8348 61.088C74.2828 61.088 73.9828 60.728 73.9828 60.332C73.9828 59.852 74.3308 59.612 74.7628 59.54L76.2868 59.312V59.576C76.2868 60.716 75.6148 61.088 74.8348 61.088ZM81.0781 54.368H79.8181V55.244C79.8181 55.76 79.5421 56.156 78.9181 56.156H78.6181V57.392H79.6981V60.332C79.6981 61.424 80.3701 62.072 81.4501 62.072C81.9541 62.072 82.2181 61.976 82.3021 61.94V60.788C82.2421 60.8 82.0141 60.836 81.8221 60.836C81.3061 60.836 81.0781 60.62 81.0781 60.104V57.392H82.2901V56.156H81.0781V54.368ZM84.6337 58.436C84.6817 57.812 85.1857 57.14 86.0617 57.14C87.0217 57.14 87.4777 57.752 87.5017 58.436H84.6337ZM87.6577 59.96C87.4657 60.536 87.0337 60.98 86.1937 60.98C85.3297 60.98 84.6337 60.344 84.5977 59.456H88.8697C88.8817 59.432 88.9057 59.24 88.9057 59.012C88.9057 57.164 87.8497 55.976 86.0497 55.976C84.5737 55.976 83.2057 57.2 83.2057 59.048C83.2057 61.028 84.6097 62.18 86.1937 62.18C87.5977 62.18 88.5217 61.352 88.8337 60.332L87.6577 59.96ZM92.8525 60.416C92.8525 61.34 93.6085 62.18 94.8325 62.18C95.7805 62.18 96.3565 61.7 96.6325 61.256C96.6325 61.724 96.6805 61.964 96.6925 62H97.9885C97.9765 61.94 97.9165 61.592 97.9165 61.064V58.16C97.9165 56.996 97.2325 55.976 95.4325 55.976C93.9925 55.976 93.0805 56.876 92.9725 57.884L94.2445 58.172C94.3045 57.584 94.7125 57.116 95.4445 57.116C96.2125 57.116 96.5485 57.512 96.5485 58.004C96.5485 58.208 96.4525 58.376 96.1165 58.424L94.6165 58.652C93.6205 58.796 92.8525 59.372 92.8525 60.416ZM95.0965 61.088C94.5445 61.088 94.2445 60.728 94.2445 60.332C94.2445 59.852 94.5925 59.612 95.0245 59.54L96.5485 59.312V59.576C96.5485 60.716 95.8765 61.088 95.0965 61.088ZM104.136 62V58.568H107.592V57.236H104.136V54.848H107.988V53.492H102.696V62H104.136ZM111.425 60.932C110.573 60.932 109.793 60.284 109.793 59.072C109.793 57.86 110.573 57.236 111.425 57.236C112.289 57.236 113.057 57.86 113.057 59.072C113.057 60.296 112.289 60.932 111.425 60.932ZM111.425 55.976C109.685 55.976 108.401 57.284 108.401 59.072C108.401 60.872 109.685 62.18 111.425 62.18C113.177 62.18 114.461 60.872 114.461 59.072C114.461 57.284 113.177 55.976 111.425 55.976ZM119.226 56.12C119.166 56.108 119.022 56.084 118.854 56.084C118.086 56.084 117.438 56.456 117.162 57.092V56.156H115.806V62H117.198V59.216C117.198 58.124 117.69 57.5 118.77 57.5C118.914 57.5 119.07 57.512 119.226 57.536V56.12ZM121.768 62V58.532C121.768 57.788 122.236 57.236 122.98 57.236C123.772 57.236 124.108 57.764 124.108 58.436V62H125.476V58.532C125.476 57.812 125.956 57.236 126.688 57.236C127.468 57.236 127.816 57.752 127.816 58.436V62H129.16V58.208C129.16 56.66 128.152 55.988 127.096 55.988C126.34 55.988 125.656 56.252 125.2 57.02C124.888 56.336 124.216 55.988 123.448 55.988C122.788 55.988 122.056 56.3 121.72 56.9V56.156H120.388V62H121.768Z" fill="#343A4C"/>
<path d="M82.3906 116.737H102.836" stroke="#ACB5C9" stroke-width="2" stroke-linecap="round"/>
<path d="M92.6133 107.975V126.96" stroke="#ACB5C9" stroke-width="2" stroke-linecap="round"/>
<path d="M58.5762 171.113C58.4322 170.402 57.8472 169.484 56.3442 169.484C55.1562 169.484 54.1752 170.366 54.1752 171.437C54.1752 172.391 54.8232 173.03 55.7952 173.228L56.6952 173.417C57.2442 173.534 57.5502 173.867 57.5502 174.281C57.5502 174.776 57.1542 175.163 56.3892 175.163C55.4712 175.163 54.9942 174.551 54.9312 173.885L53.9232 174.173C54.0222 175.091 54.7692 176.135 56.3892 176.135C57.8472 176.135 58.6482 175.19 58.6482 174.2C58.6482 173.3 58.0452 172.589 56.9202 172.364L56.0022 172.175C55.5072 172.067 55.2552 171.761 55.2552 171.356C55.2552 170.87 55.7052 170.438 56.3532 170.438C57.2082 170.438 57.5412 171.023 57.6042 171.419L58.5762 171.113ZM60.9853 170.276H60.0403V170.933C60.0403 171.32 59.8333 171.617 59.3653 171.617H59.1403V172.544H59.9503V174.749C59.9503 175.568 60.4543 176.054 61.2643 176.054C61.6423 176.054 61.8403 175.982 61.9033 175.955V175.091C61.8583 175.1 61.6873 175.127 61.5433 175.127C61.1563 175.127 60.9853 174.965 60.9853 174.578V172.544H61.8943V171.617H60.9853V170.276ZM62.7058 174.812C62.7058 175.505 63.2728 176.135 64.1908 176.135C64.9018 176.135 65.3338 175.775 65.5408 175.442C65.5408 175.793 65.5768 175.973 65.5858 176H66.5578C66.5488 175.955 66.5038 175.694 66.5038 175.298V173.12C66.5038 172.247 65.9908 171.482 64.6408 171.482C63.5608 171.482 62.8768 172.157 62.7958 172.913L63.7498 173.129C63.7948 172.688 64.1008 172.337 64.6498 172.337C65.2258 172.337 65.4778 172.634 65.4778 173.003C65.4778 173.156 65.4058 173.282 65.1538 173.318L64.0288 173.489C63.2818 173.597 62.7058 174.029 62.7058 174.812ZM64.3888 175.316C63.9748 175.316 63.7498 175.046 63.7498 174.749C63.7498 174.389 64.0108 174.209 64.3348 174.155L65.4778 173.984V174.182C65.4778 175.037 64.9738 175.316 64.3888 175.316ZM70.3308 171.59C70.2858 171.581 70.1778 171.563 70.0518 171.563C69.4758 171.563 68.9898 171.842 68.7828 172.319V171.617H67.7658V176H68.8098V173.912C68.8098 173.093 69.1788 172.625 69.9888 172.625C70.0968 172.625 70.2138 172.634 70.3308 172.652V171.59ZM72.7187 170.276H71.7737V170.933C71.7737 171.32 71.5667 171.617 71.0987 171.617H70.8737V172.544H71.6837V174.749C71.6837 175.568 72.1877 176.054 72.9977 176.054C73.3757 176.054 73.5737 175.982 73.6367 175.955V175.091C73.5917 175.1 73.4207 175.127 73.2767 175.127C72.8897 175.127 72.7187 174.965 72.7187 174.578V172.544H73.6277V171.617H72.7187V170.276ZM78.0852 176V173.426H80.6772V172.427H78.0852V170.636H80.9742V169.619H77.0052V176H78.0852ZM84.2175 171.59C84.1725 171.581 84.0645 171.563 83.9385 171.563C83.3625 171.563 82.8765 171.842 82.6695 172.319V171.617H81.6525V176H82.6965V173.912C82.6965 173.093 83.0655 172.625 83.8755 172.625C83.9835 172.625 84.1005 172.634 84.2175 172.652V171.59ZM86.9711 175.199C86.3321 175.199 85.7471 174.713 85.7471 173.804C85.7471 172.895 86.3321 172.427 86.9711 172.427C87.6191 172.427 88.1951 172.895 88.1951 173.804C88.1951 174.722 87.6191 175.199 86.9711 175.199ZM86.9711 171.482C85.6661 171.482 84.7031 172.463 84.7031 173.804C84.7031 175.154 85.6661 176.135 86.9711 176.135C88.2851 176.135 89.2481 175.154 89.2481 173.804C89.2481 172.463 88.2851 171.482 86.9711 171.482ZM91.292 176V173.399C91.292 172.841 91.643 172.427 92.201 172.427C92.795 172.427 93.047 172.823 93.047 173.327V176H94.073V173.399C94.073 172.859 94.433 172.427 94.982 172.427C95.567 172.427 95.828 172.814 95.828 173.327V176H96.836V173.156C96.836 171.995 96.08 171.491 95.288 171.491C94.721 171.491 94.208 171.689 93.866 172.265C93.632 171.752 93.128 171.491 92.552 171.491C92.057 171.491 91.508 171.725 91.256 172.175V171.617H90.257V176H91.292ZM104.631 171.113C104.487 170.402 103.902 169.484 102.399 169.484C101.211 169.484 100.23 170.366 100.23 171.437C100.23 172.391 100.878 173.03 101.85 173.228L102.75 173.417C103.299 173.534 103.605 173.867 103.605 174.281C103.605 174.776 103.209 175.163 102.444 175.163C101.526 175.163 101.049 174.551 100.986 173.885L99.9779 174.173C100.077 175.091 100.824 176.135 102.444 176.135C103.902 176.135 104.703 175.19 104.703 174.2C104.703 173.3 104.1 172.589 102.975 172.364L102.057 172.175C101.562 172.067 101.31 171.761 101.31 171.356C101.31 170.87 101.76 170.438 102.408 170.438C103.263 170.438 103.596 171.023 103.659 171.419L104.631 171.113ZM107.581 172.445C108.247 172.445 108.544 172.877 108.643 173.264L109.579 172.922C109.399 172.22 108.751 171.482 107.572 171.482C106.312 171.482 105.331 172.454 105.331 173.804C105.331 175.136 106.312 176.135 107.599 176.135C108.751 176.135 109.408 175.388 109.615 174.704L108.697 174.371C108.598 174.704 108.283 175.181 107.599 175.181C106.942 175.181 106.375 174.686 106.375 173.804C106.375 172.922 106.942 172.445 107.581 172.445ZM113.107 171.59C113.062 171.581 112.954 171.563 112.828 171.563C112.252 171.563 111.766 171.842 111.559 172.319V171.617H110.542V176H111.586V173.912C111.586 173.093 111.955 172.625 112.765 172.625C112.873 172.625 112.99 172.634 113.107 172.652V171.59ZM113.718 174.812C113.718 175.505 114.285 176.135 115.203 176.135C115.914 176.135 116.346 175.775 116.553 175.442C116.553 175.793 116.589 175.973 116.598 176H117.57C117.561 175.955 117.516 175.694 117.516 175.298V173.12C117.516 172.247 117.003 171.482 115.653 171.482C114.573 171.482 113.889 172.157 113.808 172.913L114.762 173.129C114.807 172.688 115.113 172.337 115.662 172.337C116.238 172.337 116.49 172.634 116.49 173.003C116.49 173.156 116.418 173.282 116.166 173.318L115.041 173.489C114.294 173.597 113.718 174.029 113.718 174.812ZM115.401 175.316C114.987 175.316 114.762 175.046 114.762 174.749C114.762 174.389 115.023 174.209 115.347 174.155L116.49 173.984V174.182C116.49 175.037 115.986 175.316 115.401 175.316ZM120.083 170.276H119.138V170.933C119.138 171.32 118.931 171.617 118.463 171.617H118.238V172.544H119.048V174.749C119.048 175.568 119.552 176.054 120.362 176.054C120.74 176.054 120.938 175.982 121.001 175.955V175.091C120.956 175.1 120.785 175.127 120.641 175.127C120.254 175.127 120.083 174.965 120.083 174.578V172.544H120.992V171.617H120.083V170.276ZM123.929 172.445C124.595 172.445 124.892 172.877 124.991 173.264L125.927 172.922C125.747 172.22 125.099 171.482 123.92 171.482C122.66 171.482 121.679 172.454 121.679 173.804C121.679 175.136 122.66 176.135 123.947 176.135C125.099 176.135 125.756 175.388 125.963 174.704L125.045 174.371C124.946 174.704 124.631 175.181 123.947 175.181C123.29 175.181 122.723 174.686 122.723 173.804C122.723 172.922 123.29 172.445 123.929 172.445ZM127.934 173.426C127.952 172.868 128.267 172.436 128.843 172.436C129.5 172.436 129.743 172.868 129.743 173.408V176H130.787V173.228C130.787 172.265 130.265 171.491 129.185 171.491C128.726 171.491 128.231 171.653 127.934 172.04V169.484H126.89V176H127.934V173.426Z" fill="black"/>
<path d="M65.5972 192H66.4452L64.1892 186.328H63.2852L61.0292 192H61.8692L62.4692 190.416H64.9812L65.5972 192ZM63.7172 187.144L64.7012 189.688H62.7492L63.7172 187.144ZM69.9113 192V191.44C70.1513 191.856 70.5913 192.104 71.1593 192.104C72.3033 192.104 72.9513 191.2 72.9513 190.056C72.9513 188.936 72.3513 188.04 71.1833 188.04C70.5433 188.04 70.0953 188.352 69.9113 188.696V186.208H69.1673V192H69.9113ZM72.1833 190.056C72.1833 190.888 71.7353 191.432 71.0473 191.432C70.3833 191.432 69.9033 190.888 69.9033 190.056C69.9033 189.224 70.3833 188.704 71.0473 188.704C71.7433 188.704 72.1833 189.224 72.1833 190.056ZM74.6615 192V186.208H73.9095V192H74.6615ZM75.7008 190.968C75.7008 191.576 76.2048 192.12 76.9888 192.12C77.6768 192.12 78.0608 191.752 78.2288 191.48C78.2288 191.76 78.2528 191.904 78.2688 192H79.0048C78.9888 191.904 78.9568 191.704 78.9568 191.368V189.44C78.9568 188.688 78.5088 188.032 77.3568 188.032C76.5248 188.032 75.8608 188.544 75.7808 189.28L76.5008 189.448C76.5488 189 76.8448 188.672 77.3728 188.672C77.9568 188.672 78.2048 188.984 78.2048 189.36C78.2048 189.496 78.1408 189.616 77.9088 189.648L76.8688 189.8C76.2048 189.896 75.7008 190.28 75.7008 190.968ZM77.0928 191.488C76.7088 191.488 76.4688 191.216 76.4688 190.928C76.4688 190.584 76.7088 190.4 77.0288 190.352L78.2048 190.176V190.352C78.2048 191.192 77.7088 191.488 77.0928 191.488ZM80.8803 189.776C80.8803 189.192 81.1843 188.72 81.7763 188.72C82.4483 188.72 82.6723 189.152 82.6723 189.688V192H83.4243V189.56C83.4243 188.704 82.9683 188.04 82.0483 188.04C81.6003 188.04 81.1443 188.224 80.8643 188.704V188.152H80.1283V192H80.8803V189.776ZM88.0685 188.152H87.0285L85.3645 189.856V186.208H84.6205V192H85.3645V190.84L85.9005 190.304L87.1565 192H88.1005L86.4285 189.776L88.0685 188.152ZM90.4636 191C90.5276 191.44 90.9756 192.12 92.0316 192.12C92.9836 192.12 93.4396 191.472 93.4396 190.928C93.4396 190.36 93.0716 189.936 92.3756 189.784L91.7516 189.648C91.4556 189.584 91.3116 189.416 91.3116 189.184C91.3116 188.92 91.5676 188.672 91.9516 188.672C92.5596 188.672 92.7196 189.112 92.7516 189.312L93.4156 189.064C93.3356 188.72 93.0076 188.032 91.9516 188.032C91.1996 188.032 90.5836 188.592 90.5836 189.248C90.5836 189.792 90.9436 190.2 91.5436 190.328L92.1996 190.472C92.5196 190.544 92.6956 190.728 92.6956 190.968C92.6956 191.24 92.4636 191.48 92.0396 191.48C91.4956 191.48 91.1916 191.16 91.1436 190.76L90.4636 191ZM95.1928 192V186.208H94.4408V192H95.1928ZM96.232 190.968C96.232 191.576 96.736 192.12 97.52 192.12C98.208 192.12 98.592 191.752 98.76 191.48C98.76 191.76 98.784 191.904 98.8 192H99.536C99.52 191.904 99.488 191.704 99.488 191.368V189.44C99.488 188.688 99.04 188.032 97.888 188.032C97.056 188.032 96.392 188.544 96.312 189.28L97.032 189.448C97.08 189 97.376 188.672 97.904 188.672C98.488 188.672 98.736 188.984 98.736 189.36C98.736 189.496 98.672 189.616 98.44 189.648L97.4 189.8C96.736 189.896 96.232 190.28 96.232 190.968ZM97.624 191.488C97.24 191.488 97 191.216 97 190.928C97 190.584 97.24 190.4 97.56 190.352L98.736 190.176V190.352C98.736 191.192 98.24 191.488 97.624 191.488ZM101.668 186.936H100.98V187.56C100.98 187.896 100.804 188.152 100.388 188.152H100.18V188.832H100.916V190.944C100.916 191.64 101.332 192.04 101.988 192.04C102.244 192.04 102.436 191.992 102.5 191.968V191.328C102.436 191.344 102.3 191.36 102.204 191.36C101.812 191.36 101.668 191.184 101.668 190.832V188.832H102.5V188.152H101.668V186.936ZM103.952 189.68C103.984 189.184 104.368 188.696 105 188.696C105.68 188.696 106.04 189.128 106.056 189.68H103.952ZM106.168 190.68C106.024 191.112 105.712 191.456 105.088 191.456C104.44 191.456 103.944 190.976 103.928 190.288H106.824C106.832 190.24 106.84 190.144 106.84 190.048C106.84 188.848 106.176 188.032 104.992 188.032C104.024 188.032 103.152 188.856 103.152 190.064C103.152 191.368 104.056 192.12 105.088 192.12C105.984 192.12 106.6 191.584 106.816 190.904L106.168 190.68ZM110.544 192V188.152H109.8V192H110.544ZM109.632 186.696C109.632 186.992 109.872 187.232 110.168 187.232C110.472 187.232 110.712 186.992 110.712 186.696C110.712 186.392 110.472 186.152 110.168 186.152C109.872 186.152 109.632 186.392 109.632 186.696ZM111.464 191C111.528 191.44 111.976 192.12 113.032 192.12C113.984 192.12 114.44 191.472 114.44 190.928C114.44 190.36 114.072 189.936 113.376 189.784L112.752 189.648C112.456 189.584 112.312 189.416 112.312 189.184C112.312 188.92 112.568 188.672 112.952 188.672C113.56 188.672 113.72 189.112 113.752 189.312L114.416 189.064C114.336 188.72 114.008 188.032 112.952 188.032C112.2 188.032 111.584 188.592 111.584 189.248C111.584 189.792 111.944 190.2 112.544 190.328L113.2 190.472C113.52 190.544 113.696 190.728 113.696 190.968C113.696 191.24 113.464 191.48 113.04 191.48C112.496 191.48 112.192 191.16 112.144 190.76L111.464 191ZM117.201 190.968C117.201 191.576 117.705 192.12 118.489 192.12C119.177 192.12 119.561 191.752 119.729 191.48C119.729 191.76 119.753 191.904 119.769 192H120.505C120.489 191.904 120.457 191.704 120.457 191.368V189.44C120.457 188.688 120.009 188.032 118.857 188.032C118.025 188.032 117.361 188.544 117.281 189.28L118.001 189.448C118.049 189 118.345 188.672 118.873 188.672C119.457 188.672 119.705 188.984 119.705 189.36C119.705 189.496 119.641 189.616 119.409 189.648L118.369 189.8C117.705 189.896 117.201 190.28 117.201 190.968ZM118.593 191.488C118.209 191.488 117.969 191.216 117.969 190.928C117.969 190.584 118.209 190.4 118.529 190.352L119.705 190.176V190.352C119.705 191.192 119.209 191.488 118.593 191.488ZM122.38 192V186.208H121.628V192H122.38ZM124.412 192V186.208H123.66V192H124.412ZM76.9984 203.608L79.5024 198.152H78.6944L77.5424 200.808L76.3424 198.152H75.4784L77.1344 201.576L76.1744 203.608H76.9984ZM81.7177 201.448C81.0777 201.448 80.5177 200.968 80.5177 200.072C80.5177 199.184 81.0777 198.704 81.7177 198.704C82.3577 198.704 82.9177 199.184 82.9177 200.072C82.9177 200.968 82.3577 201.448 81.7177 201.448ZM81.7177 198.032C80.5657 198.032 79.7497 198.904 79.7497 200.072C79.7497 201.248 80.5657 202.12 81.7177 202.12C82.8697 202.12 83.6857 201.248 83.6857 200.072C83.6857 198.904 82.8697 198.032 81.7177 198.032ZM87.1448 201.536C87.1448 201.696 87.1608 201.912 87.1768 202H87.8968C87.8808 201.864 87.8568 201.592 87.8568 201.288V198.152H87.1048V200.472C87.1048 201.056 86.8008 201.456 86.1928 201.456C85.5608 201.456 85.3208 200.992 85.3208 200.464V198.152H84.5688V200.576C84.5688 201.448 85.1128 202.12 86.0088 202.12C86.4568 202.12 86.9368 201.936 87.1448 201.536ZM91.892 199.776C91.892 199.192 92.196 198.72 92.788 198.72C93.46 198.72 93.684 199.152 93.684 199.688V202H94.436V199.56C94.436 198.704 93.98 198.04 93.06 198.04C92.612 198.04 92.156 198.224 91.876 198.704V198.152H91.14V202H91.892V199.776ZM96.1202 199.68C96.1522 199.184 96.5362 198.696 97.1682 198.696C97.8482 198.696 98.2082 199.128 98.2242 199.68H96.1202ZM98.3362 200.68C98.1922 201.112 97.8802 201.456 97.2562 201.456C96.6082 201.456 96.1122 200.976 96.0962 200.288H98.9922C99.0002 200.24 99.0082 200.144 99.0082 200.048C99.0082 198.848 98.3442 198.032 97.1602 198.032C96.1922 198.032 95.3202 198.856 95.3202 200.064C95.3202 201.368 96.2242 202.12 97.2562 202.12C98.1522 202.12 98.7682 201.584 98.9842 200.904L98.3362 200.68ZM100.456 199.68C100.488 199.184 100.872 198.696 101.504 198.696C102.184 198.696 102.544 199.128 102.56 199.68H100.456ZM102.672 200.68C102.528 201.112 102.216 201.456 101.592 201.456C100.944 201.456 100.448 200.976 100.432 200.288H103.328C103.336 200.24 103.344 200.144 103.344 200.048C103.344 198.848 102.68 198.032 101.496 198.032C100.528 198.032 99.6561 198.856 99.6561 200.064C99.6561 201.368 100.56 202.12 101.592 202.12C102.488 202.12 103.104 201.584 103.32 200.904L102.672 200.68ZM104.752 200.064C104.752 199.272 105.2 198.712 105.888 198.712C106.576 198.712 106.992 199.256 106.992 200.048C106.992 200.84 106.568 201.44 105.88 201.44C105.16 201.44 104.752 200.856 104.752 200.064ZM107 201.48C107 201.712 107.024 201.912 107.04 202H107.768C107.76 201.936 107.728 201.656 107.728 201.288V196.208H106.984V198.696C106.856 198.384 106.488 198.048 105.808 198.048C104.72 198.048 103.984 198.976 103.984 200.064C103.984 201.208 104.68 202.104 105.808 202.104C106.408 202.104 106.816 201.784 107 201.416V201.48ZM108.927 201.488C108.927 201.8 109.167 202.04 109.479 202.04C109.791 202.04 110.039 201.8 110.039 201.488C110.039 201.176 109.791 200.928 109.479 200.928C109.167 200.928 108.927 201.176 108.927 201.488Z" fill="#8D8FA7"/>
<path d="M150.469 192.12C151.773 192.12 152.669 191.36 152.973 190.296L152.277 190.04C152.045 190.816 151.437 191.4 150.469 191.4C149.437 191.4 148.453 190.64 148.453 189.16C148.453 187.68 149.437 186.928 150.469 186.928C151.397 186.928 152.021 187.408 152.237 188.264L152.965 188.008C152.677 186.912 151.765 186.208 150.469 186.208C149.061 186.208 147.653 187.264 147.653 189.16C147.653 191.056 149.005 192.12 150.469 192.12ZM154.607 189.736C154.623 189.168 154.927 188.72 155.503 188.72C156.175 188.72 156.399 189.152 156.399 189.688V192H157.151V189.56C157.151 188.704 156.695 188.04 155.775 188.04C155.335 188.04 154.887 188.192 154.607 188.6V186.208H153.855V192H154.607V189.736ZM159.995 191.448C159.355 191.448 158.795 190.968 158.795 190.072C158.795 189.184 159.355 188.704 159.995 188.704C160.635 188.704 161.195 189.184 161.195 190.072C161.195 190.968 160.635 191.448 159.995 191.448ZM159.995 188.032C158.843 188.032 158.027 188.904 158.027 190.072C158.027 191.248 158.843 192.12 159.995 192.12C161.147 192.12 161.963 191.248 161.963 190.072C161.963 188.904 161.147 188.032 159.995 188.032ZM164.573 191.448C163.933 191.448 163.373 190.968 163.373 190.072C163.373 189.184 163.933 188.704 164.573 188.704C165.213 188.704 165.773 189.184 165.773 190.072C165.773 190.968 165.213 191.448 164.573 191.448ZM164.573 188.032C163.421 188.032 162.605 188.904 162.605 190.072C162.605 191.248 163.421 192.12 164.573 192.12C165.725 192.12 166.541 191.248 166.541 190.072C166.541 188.904 165.725 188.032 164.573 188.032ZM167.143 191C167.207 191.44 167.655 192.12 168.711 192.12C169.663 192.12 170.119 191.472 170.119 190.928C170.119 190.36 169.751 189.936 169.055 189.784L168.431 189.648C168.135 189.584 167.991 189.416 167.991 189.184C167.991 188.92 168.247 188.672 168.631 188.672C169.239 188.672 169.399 189.112 169.431 189.312L170.095 189.064C170.015 188.72 169.687 188.032 168.631 188.032C167.879 188.032 167.263 188.592 167.263 189.248C167.263 189.792 167.623 190.2 168.223 190.328L168.879 190.472C169.199 190.544 169.375 190.728 169.375 190.968C169.375 191.24 169.143 191.48 168.719 191.48C168.175 191.48 167.871 191.16 167.823 190.76L167.143 191ZM171.569 189.68C171.601 189.184 171.985 188.696 172.617 188.696C173.297 188.696 173.657 189.128 173.673 189.68H171.569ZM173.785 190.68C173.641 191.112 173.329 191.456 172.705 191.456C172.057 191.456 171.561 190.976 171.545 190.288H174.441C174.449 190.24 174.457 190.144 174.457 190.048C174.457 188.848 173.793 188.032 172.609 188.032C171.641 188.032 170.769 188.856 170.769 190.064C170.769 191.368 171.673 192.12 172.705 192.12C173.601 192.12 174.217 191.584 174.433 190.904L173.785 190.68ZM179.353 188.832V188.152H178.425V187.544C178.425 187.016 178.769 186.888 179.033 186.888C179.225 186.888 179.321 186.92 179.361 186.936V186.264C179.329 186.24 179.169 186.184 178.913 186.184C178.217 186.184 177.649 186.648 177.649 187.504V188.152H176.937V188.832H177.649V192H178.425V188.832H179.353ZM182.296 188.112C182.256 188.104 182.152 188.088 182.048 188.088C181.656 188.088 181.176 188.232 180.896 188.824V188.152H180.16V192H180.912V190.072C180.912 189.224 181.336 188.888 181.968 188.888C182.072 188.888 182.184 188.896 182.296 188.912V188.112ZM184.706 191.448C184.066 191.448 183.506 190.968 183.506 190.072C183.506 189.184 184.066 188.704 184.706 188.704C185.346 188.704 185.906 189.184 185.906 190.072C185.906 190.968 185.346 191.448 184.706 191.448ZM184.706 188.032C183.554 188.032 182.738 188.904 182.738 190.072C182.738 191.248 183.554 192.12 184.706 192.12C185.858 192.12 186.674 191.248 186.674 190.072C186.674 188.904 185.858 188.032 184.706 188.032ZM188.38 192V189.68C188.38 189.104 188.74 188.704 189.276 188.704C189.852 188.704 190.092 189.088 190.092 189.584V192H190.844V189.672C190.844 189.12 191.204 188.704 191.732 188.704C192.3 188.704 192.548 189.08 192.548 189.584V192H193.292V189.504C193.292 188.496 192.636 188.04 191.964 188.04C191.476 188.04 190.98 188.216 190.676 188.768C190.468 188.272 190.004 188.04 189.524 188.04C189.076 188.04 188.596 188.24 188.356 188.664V188.152H187.636V192H188.38ZM198.079 192V186.816H197.391C197.271 187.376 196.775 187.776 196.055 187.792V188.344H197.311V192H198.079ZM199.891 189.408C199.891 188.616 200.035 188.056 200.347 187.728C200.547 187.52 200.803 187.392 201.171 187.392C201.539 187.392 201.795 187.52 201.995 187.728C202.307 188.056 202.451 188.616 202.451 189.408C202.451 190.2 202.307 190.76 201.995 191.088C201.795 191.296 201.539 191.424 201.171 191.424C200.803 191.424 200.547 191.296 200.347 191.088C200.035 190.76 199.891 190.2 199.891 189.408ZM199.115 189.408C199.115 190.12 199.235 190.776 199.579 191.288C199.915 191.792 200.435 192.12 201.171 192.12C201.907 192.12 202.427 191.792 202.763 191.288C203.107 190.776 203.227 190.12 203.227 189.408C203.227 188.696 203.107 188.04 202.763 187.528C202.427 187.024 201.907 186.696 201.171 186.696C200.435 186.696 199.915 187.024 199.579 187.528C199.235 188.04 199.115 188.696 199.115 189.408ZM203.869 191.488C203.869 191.832 204.109 192.032 204.405 192.032C204.493 192.032 204.557 192.008 204.581 191.992C204.573 192.376 204.309 192.768 203.917 192.856V193.272C204.413 193.208 205.101 192.768 205.101 191.712C205.101 191.208 204.797 190.952 204.453 190.952C204.117 190.952 203.869 191.2 203.869 191.488ZM206.68 189.408C206.68 188.616 206.824 188.056 207.136 187.728C207.336 187.52 207.592 187.392 207.96 187.392C208.328 187.392 208.584 187.52 208.784 187.728C209.096 188.056 209.24 188.616 209.24 189.408C209.24 190.2 209.096 190.76 208.784 191.088C208.584 191.296 208.328 191.424 207.96 191.424C207.592 191.424 207.336 191.296 207.136 191.088C206.824 190.76 206.68 190.2 206.68 189.408ZM205.904 189.408C205.904 190.12 206.024 190.776 206.368 191.288C206.704 191.792 207.224 192.12 207.96 192.12C208.696 192.12 209.216 191.792 209.552 191.288C209.896 190.776 210.016 190.12 210.016 189.408C210.016 188.696 209.896 188.04 209.552 187.528C209.216 187.024 208.696 186.696 207.96 186.696C207.224 186.696 206.704 187.024 206.368 187.528C206.024 188.04 205.904 188.696 205.904 189.408ZM211.555 189.408C211.555 188.616 211.699 188.056 212.011 187.728C212.211 187.52 212.467 187.392 212.835 187.392C213.203 187.392 213.459 187.52 213.659 187.728C213.971 188.056 214.115 188.616 214.115 189.408C214.115 190.2 213.971 190.76 213.659 191.088C213.459 191.296 213.203 191.424 212.835 191.424C212.467 191.424 212.211 191.296 212.011 191.088C211.699 190.76 211.555 190.2 211.555 189.408ZM210.779 189.408C210.779 190.12 210.899 190.776 211.243 191.288C211.579 191.792 212.099 192.12 212.835 192.12C213.571 192.12 214.091 191.792 214.427 191.288C214.771 190.776 214.891 190.12 214.891 189.408C214.891 188.696 214.771 188.04 214.427 187.528C214.091 187.024 213.571 186.696 212.835 186.696C212.099 186.696 211.579 187.024 211.243 187.528C210.899 188.04 210.779 188.696 210.779 189.408ZM216.43 189.408C216.43 188.616 216.574 188.056 216.886 187.728C217.086 187.52 217.342 187.392 217.71 187.392C218.078 187.392 218.334 187.52 218.534 187.728C218.846 188.056 218.99 188.616 218.99 189.408C218.99 190.2 218.846 190.76 218.534 191.088C218.334 191.296 218.078 191.424 217.71 191.424C217.342 191.424 217.086 191.296 216.886 191.088C216.574 190.76 216.43 190.2 216.43 189.408ZM215.654 189.408C215.654 190.12 215.774 190.776 216.118 191.288C216.454 191.792 216.974 192.12 217.71 192.12C218.446 192.12 218.966 191.792 219.302 191.288C219.646 190.776 219.766 190.12 219.766 189.408C219.766 188.696 219.646 188.04 219.302 187.528C218.966 187.024 218.446 186.696 217.71 186.696C216.974 186.696 216.454 187.024 216.118 187.528C215.774 188.04 215.654 188.696 215.654 189.408ZM220.608 189.384V190.016H222.104V191.592H222.76V190.016H224.264V189.384H222.76V187.824H222.104V189.384H220.608ZM158.947 203.52V201.48C159.155 201.824 159.603 202.104 160.195 202.104C161.323 202.104 161.987 201.216 161.987 200.072C161.987 198.952 161.371 198.064 160.219 198.064C159.595 198.064 159.139 198.368 158.931 198.752V198.152H158.203V203.52H158.947ZM161.219 200.072C161.219 200.864 160.779 201.432 160.083 201.432C159.395 201.432 158.939 200.864 158.939 200.072C158.939 199.304 159.395 198.728 160.083 198.728C160.787 198.728 161.219 199.304 161.219 200.072ZM165.081 198.112C165.041 198.104 164.937 198.088 164.833 198.088C164.441 198.088 163.961 198.232 163.681 198.824V198.152H162.945V202H163.697V200.072C163.697 199.224 164.121 198.888 164.753 198.888C164.857 198.888 164.969 198.896 165.081 198.912V198.112ZM166.331 199.68C166.363 199.184 166.747 198.696 167.379 198.696C168.059 198.696 168.419 199.128 168.435 199.68H166.331ZM168.547 200.68C168.403 201.112 168.091 201.456 167.467 201.456C166.819 201.456 166.323 200.976 166.307 200.288H169.203C169.211 200.24 169.219 200.144 169.219 200.048C169.219 198.848 168.555 198.032 167.371 198.032C166.403 198.032 165.531 198.856 165.531 200.064C165.531 201.368 166.435 202.12 167.467 202.12C168.363 202.12 168.979 201.584 169.195 200.904L168.547 200.68ZM170.923 202V199.68C170.923 199.104 171.283 198.704 171.819 198.704C172.395 198.704 172.635 199.088 172.635 199.584V202H173.387V199.672C173.387 199.12 173.747 198.704 174.275 198.704C174.843 198.704 175.091 199.08 175.091 199.584V202H175.835V199.504C175.835 198.496 175.179 198.04 174.507 198.04C174.019 198.04 173.523 198.216 173.219 198.768C173.011 198.272 172.547 198.04 172.067 198.04C171.619 198.04 171.139 198.24 170.899 198.664V198.152H170.179V202H170.923ZM176.798 200.968C176.798 201.576 177.302 202.12 178.086 202.12C178.774 202.12 179.158 201.752 179.326 201.48C179.326 201.76 179.35 201.904 179.366 202H180.102C180.086 201.904 180.054 201.704 180.054 201.368V199.44C180.054 198.688 179.606 198.032 178.454 198.032C177.622 198.032 176.958 198.544 176.878 199.28L177.598 199.448C177.646 199 177.942 198.672 178.47 198.672C179.054 198.672 179.302 198.984 179.302 199.36C179.302 199.496 179.238 199.616 179.006 199.648L177.966 199.8C177.302 199.896 176.798 200.28 176.798 200.968ZM178.19 201.488C177.806 201.488 177.566 201.216 177.566 200.928C177.566 200.584 177.806 200.4 178.126 200.352L179.302 200.176V200.352C179.302 201.192 178.806 201.488 178.19 201.488ZM181.674 200.064C181.674 199.272 182.122 198.712 182.81 198.712C183.498 198.712 183.914 199.256 183.914 200.048C183.914 200.84 183.49 201.44 182.802 201.44C182.082 201.44 181.674 200.856 181.674 200.064ZM183.922 201.48C183.922 201.712 183.946 201.912 183.962 202H184.69C184.682 201.936 184.65 201.656 184.65 201.288V196.208H183.906V198.696C183.778 198.384 183.41 198.048 182.73 198.048C181.642 198.048 180.906 198.976 180.906 200.064C180.906 201.208 181.602 202.104 182.73 202.104C183.33 202.104 183.738 201.784 183.922 201.416V201.48ZM186.417 199.68C186.449 199.184 186.833 198.696 187.465 198.696C188.145 198.696 188.505 199.128 188.521 199.68H186.417ZM188.633 200.68C188.489 201.112 188.177 201.456 187.553 201.456C186.905 201.456 186.409 200.976 186.393 200.288H189.289C189.297 200.24 189.305 200.144 189.305 200.048C189.305 198.848 188.641 198.032 187.457 198.032C186.489 198.032 185.617 198.856 185.617 200.064C185.617 201.368 186.521 202.12 187.553 202.12C188.449 202.12 189.065 201.584 189.281 200.904L188.633 200.68ZM194.201 198.832V198.152H193.273V197.544C193.273 197.016 193.617 196.888 193.881 196.888C194.073 196.888 194.169 196.92 194.209 196.936V196.264C194.177 196.24 194.017 196.184 193.761 196.184C193.065 196.184 192.497 196.648 192.497 197.504V198.152H191.785V198.832H192.497V202H193.273V198.832H194.201ZM196.499 201.448C195.859 201.448 195.299 200.968 195.299 200.072C195.299 199.184 195.859 198.704 196.499 198.704C197.139 198.704 197.699 199.184 197.699 200.072C197.699 200.968 197.139 201.448 196.499 201.448ZM196.499 198.032C195.347 198.032 194.531 198.904 194.531 200.072C194.531 201.248 195.347 202.12 196.499 202.12C197.651 202.12 198.467 201.248 198.467 200.072C198.467 198.904 197.651 198.032 196.499 198.032ZM201.565 198.112C201.525 198.104 201.421 198.088 201.317 198.088C200.925 198.088 200.445 198.232 200.165 198.824V198.152H199.429V202H200.181V200.072C200.181 199.224 200.605 198.888 201.237 198.888C201.341 198.888 201.453 198.896 201.565 198.912V198.112ZM203.111 202V199.68C203.111 199.104 203.471 198.704 204.007 198.704C204.583 198.704 204.823 199.088 204.823 199.584V202H205.575V199.672C205.575 199.12 205.935 198.704 206.463 198.704C207.031 198.704 207.279 199.08 207.279 199.584V202H208.023V199.504C208.023 198.496 207.367 198.04 206.695 198.04C206.207 198.04 205.711 198.216 205.407 198.768C205.199 198.272 204.735 198.04 204.255 198.04C203.807 198.04 203.327 198.24 203.087 198.664V198.152H202.367V202H203.111ZM208.866 201C208.93 201.44 209.378 202.12 210.434 202.12C211.386 202.12 211.842 201.472 211.842 200.928C211.842 200.36 211.474 199.936 210.778 199.784L210.154 199.648C209.858 199.584 209.714 199.416 209.714 199.184C209.714 198.92 209.97 198.672 210.354 198.672C210.962 198.672 211.122 199.112 211.154 199.312L211.818 199.064C211.738 198.72 211.41 198.032 210.354 198.032C209.602 198.032 208.986 198.592 208.986 199.248C208.986 199.792 209.346 200.2 209.946 200.328L210.602 200.472C210.922 200.544 211.098 200.728 211.098 200.968C211.098 201.24 210.866 201.48 210.442 201.48C209.898 201.48 209.594 201.16 209.546 200.76L208.866 201ZM212.763 201.488C212.763 201.8 213.003 202.04 213.315 202.04C213.627 202.04 213.875 201.8 213.875 201.488C213.875 201.176 213.627 200.928 213.315 200.928C213.003 200.928 212.763 201.176 212.763 201.488Z" fill="#8D8FA7"/>
<path d="M248.344 192.12C249.648 192.12 250.544 191.36 250.848 190.296L250.152 190.04C249.92 190.816 249.312 191.4 248.344 191.4C247.312 191.4 246.328 190.64 246.328 189.16C246.328 187.68 247.312 186.928 248.344 186.928C249.272 186.928 249.896 187.408 250.112 188.264L250.84 188.008C250.552 186.912 249.64 186.208 248.344 186.208C246.936 186.208 245.528 187.264 245.528 189.16C245.528 191.056 246.88 192.12 248.344 192.12ZM253.3 191.448C252.66 191.448 252.1 190.968 252.1 190.072C252.1 189.184 252.66 188.704 253.3 188.704C253.94 188.704 254.5 189.184 254.5 190.072C254.5 190.968 253.94 191.448 253.3 191.448ZM253.3 188.032C252.148 188.032 251.332 188.904 251.332 190.072C251.332 191.248 252.148 192.12 253.3 192.12C254.452 192.12 255.268 191.248 255.268 190.072C255.268 188.904 254.452 188.032 253.3 188.032ZM256.982 189.776C256.982 189.192 257.286 188.72 257.878 188.72C258.55 188.72 258.774 189.152 258.774 189.688V192H259.526V189.56C259.526 188.704 259.07 188.04 258.15 188.04C257.702 188.04 257.246 188.224 256.966 188.704V188.152H256.23V192H256.982V189.776ZM264.018 188.152H263.21L262.106 191.12L261.01 188.152H260.162L261.722 192H262.482L264.018 188.152ZM265.108 189.68C265.14 189.184 265.524 188.696 266.156 188.696C266.836 188.696 267.196 189.128 267.212 189.68H265.108ZM267.324 190.68C267.18 191.112 266.868 191.456 266.244 191.456C265.596 191.456 265.1 190.976 265.084 190.288H267.98C267.988 190.24 267.996 190.144 267.996 190.048C267.996 188.848 267.332 188.032 266.148 188.032C265.18 188.032 264.308 188.856 264.308 190.064C264.308 191.368 265.212 192.12 266.244 192.12C267.14 192.12 267.756 191.584 267.972 190.904L267.324 190.68ZM271.092 188.112C271.052 188.104 270.948 188.088 270.844 188.088C270.452 188.088 269.972 188.232 269.692 188.824V188.152H268.956V192H269.708V190.072C269.708 189.224 270.132 188.888 270.764 188.888C270.868 188.888 270.98 188.896 271.092 188.912V188.112ZM273.105 186.936H272.417V187.56C272.417 187.896 272.241 188.152 271.825 188.152H271.617V188.832H272.353V190.944C272.353 191.64 272.769 192.04 273.425 192.04C273.681 192.04 273.873 191.992 273.937 191.968V191.328C273.873 191.344 273.737 191.36 273.641 191.36C273.249 191.36 273.105 191.184 273.105 190.832V188.832H273.937V188.152H273.105V186.936ZM276.701 190.968C276.701 191.576 277.205 192.12 277.989 192.12C278.677 192.12 279.061 191.752 279.229 191.48C279.229 191.76 279.253 191.904 279.269 192H280.005C279.989 191.904 279.957 191.704 279.957 191.368V189.44C279.957 188.688 279.509 188.032 278.357 188.032C277.525 188.032 276.861 188.544 276.781 189.28L277.501 189.448C277.549 189 277.845 188.672 278.373 188.672C278.957 188.672 279.205 188.984 279.205 189.36C279.205 189.496 279.141 189.616 278.909 189.648L277.869 189.8C277.205 189.896 276.701 190.28 276.701 190.968ZM278.093 191.488C277.709 191.488 277.469 191.216 277.469 190.928C277.469 190.584 277.709 190.4 278.029 190.352L279.205 190.176V190.352C279.205 191.192 278.709 191.488 278.093 191.488ZM281.88 189.776C281.88 189.192 282.184 188.72 282.776 188.72C283.448 188.72 283.672 189.152 283.672 189.688V192H284.424V189.56C284.424 188.704 283.968 188.04 283.048 188.04C282.6 188.04 282.144 188.224 281.864 188.704V188.152H281.128V192H281.88V189.776ZM288.108 189.68C288.14 189.184 288.524 188.696 289.156 188.696C289.836 188.696 290.196 189.128 290.212 189.68H288.108ZM290.324 190.68C290.18 191.112 289.868 191.456 289.244 191.456C288.596 191.456 288.1 190.976 288.084 190.288H290.98C290.988 190.24 290.996 190.144 290.996 190.048C290.996 188.848 290.332 188.032 289.148 188.032C288.18 188.032 287.308 188.856 287.308 190.064C287.308 191.368 288.212 192.12 289.244 192.12C290.14 192.12 290.756 191.584 290.972 190.904L290.324 190.68ZM291.357 192H292.253L293.229 190.584L294.221 192H295.125C294.893 191.688 293.941 190.352 293.709 190.04L295.077 188.152H294.189L293.261 189.504L292.317 188.152H291.405L292.789 190.04L291.357 192ZM296.591 192V188.152H295.847V192H296.591ZM295.679 186.696C295.679 186.992 295.919 187.232 296.215 187.232C296.519 187.232 296.759 186.992 296.759 186.696C296.759 186.392 296.519 186.152 296.215 186.152C295.919 186.152 295.679 186.392 295.679 186.696ZM297.51 191C297.574 191.44 298.022 192.12 299.078 192.12C300.03 192.12 300.486 191.472 300.486 190.928C300.486 190.36 300.118 189.936 299.422 189.784L298.798 189.648C298.502 189.584 298.358 189.416 298.358 189.184C298.358 188.92 298.614 188.672 298.998 188.672C299.606 188.672 299.766 189.112 299.798 189.312L300.462 189.064C300.382 188.72 300.054 188.032 298.998 188.032C298.246 188.032 297.63 188.592 297.63 189.248C297.63 189.792 297.99 190.2 298.59 190.328L299.246 190.472C299.566 190.544 299.742 190.728 299.742 190.968C299.742 191.24 299.51 191.48 299.086 191.48C298.542 191.48 298.238 191.16 298.19 190.76L297.51 191ZM302.496 186.936H301.808V187.56C301.808 187.896 301.632 188.152 301.216 188.152H301.008V188.832H301.744V190.944C301.744 191.64 302.16 192.04 302.816 192.04C303.072 192.04 303.264 191.992 303.328 191.968V191.328C303.264 191.344 303.128 191.36 303.032 191.36C302.64 191.36 302.496 191.184 302.496 190.832V188.832H303.328V188.152H302.496V186.936ZM305.075 192V188.152H304.331V192H305.075ZM304.163 186.696C304.163 186.992 304.403 187.232 304.699 187.232C305.003 187.232 305.243 186.992 305.243 186.696C305.243 186.392 305.003 186.152 304.699 186.152C304.403 186.152 304.163 186.392 304.163 186.696ZM307.107 189.776C307.107 189.192 307.411 188.72 308.003 188.72C308.675 188.72 308.899 189.152 308.899 189.688V192H309.651V189.56C309.651 188.704 309.195 188.04 308.275 188.04C307.827 188.04 307.371 188.224 307.091 188.704V188.152H306.355V192H307.107V189.776ZM310.567 192.208C310.663 193.032 311.383 193.64 312.343 193.64C313.791 193.64 314.271 192.688 314.271 191.712V188.152H313.527V188.688C313.335 188.304 312.935 188.08 312.343 188.08C311.287 188.08 310.575 188.912 310.575 189.952C310.575 191.04 311.319 191.816 312.343 191.816C312.919 191.816 313.335 191.536 313.519 191.184V191.736C313.519 192.568 313.151 192.984 312.343 192.984C311.759 192.984 311.351 192.576 311.295 192.04L310.567 192.208ZM312.455 191.184C311.775 191.184 311.343 190.704 311.343 189.952C311.343 189.208 311.791 188.72 312.455 188.72C313.103 188.72 313.551 189.208 313.551 189.952C313.551 190.696 313.103 191.184 312.455 191.184ZM252.967 198.832V198.152H252.039V197.544C252.039 197.016 252.383 196.888 252.647 196.888C252.839 196.888 252.935 196.92 252.975 196.936V196.264C252.943 196.24 252.783 196.184 252.527 196.184C251.831 196.184 251.263 196.648 251.263 197.504V198.152H250.551V198.832H251.263V202H252.039V198.832H252.967ZM255.265 201.448C254.625 201.448 254.065 200.968 254.065 200.072C254.065 199.184 254.625 198.704 255.265 198.704C255.905 198.704 256.465 199.184 256.465 200.072C256.465 200.968 255.905 201.448 255.265 201.448ZM255.265 198.032C254.113 198.032 253.297 198.904 253.297 200.072C253.297 201.248 254.113 202.12 255.265 202.12C256.417 202.12 257.233 201.248 257.233 200.072C257.233 198.904 256.417 198.032 255.265 198.032ZM260.331 198.112C260.291 198.104 260.187 198.088 260.083 198.088C259.691 198.088 259.211 198.232 258.931 198.824V198.152H258.195V202H258.947V200.072C258.947 199.224 259.371 198.888 260.003 198.888C260.107 198.888 260.219 198.896 260.331 198.912V198.112ZM261.876 202V199.68C261.876 199.104 262.236 198.704 262.772 198.704C263.348 198.704 263.588 199.088 263.588 199.584V202H264.34V199.672C264.34 199.12 264.7 198.704 265.228 198.704C265.796 198.704 266.044 199.08 266.044 199.584V202H266.788V199.504C266.788 198.496 266.132 198.04 265.46 198.04C264.972 198.04 264.476 198.216 264.172 198.768C263.964 198.272 263.5 198.04 263.02 198.04C262.572 198.04 262.092 198.24 261.852 198.664V198.152H261.132V202H261.876ZM270.736 202V198.152H269.992V202H270.736ZM269.824 196.696C269.824 196.992 270.064 197.232 270.36 197.232C270.664 197.232 270.904 196.992 270.904 196.696C270.904 196.392 270.664 196.152 270.36 196.152C270.064 196.152 269.824 196.392 269.824 196.696ZM272.767 199.776C272.767 199.192 273.071 198.72 273.663 198.72C274.335 198.72 274.559 199.152 274.559 199.688V202H275.311V199.56C275.311 198.704 274.855 198.04 273.935 198.04C273.487 198.04 273.031 198.224 272.751 198.704V198.152H272.015V202H272.767V199.776ZM278.147 201C278.211 201.44 278.659 202.12 279.715 202.12C280.667 202.12 281.123 201.472 281.123 200.928C281.123 200.36 280.755 199.936 280.059 199.784L279.435 199.648C279.139 199.584 278.995 199.416 278.995 199.184C278.995 198.92 279.251 198.672 279.635 198.672C280.243 198.672 280.403 199.112 280.435 199.312L281.099 199.064C281.019 198.72 280.691 198.032 279.635 198.032C278.883 198.032 278.267 198.592 278.267 199.248C278.267 199.792 278.627 200.2 279.227 200.328L279.883 200.472C280.203 200.544 280.379 200.728 280.379 200.968C280.379 201.24 280.147 201.48 279.723 201.48C279.179 201.48 278.875 201.16 278.827 200.76L278.147 201ZM282.573 199.68C282.605 199.184 282.989 198.696 283.621 198.696C284.301 198.696 284.661 199.128 284.677 199.68H282.573ZM284.789 200.68C284.645 201.112 284.333 201.456 283.709 201.456C283.061 201.456 282.565 200.976 282.549 200.288H285.445C285.453 200.24 285.461 200.144 285.461 200.048C285.461 198.848 284.797 198.032 283.613 198.032C282.645 198.032 281.773 198.856 281.773 200.064C281.773 201.368 282.677 202.12 283.709 202.12C284.605 202.12 285.221 201.584 285.437 200.904L284.789 200.68ZM288.037 198.728C288.693 198.728 288.973 199.168 289.069 199.544L289.749 199.256C289.589 198.672 289.061 198.032 288.037 198.032C286.941 198.032 286.101 198.872 286.101 200.072C286.101 201.24 286.925 202.12 288.045 202.12C289.045 202.12 289.597 201.472 289.781 200.92L289.117 200.632C289.029 200.936 288.765 201.424 288.045 201.424C287.421 201.424 286.869 200.952 286.869 200.072C286.869 199.176 287.429 198.728 288.037 198.728ZM292.272 201.448C291.632 201.448 291.072 200.968 291.072 200.072C291.072 199.184 291.632 198.704 292.272 198.704C292.912 198.704 293.472 199.184 293.472 200.072C293.472 200.968 292.912 201.448 292.272 201.448ZM292.272 198.032C291.12 198.032 290.304 198.904 290.304 200.072C290.304 201.248 291.12 202.12 292.272 202.12C293.424 202.12 294.24 201.248 294.24 200.072C294.24 198.904 293.424 198.032 292.272 198.032ZM295.955 199.776C295.955 199.192 296.259 198.72 296.851 198.72C297.523 198.72 297.747 199.152 297.747 199.688V202H298.499V199.56C298.499 198.704 298.043 198.04 297.123 198.04C296.674 198.04 296.219 198.224 295.939 198.704V198.152H295.203V202H295.955V199.776ZM300.143 200.064C300.143 199.272 300.591 198.712 301.279 198.712C301.967 198.712 302.383 199.256 302.383 200.048C302.383 200.84 301.959 201.44 301.271 201.44C300.551 201.44 300.143 200.856 300.143 200.064ZM302.391 201.48C302.391 201.712 302.415 201.912 302.431 202H303.159C303.151 201.936 303.119 201.656 303.119 201.288V196.208H302.375V198.696C302.247 198.384 301.879 198.048 301.199 198.048C300.111 198.048 299.375 198.976 299.375 200.064C299.375 201.208 300.071 202.104 301.199 202.104C301.799 202.104 302.207 201.784 302.391 201.416V201.48ZM304.038 201C304.102 201.44 304.55 202.12 305.606 202.12C306.558 202.12 307.014 201.472 307.014 200.928C307.014 200.36 306.646 199.936 305.95 199.784L305.326 199.648C305.03 199.584 304.886 199.416 304.886 199.184C304.886 198.92 305.142 198.672 305.526 198.672C306.134 198.672 306.294 199.112 306.326 199.312L306.99 199.064C306.91 198.72 306.582 198.032 305.526 198.032C304.774 198.032 304.158 198.592 304.158 199.248C304.158 199.792 304.518 200.2 305.118 200.328L305.774 200.472C306.094 200.544 306.27 200.728 306.27 200.968C306.27 201.24 306.038 201.48 305.614 201.48C305.07 201.48 304.766 201.16 304.718 200.76L304.038 201ZM307.935 201.488C307.935 201.8 308.175 202.04 308.487 202.04C308.799 202.04 309.047 201.8 309.047 201.488C309.047 201.176 308.799 200.928 308.487 200.928C308.175 200.928 307.935 201.176 307.935 201.488Z" fill="#8D8FA7"/>
<path d="M159.296 176.135C160.637 176.135 161.681 175.316 161.681 173.777V169.619H160.601V173.714C160.601 174.614 160.115 175.109 159.296 175.109C158.486 175.109 157.991 174.614 157.991 173.714V169.619H156.92V173.777C156.92 175.316 157.964 176.135 159.296 176.135ZM162.641 174.812C162.695 175.307 163.181 176.135 164.45 176.135C165.566 176.135 166.106 175.397 166.106 174.731C166.106 174.083 165.674 173.579 164.846 173.399L164.18 173.264C163.91 173.21 163.739 173.039 163.739 172.805C163.739 172.535 164 172.301 164.369 172.301C164.954 172.301 165.143 172.706 165.179 172.958L166.061 172.706C165.989 172.274 165.593 171.482 164.369 171.482C163.46 171.482 162.758 172.13 162.758 172.895C162.758 173.498 163.163 174.002 163.937 174.173L164.585 174.317C164.936 174.389 165.098 174.569 165.098 174.803C165.098 175.073 164.873 175.307 164.441 175.307C163.883 175.307 163.586 174.956 163.55 174.56L162.641 174.812ZM167.843 173.327C167.879 172.859 168.257 172.355 168.914 172.355C169.634 172.355 169.976 172.814 169.994 173.327H167.843ZM170.111 174.47C169.967 174.902 169.643 175.235 169.013 175.235C168.365 175.235 167.843 174.758 167.816 174.092H171.02C171.029 174.074 171.047 173.93 171.047 173.759C171.047 172.373 170.255 171.482 168.905 171.482C167.798 171.482 166.772 172.4 166.772 173.786C166.772 175.271 167.825 176.135 169.013 176.135C170.066 176.135 170.759 175.514 170.993 174.749L170.111 174.47ZM178.949 170.636V169.619H173.72V170.636H175.79V176H176.87V170.636H178.949ZM179.621 173.327C179.657 172.859 180.035 172.355 180.692 172.355C181.412 172.355 181.754 172.814 181.772 173.327H179.621ZM181.889 174.47C181.745 174.902 181.421 175.235 180.791 175.235C180.143 175.235 179.621 174.758 179.594 174.092H182.798C182.807 174.074 182.825 173.93 182.825 173.759C182.825 172.373 182.033 171.482 180.683 171.482C179.576 171.482 178.55 172.4 178.55 173.786C178.55 175.271 179.603 176.135 180.791 176.135C181.844 176.135 182.537 175.514 182.771 174.749L181.889 174.47ZM184.857 176V173.399C184.857 172.841 185.208 172.427 185.766 172.427C186.36 172.427 186.612 172.823 186.612 173.327V176H187.638V173.399C187.638 172.859 187.998 172.427 188.547 172.427C189.132 172.427 189.393 172.814 189.393 173.327V176H190.401V173.156C190.401 171.995 189.645 171.491 188.853 171.491C188.286 171.491 187.773 171.689 187.431 172.265C187.197 171.752 186.693 171.491 186.117 171.491C185.622 171.491 185.073 171.725 184.821 172.175V171.617H183.822V176H184.857ZM192.715 177.71V175.505C192.94 175.838 193.417 176.108 194.047 176.108C195.307 176.108 196.108 175.118 196.108 173.804C196.108 172.508 195.379 171.518 194.083 171.518C193.408 171.518 192.904 171.833 192.688 172.211V171.617H191.68V177.71H192.715ZM195.064 173.804C195.064 174.641 194.578 175.181 193.885 175.181C193.201 175.181 192.706 174.641 192.706 173.804C192.706 172.985 193.201 172.445 193.885 172.445C194.587 172.445 195.064 172.985 195.064 173.804ZM198.156 176V169.484H197.112V176H198.156ZM199.215 174.812C199.215 175.505 199.782 176.135 200.7 176.135C201.411 176.135 201.843 175.775 202.05 175.442C202.05 175.793 202.086 175.973 202.095 176H203.067C203.058 175.955 203.013 175.694 203.013 175.298V173.12C203.013 172.247 202.5 171.482 201.15 171.482C200.07 171.482 199.386 172.157 199.305 172.913L200.259 173.129C200.304 172.688 200.61 172.337 201.159 172.337C201.735 172.337 201.987 172.634 201.987 173.003C201.987 173.156 201.915 173.282 201.663 173.318L200.538 173.489C199.791 173.597 199.215 174.029 199.215 174.812ZM200.898 175.316C200.484 175.316 200.259 175.046 200.259 174.749C200.259 174.389 200.52 174.209 200.844 174.155L201.987 173.984V174.182C201.987 175.037 201.483 175.316 200.898 175.316ZM205.58 170.276H204.635V170.933C204.635 171.32 204.428 171.617 203.96 171.617H203.735V172.544H204.545V174.749C204.545 175.568 205.049 176.054 205.859 176.054C206.237 176.054 206.435 175.982 206.498 175.955V175.091C206.453 175.1 206.282 175.127 206.138 175.127C205.751 175.127 205.58 174.965 205.58 174.578V172.544H206.489V171.617H205.58V170.276ZM208.247 173.327C208.283 172.859 208.661 172.355 209.318 172.355C210.038 172.355 210.38 172.814 210.398 173.327H208.247ZM210.515 174.47C210.371 174.902 210.047 175.235 209.417 175.235C208.769 175.235 208.247 174.758 208.22 174.092H211.424C211.433 174.074 211.451 173.93 211.451 173.759C211.451 172.373 210.659 171.482 209.309 171.482C208.202 171.482 207.176 172.4 207.176 173.786C207.176 175.271 208.229 176.135 209.417 176.135C210.47 176.135 211.163 175.514 211.397 174.749L210.515 174.47Z" fill="black"/>
<path d="M253.615 176V169.619H252.517V176H253.615ZM256.09 176V173.399C256.09 172.841 256.441 172.427 256.999 172.427C257.593 172.427 257.845 172.823 257.845 173.327V176H258.871V173.399C258.871 172.859 259.231 172.427 259.78 172.427C260.365 172.427 260.626 172.814 260.626 173.327V176H261.634V173.156C261.634 171.995 260.878 171.491 260.086 171.491C259.519 171.491 259.006 171.689 258.664 172.265C258.43 171.752 257.926 171.491 257.35 171.491C256.855 171.491 256.306 171.725 256.054 172.175V171.617H255.055V176H256.09ZM263.948 177.71V175.505C264.173 175.838 264.65 176.108 265.28 176.108C266.54 176.108 267.341 175.118 267.341 173.804C267.341 172.508 266.612 171.518 265.316 171.518C264.641 171.518 264.137 171.833 263.921 172.211V171.617H262.913V177.71H263.948ZM266.297 173.804C266.297 174.641 265.811 175.181 265.118 175.181C264.434 175.181 263.939 174.641 263.939 173.804C263.939 172.985 264.434 172.445 265.118 172.445C265.82 172.445 266.297 172.985 266.297 173.804ZM270.27 175.199C269.631 175.199 269.046 174.713 269.046 173.804C269.046 172.895 269.631 172.427 270.27 172.427C270.918 172.427 271.494 172.895 271.494 173.804C271.494 174.722 270.918 175.199 270.27 175.199ZM270.27 171.482C268.965 171.482 268.002 172.463 268.002 173.804C268.002 175.154 268.965 176.135 270.27 176.135C271.584 176.135 272.547 175.154 272.547 173.804C272.547 172.463 271.584 171.482 270.27 171.482ZM276.121 171.59C276.076 171.581 275.968 171.563 275.842 171.563C275.266 171.563 274.78 171.842 274.573 172.319V171.617H273.556V176H274.6V173.912C274.6 173.093 274.969 172.625 275.779 172.625C275.887 172.625 276.004 172.634 276.121 172.652V171.59ZM278.509 170.276H277.564V170.933C277.564 171.32 277.357 171.617 276.889 171.617H276.664V172.544H277.474V174.749C277.474 175.568 277.978 176.054 278.788 176.054C279.166 176.054 279.364 175.982 279.427 175.955V175.091C279.382 175.1 279.211 175.127 279.067 175.127C278.68 175.127 278.509 174.965 278.509 174.578V172.544H279.418V171.617H278.509V170.276ZM283.876 176V173.426H286.468V172.427H283.876V170.636H286.765V169.619H282.796V176H283.876ZM289.343 175.199C288.704 175.199 288.119 174.713 288.119 173.804C288.119 172.895 288.704 172.427 289.343 172.427C289.991 172.427 290.567 172.895 290.567 173.804C290.567 174.722 289.991 175.199 289.343 175.199ZM289.343 171.482C288.038 171.482 287.075 172.463 287.075 173.804C287.075 175.154 288.038 176.135 289.343 176.135C290.657 176.135 291.62 175.154 291.62 173.804C291.62 172.463 290.657 171.482 289.343 171.482ZM295.194 171.59C295.149 171.581 295.041 171.563 294.915 171.563C294.339 171.563 293.853 171.842 293.646 172.319V171.617H292.629V176H293.673V173.912C293.673 173.093 294.042 172.625 294.852 172.625C294.96 172.625 295.077 172.634 295.194 172.652V171.59ZM297.1 176V173.399C297.1 172.841 297.451 172.427 298.009 172.427C298.603 172.427 298.855 172.823 298.855 173.327V176H299.881V173.399C299.881 172.859 300.241 172.427 300.79 172.427C301.375 172.427 301.636 172.814 301.636 173.327V176H302.644V173.156C302.644 171.995 301.888 171.491 301.096 171.491C300.529 171.491 300.016 171.689 299.674 172.265C299.44 171.752 298.936 171.491 298.36 171.491C297.865 171.491 297.316 171.725 297.064 172.175V171.617H296.065V176H297.1Z" fill="black"/>
<circle cx="174" cy="99" r="4" fill="#FDCF56"/>
<path d="M195.5 97L191 101.8L194 105H203L195.5 97Z" fill="#37BB73"/>
<rect x="166" y="108" width="21" height="3" rx="0.5" fill="#C6CDD9"/>
<rect x="166" y="115" width="40" height="3" rx="0.5" fill="#A7B1BF"/>
<rect x="259" y="107" width="40" height="3" rx="0.5" fill="#C6CDD9"/>
<rect x="259" y="113" width="40" height="3" rx="0.5" fill="#A7B1BF"/>
<rect x="166" y="123" width="21" height="3" rx="0.5" fill="#C6CDD9"/>
<rect x="259" y="121" width="18" height="3" rx="0.5" fill="#C6CDD9"/>
<rect x="259" y="128" width="18" height="3" rx="0.5" fill="#A7B1BF"/>
<rect x="166" y="130" width="40" height="3" rx="0.5" fill="#A7B1BF"/>
<rect x="259" y="93" width="40" height="8" rx="1" fill="#8DA6DD"/>
<path d="M286 129.471L289.857 132.874M294 129.471L290.143 132.874C290.061 132.946 289.939 132.946 289.857 132.874V132.874M290 123L289.857 132.874" stroke="white" stroke-width="2" stroke-linecap="round"/>
<path d="M187.333 97L180 105H194L187.333 97Z" fill="#40DA89"/>
<defs>
<filter id="filter0_d" x="0" y="0" width="373" height="245" filterUnits="userSpaceOnUse" color-interpolation-filters="sRGB">
<feFlood flood-opacity="0" result="BackgroundImageFix"/>
<feColorMatrix in="SourceAlpha" type="matrix" values="0 0 0 0 0 0 0 0 0 0 0 0 0 0 0 0 0 0 127 0" result="hardAlpha"/>
<feOffset dy="4"/>
<feGaussianBlur stdDeviation="2"/>
<feComposite in2="hardAlpha" operator="out"/>
<feColorMatrix type="matrix" values="0 0 0 0 0 0 0 0 0 0 0 0 0 0 0 0 0 0 0.25 0"/>
<feBlend mode="normal" in2="BackgroundImageFix" result="effect1_dropShadow"/>
<feBlend mode="normal" in="SourceGraphic" in2="effect1_dropShadow" result="shape"/>
</filter>
<linearGradient id="paint0_linear" x1="19.2271" y1="24.2919" x2="21.5883" y2="24.5711" gradientUnits="userSpaceOnUse">
<stop stop-color="#F1D4C3"/>
<stop offset="1" stop-color="#C29380"/>
</linearGradient>
</defs>
</svg>
